<?xml version="1.0" encoding="utf-8"?>
<!-- Generator: Adobe Illustrator 22.1.0, SVG Export Plug-In . SVG Version: 6.00 Build 0)  -->
<svg version="1.1" id="Livello_1" xmlns="http://www.w3.org/2000/svg" xmlns:xlink="http://www.w3.org/1999/xlink" x="0px" y="0px"
	 viewBox="0 0 88 86" style="enable-background:new 0 0 88 86;" xml:space="preserve">
<style type="text/css">
	.st0{fill:#FD6400;}
	.st1{fill:#000099;}
	.st2{fill:#FFFFFF;}
</style>
<g>
	<g>
		<path class="st0" d="M78.1,44c0,18.3-14.8,33.1-33.1,33.1c-18.3,0-33.1-14.8-33.1-33.1c0-18.3,14.8-33.1,33.1-33.1
			C63.2,10.8,78.1,25.7,78.1,44z"/>
	</g>
</g>
<g>
	<g>
		<g>
			<path class="st1" d="M40.6,78.7c0-0.5,0.4-0.8,0.8-0.9l0,0c0.5,0,0.9,0.4,0.9,0.8l0,0c0,0.5-0.4,0.9-0.8,0.9l0,0c0,0,0,0,0,0l0,0
				C41,79.5,40.6,79.2,40.6,78.7z M38,79.5c-0.5,0-0.8-0.4-0.8-0.9l0,0c0-0.5,0.4-0.8,0.9-0.8l0,0c0.5,0,0.8,0.4,0.8,0.9l0,0
				C38.9,79.1,38.5,79.5,38,79.5L38,79.5C38.1,79.5,38.1,79.5,38,79.5z M44,78.6c0-0.5,0.3-0.9,0.8-0.9l0,0c0.5,0,0.9,0.3,0.9,0.8
				l0,0c0,0.5-0.3,0.9-0.8,0.9l0,0c0,0,0,0-0.1,0l0,0C44.4,79.4,44,79,44,78.6z M34.6,79.2L34.6,79.2c-0.5-0.1-0.8-0.5-0.7-0.9l0,0
				c0-0.5,0.5-0.8,0.9-0.7l0,0c0.5,0.1,0.8,0.5,0.7,0.9l0,0c0,0.4-0.4,0.7-0.8,0.7l0,0C34.7,79.2,34.7,79.2,34.6,79.2z M47.3,78.3
				c0-0.5,0.3-0.9,0.7-0.9l0,0l0,0l0,0c0.5,0,0.9,0.3,0.9,0.7l0,0c0.1,0.5-0.3,0.9-0.7,0.9l0,0c0,0-0.1,0-0.1,0l0,0
				C47.8,79,47.4,78.7,47.3,78.3z M31.2,78.7c-0.4-0.1-0.8-0.5-0.7-1l0,0c0.1-0.5,0.5-0.8,1-0.7l0,0c0.5,0.1,0.8,0.5,0.7,1l0,0
				c-0.1,0.4-0.4,0.7-0.8,0.7l0,0C31.3,78.7,31.3,78.7,31.2,78.7z M50.7,77.9c-0.1-0.5,0.3-0.9,0.7-1l0,0c0.5-0.1,0.9,0.3,1,0.7l0,0
				c0.1,0.5-0.3,0.9-0.7,1l0,0c0,0-0.1,0-0.1,0l0,0C51.1,78.6,50.7,78.3,50.7,77.9z M54,77.4c-0.1-0.5,0.2-0.9,0.7-1l0,0
				c0.5-0.1,0.9,0.2,1,0.7l0,0c0.1,0.5-0.2,0.9-0.7,1l0,0c-0.1,0-0.1,0-0.2,0l0,0C54.4,78.1,54.1,77.8,54,77.4z M27.9,77.8
				c-0.4-0.1-0.7-0.6-0.6-1l0,0c0.1-0.5,0.6-0.7,1-0.6l0,0c0.4,0.1,0.7,0.6,0.6,1.1l0,0c-0.1,0.4-0.4,0.6-0.8,0.6l0,0
				C28.1,77.9,28,77.9,27.9,77.8z M57.3,76.7c-0.1-0.5,0.2-0.9,0.6-1l0,0l0,0l0,0c0.4-0.1,0.9,0.2,1,0.6l0,0c0.1,0.5-0.2,0.9-0.6,1
				l0,0c-0.1,0-0.1,0-0.2,0l0,0C57.8,77.4,57.4,77.1,57.3,76.7z M24.6,76.7L24.6,76.7c-0.4-0.2-0.6-0.7-0.5-1.1l0,0
				c0.2-0.4,0.7-0.6,1.1-0.4l0,0c0.4,0.2,0.6,0.7,0.4,1.1l0,0c-0.1,0.3-0.4,0.5-0.8,0.5l0,0C24.9,76.8,24.8,76.7,24.6,76.7z
				 M60.6,75.9c-0.1-0.4,0.1-0.9,0.6-1l0,0c0.4-0.1,0.9,0.1,1,0.6l0,0c0.1,0.5-0.1,0.9-0.6,1.1l0,0c-0.1,0-0.2,0-0.2,0l0,0
				C61,76.5,60.7,76.3,60.6,75.9z M63.8,74.9c-0.2-0.4,0.1-0.9,0.5-1.1l0,0c0.4-0.2,0.9,0.1,1.1,0.5l0,0c0.2,0.4-0.1,0.9-0.5,1.1
				l0,0c-0.1,0-0.2,0.1-0.3,0.1l0,0C64.2,75.5,63.9,75.3,63.8,74.9z M21.5,75.2c-0.4-0.2-0.6-0.7-0.3-1.1l0,0
				c0.2-0.4,0.7-0.5,1.1-0.3l0,0c0.4,0.2,0.6,0.7,0.3,1.1l0,0c-0.1,0.3-0.4,0.4-0.7,0.4l0,0C21.8,75.3,21.7,75.2,21.5,75.2z
				 M66.9,73.7c-0.2-0.4,0-0.9,0.4-1.1l0,0l0,0l0,0c0.4-0.2,0.9,0,1.1,0.4l0,0c0.2,0.4,0,0.9-0.4,1.1l0,0c-0.1,0.1-0.2,0.1-0.4,0.1
				l0,0C67.4,74.1,67.1,74,66.9,73.7z M18.6,73.3c-0.4-0.3-0.5-0.8-0.2-1.2l0,0c0.3-0.4,0.8-0.5,1.2-0.2l0,0
				c0.4,0.3,0.4,0.8,0.2,1.2l0,0c-0.2,0.2-0.4,0.4-0.7,0.4l0,0C18.9,73.4,18.8,73.4,18.6,73.3z M69.9,72.1c-0.3-0.4-0.1-0.9,0.2-1.2
				l0,0l0,0l0,0c0.4-0.3,0.9-0.1,1.2,0.2l0,0c0.3,0.4,0.1,0.9-0.2,1.2h0c-0.1,0.1-0.3,0.1-0.5,0.1l0,0C70.3,72.5,70,72.3,69.9,72.1z
				 M16,71.1c-0.3-0.3-0.4-0.9,0-1.2l0,0c0.3-0.3,0.9-0.4,1.2,0l0,0c0.3,0.3,0.4,0.9,0,1.2l0,0c-0.2,0.2-0.4,0.3-0.6,0.3l0,0
				C16.3,71.3,16.1,71.2,16,71.1z M72.6,70.1c-0.3-0.4-0.3-0.9,0.1-1.2l0,0c0.4-0.3,0.9-0.3,1.2,0.1l0,0c0.3,0.3,0.3,0.9-0.1,1.2
				l0,0c-0.2,0.1-0.4,0.2-0.6,0.2l0,0C73,70.4,72.8,70.3,72.6,70.1z M13.6,68.5c-0.3-0.4-0.3-0.9,0.1-1.2l0,0
				c0.4-0.3,0.9-0.3,1.2,0.1l0,0l0,0l0,0c0.3,0.4,0.3,0.9-0.1,1.2l0,0c-0.2,0.1-0.4,0.2-0.5,0.2l0,0C14,68.8,13.8,68.8,13.6,68.5z
				 M75.1,67.8c-0.4-0.3-0.4-0.8-0.1-1.2l0,0l0,0l0,0c0.3-0.4,0.8-0.4,1.2-0.1l0,0c0.4,0.3,0.4,0.8,0.1,1.2l0,0
				c-0.2,0.2-0.4,0.3-0.7,0.3l0,0C75.4,68,75.2,68,75.1,67.8z M11.5,65.8c-0.3-0.4-0.2-0.9,0.2-1.2l0,0c0.4-0.3,0.9-0.1,1.2,0.2l0,0
				c0.3,0.4,0.2,0.9-0.2,1.2l0,0c-0.1,0.1-0.3,0.1-0.5,0.1l0,0C11.9,66.2,11.7,66,11.5,65.8z M77.1,65.1c-0.4-0.2-0.5-0.8-0.3-1.1
				l0,0c0.2-0.4,0.8-0.5,1.1-0.3l0,0c0.4,0.2,0.5,0.7,0.3,1.1l0,0c-0.2,0.3-0.4,0.4-0.7,0.4l0,0C77.4,65.3,77.2,65.2,77.1,65.1z
				 M9.7,62.8c-0.2-0.4-0.1-0.9,0.3-1.1l0,0c0.4-0.2,0.9-0.1,1.1,0.3l0,0l0,0l0,0c0.2,0.4,0.1,0.9-0.3,1.1l0,0
				c-0.1,0.1-0.3,0.1-0.4,0.1l0,0C10.2,63.3,9.9,63.1,9.7,62.8z M78.6,62.2c-0.4-0.2-0.6-0.7-0.5-1.1l0,0c0.2-0.4,0.7-0.6,1.1-0.5
				l0,0c0.4,0.2,0.6,0.6,0.5,1.1l0,0c-0.1,0.3-0.5,0.5-0.8,0.5l0,0C78.8,62.2,78.7,62.2,78.6,62.2z M8.2,59.8
				c-0.2-0.4,0-0.9,0.4-1.1l0,0c0.4-0.2,0.9,0,1.1,0.4l0,0l0,0l0,0c0.2,0.4,0,0.9-0.4,1.1l0,0c-0.1,0.1-0.2,0.1-0.4,0.1l0,0
				C8.6,60.3,8.3,60.1,8.2,59.8z M79.8,59c-0.5-0.1-0.7-0.6-0.6-1l0,0c0.1-0.5,0.6-0.7,1-0.6l0,0c0.5,0.1,0.7,0.6,0.6,1l0,0
				C80.7,58.8,80.3,59,80,59l0,0C79.9,59,79.8,59,79.8,59z M7.1,57.1c-0.2-0.4,0.1-0.9,0.5-1.1l0,0c0.4-0.2,0.9,0.1,1.1,0.5l0,0
				c0.2,0.4-0.1,0.9-0.5,1.1l0,0c-0.1,0-0.2,0-0.3,0l0,0C7.5,57.6,7.2,57.4,7.1,57.1z M80.5,55.7c-0.5-0.1-0.8-0.5-0.7-1l0,0l0,0
				l0,0c0.1-0.5,0.5-0.8,1-0.7l0,0c0.5,0.1,0.8,0.5,0.7,1l0,0c-0.1,0.4-0.4,0.7-0.8,0.7l0,0C80.5,55.7,80.5,55.7,80.5,55.7z M6,53.8
				c-0.1-0.5,0.2-0.9,0.6-1l0,0c0.4-0.1,0.9,0.1,1,0.6l0,0c0.1,0.5-0.1,0.9-0.6,1l0,0c-0.1,0-0.1,0-0.2,0l0,0
				C6.5,54.4,6.1,54.2,6,53.8z M80.9,52.3c-0.5,0-0.8-0.4-0.8-0.9l0,0c0,0,0,0,0,0l0,0c0-0.5,0.4-0.8,0.9-0.8l0,0
				c0.5,0,0.8,0.4,0.8,0.9l0,0C81.7,52,81.4,52.3,80.9,52.3L80.9,52.3C80.9,52.3,80.9,52.3,80.9,52.3z M5.3,50.4
				c-0.1-0.5,0.2-0.9,0.7-1l0,0c0.5-0.1,0.9,0.2,1,0.7l0,0c0.1,0.5-0.2,0.9-0.7,1l0,0c-0.1,0-0.1,0-0.2,0l0,0
				C5.7,51.1,5.4,50.8,5.3,50.4z M80.2,48.1c0-0.5,0.4-0.9,0.8-0.9l0,0c0.5,0,0.9,0.4,0.9,0.8l0,0c0,0.5-0.4,0.8-0.8,0.9l0,0l0,0
				l0,0C80.5,49,80.2,48.6,80.2,48.1z M4.8,47c0-0.5,0.3-0.9,0.8-0.9l0,0c0.5,0,0.9,0.3,0.9,0.8l0,0l0,0l0,0c0,0.5-0.3,0.9-0.8,0.9
				l0,0c0,0-0.1,0-0.1,0l0,0C5.3,47.8,4.9,47.5,4.8,47z M80,44.8c0-0.5,0.3-0.9,0.8-0.9l0,0c0.5,0,0.9,0.3,0.9,0.8l0,0
				c0,0.5-0.3,0.9-0.8,0.9l0,0c0,0,0,0,0,0l0,0C80.4,45.6,80.1,45.3,80,44.8z M5.6,44.4c-0.5,0-0.8-0.4-0.8-0.9l0,0
				c0-0.5,0.4-0.8,0.9-0.8l0,0c0.5,0,0.8,0.4,0.8,0.9l0,0C6.4,44.1,6.1,44.4,5.6,44.4L5.6,44.4C5.6,44.4,5.6,44.4,5.6,44.4z
				 M79.8,41.5c0-0.5,0.3-0.9,0.8-0.9l0,0c0.5,0,0.9,0.3,0.9,0.8l0,0c0.1,0.5-0.3,0.9-0.8,0.9l0,0c0,0-0.1,0-0.1,0l0,0
				C80.2,42.3,79.8,41.9,79.8,41.5z M5.7,41.1c-0.5,0-0.8-0.4-0.8-0.9l0,0c0-0.5,0.4-0.8,0.9-0.8l0,0c0.5,0,0.8,0.4,0.8,0.9l0,0
				C6.6,40.7,6.2,41.1,5.7,41.1L5.7,41.1C5.8,41.1,5.7,41.1,5.7,41.1z M79.4,38.2c-0.1-0.5,0.3-0.9,0.7-1l0,0c0.5-0.1,0.9,0.3,1,0.7
				l0,0c0.1,0.5-0.3,0.9-0.7,0.9l0,0c0,0-0.1,0-0.1,0l0,0C79.8,38.9,79.4,38.6,79.4,38.2z M6,37.7c-0.5-0.1-0.8-0.5-0.7-0.9l0,0
				C5.4,36.3,5.8,36,6.2,36l0,0C6.7,36.1,7,36.5,7,37l0,0c-0.1,0.4-0.4,0.7-0.8,0.7l0,0C6.1,37.7,6,37.7,6,37.7z M78.9,34.9
				C78.9,34.9,78.9,34.9,78.9,34.9L78.9,34.9c-0.1-0.5,0.2-0.9,0.7-1l0,0c0.5-0.1,0.9,0.2,1,0.7l0,0c0.1,0.5-0.2,0.9-0.7,1l0,0
				c0,0-0.1,0-0.1,0l0,0C79.3,35.6,78.9,35.3,78.9,34.9z M6.5,34.4c-0.5-0.1-0.8-0.5-0.7-1l0,0c0.1-0.4,0.5-0.8,1-0.7l0,0
				c0.5,0.1,0.8,0.5,0.7,1l0,0c0,0,0,0,0,0l0,0c-0.1,0.4-0.4,0.7-0.8,0.7l0,0C6.6,34.4,6.6,34.4,6.5,34.4z M78.2,31.6
				c-0.1-0.5,0.2-0.9,0.6-1l0,0c0.5-0.1,0.9,0.2,1,0.6v0c0.1,0.4-0.2,0.9-0.6,1l0,0c-0.1,0-0.1,0-0.2,0l0,0
				C78.7,32.3,78.3,32,78.2,31.6z M7.2,31.1c-0.5-0.1-0.7-0.6-0.6-1l0,0c0.1-0.5,0.6-0.7,1-0.6l0,0c0.5,0.1,0.7,0.6,0.6,1l0,0
				c-0.1,0.4-0.4,0.6-0.8,0.6l0,0C7.4,31.1,7.3,31.1,7.2,31.1z M77.3,28.5c-0.1-0.4,0.1-0.9,0.5-1.1l0,0c0.4-0.1,0.9,0.1,1.1,0.5
				l0,0c0.1,0.4-0.1,0.9-0.5,1.1l0,0c-0.1,0-0.2,0-0.3,0l0,0C77.8,29,77.4,28.8,77.3,28.5z M8.2,27.8c-0.4-0.2-0.7-0.6-0.5-1.1l0,0
				c0.1-0.4,0.6-0.7,1.1-0.5l0,0c0.4,0.2,0.7,0.6,0.5,1.1l0,0l0,0l0,0c-0.1,0.3-0.5,0.5-0.8,0.5l0,0C8.4,27.9,8.3,27.9,8.2,27.8z
				 M76.1,25.4c-0.2-0.4,0-0.9,0.4-1.1l0,0c0.4-0.2,0.9,0,1.1,0.4l0,0c0.2,0.4,0,0.9-0.4,1.1l0,0c-0.1,0-0.2,0.1-0.4,0.1l0,0
				C76.6,25.9,76.3,25.7,76.1,25.4z M9.4,24.7C9,24.5,8.8,24,9,23.6l0,0c0.2-0.4,0.7-0.6,1.1-0.4l0,0c0.4,0.2,0.6,0.7,0.4,1.1l0,0
				c-0.1,0.3-0.5,0.5-0.8,0.5l0,0C9.6,24.8,9.5,24.8,9.4,24.7z M74.6,22.5c-0.2-0.4-0.1-0.9,0.3-1.1l0,0c0.4-0.2,0.9-0.1,1.1,0.3
				l0,0c0.2,0.4,0.1,0.9-0.3,1.2l0,0c-0.1,0.1-0.3,0.1-0.4,0.1l0,0C75.1,22.9,74.8,22.8,74.6,22.5z M10.9,21.7
				c-0.4-0.2-0.5-0.8-0.3-1.1l0,0c0.2-0.4,0.8-0.5,1.2-0.3l0,0c0.4,0.2,0.5,0.8,0.3,1.2l0,0c-0.2,0.3-0.4,0.4-0.7,0.4l0,0
				C11.2,21.8,11.1,21.8,10.9,21.7z M72.8,19.8L72.8,19.8L72.8,19.8c-0.3-0.4-0.2-0.9,0.1-1.2l0,0c0.4-0.3,0.9-0.2,1.2,0.2l0,0
				c0.3,0.4,0.2,0.9-0.1,1.2l0,0c-0.1,0.1-0.3,0.2-0.5,0.2l0,0C73.2,20.1,73,20,72.8,19.8z M12.7,18.9c-0.4-0.3-0.4-0.8-0.2-1.2l0,0
				c0.3-0.4,0.8-0.4,1.2-0.2l0,0c0.4,0.3,0.4,0.8,0.2,1.2l0,0l0,0l0,0c-0.2,0.2-0.4,0.3-0.7,0.3l0,0C13.1,19,12.9,19,12.7,18.9z
				 M70.6,17.4L70.6,17.4L70.6,17.4c-0.3-0.3-0.3-0.9,0-1.2l0,0c0.3-0.3,0.9-0.3,1.2,0l0,0c0.3,0.3,0.3,0.9,0,1.2l0,0
				c-0.2,0.2-0.4,0.2-0.6,0.2l0,0C71,17.6,70.8,17.5,70.6,17.4z M14.9,16.3c-0.3-0.3-0.3-0.9,0-1.2l0,0c0.3-0.3,0.9-0.3,1.2,0l0,0
				c0.3,0.3,0.3,0.9,0,1.2l0,0c0,0,0,0,0,0l0,0c-0.2,0.2-0.4,0.3-0.6,0.3l0,0C15.2,16.5,15,16.4,14.9,16.3z M68.2,15.2L68.2,15.2
				L68.2,15.2c-0.4-0.3-0.4-0.8-0.1-1.2l0,0c0.3-0.4,0.8-0.4,1.2-0.2l0,0c0.4,0.3,0.4,0.8,0.1,1.2l0,0c-0.2,0.2-0.4,0.3-0.7,0.3l0,0
				C68.5,15.4,68.4,15.3,68.2,15.2z M17.3,13.9c-0.3-0.4-0.2-0.9,0.1-1.2l0,0c0.4-0.3,0.9-0.2,1.2,0.1l0,0c0.3,0.4,0.2,0.9-0.1,1.2
				l0,0l0,0l0,0c-0.1,0.1-0.3,0.2-0.5,0.2l0,0C17.7,14.2,17.5,14.1,17.3,13.9z M65.5,13.3c-0.4-0.2-0.5-0.8-0.3-1.2l0,0
				c0.2-0.4,0.8-0.5,1.2-0.3l0,0c0.4,0.2,0.5,0.8,0.3,1.2l0,0c-0.2,0.3-0.4,0.4-0.7,0.4l0,0C65.8,13.5,65.6,13.4,65.5,13.3z
				 M20,11.9c-0.2-0.4-0.1-0.9,0.3-1.1l0,0c0.4-0.3,0.9-0.1,1.2,0.3l0,0c0.2,0.4,0.1,0.9-0.3,1.2l0,0c-0.1,0.1-0.3,0.1-0.4,0.1l0,0
				C20.4,12.3,20.1,12.2,20,11.9z M62.6,11.8L62.6,11.8L62.6,11.8c-0.4-0.2-0.6-0.7-0.4-1.1l0,0c0.2-0.4,0.7-0.6,1.1-0.4l0,0
				c0.4,0.2,0.6,0.7,0.4,1.1l0,0c-0.1,0.3-0.4,0.5-0.8,0.5l0,0C62.9,11.9,62.8,11.9,62.6,11.8z M22.9,10.2c-0.2-0.4,0-0.9,0.4-1.1
				l0,0c0.4-0.2,0.9,0,1.1,0.4l0,0c0.2,0.4,0,0.9-0.4,1.1l0,0c-0.1,0.1-0.2,0.1-0.4,0.1l0,0C23.3,10.7,23,10.5,22.9,10.2z
				 M59.6,10.5c-0.4-0.2-0.7-0.6-0.5-1.1l0,0c0.2-0.4,0.6-0.7,1.1-0.5l0,0c0.4,0.2,0.7,0.6,0.5,1.1l0,0c-0.1,0.3-0.4,0.6-0.8,0.6
				l0,0C59.8,10.6,59.7,10.6,59.6,10.5z M56.5,9.5L56.5,9.5L56.5,9.5c-0.5-0.1-0.7-0.6-0.6-1l0,0c0.1-0.4,0.6-0.7,1-0.6l0,0
				c0.5,0.1,0.7,0.6,0.6,1l0,0c-0.1,0.4-0.5,0.6-0.8,0.6l0,0C56.6,9.5,56.5,9.5,56.5,9.5z M26,8.9c-0.1-0.4,0.1-0.9,0.5-1.1l0,0
				c0.4-0.1,0.9,0.1,1.1,0.5l0,0c0.1,0.4-0.1,0.9-0.5,1.1l0,0c-0.1,0-0.2,0-0.3,0l0,0C26.4,9.5,26.1,9.3,26,8.9z M53.3,8.7
				c-0.5-0.1-0.8-0.5-0.7-1l0,0c0.1-0.5,0.5-0.8,1-0.7l0,0c0.5,0.1,0.7,0.5,0.6,1l0,0c-0.1,0.4-0.4,0.7-0.8,0.7l0,0
				C53.4,8.8,53.3,8.8,53.3,8.7z M29.2,7.9c-0.1-0.4,0.2-0.9,0.6-1l0,0c0.5-0.1,0.9,0.2,1,0.6l0,0c0.1,0.5-0.2,0.9-0.6,1l0,0
				c-0.1,0-0.1,0-0.2,0l0,0C29.6,8.6,29.3,8.3,29.2,7.9z M50,8.2c-0.5-0.1-0.8-0.5-0.7-1l0,0c0.1-0.5,0.5-0.8,0.9-0.7l0,0
				c0.5,0.1,0.8,0.5,0.7,1l0,0c-0.1,0.4-0.4,0.7-0.8,0.7l0,0C50.1,8.2,50,8.2,50,8.2z M32.5,7.2c-0.1-0.5,0.3-0.9,0.7-1l0,0
				c0.5-0.1,0.9,0.3,0.9,0.7l0,0c0.1,0.5-0.3,0.9-0.7,0.9l0,0c0,0-0.1,0-0.1,0l0,0C32.9,7.9,32.6,7.6,32.5,7.2z M46.7,7.8
				c-0.5,0-0.8-0.5-0.8-0.9l0,0c0-0.5,0.5-0.8,0.9-0.8l0,0c0.5,0,0.8,0.5,0.8,0.9l0,0C47.6,7.4,47.2,7.8,46.7,7.8L46.7,7.8
				C46.7,7.8,46.7,7.8,46.7,7.8z M35.8,6.8c0-0.5,0.3-0.9,0.8-0.9l0,0c0.5,0,0.9,0.3,0.9,0.8l0,0c0,0.5-0.3,0.9-0.8,0.9l0,0
				c0,0,0,0-0.1,0l0,0C36.2,7.6,35.9,7.2,35.8,6.8z M42.6,6.6c0-0.5,0.4-0.8,0.9-0.8h0c0.5,0,0.8,0.4,0.8,0.9l0,0
				c0,0.5-0.4,0.8-0.9,0.8l0,0l0,0l0,0C42.9,7.5,42.5,7.1,42.6,6.6z M39.2,6.6c0-0.5,0.4-0.8,0.8-0.8l0,0c0.5,0,0.9,0.4,0.9,0.8l0,0
				c0,0.5-0.4,0.8-0.8,0.9l0,0C39.6,7.5,39.2,7.1,39.2,6.6z"/>
		</g>
	</g>
</g>
<g>
	<path class="st2" d="M48.9,62.8c-1.1,0-2.2-0.4-3-1.2L30.6,46.3c-0.8-0.8-1.2-1.8-1.2-3V30.1c0-0.6,0.5-1,1-1h13.2
		c1.1,0,2.2,0.4,3,1.2l15.3,15.3c0.8,0.8,1.2,1.9,1.2,3s-0.4,2.2-1.2,3l-10,10C51,62.4,50,62.8,48.9,62.8z M31.8,45.2L47,60.4
		c1,1,2.7,1,3.7,0l10-10c0.5-0.5,0.8-1.1,0.8-1.8c0-0.7-0.3-1.4-0.8-1.8L45.5,31.4c-0.5-0.5-1.2-0.8-1.8-0.8H31v12.6
		C31,44,31.3,44.7,31.8,45.2L31.8,45.2z"/>
</g>
<g>
	<path class="st2" d="M35.1,36.5c-0.9,0-1.7-0.8-1.7-1.7s0.8-1.7,1.7-1.7c0.9,0,1.7,0.8,1.7,1.7S36,36.5,35.1,36.5z M35.1,34.6
		c-0.1,0-0.1,0.1-0.1,0.1c0,0.1,0.2,0.1,0.2,0C35.2,34.7,35.1,34.6,35.1,34.6z"/>
</g>
<g>
	<g>
		
			<rect x="47.3" y="36.8" transform="matrix(0.7071 -0.7071 0.7071 0.7071 -17.3073 47.0418)" class="st2" width="1.6" height="15.2"/>
	</g>
	<g>
		
			<rect x="43.4" y="40.8" transform="matrix(0.7071 -0.7071 0.7071 0.7071 -21.2591 45.4048)" class="st2" width="1.6" height="15.2"/>
	</g>
</g>
</svg>
