<?xml version="1.0" encoding="utf-8"?>
<!-- Generator: Adobe Illustrator 22.1.0, SVG Export Plug-In . SVG Version: 6.00 Build 0)  -->
<svg version="1.1" id="Livello_1" xmlns="http://www.w3.org/2000/svg" xmlns:xlink="http://www.w3.org/1999/xlink" x="0px" y="0px"
	 viewBox="0 0 88 86" style="enable-background:new 0 0 88 86;" xml:space="preserve">
<style type="text/css">
	.st0{fill:#80BA27;}
	.st1{fill:#FFFFFF;}
	.st2{fill:#000099;}
</style>
<g>
	<circle class="st0" cx="45.7" cy="43.1" r="33.5"/>
</g>
<g>
	<g>
		<path class="st1" d="M49,33.6c-0.2,0.6-0.1,1.3,0.2,1.8c0,0,0,0-0.1,0c-0.5,0.4-0.9,1-1,1.6c-0.1,0.6,0.1,1.2,0.4,1.8
			c-0.4,0.4-0.7,0.9-0.8,1.4c-0.1,0.6,0.1,1.3,0.4,1.8c0.4,0.5,1,0.9,1.6,1l0.2-1.6c-0.2,0-0.4-0.1-0.5-0.3
			c-0.1-0.2-0.2-0.4-0.1-0.6c0-0.2,0.1-0.4,0.3-0.5c0.2-0.1,0.4-0.2,0.6-0.1l0,0c0.5,0.1,0.9-0.2,0.9-0.7c0.1-0.5-0.2-0.9-0.7-0.9
			c0,0,0,0,0,0l-0.1,0c-0.2,0-0.4-0.1-0.5-0.3c-0.1-0.2-0.2-0.4-0.1-0.6c0-0.2,0.1-0.4,0.3-0.5c0.2-0.1,0.4-0.2,0.6-0.1
			c0.2,0,0.3,0,0.4-0.1l0.1,0c0.3-0.1,0.5-0.5,0.5-0.8s-0.3-0.7-0.6-0.8c-0.2-0.1-0.4-0.2-0.5-0.4c-0.1-0.2-0.1-0.4-0.1-0.6
			c0.1-0.2,0.2-0.4,0.4-0.5s0.4-0.1,0.6-0.1c0.3,0.1,0.7,0,0.9-0.3c0.2-0.3,0.2-0.6,0.1-0.9l-0.3-0.6c0.1-0.4,0.4-0.6,0.8-0.6
			c0.4,0,0.7,0.3,0.8,0.6l-0.3,0.7c-0.1,0.3-0.1,0.6,0.1,0.9c0.2,0.2,0.6,0.3,0.9,0.2c0.2-0.1,0.4,0,0.6,0.1
			c0.2,0.1,0.3,0.3,0.4,0.5c0.1,0.4-0.1,0.8-0.5,1c-0.3,0.1-0.6,0.4-0.6,0.8c0,0.4,0.2,0.7,0.5,0.8l0.1,0c0.1,0.1,0.3,0.1,0.4,0.1
			c0.4-0.1,0.8,0.2,0.9,0.6c0,0.2,0,0.4-0.1,0.6c-0.1,0.2-0.3,0.3-0.5,0.3l-0.1,0c0,0,0,0,0,0c-0.5,0.1-0.8,0.5-0.7,0.9
			c0.1,0.5,0.5,0.8,0.9,0.7l0,0c0.2,0,0.4,0,0.6,0.1c0.2,0.1,0.3,0.3,0.3,0.5c0,0.2,0,0.4-0.1,0.6c-0.1,0.2-0.3,0.3-0.6,0.3l-0.1,0
			c-0.4,0.1-0.7,0.5-0.6,1c0.1,0.4,0.5,0.7,0.9,0.7c0.2,0,0.4,0,0.6,0.1c0.2,0.1,0.3,0.3,0.3,0.5c0,0.2,0,0.4-0.1,0.6
			c-0.1,0.2-0.3,0.3-0.5,0.3l0.3,1.6c0.6-0.1,1.2-0.4,1.6-1c0.4-0.5,0.5-1.2,0.4-1.8c-0.1-0.6-0.4-1.1-0.8-1.4
			c0.4-0.5,0.5-1.1,0.4-1.8c-0.1-0.6-0.4-1.1-0.8-1.4c0.4-0.5,0.5-1.1,0.4-1.8c-0.1-0.7-0.5-1.3-1-1.6c0.3-0.5,0.4-1.2,0.2-1.8
			c-0.2-0.6-0.6-1.1-1.2-1.5c-0.1-0.1-0.3-0.1-0.4-0.2c0,0,0,0,0-0.1c0-1.4-1.1-2.5-2.5-2.5s-2.5,1.1-2.5,2.5c0,0,0,0.1,0,0.1
			c-0.1,0-0.2,0.1-0.4,0.2C49.6,32.4,49.2,32.9,49,33.6z"/>
	</g>
	<g>
		<path class="st1" d="M69.3,53.4c0-0.1-2.9-6.1-9.6-4.1l0.5,1.6c3.4-1,5.5,0.5,6.6,1.8c-2.5-0.2-5.4,0.4-7.7,2.3
			c-0.2-1.3-0.7-2.3-0.7-2.4c-6-10.9-17.5-11.8-18-11.8c-0.3,0-0.7,0.2-0.8,0.5c-0.1,0.3-0.1,0.7,0.1,0.9c4.7,5.1,6.4,11.5,6.4,13.7
			c0.1,3.6,3,6.6,6.5,6.6c0,0,0.1,0,0.1,0c2.9-0.1,5.4-2.1,6.1-4.9l0,0c2.6-3.2,6.6-3.6,9.5-2.9c0.3,0.1,0.6,0,0.8-0.3
			C69.4,54.1,69.5,53.7,69.3,53.4z M52.7,60.7c0,0-0.1,0-0.1,0c-2.6,0-4.8-2.2-4.8-4.9c0-2.2-1.5-7.9-5.4-13
			c3.5,0.8,10.5,3.2,14.5,10.6c0,0,0.5,1.1,0.6,2.2C57.5,58.3,55.4,60.6,52.7,60.7z"/>
	</g>
	<g>
		<path class="st1" d="M30,48.4V30.7h5.3c1.3,0,2.4-1.1,2.4-2.4V23h8.8c1.1,0,1.9,0.9,1.9,1.9V27h1.7v-2.1c0-2-1.6-3.6-3.6-3.6h-9.7
			c-0.2,0-0.4,0.1-0.6,0.2l-7.7,7.7c-0.2,0.2-0.2,0.4-0.2,0.6v18.6c0,2,1.6,3.6,3.6,3.6h9.6v-1.7H32C30.9,50.3,30,49.4,30,48.4z
			 M36.1,24.2v4.1c0,0.4-0.3,0.7-0.7,0.7h-4.1L36.1,24.2z"/>
	</g>
</g>
<g>
	<path class="st2" d="M41.2,79.9c-0.5,0-0.8-0.4-0.8-0.9l0,0c0-0.5,0.4-0.8,0.9-0.8l0,0c0.5,0,0.8,0.4,0.8,0.9l0,0
		C42.1,79.5,41.7,79.9,41.2,79.9L41.2,79.9C41.2,79.9,41.2,79.9,41.2,79.9z M43.8,79c0-0.5,0.4-0.9,0.8-0.9l0,0
		c0.5,0,0.9,0.4,0.9,0.8l0,0c0,0.5-0.3,0.8-0.8,0.9l0,0c0,0,0,0,0,0l0,0C44.1,79.8,43.8,79.5,43.8,79z M37.8,79.7L37.8,79.7
		c-0.5,0-0.8-0.4-0.8-0.9l0,0c0-0.5,0.4-0.8,0.9-0.8l0,0c0.5,0,0.8,0.5,0.8,0.9l0,0C38.7,79.3,38.3,79.7,37.8,79.7L37.8,79.7
		C37.8,79.7,37.8,79.7,37.8,79.7z M47.1,78.9c0-0.5,0.3-0.9,0.8-0.9l0,0c0.5,0,0.9,0.3,0.9,0.8l0,0c0,0.5-0.3,0.9-0.8,0.9l0,0
		c0,0-0.1,0-0.1,0l0,0C47.5,79.6,47.2,79.3,47.1,78.9z M50.5,78.5c-0.1-0.5,0.3-0.9,0.7-0.9l0,0c0.5-0.1,0.9,0.3,1,0.7l0,0
		c0.1,0.5-0.3,0.9-0.7,0.9l0,0c0,0-0.1,0-0.1,0l0,0C50.9,79.3,50.5,79,50.5,78.5z M34.4,79.2L34.4,79.2c-0.4-0.1-0.8-0.5-0.7-1l0,0
		c0.1-0.5,0.5-0.8,1-0.7l0,0c0.5,0.1,0.8,0.5,0.7,1l0,0c-0.1,0.4-0.4,0.7-0.8,0.7l0,0C34.5,79.2,34.4,79.2,34.4,79.2z M53.8,78.1
		c-0.1-0.5,0.2-0.9,0.7-1l0,0c0,0,0,0,0,0l0,0c0.5-0.1,0.9,0.2,1,0.7l0,0c0.1,0.5-0.2,0.9-0.7,1l0,0c-0.1,0-0.1,0-0.2,0l0,0
		C54.2,78.8,53.9,78.5,53.8,78.1z M31,78.5c-0.4-0.1-0.7-0.6-0.6-1l0,0c0.1-0.4,0.6-0.7,1-0.6l0,0l0,0l0,0c0.5,0.1,0.7,0.6,0.6,1
		l0,0c-0.1,0.4-0.4,0.6-0.8,0.6l0,0C31.2,78.5,31.1,78.5,31,78.5z M57.1,77.4c-0.1-0.5,0.2-0.9,0.6-1l0,0c0.4-0.1,0.9,0.2,1,0.6l0,0
		c0.1,0.5-0.2,0.9-0.6,1l0,0c-0.1,0-0.1,0-0.2,0l0,0C57.5,78,57.2,77.8,57.1,77.4z M27.8,77.4L27.8,77.4c-0.4-0.2-0.7-0.6-0.5-1.1
		l0,0c0.2-0.4,0.6-0.7,1.1-0.5l0,0l0,0l0,0c0.4,0.2,0.7,0.6,0.5,1.1l0,0c-0.1,0.3-0.4,0.5-0.8,0.5l0,0
		C27.9,77.5,27.8,77.5,27.8,77.4z M60.4,76.5c-0.1-0.4,0.1-0.9,0.5-1.1l0,0c0.4-0.1,0.9,0.1,1.1,0.5l0,0c0.1,0.4-0.1,0.9-0.5,1.1
		l0,0c-0.1,0-0.2,0-0.3,0l0,0C60.8,77.1,60.5,76.9,60.4,76.5z M24.6,76c-0.4-0.2-0.6-0.7-0.4-1.1l0,0c0.2-0.4,0.7-0.6,1.1-0.4l0,0
		c0.4,0.2,0.6,0.7,0.4,1.1l0,0c-0.1,0.3-0.4,0.5-0.8,0.5l0,0C24.8,76.1,24.7,76.1,24.6,76z M63.5,75.4c-0.2-0.4,0-0.9,0.4-1.1l0,0
		c0.4-0.2,0.9,0,1.1,0.4l0,0c0.2,0.4,0,0.9-0.4,1.1l0,0c-0.1,0-0.2,0.1-0.3,0.1l0,0C64,75.9,63.7,75.7,63.5,75.4z M66.6,74
		c-0.2-0.4-0.1-0.9,0.3-1.1l0,0c0.4-0.2,0.9-0.1,1.2,0.3l0,0c0.2,0.4,0.1,0.9-0.3,1.1l0,0c-0.1,0.1-0.3,0.1-0.4,0.1l0,0
		C67,74.5,66.8,74.3,66.6,74z M21.6,74.3c-0.4-0.3-0.5-0.8-0.2-1.2l0,0c0.3-0.4,0.8-0.5,1.2-0.2l0,0c0.4,0.3,0.5,0.8,0.2,1.2l0,0
		c-0.2,0.2-0.4,0.4-0.7,0.4l0,0C21.9,74.4,21.7,74.4,21.6,74.3z M69.5,72.3c-0.3-0.4-0.2-0.9,0.2-1.2l0,0c0.4-0.3,0.9-0.2,1.2,0.2
		l0,0c0.3,0.4,0.2,0.9-0.2,1.2l0,0c-0.1,0.1-0.3,0.2-0.5,0.2l0,0C69.9,72.6,69.7,72.5,69.5,72.3z M18.8,72.2
		c-0.4-0.3-0.4-0.8-0.1-1.2l0,0c0.3-0.4,0.8-0.4,1.2-0.1l0,0c0.4,0.3,0.4,0.8,0.1,1.2l0,0c-0.2,0.2-0.4,0.3-0.6,0.3l0,0
		C19.2,72.4,19,72.3,18.8,72.2z M72.1,70.2c-0.3-0.3-0.3-0.9,0-1.2l0,0c0.3-0.3,0.9-0.3,1.2,0l0,0c0.3,0.3,0.3,0.9,0,1.2l0,0
		c-0.2,0.2-0.4,0.2-0.6,0.2l0,0C72.5,70.5,72.3,70.4,72.1,70.2z M16.3,69.8c-0.3-0.4-0.3-0.9,0.1-1.2l0,0c0.3-0.3,0.9-0.3,1.2,0.1
		l0,0c0.3,0.3,0.3,0.9-0.1,1.2l0,0C17.4,70,17.2,70,17,70l0,0C16.7,70,16.5,69.9,16.3,69.8z M74.5,67.8c-0.4-0.3-0.4-0.8-0.1-1.2
		l0,0c0.3-0.4,0.8-0.4,1.2-0.1l0,0c0.4,0.3,0.4,0.8,0.2,1.2l0,0C75.5,67.9,75.3,68,75,68l0,0C74.8,68,74.6,67.9,74.5,67.8z
		 M14.2,67.1c-0.3-0.4-0.2-0.9,0.2-1.2l0,0c0.4-0.3,0.9-0.2,1.2,0.2l0,0c0.3,0.4,0.2,0.9-0.2,1.2l0,0c-0.1,0.1-0.3,0.2-0.5,0.2l0,0
		C14.6,67.4,14.3,67.3,14.2,67.1z M76.4,65.1c-0.4-0.2-0.6-0.8-0.3-1.1l0,0c0.2-0.4,0.7-0.5,1.2-0.3l0,0c0.4,0.2,0.5,0.7,0.3,1.1
		l0,0c-0.2,0.3-0.4,0.4-0.7,0.4l0,0C76.7,65.2,76.6,65.1,76.4,65.1z M12.3,64.1c-0.2-0.4-0.1-0.9,0.3-1.1l0,0
		c0.4-0.2,0.9-0.1,1.1,0.3l0,0c0.2,0.4,0.1,0.9-0.3,1.1l0,0c-0.1,0.1-0.3,0.1-0.4,0.1l0,0C12.8,64.6,12.5,64.4,12.3,64.1z M78,62.1
		c-0.4-0.2-0.6-0.7-0.5-1.1l0,0c0,0,0,0,0,0l0,0c0.2-0.4,0.7-0.6,1.1-0.5l0,0c0.4,0.2,0.6,0.7,0.5,1.1l0,0c-0.1,0.3-0.4,0.5-0.8,0.5
		l0,0C78.2,62.1,78.1,62.1,78,62.1z M10.8,61.1L10.8,61.1c-0.1-0.1-0.1-0.3-0.1-0.4l0,0c-0.1-0.1-0.2-0.2-0.2-0.3l0,0
		c-0.2-0.4,0-0.9,0.4-1.1l0,0c0.4-0.2,0.9,0,1.1,0.4l0,0c0,0,0,0,0,0l0,0C12,59.8,12,60,12,60.1l0,0c0.1,0.1,0.2,0.2,0.2,0.3l0,0
		l0,0l0,0c0.2,0.4,0,0.9-0.4,1.1l0,0c-0.1,0-0.2,0.1-0.4,0.1l0,0C11.2,61.6,10.9,61.4,10.8,61.1z M79.1,58.9c-0.4-0.1-0.7-0.6-0.6-1
		l0,0c0,0,0,0,0,0l0,0c0.1-0.5,0.6-0.7,1-0.6l0,0c0.4,0.1,0.7,0.6,0.6,1l0,0c-0.1,0.4-0.4,0.6-0.8,0.6l0,0
		C79.3,59,79.2,58.9,79.1,58.9z M9.2,57.2c-0.2-0.4,0.1-0.9,0.5-1.1l0,0c0.4-0.1,0.9,0.1,1.1,0.5l0,0c0.2,0.4-0.1,0.9-0.5,1.1l0,0
		c-0.1,0-0.2,0.1-0.3,0.1l0,0C9.6,57.8,9.3,57.5,9.2,57.2z M79.9,55.7c-0.5-0.1-0.8-0.5-0.7-1l0,0c0.1-0.5,0.5-0.8,1-0.7l0,0
		c0.5,0.1,0.8,0.5,0.7,1l0,0c-0.1,0.4-0.4,0.7-0.8,0.7l0,0C80,55.7,80,55.7,79.9,55.7z M8.1,53.9c-0.1-0.4,0.1-0.9,0.6-1l0,0
		c0.5-0.1,0.9,0.1,1.1,0.6l0,0c0.1,0.4-0.1,0.9-0.6,1l0,0c-0.1,0-0.1,0-0.2,0l0,0C8.5,54.6,8.2,54.3,8.1,53.9z M80.4,52.3
		c-0.5,0-0.8-0.5-0.8-0.9l0,0c0-0.5,0.5-0.8,0.9-0.8l0,0c0.5,0,0.8,0.4,0.8,0.9h0C81.3,52,80.9,52.3,80.4,52.3L80.4,52.3
		C80.5,52.3,80.5,52.3,80.4,52.3z M7.3,50.6c-0.1-0.5,0.2-0.9,0.6-1l0,0c0.5-0.1,0.9,0.2,1,0.6l0,0c0.1,0.4-0.2,0.9-0.6,1l0,0
		c-0.1,0-0.1,0-0.2,0l0,0C7.7,51.3,7.3,51,7.3,50.6z M80.7,49c-0.5,0-0.8-0.4-0.8-0.9l0,0c0-0.5,0.4-0.8,0.9-0.8l0,0
		c0.5,0,0.8,0.4,0.8,0.9l0,0C81.5,48.6,81.2,49,80.7,49L80.7,49L80.7,49z M6.6,47.3L6.6,47.3c-0.1-0.5,0.3-0.9,0.7-0.9l0,0
		c0.5-0.1,0.9,0.2,1,0.7l0,0c0.1,0.5-0.3,0.9-0.7,1l0,0c0,0-0.1,0-0.1,0l0,0C7.1,48,6.7,47.7,6.6,47.3z M79.9,44.8
		c0-0.5,0.4-0.9,0.8-0.9l0,0c0.5,0,0.9,0.4,0.9,0.8l0,0c0,0.5-0.4,0.9-0.8,0.9l0,0c0,0,0,0,0,0l0,0C80.2,45.6,79.9,45.2,79.9,44.8z
		 M6.3,43.9L6.3,43.9c0-0.5,0.3-0.9,0.8-0.9l0,0c0.5,0,0.9,0.3,0.9,0.8l0,0c0,0.5-0.3,0.9-0.8,0.9l0,0c0,0,0,0-0.1,0l0,0
		C6.6,44.6,6.3,44.3,6.3,43.9z M79.7,41.4c0-0.5,0.3-0.9,0.8-0.9l0,0c0.5,0,0.9,0.3,0.9,0.8l0,0c0,0.5-0.3,0.9-0.8,0.9l0,0
		c0,0,0,0,0,0l0,0C80.1,42.2,79.7,41.9,79.7,41.4z M7,41.3c-0.5,0-0.8-0.4-0.8-0.9l0,0c0-0.5,0.4-0.8,0.9-0.8l0,0
		c0.5,0,0.8,0.4,0.8,0.9l0,0l0,0l0,0C7.8,40.9,7.4,41.3,7,41.3L7,41.3L7,41.3z M79.4,38.1c-0.1-0.5,0.3-0.9,0.8-0.9l0,0
		c0.5,0,0.9,0.3,0.9,0.8l0,0c0,0.5-0.3,0.9-0.8,0.9l0,0c0,0-0.1,0-0.1,0l0,0C79.8,38.9,79.4,38.6,79.4,38.1z M7,37.9
		c-0.5,0-0.8-0.5-0.8-0.9l0,0c0-0.5,0.5-0.8,0.9-0.8l0,0C7.7,36.3,8,36.7,8,37.1l0,0C7.9,37.6,7.6,37.9,7,37.9L7,37.9
		C7.1,37.9,7.1,37.9,7,37.9z M78.9,34.9L78.9,34.9L78.9,34.9c-0.1-0.4,0.2-0.9,0.6-1l0,0c0.5-0.1,0.9,0.2,1,0.6v0
		c0.1,0.4-0.2,0.9-0.7,1l0,0c-0.1,0-0.1,0-0.2,0l0,0C79.3,35.5,79,35.3,78.9,34.9z M7.4,34.5c-0.5-0.1-0.8-0.5-0.7-1l0,0
		c0.1-0.5,0.5-0.8,1-0.7l0,0c0.5,0.1,0.8,0.5,0.7,1l0,0c-0.1,0.4-0.4,0.7-0.8,0.7l0,0C7.6,34.6,7.5,34.6,7.4,34.5z M78.1,31.7
		c-0.1-0.4,0.1-0.9,0.6-1l0,0c0.4-0.1,0.9,0.1,1,0.6l0,0c0.1,0.4-0.1,0.9-0.6,1l0,0c-0.1,0-0.2,0-0.3,0l0,0
		C78.5,32.3,78.2,32,78.1,31.7z M8.2,31.3c-0.4-0.1-0.7-0.6-0.5-1.1l0,0c0.1-0.4,0.6-0.7,1-0.6l0,0c0.5,0.1,0.7,0.6,0.6,1.1l0,0
		c-0.1,0.4-0.4,0.6-0.8,0.6l0,0C8.3,31.3,8.3,31.3,8.2,31.3z M77,28.6L77,28.6L77,28.6c-0.2-0.4,0-0.9,0.5-1.1l0,0
		c0.4-0.2,0.9,0,1.1,0.5l0,0c0.2,0.4,0,0.9-0.5,1.1l0,0c-0.1,0-0.2,0.1-0.3,0.1l0,0C77.4,29.1,77.1,28.9,77,28.6z M9.3,28.1
		c-0.4-0.2-0.6-0.7-0.4-1.1l0,0c0.2-0.4,0.7-0.6,1.1-0.4l0,0c0.4,0.2,0.6,0.7,0.4,1.1l0,0l0,0l0,0c-0.1,0.3-0.4,0.5-0.8,0.5l0,0
		C9.5,28.1,9.4,28.1,9.3,28.1z M75.6,25.6c-0.2-0.4-0.1-0.9,0.4-1.1l0,0c0.4-0.2,0.9,0,1.1,0.4l0,0c0.2,0.4,0,0.9-0.4,1.1l0,0
		C76.6,26,76.5,26,76.4,26l0,0C76.1,26,75.8,25.9,75.6,25.6z M10.7,25c-0.4-0.2-0.5-0.8-0.3-1.2l0,0c0.2-0.4,0.8-0.5,1.2-0.3l0,0
		c0.4,0.2,0.5,0.8,0.3,1.2l0,0l0,0l0,0c-0.2,0.3-0.4,0.4-0.7,0.4l0,0C11,25.2,10.9,25.1,10.7,25z M74,22.8L74,22.8L74,22.8
		c-0.3-0.4-0.1-0.9,0.3-1.2l0,0c0.4-0.3,0.9-0.1,1.2,0.3l0,0c0.3,0.4,0.2,0.9-0.2,1.2l0,0c-0.1,0.1-0.3,0.1-0.5,0.1l0,0
		C74.4,23.1,74.1,23,74,22.8z M12.5,22.2c-0.4-0.3-0.4-0.8-0.2-1.2v0c0.3-0.4,0.8-0.4,1.2-0.2l0,0c0.4,0.3,0.4,0.8,0.2,1.2l0,0
		c0,0,0,0,0,0l0,0c-0.2,0.2-0.4,0.3-0.7,0.3l0,0C12.9,22.4,12.7,22.3,12.5,22.2z M72,20.1c-0.3-0.4-0.2-0.9,0.1-1.2l0,0
		c0.4-0.3,0.9-0.2,1.2,0.1l0,0c0.3,0.4,0.2,0.9-0.1,1.2l0,0c-0.2,0.1-0.4,0.2-0.5,0.2l0,0C72.4,20.4,72.2,20.3,72,20.1z M14.7,19.6
		c-0.3-0.3-0.3-0.9,0-1.2l0,0c0.3-0.3,0.9-0.3,1.2,0l0,0c0.3,0.3,0.3,0.9,0,1.2l0,0c-0.2,0.2-0.4,0.3-0.6,0.3l0,0
		C15,19.8,14.8,19.8,14.7,19.6z M69.8,17.7c-0.3-0.3-0.3-0.9,0-1.2l0,0c0.3-0.3,0.9-0.3,1.2,0l0,0c0.3,0.3,0.3,0.9,0,1.2l0,0
		c-0.2,0.2-0.4,0.3-0.6,0.3l0,0C70.2,17.9,70,17.8,69.8,17.7z M17.1,17.3c-0.3-0.4-0.2-0.9,0.1-1.2h0c0.4-0.3,0.9-0.3,1.2,0.1l0,0
		c0.3,0.4,0.3,0.9-0.1,1.2l0,0l0,0l0,0c-0.2,0.1-0.4,0.2-0.5,0.2l0,0C17.5,17.6,17.3,17.4,17.1,17.3z M67.4,15.5
		C67.4,15.5,67.4,15.5,67.4,15.5L67.4,15.5c-0.4-0.3-0.4-0.8-0.1-1.2l0,0c0.3-0.4,0.8-0.4,1.2-0.1l0,0c0.4,0.3,0.4,0.8,0.1,1.2l0,0
		c-0.2,0.2-0.4,0.3-0.7,0.3l0,0C67.7,15.7,67.5,15.6,67.4,15.5z M19.7,15.2c-0.3-0.4-0.2-0.9,0.2-1.2l0,0c0.4-0.3,0.9-0.2,1.2,0.2
		l0,0c0.3,0.4,0.2,0.9-0.2,1.2l0,0l0,0l0,0c-0.1,0.1-0.3,0.2-0.5,0.2l0,0C20.2,15.5,19.9,15.4,19.7,15.2z M22.6,13.3
		c-0.2-0.4-0.1-0.9,0.3-1.1l0,0c0.4-0.2,0.9-0.1,1.1,0.3l0,0c0.2,0.4,0.1,0.9-0.3,1.1l0,0c-0.1,0.1-0.3,0.1-0.4,0.1l0,0
		C23,13.8,22.7,13.6,22.6,13.3z M64.7,13.6L64.7,13.6L64.7,13.6c-0.4-0.2-0.5-0.8-0.3-1.2l0,0c0.3-0.4,0.8-0.5,1.2-0.3h0
		c0.4,0.2,0.5,0.8,0.3,1.2l0,0c-0.2,0.3-0.4,0.4-0.7,0.4l0,0C65,13.7,64.8,13.7,64.7,13.6z M25.5,11.7c-0.2-0.4,0-0.9,0.4-1.1l0,0
		c0.4-0.2,0.9,0,1.1,0.4l0,0c0.2,0.4,0,0.9-0.4,1.1l0,0c-0.1,0.1-0.2,0.1-0.3,0.1l0,0C26,12.2,25.7,12,25.5,11.7z M61.8,12
		c-0.4-0.2-0.6-0.7-0.4-1.1l0,0c0.2-0.4,0.7-0.6,1.1-0.4l0,0c0.4,0.2,0.6,0.7,0.4,1.1l0,0c-0.1,0.3-0.4,0.5-0.8,0.5l0,0
		C62.1,12.1,62,12.1,61.8,12z M28.6,10.4c-0.2-0.4,0.1-0.9,0.5-1.1l0,0c0.4-0.2,0.9,0.1,1.1,0.5l0,0c0.2,0.4-0.1,0.9-0.5,1.1l0,0
		c-0.1,0-0.2,0.1-0.3,0.1l0,0C29,10.9,28.7,10.7,28.6,10.4z M58.8,10.7c-0.4-0.2-0.7-0.6-0.5-1.1l0,0C58.5,9.2,59,9,59.4,9.2l0,0
		c0.4,0.2,0.7,0.7,0.5,1.1l0,0c-0.1,0.3-0.4,0.5-0.8,0.5l0,0C59,10.8,58.9,10.8,58.8,10.7z M31.8,9.3c-0.1-0.5,0.1-0.9,0.6-1l0,0
		c0.5-0.1,0.9,0.1,1,0.6l0,0c0.1,0.4-0.1,0.9-0.6,1l0,0c-0.1,0-0.2,0-0.2,0l0,0C32.2,9.9,31.9,9.6,31.8,9.3z M55.7,9.8
		c-0.4-0.1-0.7-0.6-0.6-1l0,0c0.1-0.5,0.6-0.7,1-0.6l0,0c0.5,0.1,0.7,0.6,0.6,1l0,0c-0.1,0.4-0.5,0.6-0.8,0.6l0,0
		C55.8,9.8,55.8,9.8,55.7,9.8z M35,8.4c-0.1-0.5,0.2-0.9,0.7-1l0,0c0.5-0.1,0.9,0.2,1,0.7l0,0c0.1,0.5-0.2,0.9-0.7,1l0,0
		c-0.1,0-0.1,0-0.2,0l0,0C35.5,9.1,35.1,8.8,35,8.4z M52.5,9c-0.5-0.1-0.8-0.5-0.7-1l0,0c0.1-0.5,0.5-0.8,1-0.7l0,0
		c0.5,0.1,0.8,0.5,0.7,1l0,0c-0.1,0.4-0.4,0.7-0.8,0.7l0,0C52.6,9.1,52.5,9.1,52.5,9z M49.2,8.6c-0.5,0-0.8-0.5-0.8-0.9l0,0
		c0-0.5,0.5-0.8,0.9-0.8l0,0c0.5,0,0.8,0.5,0.8,0.9l0,0C50.1,8.3,49.7,8.6,49.2,8.6L49.2,8.6C49.3,8.6,49.2,8.6,49.2,8.6z M38.4,7.8
		c0-0.5,0.3-0.9,0.8-0.9l0,0c0.5,0,0.9,0.3,0.9,0.8l0,0c0,0.5-0.3,0.9-0.8,0.9l0,0c0,0,0,0,0,0l0,0c0,0-0.1,0-0.1,0l0,0
		C38.8,8.6,38.4,8.3,38.4,7.8z M45.9,8.4c-0.5,0-0.8-0.4-0.8-0.9l0,0c0-0.5,0.4-0.8,0.9-0.8l0,0c0.5,0,0.8,0.4,0.8,0.9l0,0
		C46.8,8,46.4,8.4,45.9,8.4L45.9,8.4C45.9,8.4,45.9,8.4,45.9,8.4z M41.7,7.5c0-0.5,0.4-0.9,0.8-0.9h0c0.5,0,0.9,0.4,0.9,0.8l0,0
		c0,0.5-0.3,0.8-0.8,0.9l0,0c0,0,0,0,0,0l0,0C42.1,8.4,41.7,8,41.7,7.5z"/>
</g>
</svg>
