<?xml version="1.0" encoding="utf-8"?>
<!-- Generator: Adobe Illustrator 22.1.0, SVG Export Plug-In . SVG Version: 6.00 Build 0)  -->
<svg version="1.1" id="Livello_1" xmlns="http://www.w3.org/2000/svg" xmlns:xlink="http://www.w3.org/1999/xlink" x="0px" y="0px"
	 viewBox="0 0 88 86" style="enable-background:new 0 0 88 86;" xml:space="preserve">
<style type="text/css">
	.st0{fill:#D6083B;}
	.st1{fill:#000099;}
	.st2{fill:#FFFFFF;}
</style>
<g>
	<circle class="st0" cx="44.5" cy="42.8" r="33.5"/>
	<g>
		<path class="st1" d="M42,79.3c0-0.5,0.4-0.9,0.8-0.9l0,0l0,0l0,0c0.5,0,0.9,0.4,0.9,0.8l0,0c0,0.5-0.4,0.8-0.8,0.9l0,0
			c0,0,0,0,0,0l0,0C42.4,80.1,42,79.8,42,79.3z M39.4,80.1c-0.5,0-0.8-0.4-0.8-0.9l0,0c0-0.5,0.4-0.8,0.9-0.8l0,0
			c0.5,0,0.8,0.4,0.8,0.9l0,0C40.3,79.8,39.9,80.1,39.4,80.1L39.4,80.1C39.4,80.1,39.4,80.1,39.4,80.1z M45.3,79.2
			c0-0.5,0.3-0.9,0.8-0.9l0,0c0.5,0,0.9,0.3,0.9,0.8l0,0c0,0.5-0.3,0.9-0.8,0.9l0,0c0,0,0,0-0.1,0l0,0
			C45.8,79.9,45.4,79.6,45.3,79.2z M36,79.9c-0.5-0.1-0.8-0.5-0.8-0.9l0,0c0.1-0.5,0.5-0.8,0.9-0.8l0,0c0.5,0.1,0.8,0.5,0.8,0.9l0,0
			C36.9,79.6,36.5,79.9,36,79.9L36,79.9C36.1,79.9,36,79.9,36,79.9z M48.7,78.8c0-0.5,0.3-0.9,0.7-0.9l0,0c0.5,0,0.9,0.3,0.9,0.7
			l0,0c0.1,0.5-0.3,0.9-0.7,0.9l0,0c0,0-0.1,0-0.1,0l0,0C49.1,79.6,48.8,79.3,48.7,78.8z M32.6,79.4c-0.5-0.1-0.8-0.5-0.7-1l0,0
			c0.1-0.4,0.5-0.8,1-0.7l0,0l0,0l0,0c0.5,0.1,0.8,0.5,0.7,1l0,0c-0.1,0.4-0.4,0.7-0.8,0.7l0,0C32.7,79.4,32.7,79.4,32.6,79.4z
			 M52,78.4c-0.1-0.5,0.3-0.9,0.7-1l0,0l0,0l0,0c0.5-0.1,0.9,0.2,1,0.7l0,0c0.1,0.5-0.3,0.9-0.7,1l0,0c0,0-0.1,0-0.1,0l0,0
			C52.5,79.1,52.1,78.8,52,78.4z M29.3,78.6c-0.4-0.1-0.7-0.6-0.6-1l0,0c0.1-0.5,0.6-0.7,1-0.6l0,0c0.4,0.1,0.7,0.6,0.6,1l0,0
			c-0.1,0.4-0.5,0.6-0.8,0.6l0,0C29.4,78.6,29.3,78.6,29.3,78.6z M55.4,77.9c-0.1-0.5,0.2-0.9,0.7-1l0,0c0.5-0.1,0.9,0.2,1,0.7l0,0
			c0.1,0.4-0.2,0.9-0.7,1l0,0c0,0-0.1,0-0.2,0l0,0C55.8,78.5,55.4,78.3,55.4,77.9z M58.7,77.2c-0.1-0.4,0.2-0.9,0.6-1l0,0
			c0.5-0.1,0.9,0.2,1,0.6l0,0c0.1,0.4-0.2,0.9-0.6,1l0,0c-0.1,0-0.1,0-0.2,0l0,0C59.1,77.8,58.8,77.6,58.7,77.2z M26,77.4L26,77.4
			c-0.4-0.2-0.6-0.7-0.5-1.1l0,0c0.2-0.4,0.7-0.6,1.1-0.5l0,0c0.4,0.2,0.6,0.7,0.5,1.1l0,0c-0.1,0.3-0.4,0.5-0.8,0.5l0,0
			C26.2,77.5,26.1,77.5,26,77.4z M61.9,76.3c-0.1-0.4,0.1-0.9,0.5-1l0,0l0,0l0,0c0.5-0.1,0.9,0.1,1.1,0.5l0,0c0.1,0.4-0.1,0.9-0.5,1
			l0,0c-0.1,0-0.2,0-0.3,0l0,0C62.4,76.9,62,76.7,61.9,76.3z M22.9,76c-0.4-0.2-0.5-0.7-0.3-1.1l0,0c0.2-0.4,0.7-0.6,1.1-0.3l0,0
			c0.4,0.2,0.6,0.7,0.3,1.1l0,0c-0.2,0.3-0.4,0.4-0.7,0.4l0,0C23.1,76.1,23,76,22.9,76z M65.1,75.3c-0.2-0.4,0-0.9,0.5-1.1l0,0
			c0,0,0,0,0,0l0,0c0.4-0.2,0.9,0,1.1,0.5l0,0c0.2,0.4,0,0.9-0.5,1.1l0,0c-0.1,0-0.2,0.1-0.3,0.1l0,0C65.6,75.8,65.3,75.6,65.1,75.3
			z M68.2,73.9c-0.2-0.4-0.1-0.9,0.4-1.1l0,0c0.4-0.2,0.9-0.1,1.1,0.3l0,0c0.2,0.4,0.1,0.9-0.4,1.1l0,0c-0.1,0.1-0.3,0.1-0.4,0.1
			l0,0C68.6,74.3,68.3,74.2,68.2,73.9z M19.9,74.1c-0.4-0.3-0.5-0.8-0.2-1.2l0,0c0.3-0.4,0.8-0.5,1.2-0.2l0,0
			c0.4,0.3,0.5,0.8,0.2,1.2l0,0c-0.2,0.2-0.4,0.4-0.7,0.4l0,0C20.3,74.3,20.1,74.2,19.9,74.1z M71.1,72.2c-0.3-0.4-0.2-0.9,0.2-1.2
			l0,0c0.4-0.3,0.9-0.2,1.2,0.2l0,0c0.3,0.4,0.2,0.9-0.2,1.2l0,0c-0.1,0.1-0.3,0.2-0.5,0.2l0,0C71.5,72.6,71.3,72.5,71.1,72.2z
			 M17.3,71.9c-0.4-0.3-0.4-0.8,0-1.2l0,0c0.3-0.4,0.9-0.4,1.2-0.1l0,0c0.3,0.3,0.4,0.9,0,1.2l0,0c-0.2,0.2-0.4,0.3-0.6,0.3l0,0
			C17.6,72.1,17.4,72.1,17.3,71.9z M73.8,70.2c-0.3-0.3-0.3-0.9,0-1.2l0,0c0.3-0.3,0.9-0.3,1.2,0l0,0c0.3,0.3,0.3,0.9,0,1.2l0,0
			c-0.2,0.2-0.4,0.2-0.6,0.2l0,0C74.2,70.4,73.9,70.3,73.8,70.2z M14.9,69.4c-0.3-0.4-0.3-0.9,0.1-1.2l0,0c0.4-0.3,0.9-0.3,1.2,0.1
			l0,0l0,0l0,0c0.3,0.4,0.3,0.9-0.1,1.2l0,0c-0.2,0.1-0.4,0.2-0.5,0.2l0,0C15.3,69.7,15,69.6,14.9,69.4z M76.1,67.7
			c-0.4-0.3-0.5-0.8-0.2-1.2l0,0l0,0l0,0c0.3-0.4,0.8-0.5,1.2-0.2l0,0c0.4,0.3,0.5,0.8,0.2,1.2l0,0c-0.2,0.2-0.4,0.3-0.7,0.3l0,0
			C76.4,67.9,76.2,67.8,76.1,67.7z M12.8,66.6c-0.3-0.4-0.2-0.9,0.2-1.2l0,0c0.4-0.3,0.9-0.2,1.2,0.2l0,0c0.3,0.4,0.1,0.9-0.2,1.2
			l0,0C13.8,67,13.6,67,13.5,67l0,0C13.2,67,12.9,66.9,12.8,66.6z M77.9,64.9c-0.4-0.2-0.6-0.7-0.4-1.1l0,0c0.2-0.4,0.7-0.6,1.1-0.4
			l0,0c0.4,0.2,0.6,0.7,0.4,1.1l0,0c-0.2,0.3-0.5,0.5-0.8,0.5l0,0C78.2,65,78.1,65,77.9,64.9z M11,63.7c-0.2-0.4-0.1-0.9,0.3-1.1
			l0,0c0.4-0.2,0.9-0.1,1.1,0.3l0,0c0.2,0.4,0.1,0.9-0.3,1.1l0,0c-0.1,0.1-0.3,0.1-0.4,0.1l0,0C11.4,64.1,11.1,64,11,63.7z
			 M79.3,61.9c-0.4-0.1-0.7-0.6-0.5-1.1l0,0c0.1-0.4,0.6-0.7,1.1-0.5l0,0c0.4,0.1,0.7,0.6,0.5,1.1l0,0c-0.1,0.4-0.4,0.6-0.8,0.6l0,0
			C79.5,61.9,79.4,61.9,79.3,61.9z M9.4,60.6c-0.2-0.4,0-0.9,0.4-1.1l0,0c0.4-0.2,0.9,0,1.1,0.4l0,0l0,0l0,0c0.2,0.4,0,0.9-0.4,1.1
			l0,0c-0.1,0.1-0.2,0.1-0.4,0.1l0,0C9.9,61.1,9.6,60.9,9.4,60.6z M80.3,58.6c-0.5-0.1-0.8-0.5-0.7-1l0,0c0.1-0.5,0.5-0.8,1-0.7l0,0
			c0.5,0.1,0.8,0.5,0.7,1l0,0c-0.1,0.4-0.4,0.7-0.8,0.7l0,0C80.4,58.7,80.3,58.6,80.3,58.6z M8.4,58c-0.2-0.4,0.1-0.9,0.5-1.1l0,0
			c0.4-0.2,0.9,0.1,1.1,0.5l0,0c0.1,0.4-0.1,0.9-0.5,1.1l0,0c-0.1,0-0.2,0-0.3,0l0,0C8.8,58.6,8.5,58.4,8.4,58z M7.3,54.7
			c-0.1-0.4,0.1-0.9,0.6-1l0,0c0.4-0.1,0.9,0.1,1,0.6l0,0c0.1,0.4-0.1,0.9-0.6,1l0,0c-0.1,0-0.1,0-0.2,0l0,0
			C7.8,55.4,7.4,55.1,7.3,54.7z M80.9,55.3c-0.5,0-0.8-0.5-0.8-0.9l0,0c0,0,0,0,0,0l0,0c0-0.5,0.5-0.8,0.9-0.8l0,0
			c0.5,0,0.8,0.5,0.8,0.9l0,0C81.8,55,81.4,55.3,80.9,55.3L80.9,55.3C80.9,55.3,80.9,55.3,80.9,55.3z M6.6,51.4
			c-0.1-0.5,0.2-0.9,0.7-1l0,0c0.5-0.1,0.9,0.2,1,0.7l0,0c0.1,0.5-0.2,0.9-0.7,1l0,0c-0.1,0-0.1,0-0.2,0l0,0
			C7,52.1,6.7,51.8,6.6,51.4z M81.2,52c-0.5,0-0.8-0.4-0.8-0.9l0,0c0-0.5,0.4-0.8,0.9-0.8l0,0c0.5,0,0.8,0.4,0.8,0.9l0,0
			C82,51.6,81.6,52,81.2,52L81.2,52C81.2,52,81.2,52,81.2,52z M6.1,48L6.1,48c0-0.5,0.3-0.9,0.8-0.9l0,0c0.5,0,0.9,0.3,0.9,0.8l0,0
			c0,0.5-0.3,0.9-0.8,0.9l0,0c0,0,0,0-0.1,0l0,0C6.5,48.7,6.2,48.4,6.1,48z M80.3,47.8c0-0.5,0.4-0.9,0.8-0.9l0,0
			c0.5,0,0.9,0.4,0.9,0.8l0,0c0,0.5-0.4,0.9-0.8,0.9l0,0c0,0,0,0,0,0l0,0C80.7,48.6,80.4,48.3,80.3,47.8z M6.9,45.4
			c-0.5,0-0.8-0.4-0.8-0.9l0,0c0-0.5,0.4-0.8,0.9-0.8l0,0c0.5,0,0.8,0.4,0.8,0.9l0,0C7.8,45,7.4,45.4,6.9,45.4L6.9,45.4
			C6.9,45.4,6.9,45.4,6.9,45.4z M80.2,44.5c0-0.5,0.3-0.9,0.8-0.9l0,0c0.5,0,0.9,0.3,0.9,0.8l0,0c0,0.5-0.3,0.9-0.8,0.9l0,0
			c0,0,0,0-0.1,0l0,0C80.6,45.2,80.2,44.9,80.2,44.5z M7,42c-0.5,0-0.8-0.5-0.8-0.9l0,0c0-0.5,0.4-0.8,0.9-0.8l0,0
			c0.5,0,0.8,0.4,0.8,0.9l0,0C7.9,41.7,7.5,42,7,42L7,42C7.1,42,7.1,42,7,42z M79.8,41.1c-0.1-0.5,0.3-0.9,0.7-0.9l0,0
			c0.5-0.1,0.9,0.3,0.9,0.7l0,0c0.1,0.5-0.3,0.9-0.7,0.9l0,0c0,0-0.1,0-0.1,0l0,0C80.3,41.9,79.9,41.6,79.8,41.1z M7.3,38.6
			c-0.5-0.1-0.8-0.5-0.7-0.9l0,0c0.1-0.5,0.5-0.8,1-0.7l0,0c0.5,0.1,0.8,0.5,0.7,1l0,0c-0.1,0.4-0.4,0.7-0.8,0.7l0,0
			C7.4,38.6,7.4,38.6,7.3,38.6z M79.4,37.8c-0.1-0.5,0.3-0.9,0.7-1l0,0c0.5-0.1,0.9,0.3,1,0.7v0c0.1,0.5-0.2,0.9-0.7,1l0,0
			c0,0-0.1,0-0.1,0l0,0C79.8,38.5,79.4,38.3,79.4,37.8z M7.9,35.3c-0.5-0.1-0.8-0.5-0.6-1l0,0c0.1-0.5,0.5-0.8,1-0.7l0,0
			c0.5,0.1,0.8,0.5,0.7,1l0,0C8.8,35,8.4,35.3,8,35.3l0,0C8,35.3,7.9,35.3,7.9,35.3z M78.8,34.5c-0.1-0.5,0.2-0.9,0.7-1l0,0
			c0.5-0.1,0.9,0.2,1,0.7l0,0c0.1,0.5-0.2,0.9-0.7,1l0,0c-0.1,0-0.1,0-0.2,0l0,0C79.3,35.2,78.9,34.9,78.8,34.5z M8.6,32
			c-0.4-0.1-0.7-0.6-0.6-1l0,0c0.1-0.5,0.6-0.7,1-0.6l0,0c0.4,0.1,0.7,0.6,0.6,1l0,0C9.5,31.8,9.2,32,8.8,32l0,0
			C8.8,32,8.7,32,8.6,32z M78.1,31.3c-0.1-0.5,0.1-0.9,0.6-1l0,0c0.5-0.1,0.9,0.1,1,0.6l0,0c0.1,0.4-0.1,0.9-0.6,1l0,0
			c-0.1,0-0.1,0-0.2,0l0,0C78.5,31.9,78.2,31.7,78.1,31.3z M9.6,28.8c-0.4-0.2-0.7-0.6-0.5-1.1l0,0c0.2-0.4,0.6-0.6,1.1-0.5l0,0
			c0.4,0.2,0.7,0.6,0.5,1.1l0,0c-0.1,0.3-0.5,0.5-0.8,0.5l0,0C9.8,28.8,9.7,28.8,9.6,28.8z M77,28.2C77,28.2,77,28.2,77,28.2
			L77,28.2c-0.2-0.4,0.1-0.9,0.5-1.1l0,0c0.4-0.2,0.9,0,1.1,0.5l0,0c0.2,0.4,0,0.9-0.5,1.1l0,0c-0.1,0-0.2,0.1-0.3,0.1l0,0
			C77.5,28.8,77.2,28.5,77,28.2z M10.8,25.7c-0.4-0.2-0.6-0.7-0.4-1.1l0,0c0.2-0.4,0.7-0.6,1.1-0.4l0,0c0.4,0.2,0.6,0.7,0.4,1.1l0,0
			c-0.1,0.3-0.4,0.5-0.8,0.5l0,0C11.1,25.8,11,25.7,10.8,25.7z M75.7,25.2c-0.2-0.4,0-0.9,0.4-1.1l0,0c0.4-0.2,0.9,0,1.1,0.4l0,0
			c0.2,0.4,0.1,0.9-0.4,1.1l0,0c-0.1,0.1-0.3,0.1-0.4,0.1l0,0C76.1,25.7,75.8,25.5,75.7,25.2z M12.4,22.7c-0.4-0.2-0.5-0.8-0.3-1.2
			l0,0c0.3-0.4,0.8-0.5,1.2-0.3l0,0c0.4,0.3,0.5,0.8,0.3,1.2l0,0c-0.2,0.3-0.4,0.4-0.7,0.4l0,0C12.7,22.8,12.5,22.8,12.4,22.7z
			 M74,22.4c-0.3-0.4-0.2-0.9,0.2-1.2l0,0c0.4-0.3,0.9-0.2,1.2,0.2l0,0c0.3,0.4,0.2,0.9-0.2,1.2l0,0c-0.1,0.1-0.3,0.1-0.5,0.1l0,0
			C74.4,22.8,74.2,22.7,74,22.4z M72,19.9c-0.3-0.3-0.3-0.9,0.1-1.2l0,0c0.3-0.3,0.9-0.3,1.2,0.1l0,0c0.3,0.3,0.3,0.9-0.1,1.2l0,0
			c-0.2,0.1-0.4,0.2-0.6,0.2l0,0C72.4,20.1,72.2,20.1,72,19.9z M14.3,19.9c-0.4-0.3-0.4-0.8-0.1-1.2l0,0c0.3-0.4,0.8-0.4,1.2-0.1
			l0,0c0.4,0.3,0.4,0.8,0.1,1.2l0,0c-0.2,0.2-0.4,0.3-0.7,0.3l0,0C14.6,20.1,14.4,20,14.3,19.9z M69.7,17.6
			c-0.4-0.3-0.4-0.8-0.1-1.2l0,0c0.3-0.4,0.8-0.4,1.2-0.1l0,0c0.3,0.3,0.4,0.8,0.1,1.2l0,0c-0.2,0.2-0.4,0.3-0.6,0.3l0,0
			C70,17.8,69.8,17.7,69.7,17.6z M16.4,17.3c-0.3-0.3-0.3-0.9,0-1.2l0,0c0.3-0.3,0.9-0.3,1.2,0l0,0c0.3,0.3,0.3,0.9,0,1.2l0,0
			c-0.2,0.2-0.4,0.2-0.6,0.2l0,0C16.8,17.6,16.6,17.5,16.4,17.3z M67.1,15.6c-0.4-0.3-0.5-0.8-0.2-1.2l0,0c0.3-0.4,0.8-0.5,1.2-0.2
			l0,0c0.4,0.3,0.5,0.8,0.2,1.2l0,0c-0.2,0.3-0.4,0.4-0.7,0.4l0,0C67.4,15.8,67.2,15.7,67.1,15.6z M18.9,15
			c-0.3-0.4-0.2-0.9,0.2-1.2l0,0c0.4-0.3,0.9-0.2,1.2,0.2l0,0c0.3,0.4,0.2,0.9-0.2,1.2l0,0c-0.1,0.1-0.3,0.2-0.5,0.2l0,0
			C19.3,15.4,19.1,15.3,18.9,15z M64.3,13.9c-0.4-0.2-0.6-0.7-0.4-1.1l0,0c0.2-0.4,0.7-0.6,1.1-0.4l0,0c0.4,0.2,0.6,0.7,0.4,1.1l0,0
			C65.3,13.9,65,14,64.6,14l0,0C64.5,14,64.4,14,64.3,13.9z M21.6,13.1c-0.2-0.4-0.1-0.9,0.3-1.1l0,0c0.4-0.2,0.9-0.1,1.1,0.3l0,0
			c0.2,0.4,0.1,0.9-0.3,1.1l0,0c-0.1,0.1-0.3,0.1-0.4,0.1l0,0C22.1,13.5,21.8,13.4,21.6,13.1z M61.3,12.6L61.3,12.6L61.3,12.6
			c-0.4-0.2-0.6-0.7-0.5-1.1l0,0c0.2-0.4,0.7-0.6,1.1-0.5v0c0.4,0.2,0.6,0.7,0.5,1.1l0,0c-0.1,0.3-0.5,0.5-0.8,0.5l0,0
			C61.5,12.6,61.4,12.6,61.3,12.6z M24.6,11.5c-0.2-0.4,0-0.9,0.4-1.1l0,0c0.4-0.2,0.9,0,1.1,0.4l0,0c0.2,0.4,0,0.9-0.4,1.1l0,0
			C25.6,12,25.5,12,25.4,12l0,0C25.1,12,24.8,11.8,24.6,11.5z M58.2,11.5c-0.4-0.1-0.7-0.6-0.5-1.1l0,0c0.1-0.4,0.6-0.7,1-0.6l0,0
			c0.4,0.1,0.7,0.6,0.6,1.1l0,0c-0.1,0.4-0.4,0.6-0.8,0.6l0,0C58.3,11.5,58.3,11.5,58.2,11.5z M27.7,10.3c-0.1-0.5,0.1-0.9,0.6-1.1
			l0,0c0.4-0.1,0.9,0.1,1,0.5l0,0c0.1,0.5-0.1,0.9-0.5,1.1l0,0c-0.1,0-0.2,0-0.3,0l0,0C28.2,10.8,27.8,10.6,27.7,10.3z M55,10.6
			L55,10.6L55,10.6c-0.4-0.1-0.7-0.6-0.6-1l0,0c0.1-0.5,0.6-0.7,1-0.6l0,0c0.5,0.1,0.7,0.6,0.6,1l0,0c-0.1,0.4-0.4,0.7-0.8,0.7l0,0
			C55.1,10.6,55.1,10.6,55,10.6z M31,9.3c-0.1-0.5,0.2-0.9,0.6-1l0,0c0.5-0.1,0.9,0.2,1,0.7l0,0c0.1,0.4-0.2,0.9-0.6,1l0,0
			c-0.1,0-0.1,0-0.2,0l0,0C31.4,10,31,9.7,31,9.3z M51.7,10C51.3,9.9,51,9.4,51,9l0,0c0.1-0.5,0.5-0.8,1-0.7l0,0
			c0.5,0.1,0.8,0.5,0.7,1l0,0c-0.1,0.4-0.4,0.7-0.8,0.7l0,0C51.8,10,51.8,10,51.7,10z M48.4,9.5c-0.5,0-0.8-0.5-0.7-0.9l0,0
			c0-0.5,0.5-0.8,0.9-0.8l0,0c0.5,0.1,0.8,0.5,0.7,0.9l0,0c0,0.4-0.4,0.8-0.8,0.8l0,0C48.5,9.5,48.5,9.5,48.4,9.5z M34.3,8.7
			c-0.1-0.5,0.3-0.9,0.7-0.9l0,0c0.5-0.1,0.9,0.3,0.9,0.7l0,0C36,9,35.7,9.4,35.2,9.4l0,0c0,0-0.1,0-0.1,0l0,0
			C34.7,9.4,34.3,9.1,34.3,8.7z M45.1,9.2L45.1,9.2L45.1,9.2c-0.5,0-0.8-0.4-0.8-0.9l0,0c0-0.5,0.4-0.8,0.9-0.8l0,0
			c0.5,0,0.8,0.4,0.8,0.9l0,0C46,8.9,45.6,9.2,45.1,9.2L45.1,9.2C45.2,9.2,45.2,9.2,45.1,9.2z M37.6,8.3c0-0.5,0.3-0.9,0.8-0.9l0,0
			c0.5,0,0.9,0.3,0.9,0.8l0,0c0,0.5-0.3,0.9-0.8,0.9l0,0c0,0,0,0,0,0l0,0C38,9.1,37.6,8.8,37.6,8.3z M41.8,9.1
			c-0.5,0-0.8-0.4-0.8-0.9l0,0c0-0.5,0.4-0.8,0.9-0.8l0,0c0.5,0,0.8,0.4,0.8,0.9l0,0C42.7,8.7,42.3,9.1,41.8,9.1L41.8,9.1
			C41.8,9.1,41.8,9.1,41.8,9.1z"/>
	</g>
	<g>
		<path class="st2" d="M37.7,30.4c2.2,0,4.1-1.8,4.1-4.1v-1.6c0-2.2-1.8-4.1-4.1-4.1s-4.1,1.8-4.1,4.1v1.6
			C33.6,28.6,35.5,30.4,37.7,30.4z M35.3,24.7c0-1.3,1.1-2.4,2.4-2.4s2.4,1.1,2.4,2.4v1.6c0,1.3-1.1,2.4-2.4,2.4s-2.4-1.1-2.4-2.4
			V24.7z"/>
		<path class="st2" d="M54,32.2c2.2,0,4.1-1.8,4.1-4.1v-1.6c0-2.2-1.8-4.1-4.1-4.1c-2.2,0-4.1,1.8-4.1,4.1v1.6
			C49.9,30.4,51.8,32.2,54,32.2z M51.6,26.5c0-1.3,1.1-2.4,2.4-2.4c1.3,0,2.4,1.1,2.4,2.4v1.6c0,1.3-1.1,2.4-2.4,2.4
			c-1.3,0-2.4-1.1-2.4-2.4V26.5z"/>
		<path class="st2" d="M32.7,47.2l-3.1-2.5l3.7-9.9h9.2l1.4,3.6l1.6-0.6l-1.6-4.2c-0.1-0.3-0.4-0.5-0.8-0.5H32.7
			c-0.4,0-0.7,0.2-0.8,0.5l-4.1,11c-0.1,0.3,0,0.7,0.3,0.9l3.3,2.7L33,61.7l1.7-0.2L33,47.8C33,47.6,32.9,47.4,32.7,47.2z"/>
		<path class="st2" d="M63.5,46.5l-4.1-11c-0.1-0.3-0.4-0.5-0.8-0.5h-9.7v1.7H58l3.7,9.9l-3.1,2.5c-0.2,0.1-0.3,0.3-0.3,0.6
			l-1.4,11.9l1.7,0.2L60,50.1l3.3-2.7C63.5,47.2,63.6,46.8,63.5,46.5z"/>
		<path class="st2" d="M54.7,47.8c-0.2-0.1-4-1.4-8.1,1c-1.1,0.6-1.9,1.4-2.4,2.2c-0.2-0.5-0.3-1-0.6-1.5c0.3-1,0.9-3.6-1.3-6.3
			c-3-3.7-7-3.9-7.2-3.9c-0.4,0-0.8,0.3-0.9,0.7c0,0.2-0.6,4.3,2.3,7.7c1.9,2.4,4.5,2.6,5.7,2.6c1.9,4.3,0.1,10.3,0.1,10.4l1.6,0.5
			c0.1-0.2,0.8-2.5,0.8-5.5c1.3,0.4,3.3,0.6,5.6-0.6c3.9-2.2,4.9-6.2,4.9-6.4C55.4,48.4,55.1,47.9,54.7,47.8z M42.1,48.7
			C42.1,48.7,42.1,48.7,42.1,48.7c-0.9,0-2.8-0.2-4.3-2c-1.6-2-1.9-4.4-1.9-5.6c1.2,0.2,3.3,0.9,5.1,3.1
			C42.6,46.1,42.4,47.9,42.1,48.7z M49.5,53.7c-2,1.1-3.9,0.6-4.7,0.3c0.1-0.8,0.5-2.6,2.6-3.8c2.5-1.4,4.8-1.3,5.9-1
			C52.9,50.3,51.8,52.4,49.5,53.7z"/>
	</g>
</g>
</svg>
