<?xml version="1.0" encoding="utf-8"?>
<!-- Generator: Adobe Illustrator 22.1.0, SVG Export Plug-In . SVG Version: 6.00 Build 0)  -->
<svg version="1.1" id="Livello_1" xmlns="http://www.w3.org/2000/svg" xmlns:xlink="http://www.w3.org/1999/xlink" x="0px" y="0px"
	 viewBox="0 0 88 86" style="enable-background:new 0 0 88 86;" xml:space="preserve">
<style type="text/css">
	.st0{fill:#C8009C;}
	.st1{fill:#000099;}
	.st2{fill:#FFFFFF;}
</style>
<circle class="st0" cx="44.7" cy="42.1" r="33.5"/>
<g>
	<path class="st1" d="M42,78.6c0-0.5,0.4-0.9,0.8-0.9l0,0l0,0l0,0c0.5,0,0.9,0.3,0.9,0.8l0,0c0,0.5-0.4,0.9-0.8,0.9l0,0c0,0,0,0,0,0
		l0,0C42.4,79.4,42,79,42,78.6z M39.4,79.4c-0.5,0-0.8-0.4-0.8-0.9l0,0c0-0.5,0.4-0.8,0.9-0.8l0,0c0.5,0,0.8,0.4,0.8,0.9l0,0
		C40.3,79,39.9,79.4,39.4,79.4L39.4,79.4C39.4,79.4,39.4,79.4,39.4,79.4z M45.3,78.4c0-0.5,0.3-0.9,0.8-0.9l0,0
		c0.5,0,0.9,0.3,0.9,0.8l0,0c0,0.5-0.3,0.9-0.8,0.9l0,0c0,0,0,0-0.1,0l0,0C45.8,79.2,45.4,78.9,45.3,78.4z M36,79.2
		c-0.5-0.1-0.8-0.5-0.8-0.9l0,0c0.1-0.5,0.5-0.8,0.9-0.8l0,0c0.5,0,0.8,0.5,0.8,0.9l0,0C36.9,78.9,36.5,79.2,36,79.2L36,79.2
		C36.1,79.2,36,79.2,36,79.2z M48.7,78.1c0-0.5,0.3-0.9,0.7-0.9l0,0c0.5-0.1,0.9,0.3,0.9,0.7l0,0c0.1,0.5-0.3,0.9-0.7,0.9l0,0
		c0,0-0.1,0-0.1,0l0,0C49.1,78.9,48.8,78.5,48.7,78.1z M32.6,78.7c-0.5-0.1-0.8-0.5-0.7-1l0,0c0.1-0.5,0.5-0.8,1-0.7l0,0l0,0l0,0
		c0.5,0.1,0.8,0.5,0.7,1l0,0c-0.1,0.4-0.4,0.7-0.8,0.7l0,0C32.7,78.7,32.7,78.7,32.6,78.7z M52,77.7c-0.1-0.5,0.3-0.9,0.7-1l0,0l0,0
		l0,0c0.5-0.1,0.9,0.3,1,0.7l0,0c0.1,0.5-0.3,0.9-0.7,1l0,0c0,0-0.1,0-0.1,0l0,0C52.5,78.4,52.1,78.1,52,77.7z M29.3,77.9
		c-0.4-0.1-0.7-0.6-0.6-1l0,0c0.1-0.4,0.6-0.7,1-0.6l0,0l0,0l0,0c0.4,0.1,0.7,0.6,0.6,1l0,0c-0.1,0.4-0.5,0.6-0.8,0.6l0,0
		C29.4,77.9,29.3,77.9,29.3,77.9z M55.4,77.1c-0.1-0.5,0.2-0.9,0.7-1l0,0c0.5-0.1,0.9,0.2,1,0.7l0,0c0.1,0.5-0.2,0.9-0.7,1l0,0
		c0,0-0.1,0-0.2,0l0,0C55.8,77.8,55.4,77.5,55.4,77.1z M58.7,76.5c-0.1-0.4,0.2-0.9,0.6-1l0,0l0,0l0,0c0.5-0.1,0.9,0.2,1,0.6l0,0
		c0.1,0.5-0.2,0.9-0.6,1h0c-0.1,0-0.1,0-0.2,0l0,0C59.1,77.1,58.8,76.9,58.7,76.5z M26,76.7L26,76.7c-0.4-0.2-0.6-0.7-0.5-1.1l0,0
		c0.2-0.4,0.7-0.6,1.1-0.5l0,0c0.4,0.2,0.6,0.7,0.5,1.1l0,0c-0.1,0.3-0.4,0.5-0.8,0.5l0,0C26.2,76.8,26.1,76.8,26,76.7z M61.9,75.6
		c-0.1-0.4,0.1-0.9,0.5-1.1l0,0c0.5-0.1,0.9,0.1,1.1,0.5l0,0c0.1,0.5-0.1,0.9-0.5,1.1l0,0c-0.1,0-0.2,0-0.3,0l0,0
		C62.4,76.2,62,76,61.9,75.6z M22.9,75.3c-0.4-0.2-0.5-0.7-0.3-1.1l0,0c0.2-0.4,0.7-0.6,1.1-0.3l0,0c0.4,0.2,0.5,0.7,0.3,1.1l0,0
		c-0.2,0.3-0.4,0.4-0.7,0.4l0,0C23.1,75.4,23,75.3,22.9,75.3z M65.1,74.5c-0.2-0.4,0-0.9,0.5-1.1l0,0c0.4-0.2,0.9,0,1.1,0.5l0,0
		c0.2,0.4,0,0.9-0.5,1.1l0,0c-0.1,0-0.2,0.1-0.3,0.1l0,0C65.6,75.1,65.3,74.9,65.1,74.5z M68.2,73.2c-0.2-0.4-0.1-0.9,0.4-1.1l0,0
		c0.4-0.2,0.9-0.1,1.1,0.3l0,0c0.2,0.4,0.1,0.9-0.4,1.1l0,0c-0.1,0.1-0.3,0.1-0.4,0.1l0,0C68.6,73.6,68.3,73.5,68.2,73.2z
		 M19.9,73.4c-0.4-0.3-0.5-0.8-0.2-1.2l0,0c0.3-0.4,0.8-0.5,1.2-0.2l0,0c0,0,0,0,0,0l0,0c0.4,0.3,0.5,0.8,0.2,1.2l0,0
		c-0.2,0.2-0.4,0.4-0.7,0.4l0,0C20.3,73.6,20.1,73.5,19.9,73.4z M71.1,71.5c-0.3-0.4-0.2-0.9,0.2-1.2l0,0c0.4-0.3,0.9-0.2,1.2,0.2
		l0,0c0.3,0.4,0.2,0.9-0.2,1.2l0,0c-0.1,0.1-0.3,0.2-0.5,0.2l0,0C71.5,71.9,71.3,71.8,71.1,71.5z M17.3,71.2L17.3,71.2
		c-0.4-0.3-0.4-0.9,0-1.2l0,0c0.3-0.3,0.9-0.4,1.2-0.1l0,0c0.3,0.3,0.4,0.9,0,1.2l0,0c-0.2,0.2-0.4,0.3-0.6,0.3l0,0
		C17.6,71.4,17.4,71.4,17.3,71.2z M73.8,69.5c-0.3-0.3-0.3-0.9,0-1.2l0,0c0.3-0.3,0.9-0.3,1.2,0l0,0c0.3,0.3,0.3,0.9,0,1.2l0,0
		c-0.2,0.2-0.4,0.2-0.6,0.2l0,0C74.2,69.7,73.9,69.6,73.8,69.5z M14.9,68.7c-0.3-0.4-0.3-0.9,0.1-1.2l0,0c0.4-0.3,0.9-0.3,1.2,0.1
		l0,0l0,0l0,0c0.3,0.4,0.3,0.9-0.1,1.2l0,0c-0.2,0.1-0.4,0.2-0.5,0.2l0,0C15.3,69,15,68.9,14.9,68.7z M76.1,67
		c-0.4-0.3-0.5-0.8-0.2-1.2l0,0c0.3-0.4,0.8-0.5,1.2-0.2l0,0c0.4,0.3,0.5,0.8,0.2,1.2l0,0c-0.2,0.2-0.4,0.4-0.7,0.4l0,0
		C76.4,67.2,76.2,67.1,76.1,67z M12.8,65.9c-0.3-0.4-0.2-0.9,0.2-1.2l0,0c0.4-0.3,0.9-0.2,1.2,0.2l0,0l0,0l0,0
		c0.3,0.4,0.1,0.9-0.2,1.2l0,0c-0.1,0.1-0.3,0.1-0.5,0.1l0,0C13.2,66.3,12.9,66.2,12.8,65.9z M77.9,64.2c-0.4-0.2-0.6-0.7-0.4-1.1
		l0,0c0.2-0.4,0.7-0.6,1.1-0.4l0,0c0.4,0.2,0.6,0.7,0.4,1.1l0,0c-0.2,0.3-0.5,0.5-0.8,0.5l0,0C78.2,64.3,78.1,64.3,77.9,64.2z
		 M11,63c-0.2-0.4-0.1-0.9,0.3-1.1l0,0c0.4-0.2,0.9-0.1,1.1,0.3l0,0c0.2,0.4,0.1,0.9-0.3,1.1l0,0c-0.1,0.1-0.3,0.1-0.4,0.1l0,0
		C11.4,63.4,11.1,63.3,11,63z M79.3,61.2c-0.4-0.1-0.7-0.6-0.5-1.1l0,0c0.1-0.4,0.6-0.7,1.1-0.5l0,0c0.4,0.1,0.7,0.6,0.5,1.1l0,0
		c-0.1,0.4-0.4,0.6-0.8,0.6l0,0C79.5,61.2,79.4,61.2,79.3,61.2z M9.4,59.9c-0.2-0.4,0-0.9,0.4-1.1l0,0c0.4-0.2,0.9,0,1.1,0.4l0,0
		c0.2,0.4,0,0.9-0.4,1.1l0,0c-0.1,0-0.2,0.1-0.4,0.1l0,0C9.9,60.4,9.6,60.2,9.4,59.9z M80.3,57.9c-0.5-0.1-0.8-0.5-0.7-1l0,0
		c0.1-0.5,0.5-0.8,1-0.7l0,0c0.5,0.1,0.8,0.5,0.7,1l0,0c-0.1,0.4-0.4,0.7-0.8,0.7l0,0C80.4,57.9,80.4,57.9,80.3,57.9z M8.4,57.3
		c-0.2-0.4,0.1-0.9,0.5-1.1l0,0c0.4-0.2,0.9,0.1,1.1,0.5l0,0c0.1,0.4-0.1,0.9-0.5,1.1l0,0c-0.1,0-0.2,0.1-0.3,0.1l0,0
		C8.8,57.9,8.5,57.7,8.4,57.3z M7.3,54L7.3,54c-0.1-0.5,0.1-0.9,0.6-1l0,0c0.4-0.1,0.9,0.1,1,0.6l0,0l0,0l0,0c0.1,0.5-0.1,0.9-0.6,1
		l0,0c-0.1,0-0.1,0-0.2,0l0,0C7.8,54.7,7.4,54.4,7.3,54z M80.9,54.6c-0.5,0-0.8-0.5-0.8-0.9l0,0c0-0.5,0.5-0.8,0.9-0.8l0,0
		c0.5,0.1,0.8,0.5,0.8,0.9l0,0C81.8,54.3,81.4,54.6,80.9,54.6L80.9,54.6C80.9,54.6,80.9,54.6,80.9,54.6z M6.6,50.7
		c-0.1-0.5,0.2-0.9,0.7-1l0,0c0.5-0.1,0.9,0.2,1,0.7l0,0c0.1,0.5-0.2,0.9-0.7,1l0,0c-0.1,0-0.1,0-0.2,0l0,0
		C7,51.4,6.7,51.1,6.6,50.7z M81.2,51.3c-0.5,0-0.8-0.4-0.8-0.9l0,0l0,0l0,0c0-0.5,0.4-0.8,0.9-0.8l0,0c0.5,0,0.8,0.4,0.8,0.9l0,0
		C82,50.9,81.6,51.3,81.2,51.3L81.2,51.3C81.2,51.3,81.2,51.3,81.2,51.3z M6.1,47.3c0-0.5,0.3-0.9,0.8-0.9l0,0
		c0.5,0,0.9,0.3,0.9,0.8l0,0C7.8,47.6,7.5,48,7,48l0,0c0,0,0,0-0.1,0l0,0C6.5,48,6.2,47.7,6.1,47.3z M80.3,47.1
		c0-0.5,0.4-0.8,0.8-0.9l0,0c0.5,0,0.9,0.4,0.9,0.8l0,0c0,0.5-0.4,0.9-0.8,0.9l0,0c0,0,0,0,0,0l0,0C80.7,47.9,80.4,47.5,80.3,47.1z
		 M6.9,44.7c-0.5,0-0.8-0.4-0.8-0.9l0,0c0-0.5,0.4-0.8,0.9-0.8l0,0c0.5,0,0.8,0.4,0.8,0.9l0,0l0,0l0,0C7.8,44.3,7.4,44.7,6.9,44.7
		L6.9,44.7C6.9,44.7,6.9,44.7,6.9,44.7z M80.2,43.8c0-0.5,0.3-0.9,0.8-0.9l0,0c0.5,0,0.9,0.3,0.9,0.8l0,0c0,0.5-0.3,0.9-0.8,0.9l0,0
		c0,0,0,0-0.1,0l0,0C80.6,44.5,80.2,44.2,80.2,43.8z M7,41.3c-0.5,0-0.8-0.4-0.8-0.9l0,0c0-0.5,0.4-0.8,0.9-0.8l0,0
		c0.5,0,0.8,0.4,0.8,0.9l0,0C7.9,41,7.5,41.3,7,41.3L7,41.3C7.1,41.3,7,41.3,7,41.3z M79.8,40.4L79.8,40.4L79.8,40.4
		c-0.1-0.5,0.3-0.9,0.7-0.9l0,0c0.5-0.1,0.9,0.3,0.9,0.7l0,0c0.1,0.5-0.3,0.9-0.7,0.9l0,0c0,0-0.1,0-0.1,0l0,0
		C80.3,41.2,79.9,40.9,79.8,40.4z M7.3,37.9c-0.5-0.1-0.8-0.5-0.7-0.9l0,0c0.1-0.5,0.5-0.8,1-0.7l0,0c0.5,0.1,0.8,0.5,0.7,0.9l0,0
		c-0.1,0.4-0.4,0.7-0.8,0.7l0,0C7.4,37.9,7.4,37.9,7.3,37.9z M79.4,37.1c-0.1-0.5,0.3-0.9,0.7-1l0,0c0.5-0.1,0.9,0.3,1,0.7h0
		c0.1,0.5-0.2,0.9-0.7,1l0,0c0,0-0.1,0-0.1,0l0,0C79.8,37.8,79.4,37.5,79.4,37.1z M7.9,34.6c-0.5-0.1-0.8-0.5-0.6-1h0
		c0.1-0.5,0.5-0.8,1-0.7l0,0c0.5,0.1,0.8,0.5,0.6,1l0,0c-0.1,0.4-0.4,0.7-0.8,0.7l0,0C8,34.6,7.9,34.6,7.9,34.6z M78.8,33.8
		c-0.1-0.5,0.2-0.9,0.7-1l0,0c0.5-0.1,0.9,0.2,1,0.7l0,0c0.1,0.4-0.2,0.9-0.7,1l0,0c-0.1,0-0.1,0-0.2,0l0,0
		C79.3,34.5,78.9,34.3,78.8,33.8z M8.6,31.3c-0.4-0.1-0.7-0.6-0.6-1l0,0c0.1-0.4,0.6-0.7,1-0.6l0,0c0.4,0.1,0.7,0.6,0.6,1l0,0l0,0
		l0,0c-0.1,0.4-0.4,0.6-0.8,0.6l0,0C8.8,31.3,8.7,31.3,8.6,31.3z M78.1,30.6L78.1,30.6L78.1,30.6c-0.1-0.5,0.1-0.9,0.6-1l0,0
		c0.4-0.1,0.9,0.1,1,0.6l0,0c0.1,0.4-0.1,0.9-0.6,1l0,0c-0.1,0-0.1,0-0.2,0l0,0C78.5,31.3,78.2,31,78.1,30.6z M9.6,28.1
		c-0.4-0.2-0.7-0.6-0.5-1.1l0,0c0.2-0.4,0.6-0.7,1.1-0.5l0,0c0.4,0.2,0.7,0.6,0.5,1.1l0,0c-0.1,0.3-0.5,0.6-0.8,0.6l0,0
		C9.8,28.1,9.7,28.1,9.6,28.1z M77,27.5L77,27.5L77,27.5c-0.2-0.4,0.1-0.9,0.5-1.1l0,0c0.4-0.2,0.9,0,1.1,0.5l0,0
		c0.2,0.4,0,0.9-0.5,1.1l0,0C78,28,77.9,28,77.8,28l0,0C77.5,28,77.2,27.8,77,27.5z M10.8,25c-0.4-0.2-0.6-0.7-0.4-1.1l0,0
		c0.2-0.4,0.7-0.6,1.1-0.4l0,0c0.4,0.2,0.6,0.7,0.4,1.1l0,0c-0.1,0.3-0.4,0.5-0.8,0.5l0,0C11.1,25,11,25,10.8,25z M75.7,24.5
		c-0.2-0.4,0-0.9,0.4-1.1l0,0c0.4-0.2,0.9-0.1,1.1,0.4l0,0c0.2,0.4,0.1,0.9-0.4,1.1l0,0c-0.1,0.1-0.3,0.1-0.4,0.1l0,0
		C76.1,25,75.8,24.8,75.7,24.5z M12.4,22c-0.4-0.3-0.5-0.8-0.3-1.2l0,0c0.3-0.4,0.8-0.5,1.2-0.3l0,0c0.4,0.3,0.5,0.8,0.3,1.2l0,0
		c-0.2,0.3-0.4,0.4-0.7,0.4l0,0C12.7,22.1,12.5,22.1,12.4,22z M74,21.7L74,21.7L74,21.7c-0.3-0.4-0.2-0.9,0.2-1.2l0,0
		c0.4-0.3,0.9-0.2,1.2,0.2l0,0c0.3,0.4,0.2,0.9-0.2,1.2l0,0c-0.1,0.1-0.3,0.1-0.5,0.1l0,0C74.4,22.1,74.2,22,74,21.7z M72,19.2
		c-0.3-0.4-0.3-0.9,0.1-1.2l0,0c0.3-0.3,0.9-0.3,1.2,0.1l0,0c0.3,0.3,0.3,0.9-0.1,1.2l0,0c-0.2,0.1-0.4,0.2-0.6,0.2l0,0
		C72.4,19.4,72.2,19.3,72,19.2z M14.3,19.2c-0.4-0.3-0.4-0.8-0.1-1.2l0,0c0.3-0.4,0.8-0.4,1.2-0.1l0,0c0.4,0.3,0.4,0.8,0.1,1.2l0,0
		c-0.2,0.2-0.4,0.3-0.7,0.3l0,0C14.6,19.4,14.4,19.3,14.3,19.2z M69.7,16.9c-0.4-0.3-0.4-0.8-0.1-1.2l0,0c0.3-0.4,0.8-0.4,1.2-0.1
		l0,0c0.3,0.3,0.4,0.8,0.1,1.2l0,0c-0.2,0.2-0.4,0.3-0.6,0.3l0,0C70,17.1,69.8,17,69.7,16.9z M16.4,16.6c-0.3-0.3-0.3-0.9,0-1.2l0,0
		c0.3-0.3,0.9-0.3,1.2,0l0,0c0.3,0.3,0.3,0.9,0,1.2l0,0c-0.2,0.2-0.4,0.2-0.6,0.2l0,0C16.8,16.9,16.6,16.8,16.4,16.6z M67.1,14.9
		C67.1,14.9,67.1,14.9,67.1,14.9L67.1,14.9c-0.4-0.3-0.5-0.8-0.2-1.2l0,0c0.3-0.4,0.8-0.5,1.2-0.2l0,0c0.4,0.3,0.5,0.8,0.2,1.2l0,0
		c-0.2,0.2-0.4,0.4-0.7,0.4l0,0C67.4,15,67.2,15,67.1,14.9z M18.9,14.3c-0.3-0.4-0.2-0.9,0.2-1.2l0,0c0.4-0.3,0.9-0.2,1.2,0.2l0,0
		c0.3,0.4,0.2,0.9-0.2,1.2l0,0c-0.1,0.1-0.3,0.2-0.5,0.2l0,0C19.3,14.7,19.1,14.5,18.9,14.3z M64.3,13.2c-0.4-0.2-0.6-0.7-0.4-1.1
		l0,0c0.2-0.4,0.7-0.6,1.1-0.4l0,0c0.4,0.2,0.6,0.7,0.4,1.1l0,0c-0.1,0.3-0.5,0.4-0.8,0.4l0,0C64.5,13.3,64.4,13.3,64.3,13.2z
		 M21.6,12.4c-0.2-0.4-0.1-0.9,0.3-1.1l0,0c0.4-0.2,0.9-0.1,1.1,0.3l0,0c0.2,0.4,0.1,0.9-0.3,1.1l0,0c0,0,0,0,0,0l0,0
		c-0.1,0.1-0.3,0.1-0.4,0.1l0,0C22.1,12.8,21.8,12.7,21.6,12.4z M61.3,11.9c-0.4-0.2-0.6-0.7-0.5-1.1l0,0c0.2-0.4,0.7-0.6,1.1-0.5
		l0,0c0.4,0.2,0.6,0.7,0.5,1.1l0,0c-0.1,0.3-0.5,0.5-0.8,0.5l0,0C61.5,11.9,61.4,11.9,61.3,11.9z M24.6,10.8c-0.2-0.4,0-0.9,0.4-1.1
		l0,0c0.4-0.2,0.9,0,1.1,0.4l0,0c0.2,0.4,0,0.9-0.4,1.1l0,0l0,0l0,0c-0.1,0-0.2,0.1-0.3,0.1l0,0C25.1,11.3,24.8,11.1,24.6,10.8z
		 M58.2,10.8c-0.4-0.1-0.7-0.6-0.6-1.1l0,0c0.1-0.4,0.6-0.7,1.1-0.5l0,0c0.4,0.1,0.7,0.6,0.6,1l0,0c-0.1,0.4-0.4,0.6-0.8,0.6l0,0
		C58.3,10.8,58.3,10.8,58.2,10.8z M27.7,9.5c-0.1-0.4,0.1-0.9,0.6-1.1l0,0c0.4-0.1,0.9,0.1,1,0.6l0,0c0.1,0.4-0.1,0.9-0.5,1l0,0
		c-0.1,0-0.2,0-0.3,0l0,0C28.2,10.1,27.8,9.9,27.7,9.5z M55,9.9L55,9.9L55,9.9c-0.4-0.1-0.7-0.6-0.6-1l0,0c0.1-0.5,0.6-0.7,1-0.6
		l0,0c0.5,0.1,0.7,0.6,0.6,1l0,0c-0.1,0.4-0.4,0.6-0.8,0.6l0,0C55.1,9.9,55.1,9.9,55,9.9z M31,8.6c-0.1-0.5,0.2-0.9,0.6-1l0,0
		c0.5-0.1,0.9,0.2,1,0.7l0,0c0.1,0.5-0.2,0.9-0.6,1l0,0c-0.1,0-0.1,0-0.2,0l0,0C31.4,9.3,31,9,31,8.6z M51.7,9.3
		c-0.5-0.1-0.8-0.5-0.7-1l0,0c0.1-0.5,0.5-0.8,1-0.7l0,0c0.5,0.1,0.8,0.5,0.7,1l0,0c-0.1,0.4-0.4,0.7-0.8,0.7l0,0
		C51.8,9.3,51.8,9.3,51.7,9.3z M48.4,8.8c-0.5,0-0.8-0.5-0.7-0.9l0,0c0-0.5,0.5-0.8,0.9-0.7l0,0c0.5,0,0.8,0.5,0.7,0.9l0,0
		c0,0.4-0.4,0.8-0.8,0.8l0,0C48.5,8.8,48.5,8.8,48.4,8.8z M34.3,8c-0.1-0.5,0.3-0.9,0.7-0.9l0,0c0.5-0.1,0.9,0.3,0.9,0.7l0,0
		c0.1,0.5-0.3,0.9-0.7,0.9l0,0c0,0-0.1,0-0.1,0l0,0C34.7,8.7,34.3,8.4,34.3,8z M45.1,8.5c-0.5,0-0.8-0.4-0.8-0.9l0,0
		c0-0.5,0.4-0.8,0.9-0.8l0,0c0.5,0,0.8,0.4,0.8,0.9l0,0C46,8.2,45.6,8.5,45.1,8.5L45.1,8.5C45.2,8.5,45.2,8.5,45.1,8.5z M37.6,7.6
		c0-0.5,0.3-0.9,0.8-0.9l0,0c0.5,0,0.9,0.3,0.9,0.8l0,0c0,0.5-0.3,0.9-0.8,0.9l0,0c0,0,0,0,0,0l0,0C38,8.4,37.6,8.1,37.6,7.6z
		 M41.8,8.4C41.3,8.4,41,8,41,7.5l0,0c0-0.5,0.4-0.8,0.9-0.8l0,0c0.5,0,0.8,0.4,0.8,0.9l0,0C42.7,8,42.3,8.4,41.8,8.4L41.8,8.4
		C41.8,8.4,41.8,8.4,41.8,8.4z"/>
</g>
<g>
	<path class="st2" d="M59.5,40.3h1.8v-3.9c0-0.2-0.1-0.4-0.2-0.6L45,17.9c-0.2-0.2-0.4-0.3-0.7-0.3c-0.3,0-0.5,0.1-0.7,0.3L38,24.2
		v-4.6c0-0.5-0.4-0.9-0.9-0.9h-5.9c-0.5,0-0.9,0.4-0.9,0.9v13.2l-2.7,3c-0.1,0.2-0.2,0.4-0.2,0.6v24.5h1.8V36.8l2.7-3
		c0.1-0.2,0.2-0.4,0.2-0.6V20.5h4.1v6.1c0,0.4,0.2,0.7,0.6,0.8c0.4,0.1,0.7,0,1-0.2l6.6-7.3l15.2,17V40.3z"/>
	<path class="st2" d="M40.8,39.3H34c-0.5,0-0.9,0.4-0.9,0.9v6.6c0,0.5,0.4,0.9,0.9,0.9h6.8c0.5,0,0.9-0.4,0.9-0.9v-6.6
		C41.7,39.7,41.3,39.3,40.8,39.3z M39.9,45.9h-5v-4.8h5V45.9z"/>
	<path class="st2" d="M70.1,47c-0.2-0.1-4-1.3-8.2,0.8c-1.4,0.7-2.3,1.6-2.9,2.5c-0.2-0.5-0.3-1-0.6-1.5c0.4-1.1,1-4.4-2.1-7.6
		c-2.9-3-6.8-3.2-6.9-3.2c-0.5,0-0.9,0.4-0.9,0.9c0,0.2-0.2,5.3,2.8,8.5c1.4,1.5,3.3,2.3,5.6,2.3c2.2,5.1,0.1,10.8,0.1,10.9l1.7,0.6
		c0.1-0.2,0.9-2.6,1-5.7c0.5,0.1,1.2,0.2,2,0.2c1.3,0,2.8-0.3,4.3-1.2c3.8-2.3,4.7-6.4,4.7-6.5C70.8,47.6,70.6,47.1,70.1,47z
		 M50.3,40c1.2,0.2,3.2,0.9,4.8,2.5c2.1,2.2,2,4.4,1.8,5.4c-1.7-0.1-3.2-0.7-4.2-1.8C50.9,44.3,50.4,41.5,50.3,40z M65.1,53
		c-2.1,1.3-4.3,0.9-5.3,0.6c0.1-1,0.6-2.9,3-4.2c2.4-1.2,4.7-1.1,5.9-0.9C68.3,49.7,67.2,51.7,65.1,53z"/>
</g>
</svg>
