<?xml version="1.0" encoding="utf-8"?>
<!-- Generator: Adobe Illustrator 23.0.3, SVG Export Plug-In . SVG Version: 6.00 Build 0)  -->
<svg version="1.1" id="Livello_1" xmlns="http://www.w3.org/2000/svg" xmlns:xlink="http://www.w3.org/1999/xlink" x="0px" y="0px"
	 viewBox="0 0 80 80" style="enable-background:new 0 0 80 80;" xml:space="preserve">
<style type="text/css">
	.st0{fill:#FD6400;}
	.st1{fill:#2A3284;}
</style>
<g>
	<g>
		<path class="st0" d="M33.1,42.6c0-0.2,0.1-0.4,0.3-0.5l2.8-2.3l-3.4-9.1H25l-3.4,9.1l2.8,2.3c0.2,0.1,0.3,0.3,0.3,0.5l0.6,4.7
			c2.1-0.5,4.2-0.8,5.7-0.8c0,0,0.5,0,1.5,0.1v-0.1L33.1,42.6z"/>
		<g>
			<path class="st0" d="M41.6,19.2c-1.2,0-2.2,1-2.2,2.2v1.5c0,1.2,1,2.2,2.2,2.2s2.2-1,2.2-2.2v-1.5C43.8,20.2,42.8,19.2,41.6,19.2
				z"/>
			<path class="st0" d="M28.8,19.2c-1.2,0-2.2,1-2.2,2.2v1.5c0,1.2,1,2.2,2.2,2.2s2.2-1,2.2-2.2v-1.5C31.1,20.2,30.1,19.2,28.8,19.2
				z"/>
			<path class="st0" d="M24,59.6c2.8,0,5.8,0.5,8.7,1c2.3,0.4,4.6,0.7,6.6,0.8c4.8,0.2,6.7-1,6.8-1l3.8-1.7l12.9-6.2
				c0.4-0.8,0.5-1.4,0.2-1.8c-0.4-0.7-1.4-1-1.9-1.1c-1.3,0.5-9,3.6-12.5,5s-4.9,1.5-5.3,1.5c-0.1,0-3.5-0.3-6.9-0.7h-0.3
				c-2.4-0.3-3.4-0.4-3.9-1.1c-0.4-0.5-0.3-1.1-0.3-1.5c0.1-0.7,0.6-1.9,2.9-1.9c1.1,0,2.2,0.3,2.2,0.3c1.5,0.2,2.9,0.3,4,0.3
				c3.3,0,4.2-0.7,5-1.3l0.2-0.1c0.2-0.2,0.2-0.3,0.2-0.3c0-0.1-0.2-0.4-0.5-0.5C45,49.1,31.7,48.2,31,48.2
				c-3.6,0-10.3,1.9-12.3,3.2c-1.2,0.7-3.5,1.1-7,1.1c-0.2,0-0.4,0-0.7,0c1.3,2.8,2.9,5.4,4.9,7.8c1.9-0.2,4.1-0.3,6.2-0.5
				C22.7,59.6,23.4,59.6,24,59.6z"/>
			<path class="st0" d="M54.6,19.2c-1.2,0-2.2,1-2.2,2.2v1.5c0,1.2,1,2.2,2.2,2.2s2.2-1,2.2-2.2v-1.5C56.8,20.2,55.8,19.2,54.6,19.2
				z"/>
			<path class="st0" d="M41,6.3C22.9,6.3,8.2,21,8.2,39.1c0,4.2,0.8,8.1,2.2,11.8c0.4,0,0.8,0,1.3,0c4.2,0,5.7-0.5,6.2-0.9
				c1.2-0.8,3.5-1.6,5.9-2.2l-0.6-4.6l-3-2.5c-0.3-0.2-0.4-0.6-0.2-0.9l3.8-10.2c0.1-0.3,0.4-0.5,0.6-0.5l0,0h0.1h8.9h0.1l0,0
				c0.3,0,0.5,0.2,0.6,0.5l3.8,10.2c0.1,0.3,0,0.7-0.2,0.9l-3,2.5l-0.5,3.6c3.3,0.2,8.5,0.6,11.1,0.8l0.6-5c0-0.2,0.1-0.4,0.3-0.5
				l2.8-2.3l-3.5-9.1h-8.4v-1.5H46c0.3,0,0.6,0.2,0.7,0.5l3.8,10.2c0.1,0.3,0,0.7-0.2,0.9l-3,2.5L46.7,48c0.6,0.3,1.2,0.9,1.3,1.7
				c0,0.4-0.1,1-0.8,1.6L47,51.4C46.1,52,44.9,53,41.1,53c-1.2,0-2.7-0.1-4.3-0.3c-0.1,0-1-0.3-1.9-0.3s-1.4,0.2-1.4,0.6
				c0,0.3,0,0.4,0,0.4c0.2,0.2,1.4,0.3,2.9,0.5h0.3c3.3,0.4,6.8,0.7,6.8,0.7s1.2,0,4.6-1.4c2.4-1,6.8-2.8,9.8-3.9l0.8-6.5
				c0-0.2,0.1-0.4,0.3-0.5l2.8-2.3l-3.4-9.2H50v-1.5h8.9c0.3,0,0.6,0.2,0.7,0.5L63.4,40c0.1,0.3,0,0.7-0.2,0.9l-3,2.5l-0.7,5.3
				c0.8-0.3,1.3-0.5,1.3-0.5l0.2-0.1h0.2c0.2,0,2.5,0.3,3.3,1.9c0.5,1,0.4,2.1-0.3,3.5l-0.1,0.2L47,61.8c0,0-1.9,1.2-6.4,1.2
				c-0.4,0-0.8,0-1.2,0c-2.1-0.1-4.4-0.5-6.8-0.9c-3.4-0.6-7-1.2-10.2-0.9c-1.7,0.2-3.5,0.3-5.1,0.4c6,6.3,14.4,10.3,23.8,10.3
				c18.1,0,32.8-14.7,32.8-32.8C73.8,21,59.1,6.3,41,6.3z M32.6,22.9c0,2.1-1.7,3.8-3.8,3.8S25,25,25,22.9v-1.5
				c0-2.1,1.7-3.8,3.8-3.8s3.8,1.7,3.8,3.8V22.9z M45.3,22.9c0,2.1-1.7,3.8-3.8,3.8s-3.8-1.7-3.8-3.8v-1.5c0-2.1,1.7-3.8,3.8-3.8
				s3.8,1.7,3.8,3.8V22.9z M58.4,22.9c0,2.1-1.7,3.8-3.8,3.8s-3.8-1.7-3.8-3.8v-1.5c0-2.1,1.7-3.8,3.8-3.8s3.8,1.7,3.8,3.8V22.9z"/>
			<path class="st0" d="M15.9,60.2"/>
			<path class="st0" d="M17.2,61.6"/>
		</g>
	</g>
</g>
<g>
	<path class="st1" d="M37.1,75.5c0-0.5,0.4-0.8,0.8-0.9l0,0c0.5,0,0.9,0.3,0.9,0.8l0,0c0,0.5-0.4,0.9-0.8,0.9l0,0l0,0l0,0
		C37.5,76.3,37.2,75.9,37.1,75.5z M33.8,75.4c0-0.5,0.4-0.8,0.9-0.8l0,0l0,0l0,0c0.5,0,0.8,0.4,0.8,0.9l0,0c0,0.5-0.4,0.8-0.9,0.8
		l0,0C34.1,76.3,33.8,75.9,33.8,75.4z M40.5,75.3c0-0.5,0.3-0.9,0.8-0.9l0,0c0.5,0,0.9,0.3,0.9,0.8l0,0c0,0.5-0.3,0.9-0.8,0.9l0,0
		h-0.1l0,0C40.9,76.1,40.5,75.8,40.5,75.3z M31.2,76c-0.5,0-0.8-0.5-0.8-0.9l0,0c0-0.5,0.5-0.8,0.9-0.7l0,0c0.5,0,0.8,0.5,0.8,0.9
		l0,0C32,75.7,31.7,76.1,31.2,76L31.2,76C31.2,76.1,31.2,76,31.2,76z M43.9,75c0-0.5,0.3-0.9,0.7-0.9l0,0c0.5,0,0.9,0.3,0.9,0.7l0,0
		c0.1,0.5-0.3,0.9-0.7,0.9l0,0h-0.1l0,0C44.3,75.8,43.9,75.5,43.9,75z M27.8,75.5c-0.5-0.1-0.8-0.5-0.7-1l0,0c0.1-0.5,0.5-0.8,1-0.7
		l0,0c0.5,0.1,0.8,0.5,0.7,1l0,0c-0.1,0.4-0.4,0.7-0.8,0.7l0,0C27.9,75.6,27.8,75.5,27.8,75.5z M47.2,74.6c-0.1-0.5,0.3-0.9,0.7-1
		l0,0c0.5-0.1,0.9,0.2,1,0.7l0,0c0.1,0.5-0.3,0.9-0.7,1l0,0h-0.1l0,0C47.6,75.3,47.3,75,47.2,74.6z M24.4,74.7
		c-0.4-0.1-0.7-0.6-0.6-1l0,0c0.1-0.4,0.6-0.7,1.1-0.6l0,0c0.4,0.1,0.7,0.6,0.6,1l0,0c-0.1,0.4-0.4,0.6-0.8,0.6l0,0
		C24.6,74.8,24.5,74.8,24.4,74.7z M50.5,74.1c-0.1-0.5,0.2-0.9,0.7-1l0,0l0,0l0,0c0.4-0.1,0.9,0.2,1,0.7l0,0c0.1,0.5-0.2,0.9-0.7,1
		l0,0c0,0-0.1,0-0.2,0l0,0C51,74.8,50.6,74.5,50.5,74.1z M53.8,73.4c-0.1-0.5,0.2-0.9,0.6-1l0,0l0,0l0,0c0.4-0.1,0.9,0.2,1,0.6l0,0
		c0.1,0.5-0.2,0.9-0.6,1l0,0c-0.1,0-0.1,0-0.2,0l0,0C54.3,74,53.9,73.8,53.8,73.4z M21.2,73.6c-0.4-0.2-0.6-0.7-0.5-1.1l0,0
		c0.2-0.4,0.7-0.6,1.1-0.5l0,0c0.4,0.2,0.6,0.7,0.5,1.1l0,0c-0.1,0.3-0.5,0.5-0.8,0.5l0,0C21.4,73.7,21.3,73.6,21.2,73.6z
		 M57.1,72.6c-0.1-0.5,0.1-0.9,0.6-1.1l0,0l0,0l0,0c0.4-0.1,0.9,0.1,1.1,0.5l0,0c0.1,0.5-0.1,0.9-0.6,1l0,0c-0.1,0-0.2,0-0.3,0l0,0
		C57.5,73.1,57.2,72.9,57.1,72.6z M18,72.1c-0.4-0.2-0.6-0.7-0.3-1.1l0,0c0.2-0.4,0.7-0.6,1.1-0.3l0,0c0.4,0.2,0.6,0.7,0.3,1.1l0,0
		c-0.1,0.3-0.4,0.4-0.7,0.4l0,0C18.3,72.2,18.2,72.2,18,72.1z M60.3,71.5c-0.2-0.4,0-0.9,0.5-1.1l0,0l0,0l0,0c0.4-0.2,0.9,0,1.1,0.5
		l0,0c0.2,0.4,0,0.9-0.5,1.1l0,0c-0.1,0-0.2,0.1-0.3,0.1l0,0C60.7,72,60.4,71.8,60.3,71.5z M63.4,70.2c-0.2-0.4-0.1-0.9,0.4-1.1l0,0
		l0,0l0,0c0.4-0.2,0.9-0.1,1.1,0.3l0,0c0.2,0.4,0.1,0.9-0.4,1.1l0,0c-0.1,0.1-0.3,0.1-0.4,0.1l0,0C63.8,70.6,63.5,70.5,63.4,70.2z
		 M15.1,70.2c-0.4-0.3-0.5-0.8-0.2-1.2l0,0c0.3-0.4,0.8-0.5,1.2-0.2l0,0c0.4,0.3,0.5,0.8,0.2,1.2l0,0c-0.2,0.2-0.4,0.3-0.7,0.3l0,0
		C15.4,70.4,15.3,70.3,15.1,70.2z M66.3,68.5c-0.3-0.4-0.2-0.9,0.2-1.2l0,0l0,0l0,0c0.4-0.3,0.9-0.2,1.2,0.2l0,0
		c0.3,0.4,0.2,0.9-0.2,1.2l0,0c-0.1,0.1-0.3,0.1-0.5,0.1l0,0C66.8,68.9,66.5,68.8,66.3,68.5z M12.4,68c-0.4-0.3-0.4-0.9-0.1-1.2l0,0
		c0.3-0.3,0.9-0.4,1.2,0l0,0c0.3,0.3,0.4,0.9,0,1.2l0,0c-0.2,0.2-0.4,0.3-0.6,0.3l0,0C12.8,68.3,12.6,68.2,12.4,68z M69,66.5
		c-0.3-0.3-0.3-0.9,0-1.2l0,0c0.3-0.3,0.9-0.3,1.2,0l0,0c0.3,0.3,0.3,0.9,0,1.2l0,0c-0.2,0.2-0.4,0.2-0.6,0.2l0,0
		C69.4,66.8,69.2,66.7,69,66.5z M10,65.5c-0.3-0.4-0.3-0.9,0.1-1.2l0,0c0.4-0.3,0.9-0.3,1.2,0.1l0,0c0.3,0.4,0.3,0.9-0.1,1.2l0,0
		c-0.2,0.1-0.4,0.2-0.5,0.2l0,0C10.4,65.8,10.2,65.7,10,65.5z M71.3,64.1c-0.4-0.3-0.5-0.8-0.2-1.2l0,0l0,0l0,0
		c0.3-0.4,0.8-0.5,1.2-0.2l0,0c0.4,0.3,0.5,0.8,0.2,1.2l0,0c-0.2,0.2-0.4,0.3-0.7,0.3l0,0C71.7,64.3,71.5,64.2,71.3,64.1z M8,62.8
		c-0.3-0.4-0.2-0.9,0.2-1.2l0,0c0.4-0.3,0.9-0.2,1.2,0.2l0,0c0.3,0.4,0.2,0.9-0.2,1.2l0,0c-0.1,0.1-0.3,0.1-0.5,0.1l0,0
		C8.4,63.1,8.1,63,8,62.8z M73.3,61.3c-0.4-0.2-0.6-0.7-0.4-1.1l0,0c0.2-0.4,0.7-0.6,1.1-0.4l0,0c0.4,0.2,0.6,0.7,0.4,1.1l0,0
		c-0.1,0.3-0.4,0.5-0.8,0.5l0,0C73.5,61.4,73.4,61.4,73.3,61.3z M6.2,59.8c-0.2-0.4-0.1-0.9,0.3-1.1l0,0c0.4-0.2,0.9-0.1,1.1,0.3
		l0,0c0.2,0.4,0.1,0.9-0.3,1.1l0,0c-0.1,0.1-0.3,0.1-0.4,0.1l0,0C6.6,60.3,6.3,60.1,6.2,59.8z M74.7,58.3c-0.4-0.2-0.7-0.6-0.5-1.1
		l0,0c0.1-0.4,0.6-0.7,1.1-0.5l0,0c0.4,0.1,0.7,0.6,0.5,1.1l0,0c-0.1,0.4-0.5,0.6-0.8,0.6l0,0C74.9,58.3,74.8,58.3,74.7,58.3z
		 M4.6,56.8L4.6,56.8L4.6,56.8L4.6,56.8c0-0.2-0.1-0.2-0.1-0.2l0,0c-0.2-0.4,0-0.9,0.4-1.1l0,0c0.4-0.2,0.9,0,1.1,0.4l0,0V56l0,0
		c0,0,0,0.1,0.1,0.1l0,0c0.2,0.4,0,0.9-0.4,1.1l0,0c-0.1,0.1-0.2,0.1-0.4,0.1l0,0C5.1,57.2,4.8,57.1,4.6,56.8z M75.7,55.1
		c-0.5-0.1-0.8-0.5-0.6-1l0,0l0,0l0,0c0.1-0.5,0.5-0.8,1-0.7l0,0c0.5,0.1,0.8,0.5,0.6,1l0,0c-0.1,0.4-0.4,0.7-0.8,0.7l0,0
		C75.8,55.1,75.8,55.1,75.7,55.1z M3.2,53.3c-0.1-0.4,0.1-0.9,0.5-1.1l0,0c0.4-0.1,0.9,0.1,1.1,0.5l0,0c0.2,0.4-0.1,0.9-0.5,1.1l0,0
		c-0.1,0-0.2,0-0.3,0l0,0C3.7,53.8,3.3,53.6,3.2,53.3z M76.3,51.8c-0.5,0-0.8-0.5-0.7-0.9l0,0c0.1-0.5,0.5-0.8,0.9-0.7l0,0
		c0.5,0,0.8,0.5,0.7,0.9l0,0C77.1,51.5,76.8,51.9,76.3,51.8L76.3,51.8C76.4,51.8,76.3,51.8,76.3,51.8z M2.3,49.9
		c-0.1-0.4,0.2-0.9,0.6-1l0,0c0.4-0.1,0.9,0.2,1,0.6l0,0c0.1,0.5-0.2,0.9-0.6,1l0,0c-0.1,0-0.1,0-0.2,0l0,0
		C2.7,50.6,2.4,50.3,2.3,49.9z M76.6,48.4c-0.5,0-0.8-0.4-0.8-0.9l0,0c0-0.5,0.4-0.8,0.9-0.8l0,0c0.5,0,0.8,0.4,0.8,0.9l0,0
		C77.5,48.1,77.1,48.4,76.6,48.4L76.6,48.4L76.6,48.4z M1.6,46.6c-0.1-0.5,0.2-0.9,0.7-1l0,0c0.5-0.1,0.9,0.2,1,0.7l0,0l0,0l0,0
		c0.1,0.5-0.2,0.9-0.7,1l0,0H2.5l0,0C2.1,47.3,1.7,47,1.6,46.6z M75.8,44.2c0-0.5,0.4-0.8,0.8-0.9l0,0c0.5,0,0.9,0.3,0.9,0.8l0,0
		c0,0.5-0.3,0.9-0.8,0.9l0,0l0,0l0,0C76.2,45,75.8,44.7,75.8,44.2z M1.3,43.1c0-0.5,0.4-0.8,0.8-0.9l0,0c0.5,0,0.8,0.4,0.9,0.8l0,0
		c0,0.5-0.4,0.9-0.8,0.9l0,0l0,0l0,0C1.6,43.9,1.3,43.6,1.3,43.1z M75.7,40.9c0-0.5,0.3-0.9,0.8-0.9l0,0c0.5,0,0.9,0.3,0.9,0.8l0,0
		c0,0.5-0.3,0.9-0.8,0.9l0,0c0,0,0,0-0.1,0l0,0C76.1,41.7,75.7,41.3,75.7,40.9z M2.1,40.6c-0.5,0-0.8-0.4-0.8-0.9l0,0
		c0-0.5,0.4-0.8,0.9-0.8l0,0c0.5,0,0.8,0.4,0.8,0.9l0,0C3,40.2,2.6,40.6,2.1,40.6L2.1,40.6L2.1,40.6z M75.3,37.6
		c0-0.5,0.3-0.9,0.8-0.9l0,0c0.5-0.1,0.9,0.3,0.9,0.7l0,0c0,0.5-0.3,0.9-0.7,0.9l0,0h-0.1l0,0C75.8,38.3,75.4,38,75.3,37.6z
		 M2.3,37.2c-0.5,0-0.8-0.5-0.8-0.9l0,0c0-0.5,0.5-0.8,0.9-0.8l0,0c0.5,0,0.8,0.4,0.8,0.9l0,0C3.2,36.9,2.8,37.2,2.3,37.2L2.3,37.2
		L2.3,37.2z M74.9,34.3c-0.1-0.5,0.3-0.9,0.7-1l0,0c0.5-0.1,0.9,0.3,0.9,0.7l0,0c0.1,0.5-0.3,0.9-0.7,1l0,0h-0.1l0,0
		C75.3,35,75,34.7,74.9,34.3z M2.6,33.8c-0.5-0.1-0.8-0.5-0.7-1l0,0c0.1-0.5,0.5-0.8,1-0.7l0,0c0.5,0.1,0.8,0.5,0.7,1l0,0l0,0l0,0
		c-0.1,0.4-0.4,0.7-0.8,0.7l0,0C2.7,33.8,2.7,33.8,2.6,33.8z M74.4,31c-0.1-0.5,0.2-0.9,0.7-1l0,0c0.4-0.1,0.9,0.2,1,0.7l0,0
		c0.1,0.5-0.2,0.9-0.7,1l0,0c-0.1,0-0.1,0-0.2,0l0,0C74.8,31.7,74.4,31.4,74.4,31z M3.2,30.5c-0.5-0.1-0.7-0.6-0.6-1l0,0
		c0.1-0.4,0.6-0.7,1-0.6l0,0c0.5,0.1,0.8,0.5,0.6,1l0,0c-0.1,0.4-0.4,0.7-0.8,0.7l0,0C3.3,30.5,3.3,30.5,3.2,30.5z M73.6,27.8
		c-0.1-0.4,0.1-0.9,0.6-1l0,0c0.5-0.1,0.9,0.1,1,0.6l0,0c0.1,0.5-0.2,0.9-0.6,1l0,0c-0.1,0-0.1,0-0.2,0l0,0
		C74.1,28.4,73.7,28.1,73.6,27.8z M4,27.3c-0.4-0.1-0.7-0.6-0.6-1.1l0,0c0.1-0.4,0.6-0.7,1.1-0.6l0,0c0.4,0.1,0.7,0.6,0.6,1.1l0,0
		c-0.1,0.4-0.4,0.6-0.8,0.6l0,0C4.2,27.3,4.1,27.3,4,27.3z M72.6,24.6L72.6,24.6L72.6,24.6c-0.2-0.4,0.1-0.9,0.5-1.1l0,0
		c0.4-0.2,0.9,0.1,1.1,0.5l0,0c0.2,0.4-0.1,0.9-0.5,1.1l0,0c-0.1,0-0.2,0.1-0.3,0.1l0,0C73.1,25.2,72.8,25,72.6,24.6z M5.1,24
		c-0.4-0.2-0.6-0.7-0.5-1.1l0,0c0.2-0.4,0.7-0.6,1.1-0.5l0,0c0.4,0.2,0.6,0.7,0.5,1.1l0,0C6.1,23.8,5.8,24,5.4,24l0,0
		C5.3,24.1,5.2,24.1,5.1,24z M71.3,21.6c-0.2-0.4,0-0.9,0.4-1.1l0,0c0.4-0.2,0.9,0,1.1,0.4l0,0c0.2,0.4,0,0.9-0.4,1.1l0,0
		c-0.1,0.1-0.3,0.1-0.4,0.1l0,0C71.8,22.1,71.5,21.9,71.3,21.6z M6.4,20.9C6,20.7,5.8,20.2,6,19.8l0,0c0.2-0.4,0.7-0.6,1.1-0.4l0,0
		c0.4,0.2,0.6,0.7,0.4,1.1l0,0C7.4,20.9,7.1,21,6.8,21l0,0C6.6,21,6.5,21,6.4,20.9z M69.7,18.8c-0.3-0.4-0.1-0.9,0.2-1.2l0,0
		c0.4-0.3,0.9-0.1,1.2,0.2l0,0c0.3,0.4,0.2,0.9-0.2,1.2l0,0c-0.1,0.1-0.3,0.1-0.5,0.1l0,0C70.1,19.2,69.8,19,69.7,18.8z M8,18
		c-0.4-0.3-0.5-0.8-0.2-1.2l0,0c0.3-0.4,0.8-0.5,1.2-0.2l0,0c0.4,0.3,0.5,0.8,0.2,1.2l0,0C9,18,8.7,18.1,8.5,18.1l0,0
		C8.3,18.1,8.1,18.1,8,18z M67.7,16.2c-0.3-0.4-0.3-0.9,0.1-1.2l0,0c0.4-0.3,0.9-0.3,1.2,0.1l0,0c0.3,0.4,0.3,0.9-0.1,1.2l0,0
		c-0.2,0.1-0.4,0.2-0.5,0.2l0,0C68.1,16.5,67.9,16.4,67.7,16.2z M9.9,15.2c-0.4-0.3-0.4-0.8-0.1-1.2l0,0c0.3-0.4,0.8-0.4,1.2-0.1
		l0,0c0.3,0.3,0.4,0.8,0.1,1.2l0,0c-0.2,0.2-0.4,0.3-0.6,0.3l0,0C10.3,15.4,10.1,15.4,9.9,15.2z M65.5,13.9
		c-0.3-0.3-0.4-0.8-0.1-1.2l0,0c0.3-0.3,0.8-0.4,1.2-0.1l0,0c0.3,0.3,0.4,0.8,0.1,1.2l0,0c-0.2,0.2-0.4,0.3-0.6,0.3l0,0
		C65.8,14.1,65.6,14,65.5,13.9z M12.2,12.7c-0.3-0.3-0.3-0.9,0-1.2l0,0c0.3-0.3,0.9-0.3,1.2,0l0,0c0.3,0.3,0.3,0.9,0,1.2l0,0l0,0
		l0,0c-0.2,0.1-0.4,0.2-0.6,0.2l0,0C12.6,13,12.3,12.9,12.2,12.7z M62.9,11.8c-0.4-0.3-0.5-0.8-0.2-1.2l0,0c0.3-0.4,0.8-0.5,1.2-0.2
		l0,0c0.4,0.3,0.5,0.8,0.2,1.2l0,0c-0.2,0.2-0.4,0.4-0.7,0.4l0,0C63.2,12,63,11.9,62.9,11.8z M14.7,10.5c-0.3-0.4-0.2-0.9,0.2-1.2
		l0,0c0.4-0.3,0.9-0.2,1.2,0.2l0,0c0.3,0.4,0.2,0.9-0.2,1.2l0,0c-0.1,0.1-0.3,0.2-0.5,0.2l0,0C15.1,10.9,14.9,10.8,14.7,10.5z
		 M60.1,10.1c-0.4-0.2-0.6-0.7-0.3-1.1l0,0c0.2-0.4,0.7-0.6,1.1-0.3l0,0c0.4,0.2,0.6,0.7,0.3,1.1l0,0c-0.1,0.2-0.4,0.4-0.7,0.4l0,0
		C60.4,10.2,60.3,10.2,60.1,10.1z M17.5,8.6c-0.2-0.4-0.1-0.9,0.3-1.1l0,0c0.4-0.2,0.9-0.1,1.1,0.3l0,0C19.1,8.2,19,8.7,18.6,9l0,0
		c-0.1,0-0.2,0.1-0.4,0.1l0,0C17.9,9.1,17.7,8.9,17.5,8.6z M57.2,8.7L57.2,8.7L57.2,8.7c-0.5-0.2-0.7-0.7-0.5-1.1l0,0
		c0.2-0.4,0.7-0.6,1.1-0.4l0,0c0.4,0.2,0.6,0.7,0.5,1.1l0,0c-0.1,0.3-0.5,0.5-0.8,0.5l0,0C57.4,8.8,57.3,8.7,57.2,8.7z M20.5,7.1
		c-0.2-0.4,0-0.9,0.5-1.1l0,0c0.4-0.2,0.9,0,1.1,0.5l0,0c0.2,0.4,0,0.9-0.5,1.1l0,0c-0.1,0-0.2,0.1-0.3,0.1l0,0
		C20.9,7.6,20.6,7.4,20.5,7.1z M54.1,7.5L54.1,7.5L54.1,7.5c-0.4-0.2-0.7-0.6-0.5-1.1l0,0c0.1-0.4,0.6-0.7,1.1-0.5l0,0
		C55.2,6,55.4,6.5,55.2,7l0,0c-0.1,0.4-0.4,0.6-0.8,0.6l0,0C54.3,7.6,54.2,7.6,54.1,7.5z M50.9,6.6c-0.5-0.1-0.7-0.6-0.6-1l0,0
		c0.1-0.5,0.6-0.7,1-0.6l0,0c0.5,0.1,0.7,0.6,0.6,1l0,0c-0.1,0.4-0.4,0.6-0.8,0.6l0,0C51,6.7,51,6.6,50.9,6.6z M23.6,5.9
		c-0.1-0.4,0.1-0.9,0.6-1l0,0c0.5-0.1,0.9,0.1,1.1,0.6l0,0c0.1,0.4-0.1,0.9-0.6,1l0,0c-0.1,0-0.2,0-0.2,0l0,0
		C24.1,6.5,23.8,6.3,23.6,5.9z M47.7,5.9c-0.5-0.1-0.8-0.5-0.7-1l0,0c0.1-0.4,0.5-0.8,1-0.7l0,0c0.5,0.1,0.8,0.5,0.7,1l0,0
		C48.6,5.7,48.2,6,47.7,5.9L47.7,5.9C47.8,6,47.7,6,47.7,5.9z M26.9,5.1c-0.1-0.5,0.2-0.9,0.7-1l0,0C28,4,28.5,4.3,28.5,4.8l0,0
		c0.1,0.5-0.2,0.9-0.7,1l0,0l0,0l0,0c-0.1,0-0.1,0-0.2,0l0,0C27.3,5.8,27,5.5,26.9,5.1z M44.4,5.5c-0.5-0.1-0.8-0.5-0.7-0.9l0,0
		c0.1-0.5,0.5-0.8,0.9-0.7l0,0c0.5,0.1,0.8,0.5,0.7,0.9l0,0c0,0.4-0.4,0.7-0.8,0.7l0,0C44.5,5.5,44.4,5.5,44.4,5.5z M30.2,4.5
		c0-0.5,0.3-0.9,0.8-0.9l0,0c0.5-0.1,0.9,0.3,0.9,0.7l0,0c0.1,0.5-0.3,0.9-0.8,0.9l0,0H31l0,0C30.6,5.3,30.3,4.9,30.2,4.5z
		 M41.1,5.1c-0.5,0-0.8-0.4-0.8-0.9l0,0c0-0.5,0.4-0.8,0.9-0.8l0,0c0.5,0,0.8,0.4,0.8,0.9l0,0C41.9,4.8,41.6,5.1,41.1,5.1L41.1,5.1
		L41.1,5.1z M33.6,4.2c0-0.5,0.3-0.9,0.8-0.9l0,0c0.5,0,0.9,0.3,0.9,0.8l0,0c0,0.5-0.4,0.9-0.8,0.9l0,0l0,0l0,0
		C33.9,5,33.6,4.7,33.6,4.2z M37.8,5C37.3,5,37,4.6,37,4.1l0,0c0-0.5,0.4-0.8,0.9-0.8l0,0c0.5,0,0.8,0.4,0.8,0.9l0,0
		C38.6,4.6,38.2,5,37.8,5L37.8,5L37.8,5z"/>
</g>
</svg>
