<?xml version="1.0" encoding="utf-8"?>
<!-- Generator: Adobe Illustrator 23.0.3, SVG Export Plug-In . SVG Version: 6.00 Build 0)  -->
<svg version="1.1" id="Livello_1" xmlns="http://www.w3.org/2000/svg" xmlns:xlink="http://www.w3.org/1999/xlink" x="0px" y="0px"
	 viewBox="0 0 80 80" style="enable-background:new 0 0 80 80;" xml:space="preserve">
<style type="text/css">
	.st0{fill:#FD6400;}
	.st1{fill:#000099;}
	.st2{fill:#FFFFFF;}
</style>
<g>
	<path class="st0" d="M73.6,42c0,18.6-15,33.6-33.6,33.6S6.4,60.6,6.4,42S21.4,8.4,40,8.4C58.6,8.2,73.6,23.4,73.6,42z"/>
</g>
<g>
	<g>
		<path class="st1" d="M37.4,78.2c0-0.5,0.4-0.8,0.8-0.9l0,0c0.5,0,0.9,0.4,0.9,0.8l0,0c0,0.5-0.4,0.9-0.8,0.9l0,0l0,0l0,0
			C37.8,78.9,37.4,78.6,37.4,78.2z M34.7,78.9c-0.5,0-0.8-0.4-0.8-0.9l0,0c0-0.5,0.4-0.8,0.9-0.8l0,0c0.5,0,0.8,0.4,0.8,0.9l0,0
			C35.6,78.6,35.3,78.9,34.7,78.9L34.7,78.9C34.8,78.9,34.8,78.9,34.7,78.9z M40.8,78c0-0.5,0.3-0.9,0.8-0.9l0,0
			c0.5,0,0.9,0.3,0.9,0.8l0,0c0,0.5-0.3,0.9-0.8,0.9l0,0c0,0,0,0-0.1,0l0,0C41.2,78.9,40.8,78.5,40.8,78z M31.3,78.6L31.3,78.6
			c-0.5-0.1-0.8-0.5-0.7-0.9l0,0c0-0.5,0.5-0.8,0.9-0.7l0,0c0.5,0.1,0.8,0.5,0.7,0.9l0,0C32.2,78.3,31.8,78.6,31.3,78.6L31.3,78.6
			C31.4,78.6,31.4,78.6,31.3,78.6z M44.1,77.7c0-0.5,0.3-0.9,0.7-0.9l0,0l0,0l0,0c0.5,0,0.9,0.3,0.9,0.7l0,0
			c0.1,0.5-0.3,0.9-0.7,0.9l0,0H45l0,0C44.7,78.5,44.3,78.2,44.1,77.7z M27.8,78.2c-0.4-0.1-0.8-0.5-0.7-1l0,0
			c0.1-0.5,0.5-0.8,1-0.7l0,0c0.5,0.1,0.8,0.5,0.7,1l0,0c-0.1,0.4-0.4,0.7-0.8,0.7l0,0C27.9,78.2,27.9,78.2,27.8,78.2z M47.6,77.4
			c-0.1-0.5,0.3-0.9,0.7-1l0,0c0.5-0.1,0.9,0.3,1,0.7l0,0c0.1,0.5-0.3,0.9-0.7,1l0,0h-0.1l0,0C48,78,47.6,77.7,47.6,77.4z
			 M50.9,76.8c-0.1-0.5,0.2-0.9,0.7-1l0,0c0.5-0.1,0.9,0.2,1,0.7l0,0c0.1,0.5-0.2,0.9-0.7,1l0,0c-0.1,0-0.1,0-0.2,0l0,0
			C51.4,77.5,51.1,77.2,50.9,76.8z M24.5,77.2c-0.4-0.1-0.7-0.6-0.6-1l0,0c0.1-0.5,0.6-0.7,1-0.6l0,0c0.4,0.1,0.7,0.6,0.6,1.1l0,0
			c-0.1,0.4-0.4,0.6-0.8,0.6l0,0C24.7,77.4,24.6,77.4,24.5,77.2z M54.3,76.1c-0.1-0.5,0.2-0.9,0.6-1l0,0l0,0l0,0
			c0.4-0.1,0.9,0.2,1,0.6l0,0c0.1,0.5-0.2,0.9-0.6,1l0,0c-0.1,0-0.1,0-0.2,0l0,0C54.8,76.8,54.4,76.5,54.3,76.1z M21.2,76.1
			L21.2,76.1c-0.4-0.2-0.6-0.7-0.5-1.1l0,0c0.2-0.4,0.7-0.6,1.1-0.4l0,0c0.4,0.2,0.6,0.7,0.4,1.1l0,0c-0.1,0.3-0.4,0.5-0.8,0.5l0,0
			C21.4,76.2,21.4,76.1,21.2,76.1z M57.7,75.3c-0.1-0.4,0.1-0.9,0.6-1l0,0c0.4-0.1,0.9,0.1,1,0.6l0,0c0.1,0.5-0.1,0.9-0.6,1.1l0,0
			c-0.1,0-0.2,0-0.2,0l0,0C58,75.9,57.7,75.7,57.7,75.3z M60.9,74.3c-0.2-0.4,0.1-0.9,0.5-1.1l0,0c0.4-0.2,0.9,0.1,1.1,0.5l0,0
			c0.2,0.4-0.1,0.9-0.5,1.1l0,0c-0.1,0-0.2,0.1-0.3,0.1l0,0C61.3,74.9,61,74.7,60.9,74.3z M18,74.6c-0.4-0.2-0.6-0.7-0.3-1.1l0,0
			c0.2-0.4,0.7-0.5,1.1-0.3l0,0c0.4,0.2,0.6,0.7,0.3,1.1l0,0c-0.1,0.3-0.4,0.4-0.7,0.4l0,0C18.3,74.7,18.2,74.6,18,74.6z M64.1,73.1
			c-0.2-0.4,0-0.9,0.4-1.1l0,0l0,0l0,0c0.4-0.2,0.9,0,1.1,0.4l0,0c0.2,0.4,0,0.9-0.4,1.1l0,0c-0.1,0.1-0.2,0.1-0.4,0.1l0,0
			C64.5,73.5,64.2,73.4,64.1,73.1z M15,72.7c-0.4-0.3-0.5-0.8-0.2-1.2l0,0c0.3-0.4,0.8-0.5,1.2-0.2l0,0c0.4,0.3,0.4,0.8,0.2,1.2l0,0
			c-0.2,0.2-0.4,0.4-0.7,0.4l0,0C15.3,72.7,15.3,72.7,15,72.7z M67.1,71.5c-0.3-0.4-0.1-0.9,0.2-1.2l0,0l0,0l0,0
			c0.4-0.3,0.9-0.1,1.2,0.2l0,0c0.3,0.4,0.1,0.9-0.2,1.2l0,0c-0.1,0.1-0.3,0.1-0.5,0.1l0,0C67.5,71.8,67.2,71.7,67.1,71.5z
			 M12.4,70.4c-0.3-0.3-0.4-0.9,0-1.2l0,0c0.3-0.3,0.9-0.4,1.2,0l0,0c0.3,0.3,0.4,0.9,0,1.2l0,0c-0.2,0.2-0.4,0.3-0.6,0.3l0,0
			C12.7,70.6,12.5,70.6,12.4,70.4z M69.8,69.4c-0.3-0.4-0.3-0.9,0.1-1.2l0,0c0.4-0.3,0.9-0.3,1.2,0.1l0,0c0.3,0.3,0.3,0.9-0.1,1.2
			l0,0c-0.2,0.1-0.4,0.2-0.6,0.2l0,0C70.2,69.7,70,69.6,69.8,69.4z M10,67.8c-0.3-0.4-0.3-0.9,0.1-1.2l0,0c0.4-0.3,0.9-0.3,1.2,0.1
			l0,0l0,0l0,0c0.3,0.4,0.3,0.9-0.1,1.2l0,0c-0.2,0.1-0.4,0.2-0.5,0.2l0,0C10.4,68.1,10.2,68.1,10,67.8z M72.4,67.1
			c-0.4-0.3-0.4-0.8-0.1-1.2l0,0l0,0l0,0c0.3-0.4,0.8-0.4,1.2-0.1l0,0c0.4,0.3,0.4,0.8,0.1,1.2l0,0c-0.2,0.2-0.4,0.3-0.7,0.3l0,0
			C72.7,67.3,72.4,67.3,72.4,67.1z M7.9,65c-0.3-0.4-0.2-0.9,0.2-1.2l0,0c0.4-0.3,0.9-0.1,1.2,0.2l0,0c0.3,0.4,0.2,0.9-0.2,1.2l0,0
			c-0.1,0.1-0.3,0.1-0.5,0.1l0,0C8.2,65.5,8.1,65.3,7.9,65z M74.4,64.4c-0.4-0.2-0.5-0.8-0.3-1.1l0,0c0.2-0.4,0.8-0.5,1.1-0.3l0,0
			c0.4,0.2,0.5,0.7,0.3,1.1l0,0c-0.2,0.3-0.4,0.4-0.7,0.4l0,0C74.7,64.5,74.5,64.4,74.4,64.4z M6,62c-0.2-0.4-0.1-0.9,0.3-1.1l0,0
			c0.4-0.2,0.9-0.1,1.1,0.3l0,0l0,0l0,0c0.2,0.4,0.1,0.9-0.3,1.1l0,0c-0.1,0.1-0.3,0.1-0.4,0.1l0,0C6.5,62.5,6.2,62.4,6,62z
			 M75.9,61.4c-0.4-0.2-0.6-0.7-0.5-1.1l0,0c0.2-0.4,0.7-0.6,1.1-0.5l0,0c0.4,0.2,0.6,0.6,0.5,1.1l0,0c-0.1,0.3-0.5,0.5-0.8,0.5l0,0
			C76.1,61.4,76,61.4,75.9,61.4z M4.5,59c-0.2-0.4,0-0.9,0.4-1.1l0,0c0.4-0.2,0.9,0,1.1,0.4l0,0l0,0l0,0c0.2,0.4,0,0.9-0.4,1.1l0,0
			c-0.1,0.1-0.2,0.1-0.4,0.1l0,0C4.9,59.4,4.6,59.3,4.5,59z M77.1,58.2c-0.5-0.1-0.7-0.6-0.6-1l0,0c0.1-0.5,0.6-0.7,1-0.6l0,0
			c0.5,0.1,0.7,0.6,0.6,1l0,0c-0.1,0.4-0.5,0.6-0.8,0.6l0,0C77.2,58.2,77.1,58.2,77.1,58.2z M3.4,56.2c-0.2-0.4,0.1-0.9,0.5-1.1l0,0
			c0.4-0.2,0.9,0.1,1.1,0.5l0,0C5.3,56,5,56.5,4.5,56.8l0,0c-0.1,0-0.2,0-0.3,0l0,0C3.8,56.8,3.5,56.5,3.4,56.2z M77.8,54.8
			c-0.5-0.1-0.8-0.5-0.7-1l0,0l0,0l0,0c0.1-0.5,0.5-0.8,1-0.7l0,0c0.5,0.1,0.8,0.5,0.7,1l0,0c-0.1,0.4-0.4,0.7-0.8,0.7l0,0
			C77.8,54.8,77.8,54.8,77.8,54.8z M2.3,52.9c-0.1-0.5,0.2-0.9,0.6-1l0,0c0.4-0.1,0.9,0.1,1,0.6l0,0c0.1,0.5-0.1,0.9-0.6,1l0,0
			c-0.1,0-0.1,0-0.2,0l0,0C2.8,53.5,2.3,53.3,2.3,52.9z M78.3,51.4c-0.5,0-0.8-0.4-0.8-0.9l0,0l0,0l0,0c0-0.5,0.4-0.8,0.9-0.8l0,0
			c0.5,0,0.8,0.4,0.8,0.9l0,0C79.1,51.1,78.8,51.4,78.3,51.4L78.3,51.4L78.3,51.4z M1.6,49.4c-0.1-0.5,0.2-0.9,0.7-1l0,0
			c0.5-0.1,0.9,0.2,1,0.7l0,0c0.1,0.5-0.2,0.9-0.7,1l0,0c-0.1,0-0.1,0-0.2,0l0,0C2,50.1,1.7,49.8,1.6,49.4z M77.5,47.1
			c0-0.5,0.4-0.9,0.8-0.9l0,0c0.5,0,0.9,0.4,0.9,0.8l0,0c0,0.5-0.4,0.8-0.8,0.9l0,0l0,0l0,0C77.8,48,77.5,47.6,77.5,47.1z M1.1,46
			c0-0.5,0.3-0.9,0.8-0.9l0,0c0.5,0,0.9,0.3,0.9,0.8l0,0l0,0l0,0c0,0.5-0.3,0.9-0.8,0.9l0,0H1.9l0,0C1.6,46.8,1.1,46.5,1.1,46z
			 M77.4,43.8c0-0.5,0.3-0.9,0.8-0.9l0,0c0.5,0,0.9,0.3,0.9,0.8l0,0c0,0.5-0.3,0.9-0.8,0.9l0,0l0,0l0,0
			C77.7,44.6,77.4,44.3,77.4,43.8z M1.9,43.3c-0.5,0-0.8-0.4-0.8-0.9l0,0c0-0.5,0.4-0.8,0.9-0.8l0,0c0.5,0,0.8,0.4,0.8,0.9l0,0
			C2.7,43,2.3,43.3,1.9,43.3L1.9,43.3L1.9,43.3z M77.1,40.4c0-0.5,0.3-0.9,0.8-0.9l0,0c0.5,0,0.9,0.3,0.9,0.8l0,0
			c0.1,0.5-0.3,0.9-0.8,0.9l0,0H78l0,0C77.5,41.2,77.1,40.8,77.1,40.4z M2,40c-0.5,0-0.8-0.4-0.8-0.9l0,0c0-0.5,0.4-0.8,0.9-0.8l0,0
			c0.5,0,0.8,0.4,0.8,0.9l0,0C2.9,39.6,2.5,40,2,40L2,40C2,40,2,40,2,40z M76.7,37c-0.1-0.5,0.3-0.9,0.7-1l0,0
			c0.5-0.1,0.9,0.3,1,0.7l0,0c0.1,0.5-0.3,0.9-0.7,0.9l0,0h-0.1l0,0C77.1,37.8,76.7,37.5,76.7,37z M2.3,36.5
			c-0.5-0.1-0.8-0.5-0.7-0.9l0,0c0.1-0.5,0.5-0.8,0.9-0.7l0,0c0.5,0.1,0.8,0.5,0.7,1l0,0c-0.1,0.4-0.4,0.7-0.8,0.7l0,0
			C2.3,36.5,2.3,36.5,2.3,36.5z M76.2,33.7L76.2,33.7L76.2,33.7c-0.1-0.5,0.2-0.9,0.7-1l0,0c0.5-0.1,0.9,0.2,1,0.7l0,0
			c0.1,0.5-0.2,0.9-0.7,1l0,0h-0.1l0,0C76.6,34.4,76.2,34.1,76.2,33.7z M2.8,33.2c-0.5-0.1-0.8-0.5-0.7-1l0,0c0.1-0.4,0.5-0.8,1-0.7
			l0,0c0.5,0.1,0.8,0.5,0.7,1l0,0l0,0l0,0c-0.1,0.4-0.4,0.7-0.8,0.7l0,0C2.9,33.2,2.9,33.2,2.8,33.2z M75.5,30.4
			c-0.1-0.5,0.2-0.9,0.6-1l0,0c0.5-0.1,0.9,0.2,1,0.6l0,0c0.1,0.4-0.2,0.9-0.6,1l0,0c-0.1,0-0.1,0-0.2,0l0,0
			C76,31.1,75.6,30.8,75.5,30.4z M3.5,29.9c-0.5-0.1-0.7-0.6-0.6-1l0,0c0.1-0.5,0.6-0.7,1-0.6l0,0c0.5,0.1,0.7,0.6,0.6,1l0,0
			c-0.1,0.4-0.4,0.6-0.8,0.6l0,0C3.7,29.9,3.6,29.9,3.5,29.9z M74.6,27.2c-0.1-0.4,0.1-0.9,0.5-1.1l0,0c0.4-0.1,0.9,0.1,1.1,0.5l0,0
			c0.1,0.4-0.1,0.9-0.5,1.1l0,0c-0.1,0-0.2,0-0.3,0l0,0C75.1,27.7,74.7,27.5,74.6,27.2z M4.5,26.5c-0.4-0.2-0.7-0.6-0.5-1.1l0,0
			c0.1-0.4,0.6-0.7,1.1-0.5l0,0c0.4,0.2,0.7,0.6,0.5,1.1l0,0l0,0l0,0c-0.1,0.3-0.5,0.5-0.8,0.5l0,0C4.7,26.6,4.6,26.6,4.5,26.5z
			 M73.4,24.1c-0.2-0.4,0-0.9,0.4-1.1l0,0c0.4-0.2,0.9,0,1.1,0.4l0,0c0.2,0.4,0,0.9-0.4,1.1l0,0c-0.1,0-0.2,0.1-0.4,0.1l0,0
			C73.9,24.6,73.6,24.4,73.4,24.1z M5.7,23.4c-0.4-0.2-0.6-0.7-0.4-1.1l0,0c0.2-0.4,0.7-0.6,1.1-0.4l0,0C6.8,22.1,7,22.6,6.8,23l0,0
			c-0.1,0.3-0.5,0.5-0.8,0.5l0,0C5.9,23.5,5.8,23.5,5.7,23.4z M71.8,21.1c-0.2-0.4-0.1-0.9,0.3-1.1l0,0c0.4-0.2,0.9-0.1,1.1,0.3l0,0
			c0.2,0.4,0.1,0.9-0.3,1.2l0,0c-0.1,0.1-0.3,0.1-0.4,0.1l0,0C72.4,21.5,72.1,21.4,71.8,21.1z M7.3,20.3c-0.4-0.2-0.5-0.8-0.3-1.1
			l0,0c0.2-0.4,0.8-0.5,1.2-0.3l0,0c0.4,0.2,0.5,0.8,0.3,1.2l0,0c-0.2,0.3-0.4,0.4-0.7,0.4l0,0C7.6,20.4,7.4,20.4,7.3,20.3z
			 M70,18.4L70,18.4L70,18.4c-0.3-0.4-0.2-0.9,0.1-1.2l0,0c0.4-0.3,0.9-0.2,1.2,0.2l0,0c0.3,0.4,0.2,0.9-0.1,1.2l0,0
			c-0.1,0.1-0.3,0.2-0.5,0.2l0,0C70.4,18.7,70.2,18.6,70,18.4z M9.1,17.5c-0.4-0.3-0.4-0.8-0.2-1.2l0,0c0.3-0.4,0.8-0.4,1.2-0.2l0,0
			c0.4,0.3,0.4,0.8,0.2,1.2l0,0l0,0l0,0c-0.2,0.2-0.4,0.3-0.7,0.3l0,0C9.5,17.6,9.3,17.6,9.1,17.5z M67.8,16L67.8,16L67.8,16
			c-0.3-0.3-0.3-0.9,0-1.2l0,0c0.3-0.3,0.9-0.3,1.2,0l0,0c0.3,0.3,0.3,0.9,0,1.2l0,0c-0.2,0.1-0.4,0.1-0.6,0.1l0,0
			C68.2,16.1,68,16.1,67.8,16z M11.3,14.9c-0.3-0.3-0.3-0.9,0-1.2l0,0c0.3-0.3,0.9-0.3,1.2,0l0,0c0.3,0.3,0.3,0.9,0,1.2l0,0l0,0l0,0
			c-0.2,0.2-0.4,0.3-0.6,0.3l0,0C11.6,15,11.4,14.9,11.3,14.9z M65.3,13.8L65.3,13.8L65.3,13.8c-0.4-0.3-0.4-0.8-0.1-1.2l0,0
			c0.3-0.4,0.8-0.4,1.2-0.2l0,0c0.4,0.3,0.4,0.8,0.1,1.2l0,0c-0.2,0.2-0.4,0.3-0.7,0.3l0,0C65.6,13.9,65.6,13.8,65.3,13.8z
			 M13.8,12.4c-0.3-0.4-0.2-0.9,0.1-1.2l0,0c0.4-0.3,0.9-0.2,1.2,0.1l0,0c0.3,0.4,0.2,0.9-0.1,1.2l0,0l0,0l0,0
			c-0.1,0.1-0.3,0.2-0.5,0.2l0,0C14.1,12.7,13.9,12.6,13.8,12.4z M62.7,11.8c-0.4-0.2-0.5-0.8-0.3-1.2l0,0c0.2-0.4,0.8-0.5,1.2-0.3
			l0,0c0.4,0.2,0.5,0.8,0.3,1.2l0,0c-0.2,0.3-0.4,0.4-0.7,0.4l0,0C63,12,62.7,11.9,62.7,11.8z M16.4,10.4c-0.2-0.4-0.1-0.9,0.3-1.1
			l0,0c0.4-0.3,0.9-0.1,1.2,0.3l0,0c0.2,0.4,0.1,0.9-0.3,1.2l0,0c-0.1,0.1-0.2,0.1-0.4,0.1l0,0C16.9,10.8,16.6,10.7,16.4,10.4z
			 M59.7,10.2L59.7,10.2L59.7,10.2c-0.4-0.2-0.6-0.7-0.4-1.1l0,0c0.2-0.4,0.7-0.6,1.1-0.4l0,0C60.8,9,61,9.5,60.8,9.9l0,0
			c-0.1,0.3-0.4,0.5-0.8,0.5l0,0C60,10.4,59.9,10.4,59.7,10.2z M19.4,8.7c-0.2-0.4,0-0.9,0.4-1.1l0,0c0.4-0.2,0.9,0,1.1,0.4l0,0
			c0.2,0.4,0,0.9-0.4,1.1l0,0c-0.1,0.1-0.2,0.1-0.4,0.1l0,0C19.8,9.2,19.5,9,19.4,8.7z M56.6,9c-0.4-0.2-0.7-0.6-0.5-1.1l0,0
			c0.2-0.4,0.6-0.7,1.1-0.5l0,0c0.4,0.2,0.7,0.6,0.5,1.1l0,0c-0.1,0.3-0.4,0.6-0.8,0.6l0,0C56.8,9.1,56.8,9.1,56.6,9z M53.5,7.9
			L53.5,7.9L53.5,7.9c-0.5-0.1-0.7-0.6-0.6-1l0,0c0.1-0.4,0.6-0.7,1-0.6l0,0c0.5,0.1,0.7,0.6,0.6,1l0,0c-0.1,0.4-0.5,0.6-0.8,0.6
			l0,0C53.6,7.9,53.5,7.9,53.5,7.9z M22.6,7.3c-0.1-0.4,0.1-0.9,0.5-1.1l0,0c0.4-0.1,0.9,0.1,1.1,0.5l0,0c0.1,0.4-0.1,0.9-0.5,1.1
			l0,0c-0.1,0-0.2,0-0.3,0l0,0C22.9,7.9,22.6,7.8,22.6,7.3z M50.3,7.1c-0.5-0.1-0.8-0.5-0.7-1l0,0c0.1-0.5,0.5-0.8,1-0.7l0,0
			c0.5,0.1,0.7,0.5,0.6,1l0,0C51.1,6.7,50.8,7.1,50.3,7.1L50.3,7.1C50.3,7.3,50.3,7.3,50.3,7.1z M25.8,6.3c-0.1-0.4,0.2-0.9,0.6-1
			l0,0c0.5-0.1,0.9,0.2,1,0.6l0,0c0.1,0.5-0.2,0.9-0.6,1l0,0c-0.1,0-0.1,0-0.2,0l0,0C26.2,7,25.9,6.7,25.8,6.3z M46.9,6.7
			c-0.5-0.1-0.8-0.5-0.7-1l0,0c0.1-0.5,0.5-0.8,0.9-0.7l0,0c0.5,0.1,0.8,0.5,0.7,1l0,0C47.7,6.3,47.4,6.7,46.9,6.7L46.9,6.7
			L46.9,6.7z M29.1,5.6c-0.1-0.5,0.3-0.9,0.7-1l0,0c0.5-0.1,0.9,0.3,0.9,0.7l0,0c0.1,0.5-0.3,0.9-0.7,0.9l0,0H30l0,0
			C29.6,6.3,29.3,6,29.1,5.6z M43.5,6.2c-0.5,0-0.8-0.5-0.8-0.9l0,0c0-0.5,0.5-0.8,0.9-0.8l0,0c0.5,0,0.8,0.5,0.8,0.9l0,0
			C44.4,5.8,44.1,6.2,43.5,6.2L43.5,6.2L43.5,6.2z M32.5,5.2c0-0.5,0.3-0.9,0.8-0.9l0,0c0.5,0,0.9,0.3,0.9,0.8l0,0
			c0,0.5-0.3,0.9-0.8,0.9l0,0c0,0,0,0-0.1,0l0,0C32.9,6,32.6,5.6,32.5,5.2z M39.4,5c0-0.5,0.4-0.8,0.9-0.8l0,0
			c0.5,0,0.8,0.4,0.8,0.9l0,0c0,0.5-0.4,0.8-0.9,0.8l0,0l0,0l0,0C39.7,5.9,39.3,5.5,39.4,5z M35.9,5c0-0.5,0.4-0.8,0.8-0.8l0,0
			c0.5,0,0.9,0.4,0.9,0.8l0,0c0,0.5-0.4,0.8-0.8,0.9l0,0C36.4,5.9,35.9,5.5,35.9,5z"/>
	</g>
</g>
<g>
	<g>
		<path class="st2" d="M31.2,42.3c0.8,0,1.6,0.7,1.6,1.6c0,0.8-0.7,1.6-1.6,1.6c-0.8,0-1.6-0.7-1.6-1.6C29.7,43,30.4,42.3,31.2,42.3
			z"/>
	</g>
	<g>
		<path class="st2" d="M31.2,49.1c0.8,0,1.6,0.7,1.6,1.6c0,0.8-0.7,1.6-1.6,1.6c-0.8,0-1.6-0.7-1.6-1.6
			C29.7,49.8,30.4,49.1,31.2,49.1z"/>
	</g>
	<g>
		<path class="st2" d="M31.2,35.6c0.8,0,1.6,0.7,1.6,1.6c0,0.8-0.7,1.6-1.6,1.6c-0.8,0-1.6-0.7-1.6-1.6
			C29.7,36.3,30.4,35.6,31.2,35.6z"/>
	</g>
	<g>
		<path class="st2" d="M31.2,28.8c0.8,0,1.6,0.7,1.6,1.6c0,0.8-0.7,1.6-1.6,1.6c-0.8,0-1.6-0.7-1.6-1.6
			C29.7,29.5,30.4,28.8,31.2,28.8z"/>
	</g>
	<g>
		<rect x="34.6" y="29.4" class="st2" width="13.3" height="1.7"/>
	</g>
	<g>
		<rect x="34.6" y="36.2" class="st2" width="13.3" height="1.7"/>
	</g>
	<g>
		<rect x="34.6" y="43.1" class="st2" width="13.3" height="1.7"/>
	</g>
	<g>
		<rect x="34.6" y="50" class="st2" width="8.6" height="1.7"/>
	</g>
	<g>
		<path class="st2" d="M45,60.8H27.1c-1.7,0-3.2-1.4-3.2-3.2V21.9c0-1.7,1.4-3.2,3.2-3.2h24c1.7,0,3.2,1.4,3.2,3.2v27.2h-1.7V21.9
			c0-0.8-0.6-1.4-1.4-1.4h-24c-0.8,0-1.4,0.6-1.4,1.4v35.7c0,0.8,0.6,1.4,1.4,1.4H45V60.8z"/>
	</g>
	<g>
		<g>
			<g>
				<path class="st2" d="M63.6,52.3c-0.4-0.8-1.6-2-3.1-1.4c-0.7,0.3-1.1,0.7-1.4,1.1c-0.7-0.4-1.6-0.6-2.8-0.1
					c-0.8,0.4-1.2,0.9-1.4,1.3c-0.6-0.3-1.3-0.5-2.4-0.1c-0.5,0.2-0.9,0.6-1.2,1c-1.4-1.9-4.7-6.6-5.2-7.2c-1.3-1.9-2.8-1.4-3.7-1
					c-1,0.5-1.4,1.4-1.3,2.5c0,0.2,0.2,0.9,0.5,1.3c0.1,0.1,0.1,0.2,0.2,0.3c0.2,0.2,0.4,0.6,0.7,1c0.5,0.8,1.3,2,2,3.2
					c1.3,2.2,2.8,4.2,3,4.5l2,4.6c0,0.1,0.1,0.1,0.1,0.2l4,4.2l0.9-0.9l-3.9-4.1l-2-4.5v-0.1c-2-3.1-4.9-7.6-5.7-8.8
					c-0.1-0.1-0.1-0.2-0.2-0.4c-0.1-0.2-0.3-0.7-0.3-1.1c0.1-0.3,0.3-0.5,0.6-0.7c0.5-0.3,1.1-0.4,1.9,0.6c0.5,0.7,5.7,8,5.7,8.1
					c0.1,0.2,0.4,0.3,0.6,0.3s0.4-0.2,0.5-0.5c0,0,0.2-0.9,0.9-1.2c0.9-0.4,1.6,0.3,1.6,0.5c0.2,0.3,0.5,0.4,0.8,0.3
					s0.5-0.4,0.4-0.7c0,0-0.1-0.7,1-1.2c1-0.6,1.7,0.3,1.9,0.4c0.2,0.2,0.5,0.3,0.7,0.2c0.3-0.1,0.4-0.4,0.4-0.6c0,0,0-0.6,0.9-1
					c0.8-0.3,1.4,0.7,1.4,0.8c0.1,0.2,1,1.9,1.6,2.8l1.1-0.6C64.2,53.1,63.7,52.3,63.6,52.3z"/>
				<path class="st2" d="M53.8,68l-4.1-4.3c-0.1-0.1-0.1-0.1-0.1-0.2l-2-4.6L47.3,58c-0.6-0.8-1.6-2.4-2.5-3.8
					c-0.7-1.1-1.6-2.2-2-3.2c-0.3-0.4-0.5-0.8-0.7-1c-0.1-0.1-0.1-0.2-0.2-0.3c-0.3-0.4-0.5-1.1-0.5-1.4c-0.2-1.1,0.3-2,1.3-2.7
					c0.8-0.4,2.4-0.9,3.8,1c0.4,0.6,3.6,5,5,7.1c0.3-0.4,0.7-0.7,1.1-0.9c1-0.4,1.7-0.2,2.4,0c0.3-0.5,0.8-0.9,1.4-1.2
					c1.2-0.6,2.2-0.3,2.8,0c0.3-0.4,0.8-0.8,1.4-1c1.6-0.6,2.8,0.5,3.3,1.4c0,0.1,0.4,0.7,1.6,2.8l0.1,0.1l-1.3,0.8h-0.2
					c-0.5-1-1.6-2.7-1.6-2.8c0,0-0.5-1-1.2-0.7c-0.9,0.4-0.9,0.8-0.9,0.8c0,0.3-0.2,0.6-0.5,0.8c-0.3,0.1-0.7,0-0.9-0.3
					c-0.1-0.2-0.7-0.9-1.7-0.4c-1,0.5-0.9,1.1-0.9,1.1c0.1,0.4-0.1,0.7-0.4,0.9c-0.3,0.1-0.8,0-1-0.3c-0.1-0.1-0.6-0.8-1.4-0.4
					c-0.7,0.3-0.9,1.1-0.9,1.1c-0.1,0.3-0.3,0.5-0.6,0.6c-0.3,0.1-0.6-0.1-0.8-0.3c0-0.1-5.2-7.4-5.7-8.1c-0.7-1-1.3-0.8-1.7-0.6
					c-0.3,0.2-0.5,0.4-0.5,0.6c-0.1,0.4,0.1,0.9,0.2,1c0.1,0.1,0.2,0.2,0.2,0.4c0.7,1.1,3.5,5.4,5.7,8.8c0,0,0,0.1,0.1,0.1l2,4.5
					l4,4.2L53.8,68z M43.9,45.7c-0.5,0-0.9,0.2-1.2,0.3c-0.9,0.5-1.4,1.3-1.2,2.4c0,0.2,0.2,0.9,0.5,1.3c0.1,0.1,0.1,0.2,0.2,0.3
					c0.2,0.2,0.4,0.6,0.7,1c0.5,0.8,1.3,2,2,3.2c0.9,1.4,1.9,3,2.5,3.8l0.5,0.7l2,4.6c0,0.1,0.1,0.1,0.1,0.1l3.9,4.1l0.8-0.7l-4-4
					l-2-4.5c0,0,0,0,0-0.1c-2.2-3.4-5-7.6-5.7-8.8c-0.1-0.1-0.1-0.3-0.2-0.4c-0.1-0.2-0.4-0.7-0.3-1.2c0.1-0.3,0.3-0.6,0.7-0.8
					c0.5-0.3,1.2-0.5,2.2,0.7c0.5,0.7,5.7,8,5.7,8.1c0.1,0.2,0.3,0.2,0.5,0.2c0.2,0,0.4-0.2,0.4-0.4c0,0,0.2-0.9,1-1.3
					c0.8-0.3,1.4,0.1,1.7,0.5c0.1,0.2,0.4,0.3,0.7,0.2c0.2-0.1,0.4-0.4,0.3-0.6c0,0-0.1-0.8,1.1-1.4c0.9-0.5,1.6,0,2,0.5
					c0.1,0.2,0.4,0.3,0.6,0.2c0.2-0.1,0.4-0.3,0.3-0.5c0-0.1,0-0.7,1-1.1c0.9-0.4,1.6,0.8,1.6,0.8c0.1,0.2,1,1.9,1.6,2.8l0.9-0.5
					c-1-1.7-1.4-2.7-1.6-2.7l0,0c-0.4-0.8-1.6-1.9-3-1.3c-0.6,0.2-1,0.6-1.3,1l-0.1,0.1l-0.1-0.3c-0.6-0.4-1.6-0.6-2.7-0.1
					c-0.6,0.3-1.1,0.8-1.4,1.2l-0.1,0.2l-0.1-0.1c-0.5-0.3-1.2-0.5-2.2-0.1c-0.4,0.2-0.8,0.5-1.1,0.9h-0.1l-0.1-0.1
					c-1.1-1.6-4.7-6.6-5.2-7.2C45.3,46.1,44.5,45.7,43.9,45.7z"/>
			</g>
		</g>
	</g>
</g>
</svg>
