<?xml version="1.0" encoding="utf-8"?>
<!-- Generator: Adobe Illustrator 23.0.3, SVG Export Plug-In . SVG Version: 6.00 Build 0)  -->
<svg version="1.1" id="Livello_1" xmlns="http://www.w3.org/2000/svg" xmlns:xlink="http://www.w3.org/1999/xlink" x="0px" y="0px"
	 viewBox="0 0 80 80" style="enable-background:new 0 0 80 80;" xml:space="preserve">
<style type="text/css">
	.st0{fill:#FD6400;}
	.st1{fill:#000099;}
	.st2{fill:#FFFFFF;}
</style>
<g>
	<g>
		<path class="st0" d="M75.1,41c0,18.3-14.8,33.1-33.1,33.1S8.9,59.3,8.9,41S23.7,7.9,42,7.9C60.2,7.8,75.1,22.7,75.1,41z"/>
	</g>
</g>
<g>
	<g>
		<g>
			<path class="st1" d="M37.6,75.7c0-0.5,0.4-0.8,0.8-0.9l0,0c0.5,0,0.9,0.4,0.9,0.8l0,0c0,0.5-0.4,0.9-0.8,0.9l0,0l0,0l0,0
				C38,76.5,37.6,76.2,37.6,75.7z M35,76.5c-0.5,0-0.8-0.4-0.8-0.9l0,0c0-0.5,0.4-0.8,0.9-0.8l0,0c0.5,0,0.8,0.4,0.8,0.9l0,0
				C35.9,76.1,35.5,76.5,35,76.5L35,76.5C35.1,76.5,35.1,76.5,35,76.5z M41,75.6c0-0.5,0.3-0.9,0.8-0.9l0,0c0.5,0,0.9,0.3,0.9,0.8
				l0,0c0,0.5-0.3,0.9-0.8,0.9l0,0c0,0,0,0-0.1,0l0,0C41.4,76.4,41,76,41,75.6z M31.6,76.2L31.6,76.2c-0.5-0.1-0.8-0.5-0.7-0.9l0,0
				c0-0.5,0.5-0.8,0.9-0.7l0,0c0.5,0.1,0.8,0.5,0.7,0.9l0,0c0,0.4-0.4,0.7-0.8,0.7l0,0C31.7,76.2,31.7,76.2,31.6,76.2z M44.3,75.3
				c0-0.5,0.3-0.9,0.7-0.9l0,0l0,0l0,0c0.5,0,0.9,0.3,0.9,0.7l0,0c0.1,0.5-0.3,0.9-0.7,0.9l0,0h-0.1l0,0
				C44.8,76,44.4,75.7,44.3,75.3z M28.2,75.7c-0.4-0.1-0.8-0.5-0.7-1l0,0c0.1-0.5,0.5-0.8,1-0.7l0,0c0.5,0.1,0.8,0.5,0.7,1l0,0
				c-0.1,0.4-0.4,0.7-0.8,0.7l0,0C28.3,75.7,28.3,75.7,28.2,75.7z M47.7,74.9c-0.1-0.5,0.3-0.9,0.7-1l0,0c0.5-0.1,0.9,0.3,1,0.7l0,0
				c0.1,0.5-0.3,0.9-0.7,1l0,0h-0.1l0,0C48.1,75.6,47.7,75.3,47.7,74.9z M51,74.4c-0.1-0.5,0.2-0.9,0.7-1l0,0c0.5-0.1,0.9,0.2,1,0.7
				l0,0c0.1,0.5-0.2,0.9-0.7,1l0,0c-0.1,0-0.1,0-0.2,0l0,0C51.4,75.1,51.1,74.8,51,74.4z M24.9,74.8c-0.4-0.1-0.7-0.6-0.6-1l0,0
				c0.1-0.5,0.6-0.7,1-0.6l0,0c0.4,0.1,0.7,0.6,0.6,1.1l0,0c-0.1,0.4-0.4,0.6-0.8,0.6l0,0C25.1,74.9,25,74.9,24.9,74.8z M54.3,73.7
				c-0.1-0.5,0.2-0.9,0.6-1l0,0l0,0l0,0c0.4-0.1,0.9,0.2,1,0.6l0,0c0.1,0.5-0.2,0.9-0.6,1l0,0c-0.1,0-0.1,0-0.2,0l0,0
				C54.8,74.4,54.4,74.1,54.3,73.7z M21.6,73.7L21.6,73.7c-0.4-0.2-0.6-0.7-0.5-1.1l0,0c0.2-0.4,0.7-0.6,1.1-0.4l0,0
				c0.4,0.2,0.6,0.7,0.4,1.1l0,0c-0.1,0.3-0.4,0.5-0.8,0.5l0,0C21.9,73.8,21.8,73.7,21.6,73.7z M57.6,72.9c-0.1-0.4,0.1-0.9,0.6-1
				l0,0c0.4-0.1,0.9,0.1,1,0.6l0,0c0.1,0.5-0.1,0.9-0.6,1.1l0,0c-0.1,0-0.2,0-0.2,0l0,0C58,73.5,57.7,73.3,57.6,72.9z M60.8,71.9
				c-0.2-0.4,0.1-0.9,0.5-1.1l0,0c0.4-0.2,0.9,0.1,1.1,0.5l0,0c0.2,0.4-0.1,0.9-0.5,1.1l0,0c-0.1,0-0.2,0.1-0.3,0.1l0,0
				C61.2,72.5,60.9,72.3,60.8,71.9z M18.5,72.2c-0.4-0.2-0.6-0.7-0.3-1.1l0,0c0.2-0.4,0.7-0.5,1.1-0.3l0,0c0.4,0.2,0.6,0.7,0.3,1.1
				l0,0c-0.1,0.3-0.4,0.4-0.7,0.4l0,0C18.8,72.3,18.7,72.2,18.5,72.2z M63.9,70.7c-0.2-0.4,0-0.9,0.4-1.1l0,0l0,0l0,0
				c0.4-0.2,0.9,0,1.1,0.4l0,0c0.2,0.4,0,0.9-0.4,1.1l0,0c-0.1,0.1-0.2,0.1-0.4,0.1l0,0C64.4,71.1,64.1,71,63.9,70.7z M15.6,70.3
				c-0.4-0.3-0.5-0.8-0.2-1.2l0,0c0.3-0.4,0.8-0.5,1.2-0.2l0,0c0.4,0.3,0.4,0.8,0.2,1.2l0,0c-0.2,0.2-0.4,0.4-0.7,0.4l0,0
				C15.9,70.4,15.8,70.4,15.6,70.3z M66.9,69.1c-0.3-0.4-0.1-0.9,0.2-1.2l0,0l0,0l0,0c0.4-0.3,0.9-0.1,1.2,0.2l0,0
				c0.3,0.4,0.1,0.9-0.2,1.2l0,0c-0.1,0.1-0.3,0.1-0.5,0.1l0,0C67.3,69.5,67,69.3,66.9,69.1z M13,68.1c-0.3-0.3-0.4-0.9,0-1.2l0,0
				c0.3-0.3,0.9-0.4,1.2,0l0,0c0.3,0.3,0.4,0.9,0,1.2l0,0c-0.2,0.2-0.4,0.3-0.6,0.3l0,0C13.3,68.3,13.1,68.2,13,68.1z M69.6,67.1
				c-0.3-0.4-0.3-0.9,0.1-1.2l0,0c0.4-0.3,0.9-0.3,1.2,0.1l0,0c0.3,0.3,0.3,0.9-0.1,1.2l0,0c-0.2,0.1-0.4,0.2-0.6,0.2l0,0
				C70,67.4,69.8,67.3,69.6,67.1z M10.6,65.5c-0.3-0.4-0.3-0.9,0.1-1.2l0,0c0.4-0.3,0.9-0.3,1.2,0.1l0,0l0,0l0,0
				c0.3,0.4,0.3,0.9-0.1,1.2l0,0c-0.2,0.1-0.4,0.2-0.5,0.2l0,0C11,65.8,10.8,65.8,10.6,65.5z M72.1,64.8c-0.4-0.3-0.4-0.8-0.1-1.2
				l0,0l0,0l0,0c0.3-0.4,0.8-0.4,1.2-0.1l0,0c0.4,0.3,0.4,0.8,0.1,1.2l0,0c-0.2,0.2-0.4,0.3-0.7,0.3l0,0C72.4,65,72.2,65,72.1,64.8z
				 M8.5,62.8c-0.3-0.4-0.2-0.9,0.2-1.2l0,0c0.4-0.3,0.9-0.1,1.2,0.2l0,0c0.3,0.4,0.2,0.9-0.2,1.2l0,0c-0.1,0.1-0.3,0.1-0.5,0.1l0,0
				C8.9,63.2,8.7,63,8.5,62.8z M74.1,62.1c-0.4-0.2-0.5-0.8-0.3-1.1l0,0c0.2-0.4,0.8-0.5,1.1-0.3l0,0c0.4,0.2,0.5,0.7,0.3,1.1l0,0
				c-0.2,0.3-0.4,0.4-0.7,0.4l0,0C74.4,62.3,74.2,62.2,74.1,62.1z M6.7,59.8c-0.2-0.4-0.1-0.9,0.3-1.1l0,0c0.4-0.2,0.9-0.1,1.1,0.3
				l0,0l0,0l0,0c0.2,0.4,0.1,0.9-0.3,1.1l0,0c-0.1,0.1-0.3,0.1-0.4,0.1l0,0C7.2,60.3,6.9,60.1,6.7,59.8z M75.6,59.2
				c-0.4-0.2-0.6-0.7-0.5-1.1l0,0c0.2-0.4,0.7-0.6,1.1-0.5l0,0c0.4,0.2,0.6,0.6,0.5,1.1l0,0c-0.1,0.3-0.5,0.5-0.8,0.5l0,0
				C75.8,59.2,75.7,59.2,75.6,59.2z M5.2,56.8c-0.2-0.4,0-0.9,0.4-1.1l0,0c0.4-0.2,0.9,0,1.1,0.4l0,0l0,0l0,0c0.2,0.4,0,0.9-0.4,1.1
				l0,0c-0.1,0.1-0.2,0.1-0.4,0.1l0,0C5.6,57.3,5.3,57.1,5.2,56.8z M76.8,56c-0.5-0.1-0.7-0.6-0.6-1l0,0c0.1-0.5,0.6-0.7,1-0.6l0,0
				c0.5,0.1,0.7,0.6,0.6,1l0,0C77.7,55.8,77.3,56,77,56l0,0C76.9,56,76.8,56,76.8,56z M4.1,54.1c-0.2-0.4,0.1-0.9,0.5-1.1l0,0
				c0.4-0.2,0.9,0.1,1.1,0.5l0,0c0.2,0.4-0.1,0.9-0.5,1.1l0,0c-0.1,0-0.2,0-0.3,0l0,0C4.5,54.6,4.2,54.4,4.1,54.1z M77.5,52.7
				c-0.5-0.1-0.8-0.5-0.7-1l0,0l0,0l0,0c0.1-0.5,0.5-0.8,1-0.7l0,0c0.5,0.1,0.8,0.5,0.7,1l0,0c-0.1,0.4-0.4,0.7-0.8,0.7l0,0
				C77.5,52.7,77.5,52.7,77.5,52.7z M3,50.8c-0.1-0.5,0.2-0.9,0.6-1l0,0c0.4-0.1,0.9,0.1,1,0.6l0,0c0.1,0.5-0.1,0.9-0.6,1l0,0
				c-0.1,0-0.1,0-0.2,0l0,0C3.5,51.4,3.1,51.2,3,50.8z M77.9,49.3c-0.5,0-0.8-0.4-0.8-0.9l0,0l0,0l0,0c0-0.5,0.4-0.8,0.9-0.8l0,0
				c0.5,0,0.8,0.4,0.8,0.9l0,0C78.7,49,78.4,49.3,77.9,49.3L77.9,49.3L77.9,49.3z M2.3,47.4c-0.1-0.5,0.2-0.9,0.7-1l0,0
				c0.5-0.1,0.9,0.2,1,0.7l0,0c0.1,0.5-0.2,0.9-0.7,1l0,0c-0.1,0-0.1,0-0.2,0l0,0C2.7,48.1,2.4,47.8,2.3,47.4z M77.2,45.1
				c0-0.5,0.4-0.9,0.8-0.9l0,0c0.5,0,0.9,0.4,0.9,0.8l0,0c0,0.5-0.4,0.8-0.8,0.9l0,0l0,0l0,0C77.5,46,77.2,45.6,77.2,45.1z M1.8,44
				c0-0.5,0.3-0.9,0.8-0.9l0,0c0.5,0,0.9,0.3,0.9,0.8l0,0l0,0l0,0c0,0.5-0.3,0.9-0.8,0.9l0,0H2.6l0,0C2.3,44.8,1.9,44.5,1.8,44z
				 M77,41.8c0-0.5,0.3-0.9,0.8-0.9l0,0c0.5,0,0.9,0.3,0.9,0.8l0,0c0,0.5-0.3,0.9-0.8,0.9l0,0l0,0l0,0C77.4,42.6,77.1,42.3,77,41.8z
				 M2.6,41.4c-0.5,0-0.8-0.4-0.8-0.9l0,0c0-0.5,0.4-0.8,0.9-0.8l0,0c0.5,0,0.8,0.4,0.8,0.9l0,0C3.4,41.1,3.1,41.4,2.6,41.4
				L2.6,41.4L2.6,41.4z M76.8,38.5c0-0.5,0.3-0.9,0.8-0.9l0,0c0.5,0,0.9,0.3,0.9,0.8l0,0c0.1,0.5-0.3,0.9-0.8,0.9l0,0h-0.1l0,0
				C77.2,39.3,76.8,38.9,76.8,38.5z M2.7,38.1c-0.5,0-0.8-0.4-0.8-0.9l0,0c0-0.5,0.4-0.8,0.9-0.8l0,0c0.5,0,0.8,0.4,0.8,0.9l0,0
				C3.6,37.7,3.2,38.1,2.7,38.1L2.7,38.1C2.8,38.1,2.7,38.1,2.7,38.1z M76.4,35.2c-0.1-0.5,0.3-0.9,0.7-1l0,0c0.5-0.1,0.9,0.3,1,0.7
				l0,0c0.1,0.5-0.3,0.9-0.7,0.9l0,0h-0.1l0,0C76.8,35.9,76.4,35.6,76.4,35.2z M3,34.7c-0.5-0.1-0.8-0.5-0.7-0.9l0,0
				C2.4,33.3,2.8,33,3.2,33l0,0C3.7,33.1,4,33.5,4,34l0,0c-0.1,0.4-0.4,0.7-0.8,0.7l0,0C3.1,34.7,3,34.7,3,34.7z M75.9,31.9
				L75.9,31.9L75.9,31.9c-0.1-0.5,0.2-0.9,0.7-1l0,0c0.5-0.1,0.9,0.2,1,0.7l0,0c0.1,0.5-0.2,0.9-0.7,1l0,0h-0.1l0,0
				C76.3,32.6,75.9,32.3,75.9,31.9z M3.5,31.4c-0.5-0.1-0.8-0.5-0.7-1l0,0c0.1-0.4,0.5-0.8,1-0.7l0,0c0.5,0.1,0.8,0.5,0.7,1l0,0l0,0
				l0,0c-0.1,0.4-0.4,0.7-0.8,0.7l0,0C3.6,31.4,3.6,31.4,3.5,31.4z M75.2,28.6c-0.1-0.5,0.2-0.9,0.6-1l0,0c0.5-0.1,0.9,0.2,1,0.6
				l0,0c0.1,0.4-0.2,0.9-0.6,1l0,0c-0.1,0-0.1,0-0.2,0l0,0C75.7,29.3,75.3,29,75.2,28.6z M4.2,28.1c-0.5-0.1-0.7-0.6-0.6-1l0,0
				c0.1-0.5,0.6-0.7,1-0.6l0,0c0.5,0.1,0.7,0.6,0.6,1l0,0c-0.1,0.4-0.4,0.6-0.8,0.6l0,0C4.4,28.1,4.3,28.1,4.2,28.1z M74.3,25.5
				c-0.1-0.4,0.1-0.9,0.5-1.1l0,0c0.4-0.1,0.9,0.1,1.1,0.5l0,0c0.1,0.4-0.1,0.9-0.5,1.1l0,0c-0.1,0-0.2,0-0.3,0l0,0
				C74.8,26,74.4,25.8,74.3,25.5z M5.2,24.8c-0.4-0.2-0.7-0.6-0.5-1.1l0,0c0.1-0.4,0.6-0.7,1.1-0.5l0,0c0.4,0.2,0.7,0.6,0.5,1.1l0,0
				l0,0l0,0c-0.1,0.3-0.5,0.5-0.8,0.5l0,0C5.4,24.9,5.3,24.9,5.2,24.8z M73.1,22.4c-0.2-0.4,0-0.9,0.4-1.1l0,0
				c0.4-0.2,0.9,0,1.1,0.4l0,0c0.2,0.4,0,0.9-0.4,1.1l0,0c-0.1,0-0.2,0.1-0.4,0.1l0,0C73.6,22.9,73.3,22.7,73.1,22.4z M6.4,21.7
				C6,21.5,5.8,21,6,20.6l0,0c0.2-0.4,0.7-0.6,1.1-0.4l0,0c0.4,0.2,0.6,0.7,0.4,1.1l0,0c-0.1,0.3-0.5,0.5-0.8,0.5l0,0
				C6.6,21.8,6.5,21.8,6.4,21.7z M71.6,19.5c-0.2-0.4-0.1-0.9,0.3-1.1l0,0c0.4-0.2,0.9-0.1,1.1,0.3l0,0c0.2,0.4,0.1,0.9-0.3,1.2l0,0
				C72.6,20,72.4,20,72.3,20l0,0C72.1,19.9,71.8,19.8,71.6,19.5z M7.9,18.7c-0.4-0.2-0.5-0.8-0.3-1.1l0,0c0.2-0.4,0.8-0.5,1.2-0.3
				l0,0c0.4,0.2,0.5,0.8,0.3,1.2l0,0c-0.2,0.3-0.4,0.4-0.7,0.4l0,0C8.2,18.8,8.1,18.8,7.9,18.7z M69.8,16.8L69.8,16.8L69.8,16.8
				c-0.3-0.4-0.2-0.9,0.1-1.2l0,0c0.4-0.3,0.9-0.2,1.2,0.2l0,0c0.3,0.4,0.2,0.9-0.1,1.2l0,0c-0.1,0.1-0.3,0.2-0.5,0.2l0,0
				C70.2,17.1,70,17,69.8,16.8z M9.7,15.9c-0.4-0.3-0.4-0.8-0.2-1.2l0,0c0.3-0.4,0.8-0.4,1.2-0.2l0,0c0.4,0.3,0.4,0.8,0.2,1.2l0,0
				l0,0l0,0c-0.2,0.2-0.4,0.3-0.7,0.3l0,0C10.1,16,9.9,16,9.7,15.9z M67.6,14.4L67.6,14.4L67.6,14.4c-0.3-0.3-0.3-0.9,0-1.2l0,0
				c0.3-0.3,0.9-0.3,1.2,0l0,0c0.3,0.3,0.3,0.9,0,1.2l0,0c-0.2,0.2-0.4,0.2-0.6,0.2l0,0C68,14.6,67.8,14.5,67.6,14.4z M11.9,13.3
				c-0.3-0.3-0.3-0.9,0-1.2l0,0c0.3-0.3,0.9-0.3,1.2,0l0,0c0.3,0.3,0.3,0.9,0,1.2l0,0l0,0l0,0c-0.2,0.2-0.4,0.3-0.6,0.3l0,0
				C12.2,13.5,12,13.4,11.9,13.3z M65.2,12.2L65.2,12.2L65.2,12.2c-0.4-0.3-0.4-0.8-0.1-1.2l0,0c0.3-0.4,0.8-0.4,1.2-0.2l0,0
				c0.4,0.3,0.4,0.8,0.1,1.2l0,0c-0.2,0.2-0.4,0.3-0.7,0.3l0,0C65.5,12.4,65.4,12.3,65.2,12.2z M14.3,10.9c-0.3-0.4-0.2-0.9,0.1-1.2
				l0,0c0.4-0.3,0.9-0.2,1.2,0.1l0,0c0.3,0.4,0.2,0.9-0.1,1.2l0,0l0,0l0,0c-0.1,0.1-0.3,0.2-0.5,0.2l0,0
				C14.7,11.2,14.5,11.1,14.3,10.9z M62.5,10.3c-0.4-0.2-0.5-0.8-0.3-1.2l0,0c0.2-0.4,0.8-0.5,1.2-0.3l0,0c0.4,0.2,0.5,0.8,0.3,1.2
				l0,0c-0.2,0.3-0.4,0.4-0.7,0.4l0,0C62.8,10.5,62.6,10.4,62.5,10.3z M17,8.9c-0.2-0.4-0.1-0.9,0.3-1.1l0,0
				c0.4-0.3,0.9-0.1,1.2,0.3l0,0c0.2,0.4,0.1,0.9-0.3,1.2l0,0c-0.1,0.1-0.3,0.1-0.4,0.1l0,0C17.4,9.3,17.1,9.2,17,8.9z M59.6,8.8
				L59.6,8.8L59.6,8.8c-0.4-0.2-0.6-0.7-0.4-1.1l0,0c0.2-0.4,0.7-0.6,1.1-0.4l0,0c0.4,0.2,0.6,0.7,0.4,1.1l0,0
				c-0.1,0.3-0.4,0.5-0.8,0.5l0,0C59.9,8.9,59.8,8.9,59.6,8.8z M19.9,7.2c-0.2-0.4,0-0.9,0.4-1.1l0,0c0.4-0.2,0.9,0,1.1,0.4l0,0
				c0.2,0.4,0,0.9-0.4,1.1l0,0c-0.1,0.1-0.2,0.1-0.4,0.1l0,0C20.3,7.7,20,7.5,19.9,7.2z M56.6,7.5c-0.4-0.2-0.7-0.6-0.5-1.1l0,0
				c0.2-0.4,0.6-0.7,1.1-0.5l0,0c0.4,0.2,0.7,0.6,0.5,1.1l0,0c-0.1,0.3-0.4,0.6-0.8,0.6l0,0C56.8,7.6,56.7,7.6,56.6,7.5z M53.5,6.5
				L53.5,6.5L53.5,6.5c-0.5-0.1-0.7-0.6-0.6-1l0,0c0.1-0.4,0.6-0.7,1-0.6l0,0c0.5,0.1,0.7,0.6,0.6,1l0,0c-0.1,0.4-0.5,0.6-0.8,0.6
				l0,0C53.6,6.5,53.5,6.5,53.5,6.5z M23,5.9c-0.1-0.4,0.1-0.9,0.5-1.1l0,0c0.4-0.1,0.9,0.1,1.1,0.5l0,0c0.1,0.4-0.1,0.9-0.5,1.1
				l0,0c-0.1,0-0.2,0-0.3,0l0,0C23.4,6.5,23.1,6.3,23,5.9z M50.3,5.7c-0.5-0.1-0.8-0.5-0.7-1l0,0c0.1-0.5,0.5-0.8,1-0.7l0,0
				c0.5,0.1,0.7,0.5,0.6,1l0,0C51.1,5.4,50.8,5.7,50.3,5.7L50.3,5.7C50.4,5.8,50.3,5.8,50.3,5.7z M26.2,4.9c-0.1-0.4,0.2-0.9,0.6-1
				l0,0c0.5-0.1,0.9,0.2,1,0.6l0,0c0.1,0.5-0.2,0.9-0.6,1l0,0c-0.1,0-0.1,0-0.2,0l0,0C26.6,5.6,26.3,5.3,26.2,4.9z M47,5.2
				c-0.5-0.1-0.8-0.5-0.7-1l0,0c0.1-0.5,0.5-0.8,0.9-0.7l0,0c0.5,0.1,0.8,0.5,0.7,1l0,0c-0.1,0.4-0.4,0.7-0.8,0.7l0,0
				C47.1,5.2,47,5.2,47,5.2z M29.5,4.2c-0.1-0.5,0.3-0.9,0.7-1l0,0c0.5-0.1,0.9,0.3,0.9,0.7l0,0c0.1,0.5-0.3,0.9-0.7,0.9l0,0h-0.1
				l0,0C29.9,4.9,29.6,4.6,29.5,4.2z M43.7,4.8c-0.5,0-0.8-0.5-0.8-0.9l0,0c0-0.5,0.5-0.8,0.9-0.8l0,0c0.5,0,0.8,0.5,0.8,0.9l0,0
				C44.6,4.4,44.2,4.8,43.7,4.8L43.7,4.8L43.7,4.8z M32.8,3.8c0-0.5,0.3-0.9,0.8-0.9l0,0c0.5,0,0.9,0.3,0.9,0.8l0,0
				c0,0.5-0.3,0.9-0.8,0.9l0,0c0,0,0,0-0.1,0l0,0C33.2,4.6,32.9,4.2,32.8,3.8z M39.6,3.6c0-0.5,0.4-0.8,0.9-0.8l0,0
				c0.5,0,0.8,0.4,0.8,0.9l0,0c0,0.5-0.4,0.8-0.9,0.8l0,0l0,0l0,0C39.9,4.5,39.5,4.1,39.6,3.6z M36.2,3.6c0-0.5,0.4-0.8,0.8-0.8l0,0
				c0.5,0,0.9,0.4,0.9,0.8l0,0c0,0.5-0.4,0.8-0.8,0.9l0,0C36.6,4.5,36.2,4.1,36.2,3.6z"/>
		</g>
	</g>
</g>
<g>
	<path class="st2" d="M62.8,46.1h-1.6V30.9c0-0.6-0.5-1.1-1.1-1.1H47.8c-0.7,0-1.4-0.3-1.9-0.8L42,25.1c-0.2-0.2-0.5-0.3-0.7-0.3
		h-9.4v-1.6h9.4c0.7,0,1.4,0.3,1.9,0.8l3.9,3.9c0.2,0.2,0.5,0.3,0.7,0.3h12.4c1.5,0,2.7,1.2,2.7,2.7L62.8,46.1L62.8,46.1z"/>
</g>
<g>
	<path class="st2" d="M58.8,50.1h-1.6V34.9c0-0.6-0.5-1.1-1.1-1.1H43.8c-0.7,0-1.4-0.3-1.9-0.8L38,29.1c-0.2-0.2-0.5-0.3-0.7-0.3
		h-9.4v-1.6h9.4c0.7,0,1.4,0.3,1.9,0.8l3.9,3.9c0.2,0.2,0.5,0.3,0.7,0.3h12.4c1.5,0,2.7,1.2,2.7,2.7v15.2H58.8z"/>
</g>
<g>
	<path class="st2" d="M52.1,56.8H23.9c-1.5,0-2.7-1.2-2.7-2.7V33.9c0-1.5,1.2-2.7,2.7-2.7h9.4c0.7,0,1.4,0.3,1.9,0.8l3.9,3.9
		c0.2,0.2,0.5,0.3,0.7,0.3h12.4c1.5,0,2.7,1.2,2.7,2.7v15.3C54.8,55.6,53.6,56.8,52.1,56.8z M23.9,32.8c-0.6,0-1.1,0.5-1.1,1.1v20.3
		c0,0.6,0.5,1.1,1.1,1.1h28.3c0.6,0,1.1-0.5,1.1-1.1V38.9c0-0.6-0.5-1.1-1.1-1.1H39.8c-0.7,0-1.4-0.3-1.9-0.8L34,33.1
		c-0.2-0.2-0.5-0.3-0.7-0.3H23.9z"/>
</g>
</svg>
