<?xml version="1.0" encoding="utf-8"?>
<!-- Generator: Adobe Illustrator 22.1.0, SVG Export Plug-In . SVG Version: 6.00 Build 0)  -->
<svg version="1.1" id="Livello_1" xmlns="http://www.w3.org/2000/svg" xmlns:xlink="http://www.w3.org/1999/xlink" x="0px" y="0px"
	 viewBox="0 0 115 107" style="enable-background:new 0 0 115 107;" xml:space="preserve">
<style type="text/css">
	.st0{fill:#FD6400;}
	.st1{fill:#000099;}
	.st2{fill:#FFFFFF;}
</style>
<g>
	<path class="st0" d="M101.9,54.9c0,24.9-20.1,45-45,45c-24.9,0-45-20.1-45-45c0-24.9,20.1-45,45-45C81.7,9.8,101.9,30,101.9,54.9z"
		/>
</g>
<g>
	<path class="st1" d="M54,104.3c-0.7,0-1.1-0.5-1.1-1.2l0,0c0-0.7,0.5-1.1,1.2-1.1l0,0c0.7,0,1.1,0.5,1.1,1.2l0,0
		C55.2,103.8,54.6,104.3,54,104.3L54,104.3L54,104.3z M57.5,103.1c0-0.7,0.5-1.2,1.1-1.2l0,0c0.7,0,1.2,0.5,1.2,1.1l0,0
		c0,0.7-0.4,1.1-1.1,1.2l0,0l0,0l0,0C57.9,104.2,57.5,103.8,57.5,103.1z M49.4,104.1L49.4,104.1c-0.7,0-1.1-0.5-1.1-1.2l0,0
		c0-0.7,0.5-1.1,1.2-1.1l0,0l0,0l0,0c0.7,0,1.1,0.7,1.1,1.2l0,0C50.6,103.5,50.1,104.1,49.4,104.1L49.4,104.1L49.4,104.1z M61.9,103
		c0-0.7,0.4-1.2,1.1-1.2l0,0c0.7,0,1.2,0.4,1.2,1.1l0,0c0,0.7-0.4,1.2-1.1,1.2l0,0H63l0,0C62.4,103.9,62,103.5,61.9,103z
		 M66.5,102.4c-0.1-0.7,0.4-1.2,0.9-1.3l0,0c0.7-0.1,1.2,0.4,1.3,0.9l0,0c0.1,0.7-0.4,1.2-0.9,1.3l0,0h-0.1l0,0
		C67,103.5,66.5,103.1,66.5,102.4z M44.8,103.4c-0.7-0.1-1.1-0.7-0.9-1.3l0,0c0.1-0.7,0.7-1.1,1.3-0.9l0,0c0.7,0.1,1.1,0.7,0.9,1.3
		l0,0c-0.1,0.5-0.5,0.9-1.1,0.9l0,0C44.9,103.4,44.8,103.4,44.8,103.4z M70.9,101.9c-0.1-0.7,0.3-1.2,0.9-1.3l0,0
		c0.7-0.1,1.2,0.3,1.3,0.9l0,0c0.1,0.7-0.3,1.2-0.9,1.3l0,0c-0.1,0-0.1,0-0.3,0l0,0C71.5,102.9,71,102.4,70.9,101.9z M40.2,102.4
		c-0.7-0.1-0.9-0.8-0.8-1.3l0,0c0.1-0.5,0.8-0.9,1.3-0.8l0,0c0.7,0.1,0.9,0.8,0.8,1.3l0,0c-0.1,0.5-0.5,0.8-1.1,0.8l0,0
		C40.5,102.4,40.4,102.4,40.2,102.4z M75.4,101c-0.1-0.7,0.3-1.2,0.8-1.3l0,0l0,0l0,0c0.5-0.1,1.2,0.3,1.3,0.8l0,0
		c0.1,0.7-0.3,1.2-0.8,1.3l0,0c-0.1,0-0.1,0-0.3,0l0,0C75.9,101.8,75.5,101.5,75.4,101z M35.9,101c-0.5-0.3-0.9-0.8-0.7-1.5l0,0
		c0.3-0.5,0.8-0.9,1.5-0.7l0,0c0.5,0.3,0.9,0.8,0.7,1.5l0,0c-0.1,0.4-0.5,0.7-1.1,0.7l0,0C36.1,101.1,35.9,101.1,35.9,101z
		 M79.8,99.8c-0.1-0.5,0.1-1.2,0.7-1.5l0,0l0,0l0,0c0.5-0.1,1.2,0.1,1.5,0.7l0,0c0.1,0.5-0.1,1.2-0.7,1.5l0,0c-0.1,0-0.3,0-0.4,0
		l0,0C80.3,100.6,79.9,100.3,79.8,99.8z M31.6,99.1c-0.5-0.3-0.8-0.9-0.5-1.5l0,0c0.3-0.5,0.9-0.8,1.5-0.5l0,0
		c0.5,0.3,0.8,0.9,0.5,1.5l0,0c-0.1,0.4-0.5,0.7-1.1,0.7l0,0C31.9,99.2,31.8,99.2,31.6,99.1z M84,98.3c-0.3-0.5,0-1.2,0.5-1.5l0,0
		l0,0l0,0c0.5-0.3,1.2,0,1.5,0.5l0,0c0.3,0.5,0,1.2-0.5,1.5l0,0c-0.1,0-0.3,0.1-0.4,0.1l0,0C84.6,98.9,84.2,98.7,84,98.3z
		 M88.1,96.4c-0.3-0.5-0.1-1.2,0.4-1.5l0,0c0.5-0.3,1.2-0.1,1.5,0.4l0,0c0.3,0.5,0.1,1.2-0.4,1.5l0,0c-0.1,0.1-0.4,0.1-0.5,0.1l0,0
		C88.7,97.1,88.4,96.8,88.1,96.4z M27.6,96.8c-0.5-0.4-0.7-1.1-0.3-1.6l0,0c0.4-0.5,1.1-0.7,1.6-0.3l0,0c0.5,0.4,0.7,1.1,0.3,1.6
		l0,0c-0.3,0.3-0.5,0.5-0.9,0.5l0,0C28,96.9,27.7,96.9,27.6,96.8z M92,94.1c-0.4-0.5-0.3-1.2,0.3-1.6l0,0c0.5-0.4,1.2-0.3,1.6,0.3
		l0,0c0.4,0.5,0.3,1.2-0.3,1.6l0,0c-0.1,0.1-0.4,0.3-0.7,0.3l0,0C92.6,94.5,92.3,94.4,92,94.1z M23.8,94c-0.4-0.4-0.5-1.1-0.1-1.6
		l0,0c0.4-0.5,1.1-0.5,1.6-0.1l0,0c0.5,0.4,0.5,1.1,0.1,1.6l0,0c-0.3,0.3-0.5,0.4-0.8,0.4l0,0C24.4,94.2,24.1,94.1,23.8,94z
		 M95.5,91.3c-0.4-0.4-0.4-1.2,0-1.6l0,0l0,0l0,0c0.4-0.4,1.2-0.4,1.6,0l0,0c0.4,0.4,0.4,1.2,0,1.6l0,0c-0.3,0.3-0.5,0.3-0.8,0.3
		l0,0C96.1,91.7,95.8,91.5,95.5,91.3z M20.5,90.7L20.5,90.7c-0.4-0.5-0.4-1.2,0.1-1.6l0,0c0.4-0.4,1.2-0.4,1.6,0.1l0,0l0,0l0,0
		c0.4,0.4,0.4,1.2-0.1,1.6l0,0C21.9,91,21.7,91,21.4,91l0,0C21,91,20.7,90.9,20.5,90.7z M98.8,88c-0.5-0.4-0.5-1.1-0.3-1.6l0,0
		c0.4-0.5,1.1-0.5,1.6-0.1l0,0c0.5,0.4,0.5,1.1,0.3,1.6l0,0c-0.3,0.3-0.5,0.4-0.9,0.4l0,0C99.2,88.3,98.9,88.2,98.8,88z M17.6,87.1
		L17.6,87.1c-0.4-0.5-0.3-1.2,0.3-1.6l0,0c0.5-0.4,1.2-0.3,1.6,0.3l0,0c0.4,0.5,0.3,1.2-0.3,1.6l0,0c-0.1,0.1-0.4,0.3-0.7,0.3l0,0
		C18.2,87.5,17.8,87.4,17.6,87.1z M101.3,84.4c-0.5-0.3-0.8-1.1-0.4-1.5l0,0c0.3-0.5,0.9-0.7,1.6-0.4l0,0c0.5,0.3,0.7,0.9,0.4,1.5
		l0,0c-0.3,0.4-0.5,0.5-0.9,0.5l0,0C101.7,84.6,101.6,84.4,101.3,84.4z M15.1,83.1c-0.3-0.5-0.1-1.2,0.4-1.5l0,0
		c0.5-0.3,1.2-0.1,1.5,0.4l0,0c0.3,0.5,0.1,1.2-0.4,1.5l0,0c-0.1,0.1-0.4,0.1-0.5,0.1l0,0C15.7,83.7,15.3,83.5,15.1,83.1z
		 M103.5,80.4c-0.5-0.3-0.8-0.9-0.7-1.5l0,0c0.3-0.5,0.9-0.9,1.5-0.7l0,0c0.5,0.3,0.8,0.9,0.7,1.5l0,0c-0.1,0.4-0.5,0.7-1.1,0.7l0,0
		C103.8,80.4,103.6,80.4,103.5,80.4z M13,79L13,79c-0.1-0.1-0.1-0.4-0.1-0.5l0,0c-0.1-0.1-0.3-0.3-0.3-0.4l0,0
		c-0.3-0.5,0-1.2,0.5-1.5l0,0c0.5-0.3,1.2,0,1.5,0.5l0,0c0,0.1,0,0.4,0,0.5l0,0c0.1,0.1,0.3,0.3,0.3,0.4l0,0l0,0l0,0
		c0.3,0.5,0,1.2-0.5,1.5l0,0c-0.1,0-0.3,0.1-0.5,0.1l0,0C13.6,79.7,13.2,79.4,13,79z M105,76.1c-0.5-0.1-0.9-0.8-0.8-1.3l0,0
		c0.1-0.5,0.8-0.9,1.3-0.8l0,0c0.5,0.1,0.9,0.8,0.8,1.3l0,0c-0.1,0.5-0.5,0.8-1.1,0.8l0,0C105.2,76.2,105.1,76.1,105,76.1z
		 M10.9,73.8c-0.3-0.5,0.1-1.2,0.7-1.5l0,0c0.5-0.1,1.2,0.1,1.5,0.7l0,0c0.3,0.5-0.1,1.2-0.7,1.5l0,0c-0.1,0-0.3,0.1-0.4,0.1l0,0
		C11.4,74.6,11,74.2,10.9,73.8z M106,71.8c-0.7-0.1-1.1-0.7-0.9-1.3l0,0c0.1-0.5,0.7-1.1,1.3-0.9l0,0c0.7,0.1,1.1,0.7,0.9,1.3l0,0
		c-0.1,0.5-0.5,0.9-1.1,0.9l0,0C106.2,71.8,106.2,71.8,106,71.8z M9.4,69.3c-0.1-0.5,0.1-1.2,0.8-1.3l0,0c0.7-0.1,1.2,0.1,1.5,0.8
		l0,0c0.1,0.5-0.1,1.2-0.8,1.3l0,0c-0.1,0-0.3,0-0.3,0l0,0C10,70.3,9.6,69.9,9.4,69.3z M106.7,67.2c-0.7,0-1.1-0.5-1.1-1.2l0,0
		c0-0.7,0.7-1.1,1.2-1.1l0,0c0.7,0,1.1,0.5,1.1,1.2l0,0C107.9,66.8,107.4,67.2,106.7,67.2L106.7,67.2
		C106.8,67.2,106.8,67.2,106.7,67.2z M8.3,64.9c-0.1-0.7,0.3-1.2,0.8-1.3l0,0c0.7-0.1,1.2,0.3,1.3,0.8l0,0c0.1,0.7-0.3,1.2-0.8,1.3
		l0,0c-0.1,0-0.1,0-0.3,0l0,0C8.9,65.8,8.3,65.4,8.3,64.9z M107.1,62.8c-0.7,0-1.1-0.5-1.1-1.2l0,0c0-0.7,0.5-1.1,1.2-1.1l0,0
		c0.7,0,1.1,0.5,1.1,1.2l0,0C108.2,62.2,107.8,62.8,107.1,62.8L107.1,62.8L107.1,62.8z M7.4,60.5c-0.1-0.7,0.4-1.2,0.9-1.2l0,0
		c0.7-0.1,1.2,0.3,1.3,0.9l0,0c0.1,0.7-0.4,1.2-0.9,1.3l0,0H8.6l0,0C8.1,61.4,7.5,61,7.4,60.5z M106,57.1c0-0.7,0.5-1.2,1.1-1.2l0,0
		c0.7,0,1.2,0.5,1.2,1.1l0,0c0,0.7-0.5,1.2-1.1,1.2l0,0l0,0l0,0C106.6,58.2,106,57.6,106,57.1z M7,55.9L7,55.9
		c0-0.7,0.4-1.2,1.1-1.2l0,0c0.7,0,1.2,0.4,1.2,1.1l0,0l0,0l0,0c0,0.7-0.4,1.2-1.1,1.2l0,0c0,0,0,0-0.1,0l0,0
		C7.5,56.8,7,56.4,7,55.9z M105.8,52.5c0-0.7,0.4-1.2,1.1-1.2l0,0c0.7,0,1.2,0.4,1.2,1.1l0,0c0,0.7-0.4,1.2-1.1,1.2l0,0l0,0l0,0
		C106.3,53.6,105.8,53.2,105.8,52.5z M7.9,52.4c-0.7,0-1.1-0.5-1.1-1.2l0,0c0-0.7,0.5-1.1,1.2-1.1l0,0c0.7,0,1.1,0.5,1.1,1.2l0,0
		C9,51.8,8.5,52.4,7.9,52.4L7.9,52.4L7.9,52.4z M105.4,48.1c-0.1-0.7,0.4-1.2,1.1-1.2l0,0c0.7,0,1.2,0.4,1.2,1.1l0,0
		c0,0.7-0.4,1.2-1.1,1.2l0,0h-0.1l0,0C105.9,49.2,105.4,48.8,105.4,48.1z M7.9,47.8c-0.7-0.1-1.1-0.7-1.1-1.2l0,0
		c0-0.7,0.7-1.1,1.2-1.1l0,0c0.8,0.1,1.2,0.7,1.2,1.2l0,0C9.1,47.4,8.7,47.8,7.9,47.8L7.9,47.8C8.1,47.8,8.1,47.8,7.9,47.8z
		 M104.7,43.8L104.7,43.8L104.7,43.8c-0.1-0.5,0.3-1.2,0.8-1.3l0,0c0.7-0.1,1.2,0.3,1.3,0.8l0,0c0.1,0.5-0.3,1.2-0.9,1.3l0,0
		c-0.1,0-0.1,0-0.3,0l0,0C105.2,44.6,104.8,44.3,104.7,43.8z M8.5,43.2c-0.7-0.1-1.1-0.7-0.9-1.3l0,0c0.1-0.7,0.7-1.1,1.3-0.9l0,0
		c0.7,0.1,1.1,0.7,0.9,1.3l0,0c-0.1,0.5-0.5,0.9-1.1,0.9l0,0C8.7,43.4,8.6,43.4,8.5,43.2z M103.6,39.5c-0.1-0.5,0.1-1.2,0.8-1.3l0,0
		c0.5-0.1,1.2,0.1,1.3,0.8l0,0c0.1,0.5-0.1,1.2-0.8,1.3l0,0c-0.1,0-0.3,0-0.4,0l0,0C104.2,40.3,103.8,39.9,103.6,39.5z M9.6,38.9
		c-0.5-0.1-0.9-0.8-0.7-1.5l0,0c0.1-0.5,0.8-0.9,1.3-0.8l0,0c0.7,0.1,0.9,0.8,0.8,1.5l0,0c-0.1,0.5-0.5,0.8-1.1,0.8l0,0
		C9.7,38.9,9.7,38.9,9.6,38.9z M102.1,35.3L102.1,35.3L102.1,35.3c-0.3-0.5,0-1.2,0.7-1.5l0,0c0.5-0.3,1.2,0,1.5,0.7l0,0
		c0.3,0.5,0,1.2-0.7,1.5l0,0c-0.1,0-0.3,0.1-0.4,0.1l0,0C102.7,36,102.3,35.7,102.1,35.3z M11,34.6c-0.5-0.3-0.8-0.9-0.5-1.5l0,0
		c0.1-0.7,0.8-0.9,1.5-0.7l0,0c0.5,0.3,0.8,0.9,0.5,1.5l0,0c-0.1,0.4-0.5,0.7-1.1,0.7l0,0C11.3,34.6,11.2,34.6,11,34.6z M100.3,31.3
		L100.3,31.3L100.3,31.3c-0.3-0.5-0.1-1.2,0.5-1.5l0,0c0.5-0.3,1.2,0,1.5,0.5l0,0c0.3,0.5,0,1.2-0.5,1.5l0,0c-0.1,0-0.3,0-0.4,0l0,0
		C100.9,31.8,100.5,31.7,100.3,31.3z M12.9,30.5c-0.5-0.3-0.7-1.1-0.4-1.6l0,0c0.3-0.5,1.1-0.7,1.6-0.4l0,0c0.5,0.3,0.7,1.1,0.4,1.6
		l0,0c-0.3,0.4-0.5,0.5-0.9,0.5l0,0C13.3,30.7,13.2,30.6,12.9,30.5z M98.1,27.5c-0.4-0.5-0.1-1.2,0.4-1.6l0,0
		c0.5-0.4,1.2-0.1,1.6,0.4l0,0c0.4,0.5,0.3,1.2-0.3,1.6l0,0C99.7,28,99.4,28,99.2,28l0,0C98.6,27.9,98.2,27.8,98.1,27.5z M15.3,26.7
		c-0.5-0.4-0.5-1.1-0.3-1.6l0,0c0.4-0.5,1.1-0.5,1.6-0.3l0,0c0.5,0.4,0.5,1.1,0.3,1.6l0,0c-0.3,0.3-0.5,0.4-0.9,0.4l0,0
		C15.9,27,15.6,26.8,15.3,26.7z M95.4,23.9c-0.4-0.5-0.3-1.2,0.1-1.6l0,0c0.5-0.4,1.2-0.3,1.6,0.1l0,0c0.4,0.5,0.3,1.2-0.1,1.6l0,0
		c-0.3,0.1-0.5,0.3-0.7,0.3l0,0C95.9,24.3,95.7,24.1,95.4,23.9z M18.3,23.2c-0.4-0.4-0.4-1.2,0-1.6l0,0c0.4-0.4,1.2-0.4,1.6,0l0,0
		c0.4,0.4,0.4,1.2,0,1.6l0,0c-0.3,0.3-0.5,0.4-0.8,0.4l0,0C18.8,23.5,18.4,23.5,18.3,23.2z M92.4,20.6c-0.4-0.4-0.4-1.2,0-1.6l0,0
		c0.4-0.4,1.2-0.4,1.6,0l0,0c0.4,0.4,0.4,1.2,0,1.6l0,0c-0.3,0.3-0.5,0.4-0.8,0.4l0,0C93,20.9,92.7,20.8,92.4,20.6z M21.5,20.1
		c-0.4-0.5-0.3-1.2,0.1-1.6l0,0c0.5-0.4,1.2-0.4,1.6,0.1l0,0c0.4,0.5,0.4,1.2-0.1,1.6l0,0c-0.3,0.1-0.5,0.3-0.7,0.3l0,0
		C22.1,20.5,21.8,20.2,21.5,20.1z M89.2,17.7c-0.5-0.4-0.5-1.1-0.1-1.6l0,0c0.4-0.5,1.1-0.5,1.6-0.1l0,0c0.5,0.4,0.5,1.1,0.1,1.6
		l0,0c-0.3,0.3-0.5,0.4-0.9,0.4l0,0C89.6,17.9,89.4,17.8,89.2,17.7z M25,17.3c-0.4-0.5-0.3-1.2,0.3-1.6l0,0c0.5-0.4,1.2-0.3,1.6,0.3
		l0,0c0.4,0.5,0.3,1.2-0.3,1.6l0,0c-0.1,0.1-0.4,0.3-0.7,0.3l0,0C25.7,17.7,25.3,17.5,25,17.3z M28.9,14.7c-0.3-0.5-0.1-1.2,0.4-1.5
		l0,0c0.5-0.3,1.2-0.1,1.5,0.4l0,0c0.3,0.5,0.1,1.2-0.4,1.5l0,0c-0.1,0.1-0.4,0.1-0.5,0.1l0,0C29.5,15.4,29.1,15.1,28.9,14.7z
		 M85.6,15.1c-0.5-0.3-0.7-1.1-0.4-1.6l0,0c0.4-0.5,1.1-0.7,1.6-0.4l0,0c0.5,0.3,0.7,1.1,0.4,1.6l0,0c-0.3,0.4-0.5,0.5-0.9,0.5l0,0
		C86,15.2,85.7,15.2,85.6,15.1z M32.8,12.6c-0.3-0.5,0-1.2,0.5-1.5l0,0c0.5-0.3,1.2,0,1.5,0.5l0,0c0.3,0.5,0,1.2-0.5,1.5l0,0
		c-0.1,0.1-0.3,0.1-0.4,0.1l0,0C33.5,13.2,33.1,13,32.8,12.6z M81.7,13c-0.5-0.3-0.8-0.9-0.5-1.5l0,0c0.3-0.5,0.9-0.8,1.5-0.5l0,0
		c0.5,0.3,0.8,0.9,0.5,1.5l0,0c-0.1,0.4-0.5,0.7-1.1,0.7l0,0C82.1,13.1,81.9,13.1,81.7,13z M37,10.8c-0.3-0.5,0.1-1.2,0.7-1.5l0,0
		c0.5-0.3,1.2,0.1,1.5,0.7l0,0c0.3,0.5-0.1,1.2-0.7,1.5l0,0l0,0l0,0c-0.1,0-0.3,0.1-0.4,0.1l0,0C37.7,11.5,37.1,11.2,37,10.8z
		 M77.6,11.2c-0.5-0.3-0.9-0.8-0.7-1.5l0,0c0.3-0.5,0.8-0.9,1.5-0.7l0,0c0.5,0.3,0.9,0.9,0.7,1.5l0,0c-0.1,0.4-0.5,0.8-1.1,0.8l0,0
		C77.9,11.3,77.8,11.3,77.6,11.2z M41.3,9.3c-0.1-0.7,0.1-1.2,0.8-1.3l0,0c0.7-0.1,1.2,0.1,1.3,0.8l0,0c0.1,0.5-0.1,1.2-0.8,1.3l0,0
		c-0.1,0-0.1,0-0.3,0l0,0C41.8,10.1,41.4,9.7,41.3,9.3z M73.5,10c-0.5-0.1-0.9-0.8-0.8-1.3l0,0C72.8,8,73.5,7.7,74,7.8l0,0
		C74.5,8,75,8.7,74.8,9.2l0,0c-0.1,0.5-0.7,0.8-1.1,0.8l0,0C73.6,10,73.6,10,73.5,10z M45.6,8.1c-0.1-0.7,0.3-1.2,0.9-1.3l0,0
		c0.7-0.1,1.2,0.3,1.3,0.9l0,0C48,8.4,47.6,8.9,47,9.1l0,0c-0.1,0-0.1,0-0.3,0l0,0C46.3,9.1,45.8,8.7,45.6,8.1z M69.2,8.9L69.2,8.9
		L69.2,8.9c-0.7-0.1-1.1-0.7-0.9-1.3l0,0c0.1-0.7,0.7-1.1,1.3-0.9l0,0c0.7,0.1,1.1,0.7,0.9,1.3l0,0c-0.1,0.5-0.5,0.9-1.1,0.9l0,0
		C69.3,9.1,69.2,9.1,69.2,8.9z M64.7,8.4c-0.7,0-1.1-0.7-1.1-1.2l0,0c0-0.7,0.7-1.1,1.2-1.1l0,0c0.7,0,1.1,0.7,1.1,1.2l0,0
		C65.9,8,65.4,8.4,64.7,8.4L64.7,8.4C64.9,8.4,64.7,8.4,64.7,8.4z M50.2,7.3c0-0.7,0.4-1.2,1.1-1.2l0,0c0.7,0,1.2,0.4,1.2,1.1l0,0
		c0,0.7-0.4,1.2-1.1,1.2l0,0h-0.1l0,0C50.7,8.4,50.2,8,50.2,7.3z M60.3,8.1c-0.7,0-1.1-0.5-1.1-1.2l0,0c0-0.7,0.5-1.1,1.2-1.1l0,0
		c0.7,0,1.1,0.5,1.1,1.2l0,0C61.5,7.6,61,8.1,60.3,8.1L60.3,8.1L60.3,8.1z M54.6,6.9c0-0.7,0.4-1.2,1.1-1.2l0,0
		c0.7,0,1.2,0.5,1.2,1.1l0,0c0,0.7-0.4,1.1-1.1,1.2l0,0l0,0l0,0C55.2,8.1,54.6,7.6,54.6,6.9z"/>
</g>
<g>
	<g>
		<g>
			<path class="st2" d="M56.4,38c3.2,0,5.9-2.7,5.9-5.9v-2.3c0-3.2-2.7-5.9-5.9-5.9c-3.2,0-5.9,2.7-5.9,5.9v2.3
				C50.5,35.3,53.2,38,56.4,38z M52.9,29.6c0-1.9,1.6-3.5,3.5-3.5c1.9,0,3.5,1.6,3.5,3.5v2.3c0,1.9-1.6,3.5-3.5,3.5
				c-1.9,0-3.5-1.6-3.5-3.5V29.6z"/>
		</g>
		<g>
			<path class="st2" d="M49.1,62.8L44.5,59l5.4-14.5h13.5l2,5.2l2.3-0.8l-2.3-6.1c-0.1-0.5-0.7-0.8-1.2-0.8H49.1
				c-0.5,0-0.9,0.3-1.2,0.8L41.8,59c-0.1,0.5,0,1.1,0.4,1.3l4.8,3.9l2.3,19.6l2.4-0.3l-2.4-20.1C49.5,63.2,49.4,62.9,49.1,62.8z"/>
		</g>
	</g>
	<g>
		<path class="st2" d="M71.9,84.1c-8.5,0-15.3-6.9-15.3-15.3s6.9-15.3,15.3-15.3c8.5,0,15.3,6.9,15.3,15.3S80.3,84.1,71.9,84.1z
			 M71.9,55.9c-7.1,0-12.9,5.8-12.9,12.9c0,7.1,5.8,12.9,12.9,12.9c7.1,0,12.9-5.8,12.9-12.9C84.8,61.7,79,55.9,71.9,55.9z"/>
	</g>
	<g>
		<g>
			<rect x="70.6" y="62.8" class="st2" width="2.3" height="12.1"/>
		</g>
		<g>
			<rect x="65.8" y="67.6" class="st2" width="12.1" height="2.3"/>
		</g>
	</g>
</g>
</svg>
