<?xml version="1.0" encoding="utf-8"?>
<!-- Generator: Adobe Illustrator 23.0.3, SVG Export Plug-In . SVG Version: 6.00 Build 0)  -->
<svg version="1.1" xmlns="http://www.w3.org/2000/svg" xmlns:xlink="http://www.w3.org/1999/xlink" x="0px" y="0px"
	 viewBox="0 0 80 80" style="enable-background:new 0 0 80 80;" xml:space="preserve">
<style type="text/css">
	.st0{fill:#FFFFFF;}
	.st1{fill:#80BA27;}
	.st2{fill:none;stroke:#2A3284;stroke-width:1.6846;stroke-linecap:round;stroke-miterlimit:10;stroke-dasharray:0,3.3692;}
	.st3{display:none;}
	.st4{display:inline;}
	.st5{fill:#95D4E7;}
	.st6{fill:#E4003C;}
	.st7{fill:#BD2585;}
	.st8{fill:#CEBB95;}
	.st9{fill:#FD6400;}
</style>
<g id="Layer_2">
	<rect y="0.06" class="st0" width="80" height="80"/>
</g>
<g id="Layer_1">
	<g>
		<circle class="st1" cx="39.83" cy="40.14" r="33.46"/>
		<g>
			<path class="st0" d="M43.17,30.62c-0.18,0.62-0.11,1.27,0.19,1.84c-0.02,0.01-0.04,0.03-0.06,0.04c-0.52,0.39-0.87,0.95-0.96,1.6
				c-0.1,0.62,0.05,1.25,0.41,1.76c-0.41,0.38-0.68,0.88-0.77,1.44c-0.1,0.64,0.06,1.29,0.45,1.81c0.39,0.53,0.95,0.87,1.6,0.97
				l0.25-1.65c-0.2-0.03-0.38-0.14-0.51-0.31c-0.12-0.17-0.17-0.37-0.14-0.58c0.03-0.2,0.14-0.38,0.31-0.51
				c0.16-0.12,0.36-0.17,0.57-0.14l0.01,0c0.45,0.07,0.88-0.25,0.95-0.7c0.07-0.45-0.24-0.88-0.7-0.95c-0.01,0-0.01,0-0.02,0
				l-0.11-0.02c-0.2-0.03-0.39-0.14-0.51-0.31c-0.12-0.17-0.17-0.37-0.14-0.58c0.03-0.2,0.14-0.38,0.3-0.51
				c0.17-0.12,0.37-0.17,0.58-0.14c0.15,0.02,0.31,0,0.45-0.05l0.06-0.03c0.33-0.14,0.53-0.46,0.51-0.82
				c-0.02-0.35-0.26-0.65-0.6-0.75c-0.2-0.06-0.36-0.19-0.46-0.37c-0.1-0.18-0.12-0.39-0.06-0.59c0.06-0.2,0.19-0.36,0.37-0.46
				s0.39-0.12,0.59-0.06c0.32,0.09,0.67-0.01,0.88-0.27c0.21-0.26,0.25-0.62,0.1-0.91l-0.33-0.63c0.08-0.36,0.4-0.62,0.78-0.62
				c0.39,0,0.71,0.28,0.78,0.65l-0.29,0.66c-0.13,0.3-0.08,0.64,0.14,0.89c0.21,0.24,0.55,0.34,0.86,0.25
				c0.2-0.06,0.41-0.04,0.59,0.06c0.18,0.1,0.31,0.26,0.37,0.46c0.12,0.41-0.11,0.84-0.52,0.96c-0.34,0.1-0.58,0.4-0.6,0.75
				c-0.02,0.35,0.18,0.68,0.51,0.82l0.06,0.03c0.14,0.06,0.3,0.08,0.45,0.06c0.43-0.06,0.82,0.23,0.88,0.65
				c0.03,0.2-0.02,0.41-0.14,0.57c-0.12,0.17-0.3,0.28-0.5,0.31l-0.11,0.02c-0.01,0-0.02,0-0.02,0c-0.45,0.07-0.77,0.49-0.7,0.95
				s0.49,0.77,0.94,0.7l0.01,0c0.2-0.03,0.4,0.02,0.57,0.14c0.17,0.12,0.27,0.3,0.31,0.51c0.03,0.2-0.02,0.41-0.14,0.57
				c-0.12,0.17-0.3,0.27-0.57,0.32l-0.12,0.03c-0.44,0.1-0.72,0.53-0.64,0.97c0.08,0.44,0.5,0.73,0.95,0.67
				c0.2-0.03,0.41,0.02,0.58,0.14c0.17,0.12,0.28,0.3,0.31,0.51c0.03,0.2-0.02,0.41-0.14,0.57c-0.12,0.17-0.3,0.28-0.51,0.31
				l0.25,1.65c0.65-0.1,1.21-0.44,1.6-0.97c0.39-0.53,0.54-1.17,0.44-1.81c-0.09-0.56-0.36-1.06-0.78-1.44
				c0.36-0.51,0.5-1.14,0.41-1.76c-0.08-0.56-0.35-1.06-0.77-1.44c0.36-0.52,0.5-1.14,0.41-1.76c-0.11-0.69-0.49-1.27-1.02-1.64
				c0.29-0.55,0.38-1.2,0.19-1.84c-0.18-0.63-0.6-1.14-1.17-1.46c-0.13-0.07-0.27-0.13-0.42-0.18c0-0.02,0-0.04,0-0.07
				c0-1.36-1.1-2.46-2.46-2.46c-1.36,0-2.46,1.1-2.46,2.46c0,0.03,0,0.06,0,0.09c-0.12,0.04-0.24,0.1-0.35,0.16
				C43.77,29.48,43.35,29.99,43.17,30.62z"/>
			<path class="st0" d="M63.49,50.5c-0.03-0.06-2.87-6.06-9.62-4.13l0.46,1.6c3.38-0.97,5.51,0.5,6.63,1.75
				c-2.51-0.18-5.38,0.37-7.73,2.28c-0.15-1.29-0.67-2.32-0.71-2.39c-5.99-10.87-17.52-11.78-18-11.81
				c-0.35-0.02-0.66,0.16-0.81,0.47c-0.15,0.31-0.09,0.67,0.14,0.93c4.69,5.1,6.37,11.52,6.42,13.67c0.08,3.64,2.99,6.55,6.51,6.55
				c0.05,0,0.09,0,0.14,0c2.93-0.07,5.38-2.13,6.12-4.9l0.01,0.01c2.61-3.18,6.61-3.57,9.48-2.87c0.31,0.08,0.64-0.03,0.84-0.28
				C63.58,51.13,63.63,50.79,63.49,50.5z M46.89,57.76c-0.03,0-0.07,0-0.1,0c-2.62,0-4.78-2.19-4.84-4.92
				c-0.05-2.19-1.45-7.89-5.38-13c3.5,0.79,10.46,3.25,14.5,10.56c0.01,0.01,0.53,1.08,0.56,2.23C51.68,55.4,49.55,57.7,46.89,57.76
				z"/>
			<path class="st0" d="M24.2,45.44V27.73h5.31c1.31,0,2.37-1.06,2.37-2.37v-5.31h8.83c1.06,0,1.93,0.87,1.93,1.93v2.06h1.67v-2.06
				c0-1.98-1.61-3.6-3.6-3.6h-9.66c-0.22,0-0.43,0.09-0.59,0.24l-7.68,7.67c-0.16,0.16-0.24,0.37-0.24,0.59v18.55
				c0,1.98,1.61,3.6,3.6,3.6h9.63v-1.67h-9.63C25.06,47.37,24.2,46.51,24.2,45.44z M30.21,21.23v4.13c0,0.39-0.31,0.7-0.7,0.7h-4.13
				L30.21,21.23z"/>
		</g>
		<path class="st2" d="M5.66,57.8c2.98,6.29,10.82,20.85,37.94,17.92c27.12-2.93,33.28-17.65,30.76-40.85
			C73.22,24.34,65.35,3.49,36.04,4.61c-6.19,0.24-14.27,2.15-21.79,7.38C-6.32,26.3,2.68,51.51,5.66,57.8z"/>
	</g>
</g>
<g id="Layer_3" class="st3">
	<g class="st4">
		<circle class="st5" cx="39.46" cy="40.32" r="33.46"/>
		<path class="st2" d="M42.92,75.52c18.23-1.13,36.62-9.05,31.78-39.16C73.02,25.91,63.74,3.17,34.42,4.29
			c-6.19,0.24-16.89,4.39-24.51,9.47c-8,5.34-10.28,20.28-7.26,32.89S15.69,77.2,42.92,75.52z"/>
		<g>
			<g>
				<path class="st0" d="M53.85,61.4h-2.63c-0.38,0-0.71-0.25-0.81-0.62l-0.84-3.09c-0.07-0.25-0.02-0.52,0.14-0.73
					s0.4-0.33,0.66-0.33h4.31c0.26,0,0.51,0.12,0.66,0.33c0.16,0.21,0.21,0.47,0.14,0.73l-0.83,3.09
					C54.56,61.15,54.23,61.4,53.85,61.4z M51.86,59.73h1.35l0.38-1.42h-2.12L51.86,59.73z M36.84,55.49h-1.67v-9.65
					c0-0.01,0-0.02,0-0.03h-5.73c0,0.01,0,0.02,0,0.03v9.65h-1.67v-9.65c0-0.95,0.64-1.7,1.46-1.7h6.15c0.82,0,1.46,0.75,1.46,1.7
					V55.49z M24.97,55.49H23.3V23.33c0-1.82,1.26-3.3,2.8-3.3h19.38c1.54,0,2.8,1.48,2.8,3.3v10.74H46.6V23.33
					c0-0.88-0.52-1.62-1.13-1.62H26.1c-0.61,0-1.13,0.74-1.13,1.62V55.49z M55.5,54.91h-1.67v-2.45c0-0.35,0.21-0.66,0.54-0.78
					c0.19-0.07,0.39-0.16,0.58-0.26c1.65-0.89,2.68-2.61,2.68-4.48c0-2.8-2.28-5.08-5.08-5.08c-2.8,0-5.08,2.28-5.08,5.08
					c0,1.87,1.03,3.58,2.68,4.48c0.17,0.09,0.36,0.18,0.59,0.27c0.32,0.13,0.53,0.43,0.53,0.78v2.45h-1.67V53
					c-0.08-0.04-0.16-0.08-0.24-0.12c-2.19-1.19-3.55-3.47-3.55-5.95c0-3.72,3.03-6.75,6.76-6.75c3.72,0,6.75,3.03,6.75,6.75
					c0,2.49-1.37,4.77-3.57,5.96c-0.08,0.04-0.16,0.08-0.24,0.12V54.91z M42.13,40.8h-3.6c-0.84,0-1.53-0.69-1.53-1.53v-3.6
					c0-0.84,0.69-1.53,1.53-1.53h3.6c0.84,0,1.53,0.69,1.53,1.53v3.6C43.66,40.12,42.97,40.8,42.13,40.8z M38.67,39.13h3.32v-3.32
					h-3.32V39.13z M32.9,40.8h-3.6c-0.84,0-1.53-0.69-1.53-1.53v-3.6c0-0.84,0.69-1.53,1.53-1.53h3.6c0.84,0,1.53,0.69,1.53,1.53
					v3.6C34.43,40.12,33.75,40.8,32.9,40.8z M29.44,39.13h3.32v-3.32h-3.32V39.13z M42.13,31.54h-3.6c-0.84,0-1.53-0.69-1.53-1.53
					v-3.6c0-0.84,0.69-1.53,1.53-1.53h3.6c0.84,0,1.53,0.69,1.53,1.53v3.6C43.66,30.85,42.97,31.54,42.13,31.54z M38.67,29.87h3.32
					v-3.32h-3.32V29.87z M32.9,31.54h-3.6c-0.84,0-1.53-0.69-1.53-1.53v-3.6c0-0.84,0.69-1.53,1.53-1.53h3.6
					c0.84,0,1.53,0.69,1.53,1.53v3.6C34.43,30.85,33.75,31.54,32.9,31.54z M29.44,29.87h3.32v-3.32h-3.32V29.87z"/>
			</g>
		</g>
	</g>
</g>
<g id="Layer_4" class="st3">
	<g class="st4">
		<circle class="st6" cx="39.51" cy="39.85" r="33.46"/>
		<path class="st2" d="M5.21,57.28c2.98,6.29,10.44,21.58,37.56,18.65C69.89,73,79.88,63.68,75.04,33.57
			C73.36,23.11,68.31,6.72,39,5.31C7.97,3.82,1.7,26.68,1.91,44.06C1.91,44.06,2.23,50.99,5.21,57.28z"/>
		<g>
			<path class="st0" d="M32.7,27.39c2.25,0,4.07-1.83,4.07-4.07v-1.61c0-2.25-1.83-4.08-4.07-4.08s-4.07,1.83-4.07,4.08v1.61
				C28.62,25.56,30.45,27.39,32.7,27.39z M30.3,21.71c0-1.32,1.08-2.4,2.4-2.4s2.4,1.08,2.4,2.4v1.61c0,1.32-1.08,2.4-2.4,2.4
				s-2.4-1.08-2.4-2.4V21.71z"/>
			<path class="st0" d="M49.01,29.2c2.25,0,4.08-1.83,4.08-4.07v-1.61c0-2.25-1.83-4.07-4.08-4.07c-2.25,0-4.07,1.83-4.07,4.07v1.61
				C44.94,27.37,46.77,29.2,49.01,29.2z M46.61,23.52c0-1.32,1.08-2.4,2.4-2.4c1.32,0,2.4,1.08,2.4,2.4v1.61
				c0,1.32-1.08,2.4-2.4,2.4c-1.32,0-2.4-1.08-2.4-2.4V23.52z"/>
			<path class="st0" d="M27.71,44.25l-3.09-2.53l3.69-9.93h9.2l1.37,3.62l1.57-0.59l-1.57-4.17c-0.12-0.33-0.44-0.54-0.78-0.54
				H27.73c-0.35,0-0.66,0.22-0.79,0.55l-4.1,11.04c-0.12,0.34-0.02,0.71,0.25,0.94l3.29,2.7l1.59,13.4l1.66-0.2L28.01,44.8
				C27.98,44.58,27.88,44.39,27.71,44.25z"/>
			<path class="st0" d="M58.5,43.51l-4.1-11.04c-0.12-0.33-0.44-0.55-0.79-0.55h-9.7v1.68h9.12l3.69,9.93l-3.09,2.53
				c-0.17,0.14-0.28,0.34-0.3,0.55l-1.39,11.92l1.66,0.19l1.35-11.59l3.29-2.7C58.53,44.22,58.63,43.84,58.5,43.51z"/>
			<path class="st0" d="M49.73,44.8c-0.16-0.06-3.97-1.38-8.11,0.97c-1.12,0.63-1.88,1.39-2.4,2.15c-0.15-0.5-0.34-0.99-0.56-1.47
				c0.34-0.99,0.9-3.61-1.29-6.3c-3-3.7-7.03-3.86-7.2-3.87c-0.42-0.01-0.8,0.3-0.86,0.72c-0.02,0.17-0.55,4.28,2.25,7.73
				c1.93,2.38,4.48,2.64,5.66,2.62c1.91,4.32,0.12,10.33,0.1,10.39l1.6,0.49c0.05-0.17,0.76-2.54,0.85-5.47
				c1.27,0.38,3.34,0.64,5.55-0.61c3.87-2.19,4.89-6.2,4.93-6.37C50.36,45.37,50.13,44.95,49.73,44.8z M37.13,45.69
				c-0.01,0-0.02,0-0.03,0c-0.89,0-2.8-0.23-4.24-2.01c-1.65-2.03-1.91-4.39-1.93-5.61c1.17,0.23,3.35,0.95,5.13,3.14
				C37.59,43.09,37.36,44.89,37.13,45.69z M44.51,50.71c-2.02,1.14-3.89,0.64-4.7,0.31c0.09-0.83,0.52-2.59,2.63-3.79
				c2.46-1.39,4.75-1.25,5.92-1.04C47.9,47.32,46.8,49.41,44.51,50.71z"/>
		</g>
	</g>
</g>
<g id="Layer_5" class="st3">
	<g class="st4">
		<circle class="st7" cx="39.69" cy="40.14" r="33.46"/>
		<path class="st2" d="M5.21,57.57c2.98,6.29,10.44,21.58,37.56,18.65c27.12-2.93,37.11-12.25,32.28-42.36
			C73.36,23.41,68.31,7.02,39,5.61C7.97,4.11,1.7,26.98,1.91,44.36C1.91,44.36,2.23,51.28,5.21,57.57z"/>
		<g>
			<path class="st0" d="M54.51,38.29h1.81v-3.87c0-0.22-0.08-0.44-0.23-0.6l-16.1-17.97c-0.17-0.19-0.42-0.3-0.67-0.3
				c-0.26,0-0.5,0.11-0.67,0.3l-5.66,6.32v-4.6c0-0.5-0.41-0.9-0.9-0.9h-5.93c-0.5,0-0.9,0.41-0.9,0.9v13.24l-2.69,3
				c-0.15,0.17-0.23,0.38-0.23,0.6v24.49h1.81V34.77l2.69-3c0.15-0.17,0.23-0.38,0.23-0.6V18.48h4.12v6.06
				c0,0.37,0.23,0.71,0.58,0.85c0.35,0.13,0.75,0.04,1-0.24l6.57-7.33l15.19,16.96V38.29z"/>
			<path class="st0" d="M35.79,37.32h-6.77c-0.5,0-0.9,0.41-0.9,0.9v6.63c0,0.5,0.41,0.9,0.9,0.9h6.77c0.5,0,0.9-0.41,0.9-0.9v-6.63
				C36.7,37.72,36.29,37.32,35.79,37.32z M34.89,43.94h-4.96v-4.82h4.96V43.94z"/>
			<path class="st0" d="M65.12,45c-0.16-0.05-4.02-1.3-8.18,0.83c-1.37,0.7-2.28,1.58-2.88,2.47c-0.16-0.5-0.35-1-0.57-1.5
				c0.35-1.13,0.99-4.41-2.1-7.56c-2.92-2.98-6.78-3.18-6.94-3.19c-0.51-0.02-0.92,0.36-0.94,0.86c-0.01,0.22-0.21,5.35,2.84,8.49
				c1.42,1.47,3.3,2.25,5.59,2.33c2.18,5.12,0.13,10.82,0.11,10.87l1.7,0.63c0.06-0.16,0.93-2.56,1.01-5.73
				c0.54,0.12,1.23,0.22,2.01,0.22c1.28,0,2.78-0.27,4.26-1.17c3.82-2.33,4.68-6.35,4.71-6.52C65.81,45.59,65.55,45.14,65.12,45z
				 M45.34,38c1.16,0.24,3.16,0.87,4.76,2.5c2.15,2.19,1.99,4.41,1.75,5.42c-1.74-0.09-3.15-0.69-4.21-1.77
				C45.86,42.32,45.43,39.49,45.34,38z M60.06,51.02c-2.07,1.26-4.31,0.9-5.33,0.63c0.08-0.97,0.56-2.95,3.03-4.21
				c2.4-1.22,4.71-1.1,5.92-0.91C63.26,47.66,62.24,49.69,60.06,51.02z"/>
		</g>
	</g>
</g>
<g id="Layer_6" class="st3">
	<g class="st4">
		<circle class="st8" cx="39.39" cy="40.06" r="33.46"/>
		<path class="st2" d="M4.64,55.6c2.98,6.29,9.89,23.48,37,20.54c27.12-2.93,41.21-13.64,36.38-43.76
			C76.34,21.93,67.75,2.51,38.44,3.63c-6.19,0.24-18.07,0.41-25.21,6.16C-5.25,24.7,1.66,49.3,4.64,55.6z"/>
		<g>
			<g>
				<path class="st0" d="M46.16,61.23L41.3,55.8c-0.06-0.07-0.11-0.15-0.15-0.24l-2.45-5.84c-0.25-0.41-1.91-3.13-3.56-5.86
					c-0.9-1.48-1.79-2.96-2.47-4.07c-0.34-0.56-0.62-1.02-0.81-1.35c-0.08-0.13-0.15-0.26-0.22-0.38c-0.37-0.59-0.59-1.46-0.62-1.76
					c-0.15-1.34,0.47-2.43,1.75-3.08c0.99-0.5,2.9-0.98,4.56,1.43c0.51,0.74,4.47,6.67,6.19,9.25c0.35-0.47,0.85-0.93,1.56-1.21
					c1.19-0.47,2.19-0.23,2.92,0.22c0.32-0.55,0.89-1.13,1.89-1.62c1.42-0.7,2.64-0.36,3.48,0.21c0.36-0.49,0.93-0.97,1.83-1.31
					c1.87-0.71,3.37,0.78,3.88,1.89c0.05,0.1,0.57,1.12,1.88,3.61l-1.49,0.78c-0.67-1.27-1.8-3.44-1.91-3.68
					c-0.01-0.02-0.73-1.43-1.77-1.03c-1.22,0.46-1.27,1.16-1.27,1.19c0.01,0.37-0.22,0.7-0.58,0.81c-0.36,0.12-0.74-0.03-0.96-0.34
					c-0.15-0.22-1.01-1.29-2.37-0.63c-1.45,0.71-1.35,1.53-1.35,1.57c0.09,0.4-0.13,0.79-0.52,0.94c-0.38,0.15-0.82-0.02-1.03-0.37
					c-0.12-0.19-0.8-1.17-2.03-0.68c-0.94,0.37-1.27,1.5-1.27,1.51c-0.09,0.32-0.35,0.55-0.68,0.6c-0.33,0.05-0.65-0.09-0.83-0.36
					c-0.06-0.1-6.33-9.49-6.96-10.41c-0.96-1.38-1.8-1.2-2.42-0.88c-0.46,0.23-0.73,0.52-0.82,0.89c-0.12,0.52,0.12,1.13,0.29,1.46
					c0.11,0.15,0.21,0.31,0.28,0.48c0.97,1.62,4.47,7.39,6.89,11.36c0.02,0.04,0.04,0.07,0.06,0.11l2.42,5.77l4.76,5.32L46.16,61.23
					z M33.41,46.11c-4.12,0-7.79-1.11-9.58-2.91c-1.79-1.8-2.91-5.47-2.91-9.58c0-4.12,1.11-7.79,2.91-9.58
					c1.79-1.79,5.46-2.91,9.58-2.91s7.79,1.11,9.58,2.91c2.75,2.75,3.37,8.98,2.55,13.44c-0.2,1.1-0.48,2.09-0.83,2.97l-1.55-0.63
					c0.31-0.77,0.56-1.65,0.74-2.64c0.85-4.68-0.07-9.93-2.09-11.96c-1.47-1.47-4.76-2.42-8.4-2.42s-6.93,0.95-8.4,2.42
					c-1.47,1.47-2.42,4.76-2.42,8.4s0.95,6.93,2.42,8.4c1.47,1.47,4.76,2.42,8.4,2.42V46.11z"/>
			</g>
		</g>
	</g>
</g>
<g id="Layer_7" class="st3">
	<g class="st4">
		<g>
			<g>
				<path class="st9" d="M31.45,42.67c0-0.2,0.1-0.41,0.31-0.51l2.85-2.34l-3.46-9.27H23.2l-3.46,9.27l2.85,2.34
					c0.2,0.1,0.31,0.31,0.31,0.51l0.61,4.79c2.14-0.51,4.28-0.82,5.81-0.82c0,0,0.51,0,1.53,0.1v-0.1L31.45,42.67z"/>
				<g>
					<path class="st9" d="M40.11,18.83c-1.22,0-2.24,1.02-2.24,2.24v1.53c0,1.22,1.02,2.24,2.24,2.24s2.24-1.02,2.24-2.24v-1.53
						C42.35,19.84,41.33,18.83,40.11,18.83z"/>
					<path class="st9" d="M27.07,18.83c-1.22,0-2.24,1.02-2.24,2.24v1.53c0,1.22,1.02,2.24,2.24,2.24c1.22,0,2.24-1.02,2.24-2.24
						v-1.53C29.41,19.84,28.39,18.83,27.07,18.83z"/>
					<path class="st9" d="M22.18,59.99c2.85,0,5.91,0.51,8.86,1.02c2.34,0.41,4.69,0.71,6.72,0.82c4.89,0.2,6.83-1.02,6.93-1.02
						l3.87-1.73l13.14-6.32c0.41-0.82,0.51-1.43,0.2-1.83c-0.41-0.71-1.43-1.02-1.94-1.12c-1.32,0.51-9.17,3.67-12.73,5.09
						s-4.99,1.53-5.4,1.53c-0.1,0-3.57-0.31-7.03-0.71h-0.31c-2.45-0.31-3.46-0.41-3.97-1.12c-0.41-0.51-0.31-1.12-0.31-1.53
						c0.1-0.71,0.61-1.94,2.95-1.94c1.12,0,2.24,0.31,2.24,0.31c1.53,0.2,2.95,0.31,4.08,0.31c3.36,0,4.28-0.71,5.09-1.32l0.2-0.1
						C45,50.1,45,50,45,50c0-0.1-0.2-0.41-0.51-0.51c-0.92-0.2-14.47-1.12-15.18-1.12c-3.67,0-10.49,1.94-12.53,3.26
						c-1.22,0.71-3.57,1.12-7.13,1.12c-0.2,0-0.41,0-0.71,0c1.32,2.85,2.95,5.5,4.99,7.95c1.94-0.2,4.18-0.31,6.32-0.51
						C20.86,59.99,21.57,59.99,22.18,59.99z"/>
					<path class="st9" d="M53.35,18.83c-1.22,0-2.24,1.02-2.24,2.24v1.53c0,1.22,1.02,2.24,2.24,2.24s2.24-1.02,2.24-2.24v-1.53
						C55.6,19.84,54.58,18.83,53.35,18.83z"/>
					<path class="st9" d="M39.5,5.68C21.06,5.68,6.08,20.66,6.08,39.1c0,4.28,0.82,8.25,2.24,12.02c0.41,0,0.82,0,1.32,0
						c4.28,0,5.81-0.51,6.32-0.92c1.22-0.82,3.57-1.63,6.01-2.24l-0.61-4.69l-3.06-2.55c-0.31-0.2-0.41-0.61-0.2-0.92l3.87-10.39
						c0.1-0.31,0.41-0.51,0.61-0.51l0,0h0.1h9.07h0.1l0,0c0.31,0,0.51,0.2,0.61,0.51l3.87,10.39c0.1,0.31,0,0.71-0.2,0.92
						l-3.06,2.55l-0.51,3.67c3.36,0.2,8.66,0.61,11.31,0.82l0.61-5.09c0-0.2,0.1-0.41,0.31-0.51l2.85-2.34l-3.57-9.27h-8.56v-1.53
						h9.07c0.31,0,0.61,0.2,0.71,0.51l3.87,10.39c0.1,0.31,0,0.71-0.2,0.92l-3.06,2.55l-0.61,4.79c0.61,0.31,1.22,0.92,1.32,1.73
						c0,0.41-0.1,1.02-0.82,1.63l-0.2,0.1c-0.92,0.61-2.14,1.63-6.01,1.63c-1.22,0-2.75-0.1-4.38-0.31c-0.1,0-1.02-0.31-1.94-0.31
						s-1.43,0.2-1.43,0.61c0,0.31,0,0.41,0,0.41c0.2,0.2,1.43,0.31,2.95,0.51h0.31c3.36,0.41,6.93,0.71,6.93,0.71s1.22,0,4.69-1.43
						c2.45-1.02,6.93-2.85,9.98-3.97l0.82-6.62c0-0.2,0.1-0.41,0.31-0.51l2.85-2.34l-3.46-9.37h-8.56v-1.53h9.07
						c0.31,0,0.61,0.2,0.71,0.51l3.87,10.39c0.1,0.31,0,0.71-0.2,0.92l-3.06,2.55l-0.71,5.4c0.82-0.31,1.32-0.51,1.32-0.51l0.2-0.1
						h0.2c0.2,0,2.55,0.31,3.36,1.94c0.51,1.02,0.41,2.14-0.31,3.57l-0.1,0.2l-17.42,8.25c0,0-1.94,1.22-6.52,1.22
						c-0.41,0-0.82,0-1.22,0c-2.14-0.1-4.48-0.51-6.93-0.92c-3.46-0.61-7.13-1.22-10.39-0.92c-1.73,0.2-3.57,0.31-5.2,0.41
						c6.11,6.42,14.67,10.49,24.25,10.49c18.44,0,33.42-14.98,33.42-33.42C72.92,20.66,57.94,5.68,39.5,5.68z M30.94,22.6
						c0,2.14-1.73,3.87-3.87,3.87s-3.87-1.73-3.87-3.87v-1.53c0-2.14,1.73-3.87,3.87-3.87s3.87,1.73,3.87,3.87V22.6z M43.88,22.6
						c0,2.14-1.73,3.87-3.87,3.87s-3.87-1.73-3.87-3.87v-1.53c0-2.14,1.73-3.87,3.87-3.87s3.87,1.73,3.87,3.87V22.6z M57.23,22.6
						c0,2.14-1.73,3.87-3.87,3.87s-3.87-1.73-3.87-3.87v-1.53c0-2.14,1.73-3.87,3.87-3.87s3.87,1.73,3.87,3.87V22.6z"/>
					<path class="st9" d="M13.93,60.6"/>
					<path class="st9" d="M15.25,62.02"/>
				</g>
			</g>
		</g>
		<path class="st2" d="M5.64,54.6c2.98,6.29,9.89,23.48,37,20.54c27.12-2.93,41.21-13.64,36.38-43.76
			C77.34,20.93,68.75,1.51,39.44,2.63c-6.19,0.24-18.07,0.41-25.21,6.16C-4.25,23.7,2.66,48.3,5.64,54.6z"/>
	</g>
</g>
</svg>
