<?xml version="1.0" encoding="utf-8"?>
<!-- Generator: Adobe Illustrator 23.0.3, SVG Export Plug-In . SVG Version: 6.00 Build 0)  -->
<svg version="1.1" id="Layer_1" xmlns="http://www.w3.org/2000/svg" xmlns:xlink="http://www.w3.org/1999/xlink" x="0px" y="0px"
	 viewBox="0 0 88 85" style="enable-background:new 0 0 88 85;" xml:space="preserve">
<style type="text/css">
	.st0{fill:#FD6400;}
	.st1{fill:#363182;}
	.st2{fill:#FFFFFF;}
	.st3{display:none;}
	.st4{display:inline;fill:#F08106;}
	.st5{display:inline;}
	.st6{fill:#2A3284;}
	.st7{display:inline;fill:none;}
	.st8{display:inline;fill:#FFFFFF;}
	.st9{fill:none;}
</style>
<g>
	<path class="st0" d="M78.1,42c0,18.3-14.8,33.1-33.1,33.1S11.9,60.3,11.9,42S26.7,8.9,45,8.9C63.2,8.8,78.1,23.7,78.1,42z"/>
	<g>
		<path class="st1" d="M40.6,78.7c0-0.5,0.4-0.8,0.8-0.9l0,0c0.5,0,0.9,0.4,0.9,0.8l0,0c0,0.5-0.4,0.9-0.8,0.9l0,0l0,0l0,0
			C41,79.5,40.6,79.2,40.6,78.7z M38,79.5c-0.5,0-0.8-0.4-0.8-0.9l0,0c0-0.5,0.4-0.8,0.9-0.8l0,0c0.5,0,0.8,0.4,0.8,0.9l0,0
			C38.9,79.1,38.5,79.5,38,79.5L38,79.5C38.1,79.5,38.1,79.5,38,79.5z M44,78.6c0-0.5,0.3-0.9,0.8-0.9l0,0c0.5,0,0.9,0.3,0.9,0.8
			l0,0c0,0.5-0.3,0.9-0.8,0.9l0,0c0,0,0,0-0.1,0l0,0C44.4,79.4,44,79,44,78.6z M34.6,79.2L34.6,79.2c-0.5-0.1-0.8-0.5-0.7-0.9l0,0
			c0-0.5,0.5-0.8,0.9-0.7l0,0c0.5,0.1,0.8,0.5,0.7,0.9l0,0c0,0.4-0.4,0.7-0.8,0.7l0,0C34.7,79.2,34.7,79.2,34.6,79.2z M47.3,78.3
			c0-0.5,0.3-0.9,0.7-0.9l0,0l0,0l0,0c0.5,0,0.9,0.3,0.9,0.7l0,0c0.1,0.5-0.3,0.9-0.7,0.9l0,0h-0.1l0,0C47.8,79,47.4,78.7,47.3,78.3
			z M31.2,78.7c-0.4-0.1-0.8-0.5-0.7-1l0,0c0.1-0.5,0.5-0.8,1-0.7l0,0c0.5,0.1,0.8,0.5,0.7,1l0,0c-0.1,0.4-0.4,0.7-0.8,0.7l0,0
			C31.3,78.7,31.3,78.7,31.2,78.7z M50.7,77.9c-0.1-0.5,0.3-0.9,0.7-1l0,0c0.5-0.1,0.9,0.3,1,0.7l0,0c0.1,0.5-0.3,0.9-0.7,1l0,0
			h-0.1l0,0C51.1,78.6,50.7,78.3,50.7,77.9z M54,77.4c-0.1-0.5,0.2-0.9,0.7-1l0,0c0.5-0.1,0.9,0.2,1,0.7l0,0c0.1,0.5-0.2,0.9-0.7,1
			l0,0c-0.1,0-0.1,0-0.2,0l0,0C54.4,78.1,54.1,77.8,54,77.4z M27.9,77.8c-0.4-0.1-0.7-0.6-0.6-1l0,0c0.1-0.5,0.6-0.7,1-0.6l0,0
			c0.4,0.1,0.7,0.6,0.6,1.1l0,0c-0.1,0.4-0.4,0.6-0.8,0.6l0,0C28.1,77.9,28,77.9,27.9,77.8z M57.3,76.7c-0.1-0.5,0.2-0.9,0.6-1l0,0
			l0,0l0,0c0.4-0.1,0.9,0.2,1,0.6l0,0c0.1,0.5-0.2,0.9-0.6,1l0,0c-0.1,0-0.1,0-0.2,0l0,0C57.8,77.4,57.4,77.1,57.3,76.7z M24.6,76.7
			L24.6,76.7c-0.4-0.2-0.6-0.7-0.5-1.1l0,0c0.2-0.4,0.7-0.6,1.1-0.4l0,0c0.4,0.2,0.6,0.7,0.4,1.1l0,0c-0.1,0.3-0.4,0.5-0.8,0.5l0,0
			C24.9,76.8,24.8,76.7,24.6,76.7z M60.6,75.9c-0.1-0.4,0.1-0.9,0.6-1l0,0c0.4-0.1,0.9,0.1,1,0.6l0,0c0.1,0.5-0.1,0.9-0.6,1.1l0,0
			c-0.1,0-0.2,0-0.2,0l0,0C61,76.5,60.7,76.3,60.6,75.9z M63.8,74.9c-0.2-0.4,0.1-0.9,0.5-1.1l0,0c0.4-0.2,0.9,0.1,1.1,0.5l0,0
			c0.2,0.4-0.1,0.9-0.5,1.1l0,0c-0.1,0-0.2,0.1-0.3,0.1l0,0C64.2,75.5,63.9,75.3,63.8,74.9z M21.5,75.2c-0.4-0.2-0.6-0.7-0.3-1.1
			l0,0c0.2-0.4,0.7-0.5,1.1-0.3l0,0c0.4,0.2,0.6,0.7,0.3,1.1l0,0c-0.1,0.3-0.4,0.4-0.7,0.4l0,0C21.8,75.3,21.7,75.2,21.5,75.2z
			 M66.9,73.7c-0.2-0.4,0-0.9,0.4-1.1l0,0l0,0l0,0c0.4-0.2,0.9,0,1.1,0.4l0,0c0.2,0.4,0,0.9-0.4,1.1l0,0c-0.1,0.1-0.2,0.1-0.4,0.1
			l0,0C67.4,74.1,67.1,74,66.9,73.7z M18.6,73.3c-0.4-0.3-0.5-0.8-0.2-1.2l0,0c0.3-0.4,0.8-0.5,1.2-0.2l0,0c0.4,0.3,0.4,0.8,0.2,1.2
			l0,0c-0.2,0.2-0.4,0.4-0.7,0.4l0,0C18.9,73.4,18.8,73.4,18.6,73.3z M69.9,72.1c-0.3-0.4-0.1-0.9,0.2-1.2l0,0l0,0l0,0
			c0.4-0.3,0.9-0.1,1.2,0.2l0,0c0.3,0.4,0.1,0.9-0.2,1.2l0,0c-0.1,0.1-0.3,0.1-0.5,0.1l0,0C70.3,72.5,70,72.3,69.9,72.1z M16,71.1
			c-0.3-0.3-0.4-0.9,0-1.2l0,0c0.3-0.3,0.9-0.4,1.2,0l0,0c0.3,0.3,0.4,0.9,0,1.2l0,0c-0.2,0.2-0.4,0.3-0.6,0.3l0,0
			C16.3,71.3,16.1,71.2,16,71.1z M72.6,70.1c-0.3-0.4-0.3-0.9,0.1-1.2l0,0c0.4-0.3,0.9-0.3,1.2,0.1l0,0c0.3,0.3,0.3,0.9-0.1,1.2l0,0
			c-0.2,0.1-0.4,0.2-0.6,0.2l0,0C73,70.4,72.8,70.3,72.6,70.1z M13.6,68.5c-0.3-0.4-0.3-0.9,0.1-1.2l0,0c0.4-0.3,0.9-0.3,1.2,0.1
			l0,0l0,0l0,0c0.3,0.4,0.3,0.9-0.1,1.2l0,0c-0.2,0.1-0.4,0.2-0.5,0.2l0,0C14,68.8,13.8,68.8,13.6,68.5z M75.1,67.8
			c-0.4-0.3-0.4-0.8-0.1-1.2l0,0l0,0l0,0c0.3-0.4,0.8-0.4,1.2-0.1l0,0c0.4,0.3,0.4,0.8,0.1,1.2l0,0c-0.2,0.2-0.4,0.3-0.7,0.3l0,0
			C75.4,68,75.2,68,75.1,67.8z M11.5,65.8c-0.3-0.4-0.2-0.9,0.2-1.2l0,0c0.4-0.3,0.9-0.1,1.2,0.2l0,0c0.3,0.4,0.2,0.9-0.2,1.2l0,0
			c-0.1,0.1-0.3,0.1-0.5,0.1l0,0C11.9,66.2,11.7,66,11.5,65.8z M77.1,65.1c-0.4-0.2-0.5-0.8-0.3-1.1l0,0c0.2-0.4,0.8-0.5,1.1-0.3
			l0,0c0.4,0.2,0.5,0.7,0.3,1.1l0,0c-0.2,0.3-0.4,0.4-0.7,0.4l0,0C77.4,65.3,77.2,65.2,77.1,65.1z M9.7,62.8
			c-0.2-0.4-0.1-0.9,0.3-1.1l0,0c0.4-0.2,0.9-0.1,1.1,0.3l0,0l0,0l0,0c0.2,0.4,0.1,0.9-0.3,1.1l0,0c-0.1,0.1-0.3,0.1-0.4,0.1l0,0
			C10.2,63.3,9.9,63.1,9.7,62.8z M78.6,62.2c-0.4-0.2-0.6-0.7-0.5-1.1l0,0c0.2-0.4,0.7-0.6,1.1-0.5l0,0c0.4,0.2,0.6,0.6,0.5,1.1l0,0
			c-0.1,0.3-0.5,0.5-0.8,0.5l0,0C78.8,62.2,78.7,62.2,78.6,62.2z M8.2,59.8c-0.2-0.4,0-0.9,0.4-1.1l0,0c0.4-0.2,0.9,0,1.1,0.4l0,0
			l0,0l0,0c0.2,0.4,0,0.9-0.4,1.1l0,0c-0.1,0.1-0.2,0.1-0.4,0.1l0,0C8.6,60.3,8.3,60.1,8.2,59.8z M79.8,59c-0.5-0.1-0.7-0.6-0.6-1
			l0,0c0.1-0.5,0.6-0.7,1-0.6l0,0c0.5,0.1,0.7,0.6,0.6,1l0,0C80.7,58.8,80.3,59,80,59l0,0C79.9,59,79.8,59,79.8,59z M7.1,57.1
			c-0.2-0.4,0.1-0.9,0.5-1.1l0,0c0.4-0.2,0.9,0.1,1.1,0.5l0,0c0.2,0.4-0.1,0.9-0.5,1.1l0,0c-0.1,0-0.2,0-0.3,0l0,0
			C7.5,57.6,7.2,57.4,7.1,57.1z M80.5,55.7c-0.5-0.1-0.8-0.5-0.7-1l0,0l0,0l0,0c0.1-0.5,0.5-0.8,1-0.7l0,0c0.5,0.1,0.8,0.5,0.7,1
			l0,0c-0.1,0.4-0.4,0.7-0.8,0.7l0,0C80.5,55.7,80.5,55.7,80.5,55.7z M6,53.8c-0.1-0.5,0.2-0.9,0.6-1l0,0c0.4-0.1,0.9,0.1,1,0.6l0,0
			c0.1,0.5-0.1,0.9-0.6,1l0,0c-0.1,0-0.1,0-0.2,0l0,0C6.5,54.4,6.1,54.2,6,53.8z M80.9,52.3c-0.5,0-0.8-0.4-0.8-0.9l0,0l0,0l0,0
			c0-0.5,0.4-0.8,0.9-0.8l0,0c0.5,0,0.8,0.4,0.8,0.9l0,0C81.7,52,81.4,52.3,80.9,52.3L80.9,52.3L80.9,52.3z M5.3,50.4
			c-0.1-0.5,0.2-0.9,0.7-1l0,0c0.5-0.1,0.9,0.2,1,0.7l0,0c0.1,0.5-0.2,0.9-0.7,1l0,0c-0.1,0-0.1,0-0.2,0l0,0
			C5.7,51.1,5.4,50.8,5.3,50.4z M80.2,48.1c0-0.5,0.4-0.9,0.8-0.9l0,0c0.5,0,0.9,0.4,0.9,0.8l0,0c0,0.5-0.4,0.8-0.8,0.9l0,0l0,0l0,0
			C80.5,49,80.2,48.6,80.2,48.1z M4.8,47c0-0.5,0.3-0.9,0.8-0.9l0,0c0.5,0,0.9,0.3,0.9,0.8l0,0l0,0l0,0c0,0.5-0.3,0.9-0.8,0.9l0,0
			H5.6l0,0C5.3,47.8,4.9,47.5,4.8,47z M80,44.8c0-0.5,0.3-0.9,0.8-0.9l0,0c0.5,0,0.9,0.3,0.9,0.8l0,0c0,0.5-0.3,0.9-0.8,0.9l0,0l0,0
			l0,0C80.4,45.6,80.1,45.3,80,44.8z M5.6,44.4c-0.5,0-0.8-0.4-0.8-0.9l0,0c0-0.5,0.4-0.8,0.9-0.8l0,0c0.5,0,0.8,0.4,0.8,0.9l0,0
			C6.4,44.1,6.1,44.4,5.6,44.4L5.6,44.4L5.6,44.4z M79.8,41.5c0-0.5,0.3-0.9,0.8-0.9l0,0c0.5,0,0.9,0.3,0.9,0.8l0,0
			c0.1,0.5-0.3,0.9-0.8,0.9l0,0h-0.1l0,0C80.2,42.3,79.8,41.9,79.8,41.5z M5.7,41.1c-0.5,0-0.8-0.4-0.8-0.9l0,0
			c0-0.5,0.4-0.8,0.9-0.8l0,0c0.5,0,0.8,0.4,0.8,0.9l0,0C6.6,40.7,6.2,41.1,5.7,41.1L5.7,41.1C5.8,41.1,5.7,41.1,5.7,41.1z
			 M79.4,38.2c-0.1-0.5,0.3-0.9,0.7-1l0,0c0.5-0.1,0.9,0.3,1,0.7l0,0c0.1,0.5-0.3,0.9-0.7,0.9l0,0h-0.1l0,0
			C79.8,38.9,79.4,38.6,79.4,38.2z M6,37.7c-0.5-0.1-0.8-0.5-0.7-0.9l0,0C5.4,36.3,5.8,36,6.2,36l0,0C6.7,36.1,7,36.5,7,37l0,0
			c-0.1,0.4-0.4,0.7-0.8,0.7l0,0C6.1,37.7,6,37.7,6,37.7z M78.9,34.9L78.9,34.9L78.9,34.9c-0.1-0.5,0.2-0.9,0.7-1l0,0
			c0.5-0.1,0.9,0.2,1,0.7l0,0c0.1,0.5-0.2,0.9-0.7,1l0,0h-0.1l0,0C79.3,35.6,78.9,35.3,78.9,34.9z M6.5,34.4c-0.5-0.1-0.8-0.5-0.7-1
			l0,0c0.1-0.4,0.5-0.8,1-0.7l0,0c0.5,0.1,0.8,0.5,0.7,1l0,0l0,0l0,0c-0.1,0.4-0.4,0.7-0.8,0.7l0,0C6.6,34.4,6.6,34.4,6.5,34.4z
			 M78.2,31.6c-0.1-0.5,0.2-0.9,0.6-1l0,0c0.5-0.1,0.9,0.2,1,0.6l0,0c0.1,0.4-0.2,0.9-0.6,1l0,0c-0.1,0-0.1,0-0.2,0l0,0
			C78.7,32.3,78.3,32,78.2,31.6z M7.2,31.1c-0.5-0.1-0.7-0.6-0.6-1l0,0c0.1-0.5,0.6-0.7,1-0.6l0,0c0.5,0.1,0.7,0.6,0.6,1l0,0
			c-0.1,0.4-0.4,0.6-0.8,0.6l0,0C7.4,31.1,7.3,31.1,7.2,31.1z M77.3,28.5c-0.1-0.4,0.1-0.9,0.5-1.1l0,0c0.4-0.1,0.9,0.1,1.1,0.5l0,0
			c0.1,0.4-0.1,0.9-0.5,1.1l0,0c-0.1,0-0.2,0-0.3,0l0,0C77.8,29,77.4,28.8,77.3,28.5z M8.2,27.8c-0.4-0.2-0.7-0.6-0.5-1.1l0,0
			c0.1-0.4,0.6-0.7,1.1-0.5l0,0c0.4,0.2,0.7,0.6,0.5,1.1l0,0l0,0l0,0c-0.1,0.3-0.5,0.5-0.8,0.5l0,0C8.4,27.9,8.3,27.9,8.2,27.8z
			 M76.1,25.4c-0.2-0.4,0-0.9,0.4-1.1l0,0c0.4-0.2,0.9,0,1.1,0.4l0,0c0.2,0.4,0,0.9-0.4,1.1l0,0c-0.1,0-0.2,0.1-0.4,0.1l0,0
			C76.6,25.9,76.3,25.7,76.1,25.4z M9.4,24.7C9,24.5,8.8,24,9,23.6l0,0c0.2-0.4,0.7-0.6,1.1-0.4l0,0c0.4,0.2,0.6,0.7,0.4,1.1l0,0
			c-0.1,0.3-0.5,0.5-0.8,0.5l0,0C9.6,24.8,9.5,24.8,9.4,24.7z M74.6,22.5c-0.2-0.4-0.1-0.9,0.3-1.1l0,0c0.4-0.2,0.9-0.1,1.1,0.3l0,0
			c0.2,0.4,0.1,0.9-0.3,1.2l0,0C75.6,23,75.4,23,75.3,23l0,0C75.1,22.9,74.8,22.8,74.6,22.5z M10.9,21.7c-0.4-0.2-0.5-0.8-0.3-1.1
			l0,0c0.2-0.4,0.8-0.5,1.2-0.3l0,0c0.4,0.2,0.5,0.8,0.3,1.2l0,0c-0.2,0.3-0.4,0.4-0.7,0.4l0,0C11.2,21.8,11.1,21.8,10.9,21.7z
			 M72.8,19.8L72.8,19.8L72.8,19.8c-0.3-0.4-0.2-0.9,0.1-1.2l0,0c0.4-0.3,0.9-0.2,1.2,0.2l0,0c0.3,0.4,0.2,0.9-0.1,1.2l0,0
			c-0.1,0.1-0.3,0.2-0.5,0.2l0,0C73.2,20.1,73,20,72.8,19.8z M12.7,18.9c-0.4-0.3-0.4-0.8-0.2-1.2l0,0c0.3-0.4,0.8-0.4,1.2-0.2l0,0
			c0.4,0.3,0.4,0.8,0.2,1.2l0,0l0,0l0,0c-0.2,0.2-0.4,0.3-0.7,0.3l0,0C13.1,19,12.9,19,12.7,18.9z M70.6,17.4L70.6,17.4L70.6,17.4
			c-0.3-0.3-0.3-0.9,0-1.2l0,0c0.3-0.3,0.9-0.3,1.2,0l0,0c0.3,0.3,0.3,0.9,0,1.2l0,0c-0.2,0.2-0.4,0.2-0.6,0.2l0,0
			C71,17.6,70.8,17.5,70.6,17.4z M14.9,16.3c-0.3-0.3-0.3-0.9,0-1.2l0,0c0.3-0.3,0.9-0.3,1.2,0l0,0c0.3,0.3,0.3,0.9,0,1.2l0,0l0,0
			l0,0c-0.2,0.2-0.4,0.3-0.6,0.3l0,0C15.2,16.5,15,16.4,14.9,16.3z M68.2,15.2L68.2,15.2L68.2,15.2c-0.4-0.3-0.4-0.8-0.1-1.2l0,0
			c0.3-0.4,0.8-0.4,1.2-0.2l0,0c0.4,0.3,0.4,0.8,0.1,1.2l0,0c-0.2,0.2-0.4,0.3-0.7,0.3l0,0C68.5,15.4,68.4,15.3,68.2,15.2z
			 M17.3,13.9c-0.3-0.4-0.2-0.9,0.1-1.2l0,0c0.4-0.3,0.9-0.2,1.2,0.1l0,0c0.3,0.4,0.2,0.9-0.1,1.2l0,0l0,0l0,0
			c-0.1,0.1-0.3,0.2-0.5,0.2l0,0C17.7,14.2,17.5,14.1,17.3,13.9z M65.5,13.3c-0.4-0.2-0.5-0.8-0.3-1.2l0,0c0.2-0.4,0.8-0.5,1.2-0.3
			l0,0c0.4,0.2,0.5,0.8,0.3,1.2l0,0c-0.2,0.3-0.4,0.4-0.7,0.4l0,0C65.8,13.5,65.6,13.4,65.5,13.3z M20,11.9
			c-0.2-0.4-0.1-0.9,0.3-1.1l0,0c0.4-0.3,0.9-0.1,1.2,0.3l0,0c0.2,0.4,0.1,0.9-0.3,1.2l0,0c-0.1,0.1-0.3,0.1-0.4,0.1l0,0
			C20.4,12.3,20.1,12.2,20,11.9z M62.6,11.8L62.6,11.8L62.6,11.8c-0.4-0.2-0.6-0.7-0.4-1.1l0,0c0.2-0.4,0.7-0.6,1.1-0.4l0,0
			c0.4,0.2,0.6,0.7,0.4,1.1l0,0c-0.1,0.3-0.4,0.5-0.8,0.5l0,0C62.9,11.9,62.8,11.9,62.6,11.8z M22.9,10.2c-0.2-0.4,0-0.9,0.4-1.1
			l0,0c0.4-0.2,0.9,0,1.1,0.4l0,0c0.2,0.4,0,0.9-0.4,1.1l0,0c-0.1,0.1-0.2,0.1-0.4,0.1l0,0C23.3,10.7,23,10.5,22.9,10.2z M59.6,10.5
			c-0.4-0.2-0.7-0.6-0.5-1.1l0,0c0.2-0.4,0.6-0.7,1.1-0.5l0,0c0.4,0.2,0.7,0.6,0.5,1.1l0,0c-0.1,0.3-0.4,0.6-0.8,0.6l0,0
			C59.8,10.6,59.7,10.6,59.6,10.5z M56.5,9.5L56.5,9.5L56.5,9.5c-0.5-0.1-0.7-0.6-0.6-1l0,0c0.1-0.4,0.6-0.7,1-0.6l0,0
			c0.5,0.1,0.7,0.6,0.6,1l0,0c-0.1,0.4-0.5,0.6-0.8,0.6l0,0C56.6,9.5,56.5,9.5,56.5,9.5z M26,8.9c-0.1-0.4,0.1-0.9,0.5-1.1l0,0
			c0.4-0.1,0.9,0.1,1.1,0.5l0,0c0.1,0.4-0.1,0.9-0.5,1.1l0,0c-0.1,0-0.2,0-0.3,0l0,0C26.4,9.5,26.1,9.3,26,8.9z M53.3,8.7
			c-0.5-0.1-0.8-0.5-0.7-1l0,0c0.1-0.5,0.5-0.8,1-0.7l0,0c0.5,0.1,0.7,0.5,0.6,1l0,0C54.1,8.4,53.8,8.7,53.3,8.7L53.3,8.7
			C53.4,8.8,53.3,8.8,53.3,8.7z M29.2,7.9c-0.1-0.4,0.2-0.9,0.6-1l0,0c0.5-0.1,0.9,0.2,1,0.6l0,0c0.1,0.5-0.2,0.9-0.6,1l0,0
			c-0.1,0-0.1,0-0.2,0l0,0C29.6,8.6,29.3,8.3,29.2,7.9z M50,8.2c-0.5-0.1-0.8-0.5-0.7-1l0,0c0.1-0.5,0.5-0.8,0.9-0.7l0,0
			c0.5,0.1,0.8,0.5,0.7,1l0,0c-0.1,0.4-0.4,0.7-0.8,0.7l0,0C50.1,8.2,50,8.2,50,8.2z M32.5,7.2c-0.1-0.5,0.3-0.9,0.7-1l0,0
			c0.5-0.1,0.9,0.3,0.9,0.7l0,0c0.1,0.5-0.3,0.9-0.7,0.9l0,0h-0.1l0,0C32.9,7.9,32.6,7.6,32.5,7.2z M46.7,7.8
			c-0.5,0-0.8-0.5-0.8-0.9l0,0c0-0.5,0.5-0.8,0.9-0.8l0,0c0.5,0,0.8,0.5,0.8,0.9l0,0C47.6,7.4,47.2,7.8,46.7,7.8L46.7,7.8L46.7,7.8z
			 M35.8,6.8c0-0.5,0.3-0.9,0.8-0.9l0,0c0.5,0,0.9,0.3,0.9,0.8l0,0c0,0.5-0.3,0.9-0.8,0.9l0,0c0,0,0,0-0.1,0l0,0
			C36.2,7.6,35.9,7.2,35.8,6.8z M42.6,6.6c0-0.5,0.4-0.8,0.9-0.8l0,0c0.5,0,0.8,0.4,0.8,0.9l0,0c0,0.5-0.4,0.8-0.9,0.8l0,0l0,0l0,0
			C42.9,7.5,42.5,7.1,42.6,6.6z M39.2,6.6c0-0.5,0.4-0.8,0.8-0.8l0,0c0.5,0,0.9,0.4,0.9,0.8l0,0c0,0.5-0.4,0.8-0.8,0.9l0,0
			C39.6,7.5,39.2,7.1,39.2,6.6z"/>
	</g>
	<g>
		<g>
			<path class="st2" d="M58.4,59.9c-0.1,0-0.3,0-0.4-0.1c-0.3-0.1-0.5-0.4-0.5-0.7L57,51c0-0.3,0.1-0.6,0.4-0.8
				c0.3-0.2,0.6-0.2,0.9,0l7.1,3.6c0.3,0.1,0.4,0.4,0.5,0.7c0,0.3-0.1,0.6-0.4,0.8l-6.6,4.5C58.7,59.9,58.6,59.9,58.4,59.9z
				 M58.8,52.4l0.3,5.1l4.2-2.8L58.8,52.4z"/>
		</g>
		<g>
			
				<rect x="62" y="56.5" transform="matrix(0.8471 -0.5314 0.5314 0.8471 -21.5699 42.3656)" class="st2" width="1.7" height="4.3"/>
		</g>
	</g>
	<g>
		<circle class="st2" cx="28.9" cy="29.9" r="1"/>
	</g>
	<g>
		<circle class="st2" cx="32.3" cy="29.9" r="1"/>
	</g>
	<g>
		<rect x="36.6" y="29.2" class="st2" width="22.9" height="1.7"/>
	</g>
	<g>
		<rect x="23.5" y="33.3" class="st2" width="42.1" height="1.7"/>
	</g>
	<g>
		<path class="st2" d="M54.2,56.8H26.1c-1.9,0-3.4-1.5-3.4-3.4V28.2c0-1.9,1.5-3.4,3.4-3.4H63c1.9,0,3.4,1.5,3.4,3.4v22.1h-1.7V28.2
			c0-1-0.8-1.7-1.7-1.7H26.1c-1,0-1.7,0.8-1.7,1.7v25.1c0,1,0.8,1.7,1.7,1.7h28.1V56.8z"/>
	</g>
</g>
<g class="st3">
	<circle class="st4" cx="44.7" cy="128.1" r="33.5"/>
	<g class="st5">
		<path class="st6" d="M40.2,164.9c-0.5,0-0.8-0.4-0.8-0.9l0,0c0-0.5,0.4-0.8,0.9-0.8l0,0c0.5,0,0.8,0.4,0.8,0.9l0,0
			C41.1,164.5,40.7,164.9,40.2,164.9L40.2,164.9L40.2,164.9z M42.8,164c0-0.5,0.4-0.9,0.8-0.9l0,0c0.5,0,0.9,0.4,0.9,0.8l0,0
			c0,0.5-0.3,0.8-0.8,0.9l0,0l0,0l0,0C43.1,164.8,42.8,164.5,42.8,164z M36.8,164.7L36.8,164.7c-0.5,0-0.8-0.4-0.8-0.9l0,0
			c0-0.5,0.4-0.8,0.9-0.8l0,0l0,0l0,0c0.5,0,0.8,0.5,0.8,0.9l0,0C37.7,164.3,37.3,164.7,36.8,164.7L36.8,164.7L36.8,164.7z
			 M46.1,163.9c0-0.5,0.3-0.9,0.8-0.9l0,0c0.5,0,0.9,0.3,0.9,0.8l0,0c0,0.5-0.3,0.9-0.8,0.9l0,0h-0.1l0,0
			C46.5,164.6,46.2,164.3,46.1,163.9z M49.5,163.5c-0.1-0.5,0.3-0.9,0.7-1l0,0c0.5-0.1,0.9,0.3,1,0.7l0,0c0.1,0.5-0.3,0.9-0.7,1l0,0
			h-0.1l0,0C49.9,164.3,49.5,164,49.5,163.5z M33.4,164.2c-0.5-0.1-0.8-0.5-0.7-1l0,0c0.1-0.5,0.5-0.8,1-0.7l0,0
			c0.5,0.1,0.8,0.5,0.7,1l0,0c-0.1,0.4-0.4,0.7-0.8,0.7l0,0C33.5,164.2,33.4,164.2,33.4,164.2z M52.8,163.1c-0.1-0.5,0.2-0.9,0.7-1
			l0,0c0.5-0.1,0.9,0.2,1,0.7l0,0c0.1,0.5-0.2,0.9-0.7,1l0,0c-0.1,0-0.1,0-0.2,0l0,0C53.2,163.8,52.9,163.5,52.8,163.1z M30,163.5
			c-0.5-0.1-0.7-0.6-0.6-1l0,0c0.1-0.4,0.6-0.7,1-0.6l0,0c0.5,0.1,0.7,0.6,0.6,1l0,0c-0.1,0.4-0.4,0.6-0.8,0.6l0,0
			C30.2,163.5,30.1,163.5,30,163.5z M56.1,162.4c-0.1-0.5,0.2-0.9,0.6-1l0,0l0,0l0,0c0.4-0.1,0.9,0.2,1,0.6l0,0
			c0.1,0.5-0.2,0.9-0.6,1l0,0c-0.1,0-0.1,0-0.2,0l0,0C56.5,163,56.2,162.8,56.1,162.4z M26.8,162.4c-0.4-0.2-0.7-0.6-0.5-1.1l0,0
			c0.2-0.4,0.6-0.7,1.1-0.5l0,0c0.4,0.2,0.7,0.6,0.5,1.1l0,0c-0.1,0.3-0.4,0.5-0.8,0.5l0,0C26.9,162.5,26.8,162.5,26.8,162.4z
			 M59.4,161.5c-0.1-0.4,0.1-0.9,0.5-1.1l0,0l0,0l0,0c0.4-0.1,0.9,0.1,1.1,0.5l0,0c0.1,0.4-0.1,0.9-0.5,1.1l0,0c-0.1,0-0.2,0-0.3,0
			l0,0C59.8,162.1,59.5,161.9,59.4,161.5z M23.6,161c-0.4-0.2-0.6-0.7-0.4-1.1l0,0c0.2-0.4,0.7-0.6,1.1-0.4l0,0
			c0.4,0.2,0.6,0.7,0.4,1.1l0,0c-0.1,0.3-0.4,0.5-0.8,0.5l0,0C23.8,161.1,23.7,161.1,23.6,161z M62.5,160.4c-0.2-0.4,0-0.9,0.4-1.1
			l0,0l0,0l0,0c0.4-0.2,0.9,0,1.1,0.4l0,0c0.2,0.4,0,0.9-0.4,1.1l0,0c-0.1,0-0.2,0.1-0.3,0.1l0,0C63,160.9,62.7,160.7,62.5,160.4z
			 M65.6,159c-0.2-0.4-0.1-0.9,0.3-1.1l0,0c0.4-0.2,0.9-0.1,1.1,0.3l0,0c0.2,0.4,0.1,0.9-0.3,1.1l0,0c-0.1,0.1-0.3,0.1-0.4,0.1l0,0
			C66,159.5,65.8,159.3,65.6,159z M20.6,159.3c-0.4-0.3-0.5-0.8-0.2-1.2l0,0c0.3-0.4,0.8-0.5,1.2-0.2l0,0c0.4,0.3,0.5,0.8,0.2,1.2
			l0,0c-0.2,0.2-0.4,0.4-0.7,0.4l0,0C20.9,159.4,20.7,159.4,20.6,159.3z M68.5,157.3c-0.3-0.4-0.2-0.9,0.2-1.2l0,0
			c0.4-0.3,0.9-0.2,1.2,0.2l0,0c0.3,0.4,0.2,0.9-0.2,1.2l0,0c-0.1,0.1-0.3,0.2-0.5,0.2l0,0C68.9,157.6,68.7,157.5,68.5,157.3z
			 M17.8,157.2c-0.3-0.3-0.4-0.8-0.1-1.2l0,0c0.3-0.4,0.8-0.4,1.2-0.1l0,0c0.4,0.3,0.4,0.8,0.1,1.2l0,0c-0.2,0.2-0.4,0.3-0.6,0.3
			l0,0C18.2,157.4,18,157.3,17.8,157.2z M71.1,155.2c-0.3-0.3-0.3-0.9,0-1.2l0,0l0,0l0,0c0.3-0.3,0.9-0.3,1.2,0l0,0
			c0.3,0.3,0.3,0.9,0,1.2l0,0c-0.2,0.2-0.4,0.2-0.6,0.2l0,0C71.5,155.5,71.3,155.4,71.1,155.2z M15.3,154.8L15.3,154.8
			c-0.3-0.4-0.3-0.9,0.1-1.2l0,0c0.3-0.3,0.9-0.3,1.2,0.1l0,0l0,0l0,0c0.3,0.3,0.3,0.9-0.1,1.2l0,0c-0.2,0.1-0.4,0.2-0.6,0.2l0,0
			C15.7,155,15.5,154.9,15.3,154.8z M73.5,152.8c-0.4-0.3-0.4-0.8-0.2-1.2l0,0c0.3-0.4,0.8-0.4,1.2-0.1l0,0c0.4,0.3,0.4,0.8,0.2,1.2
			l0,0c-0.2,0.2-0.4,0.3-0.7,0.3l0,0C73.8,153,73.6,152.9,73.5,152.8z M13.2,152.1L13.2,152.1c-0.3-0.4-0.2-0.9,0.2-1.2l0,0
			c0.4-0.3,0.9-0.2,1.2,0.2l0,0c0.3,0.4,0.2,0.9-0.2,1.2l0,0c-0.1,0.1-0.3,0.2-0.5,0.2l0,0C13.6,152.4,13.3,152.3,13.2,152.1z
			 M75.4,150.1c-0.4-0.2-0.6-0.8-0.3-1.1l0,0c0.2-0.4,0.7-0.5,1.2-0.3l0,0c0.4,0.2,0.5,0.7,0.3,1.1l0,0c-0.2,0.3-0.4,0.4-0.7,0.4
			l0,0C75.7,150.2,75.6,150.1,75.4,150.1z M11.3,149.1c-0.2-0.4-0.1-0.9,0.3-1.1l0,0c0.4-0.2,0.9-0.1,1.1,0.3l0,0
			c0.2,0.4,0.1,0.9-0.3,1.1l0,0c-0.1,0.1-0.3,0.1-0.4,0.1l0,0C11.8,149.6,11.5,149.4,11.3,149.1z M77,147.1
			c-0.4-0.2-0.6-0.7-0.5-1.1l0,0c0.2-0.4,0.7-0.7,1.1-0.5l0,0c0.4,0.2,0.6,0.7,0.5,1.1l0,0c-0.1,0.3-0.4,0.5-0.8,0.5l0,0
			C77.2,147.1,77.1,147.1,77,147.1z M9.8,146.1L9.8,146.1c-0.1-0.1-0.1-0.3-0.1-0.4l0,0c-0.1-0.1-0.2-0.2-0.2-0.3l0,0
			c-0.2-0.4,0-0.9,0.4-1.1l0,0c0.4-0.2,0.9,0,1.1,0.4l0,0c0.1,0.1,0.1,0.2,0.1,0.4l0,0c0.1,0.1,0.2,0.2,0.2,0.3l0,0l0,0l0,0
			c0.2,0.4,0,0.9-0.4,1.1l0,0c-0.1,0-0.2,0.1-0.4,0.1l0,0C10.2,146.6,9.9,146.4,9.8,146.1z M78.1,143.9c-0.4-0.1-0.7-0.6-0.6-1l0,0
			c0.1-0.4,0.6-0.7,1-0.6l0,0c0.4,0.1,0.7,0.6,0.6,1l0,0c-0.1,0.4-0.4,0.6-0.8,0.6l0,0C78.3,144,78.2,143.9,78.1,143.9z M8.2,142.2
			c-0.2-0.4,0.1-0.9,0.5-1.1l0,0c0.4-0.1,0.9,0.1,1.1,0.5l0,0c0.2,0.4-0.1,0.9-0.5,1.1l0,0c-0.1,0-0.2,0.1-0.3,0.1l0,0
			C8.6,142.8,8.3,142.5,8.2,142.2z M78.9,140.7c-0.5-0.1-0.8-0.5-0.7-1l0,0c0.1-0.4,0.5-0.8,1-0.7l0,0c0.5,0.1,0.8,0.5,0.7,1l0,0
			c-0.1,0.4-0.4,0.7-0.8,0.7l0,0C79,140.7,79,140.7,78.9,140.7z M7.1,138.9c-0.1-0.4,0.1-0.9,0.6-1l0,0c0.5-0.1,0.9,0.1,1.1,0.6l0,0
			c0.1,0.4-0.1,0.9-0.6,1l0,0c-0.1,0-0.2,0-0.2,0l0,0C7.5,139.6,7.2,139.3,7.1,138.9z M79.4,137.3c-0.5,0-0.8-0.4-0.8-0.9l0,0
			c0-0.5,0.5-0.8,0.9-0.8l0,0c0.5,0,0.8,0.4,0.8,0.9l0,0C80.3,137,79.9,137.3,79.4,137.3L79.4,137.3
			C79.5,137.3,79.5,137.3,79.4,137.3z M6.3,135.6c-0.1-0.5,0.2-0.9,0.6-1l0,0c0.5-0.1,0.9,0.2,1,0.6l0,0c0.1,0.5-0.2,0.9-0.6,1l0,0
			c-0.1,0-0.1,0-0.2,0l0,0C6.7,136.3,6.3,136,6.3,135.6z M79.7,134c-0.5,0-0.8-0.4-0.8-0.9l0,0c0-0.5,0.4-0.8,0.9-0.8l0,0
			c0.5,0,0.8,0.4,0.8,0.9l0,0C80.5,133.6,80.2,134,79.7,134L79.7,134L79.7,134z M5.6,132.3c-0.1-0.5,0.3-0.9,0.7-0.9l0,0
			c0.5-0.1,0.9,0.2,1,0.7l0,0c0.1,0.5-0.3,0.9-0.7,1l0,0H6.5l0,0C6.1,133,5.7,132.7,5.6,132.3z M78.9,129.8c0-0.5,0.4-0.9,0.8-0.9
			l0,0c0.5,0,0.9,0.4,0.9,0.8l0,0c0,0.5-0.4,0.9-0.8,0.9l0,0l0,0l0,0C79.3,130.6,78.9,130.2,78.9,129.8z M5.3,128.9L5.3,128.9
			c0-0.5,0.3-0.9,0.8-0.9l0,0c0.5,0,0.9,0.3,0.9,0.8l0,0l0,0l0,0c0,0.5-0.3,0.9-0.8,0.9l0,0c0,0,0,0-0.1,0l0,0
			C5.7,129.6,5.3,129.3,5.3,128.9z M78.7,126.4c0-0.5,0.3-0.9,0.8-0.9l0,0c0.5,0,0.9,0.3,0.9,0.8l0,0c0,0.5-0.3,0.9-0.8,0.9l0,0l0,0
			l0,0C79.1,127.2,78.7,126.9,78.7,126.4z M6,126.3c-0.5,0-0.8-0.4-0.8-0.9l0,0c0-0.5,0.4-0.8,0.9-0.8l0,0c0.5,0,0.8,0.4,0.8,0.9
			l0,0C6.8,125.9,6.4,126.3,6,126.3L6,126.3L6,126.3z M78.4,123.1c-0.1-0.5,0.3-0.9,0.8-0.9l0,0c0.5,0,0.9,0.3,0.9,0.8l0,0
			c0,0.5-0.3,0.9-0.8,0.9l0,0h-0.1l0,0C78.8,123.9,78.4,123.6,78.4,123.1z M6,122.9c-0.5-0.1-0.8-0.5-0.8-0.9l0,0
			c0-0.5,0.5-0.8,0.9-0.8l0,0c0.5,0.1,0.8,0.5,0.8,0.9l0,0C6.9,122.6,6.6,122.9,6,122.9L6,122.9C6.1,122.9,6.1,122.9,6,122.9z
			 M77.9,119.9L77.9,119.9L77.9,119.9c-0.1-0.4,0.2-0.9,0.6-1l0,0c0.5-0.1,0.9,0.2,1,0.6l0,0c0.1,0.4-0.2,0.9-0.7,1l0,0
			c-0.1,0-0.1,0-0.2,0l0,0C78.3,120.5,78,120.3,77.9,119.9z M6.4,119.5c-0.5-0.1-0.8-0.5-0.7-1l0,0c0.1-0.5,0.5-0.8,1-0.7l0,0
			c0.5,0.1,0.8,0.5,0.7,1l0,0c-0.1,0.4-0.4,0.7-0.8,0.7l0,0C6.6,119.6,6.5,119.6,6.4,119.5z M77.1,116.7c-0.1-0.4,0.1-0.9,0.6-1l0,0
			c0.4-0.1,0.9,0.1,1,0.6l0,0c0.1,0.4-0.1,0.9-0.6,1l0,0c-0.1,0-0.2,0-0.3,0l0,0C77.5,117.3,77.2,117,77.1,116.7z M7.2,116.3
			c-0.4-0.1-0.7-0.6-0.5-1.1l0,0c0.1-0.4,0.6-0.7,1-0.6l0,0c0.5,0.1,0.7,0.6,0.6,1.1l0,0c-0.1,0.4-0.4,0.6-0.8,0.6l0,0
			C7.3,116.3,7.3,116.3,7.2,116.3z M76,113.6L76,113.6L76,113.6c-0.2-0.4,0-0.9,0.5-1.1l0,0c0.4-0.2,0.9,0,1.1,0.5l0,0
			c0.2,0.4,0,0.9-0.5,1.1l0,0c-0.1,0-0.2,0.1-0.3,0.1l0,0C76.4,114.1,76.1,113.9,76,113.6z M8.3,113.1c-0.4-0.2-0.6-0.7-0.4-1.1l0,0
			c0.2-0.4,0.7-0.6,1.1-0.4l0,0c0.4,0.2,0.6,0.7,0.4,1.1l0,0c-0.1,0.3-0.4,0.5-0.8,0.5l0,0C8.5,113.1,8.4,113.1,8.3,113.1z
			 M74.6,110.6L74.6,110.6L74.6,110.6c-0.2-0.4-0.1-0.9,0.4-1.1l0,0c0.4-0.2,0.9,0,1.1,0.4l0,0c0.2,0.4,0,0.9-0.4,1.1l0,0
			c-0.1,0.1-0.3,0.1-0.4,0.1l0,0C75.1,111,74.8,110.9,74.6,110.6z M9.7,110c-0.4-0.2-0.5-0.8-0.3-1.2l0,0c0.2-0.4,0.8-0.5,1.2-0.3
			l0,0c0.4,0.2,0.5,0.8,0.3,1.2l0,0c-0.2,0.3-0.4,0.4-0.7,0.4l0,0C10,110.2,9.9,110.1,9.7,110z M73,107.8c-0.3-0.4-0.1-0.9,0.3-1.2
			l0,0c0.4-0.3,0.9-0.1,1.2,0.3l0,0c0.3,0.4,0.2,0.9-0.2,1.2l0,0c-0.1,0.1-0.3,0.1-0.5,0.1l0,0C73.4,108.1,73.1,108,73,107.8z
			 M11.5,107.2c-0.4-0.3-0.4-0.8-0.2-1.2l0,0c0.3-0.4,0.8-0.4,1.2-0.2l0,0c0.4,0.3,0.4,0.8,0.2,1.2l0,0c-0.2,0.2-0.4,0.3-0.7,0.3
			l0,0C11.9,107.4,11.7,107.3,11.5,107.2z M71,105.1c-0.3-0.4-0.2-0.9,0.1-1.2l0,0c0.4-0.3,0.9-0.2,1.2,0.1l0,0
			c0.3,0.4,0.2,0.9-0.1,1.2l0,0c-0.2,0.1-0.4,0.2-0.5,0.2l0,0C71.4,105.4,71.2,105.3,71,105.1z M13.7,104.6c-0.3-0.3-0.3-0.9,0-1.2
			l0,0c0.3-0.3,0.9-0.3,1.2,0l0,0c0.3,0.3,0.3,0.9,0,1.2l0,0c-0.2,0.2-0.4,0.3-0.6,0.3l0,0C14.1,104.8,13.8,104.8,13.7,104.6z
			 M68.8,102.7c-0.3-0.3-0.3-0.9,0-1.2l0,0c0.3-0.3,0.9-0.3,1.2,0l0,0c0.3,0.3,0.3,0.9,0,1.2l0,0c-0.2,0.2-0.4,0.3-0.6,0.3l0,0
			C69.2,102.9,69,102.8,68.8,102.7z M16.1,102.3c-0.3-0.4-0.2-0.9,0.1-1.2l0,0c0.4-0.3,0.9-0.3,1.2,0.1l0,0c0.3,0.4,0.3,0.9-0.1,1.2
			l0,0c-0.2,0.1-0.4,0.2-0.5,0.2l0,0C16.5,102.6,16.3,102.4,16.1,102.3z M66.4,100.5c-0.4-0.3-0.4-0.8-0.1-1.2l0,0
			c0.3-0.4,0.8-0.4,1.2-0.1l0,0c0.4,0.3,0.4,0.8,0.1,1.2l0,0c-0.2,0.2-0.4,0.3-0.7,0.3l0,0C66.7,100.7,66.5,100.6,66.4,100.5z
			 M18.7,100.2c-0.3-0.4-0.2-0.9,0.2-1.2l0,0c0.4-0.3,0.9-0.2,1.2,0.2l0,0c0.3,0.4,0.2,0.9-0.2,1.2l0,0c-0.1,0.1-0.3,0.2-0.5,0.2
			l0,0C19.2,100.5,18.9,100.4,18.7,100.2z M21.6,98.3c-0.2-0.4-0.1-0.9,0.3-1.1l0,0c0.4-0.2,0.9-0.1,1.1,0.3l0,0
			c0.2,0.4,0.1,0.9-0.3,1.1l0,0c-0.1,0.1-0.3,0.1-0.4,0.1l0,0C22,98.8,21.7,98.6,21.6,98.3z M63.7,98.6c-0.4-0.2-0.5-0.8-0.3-1.2
			l0,0c0.3-0.4,0.8-0.5,1.2-0.3l0,0c0.4,0.2,0.5,0.8,0.3,1.2l0,0c-0.2,0.3-0.4,0.4-0.7,0.4l0,0C64,98.7,63.8,98.7,63.7,98.6z
			 M24.5,96.7c-0.2-0.4,0-0.9,0.4-1.1l0,0c0.4-0.2,0.9,0,1.1,0.4l0,0c0.2,0.4,0,0.9-0.4,1.1l0,0c-0.1,0.1-0.2,0.1-0.3,0.1l0,0
			C25,97.2,24.7,97,24.5,96.7z M60.8,97c-0.4-0.2-0.6-0.7-0.4-1.1l0,0c0.2-0.4,0.7-0.6,1.1-0.4l0,0c0.4,0.2,0.6,0.7,0.4,1.1l0,0
			c-0.1,0.3-0.4,0.5-0.8,0.5l0,0C61.1,97.1,61,97.1,60.8,97z M27.6,95.4c-0.2-0.4,0.1-0.9,0.5-1.1l0,0c0.4-0.2,0.9,0.1,1.1,0.5l0,0
			c0.2,0.4-0.1,0.9-0.5,1.1l0,0l0,0l0,0c-0.1,0-0.2,0.1-0.3,0.1l0,0C28.1,95.9,27.7,95.7,27.6,95.4z M57.8,95.7
			c-0.4-0.2-0.7-0.6-0.5-1.1l0,0c0.2-0.4,0.6-0.7,1.1-0.5l0,0c0.4,0.2,0.7,0.7,0.5,1.1l0,0c-0.1,0.3-0.4,0.6-0.8,0.6l0,0
			C58,95.8,57.9,95.8,57.8,95.7z M30.8,94.3c-0.1-0.5,0.1-0.9,0.6-1l0,0c0.5-0.1,0.9,0.1,1,0.6l0,0c0.1,0.4-0.1,0.9-0.6,1l0,0
			c-0.1,0-0.1,0-0.2,0l0,0C31.2,94.9,30.9,94.6,30.8,94.3z M54.7,94.8c-0.4-0.1-0.7-0.6-0.6-1l0,0c0.1-0.5,0.6-0.7,1-0.6l0,0
			c0.4,0.1,0.7,0.6,0.6,1l0,0c-0.1,0.4-0.5,0.6-0.8,0.6l0,0C54.8,94.8,54.8,94.8,54.7,94.8z M34,93.4c-0.1-0.5,0.2-0.9,0.7-1l0,0
			c0.5-0.1,0.9,0.2,1,0.7l0,0c0.1,0.5-0.2,0.9-0.7,1l0,0c-0.1,0-0.1,0-0.2,0l0,0C34.5,94.1,34.1,93.8,34,93.4z M51.5,94L51.5,94
			L51.5,94c-0.5-0.1-0.8-0.5-0.7-1l0,0c0.1-0.5,0.5-0.8,1-0.7l0,0c0.5,0.1,0.8,0.5,0.7,1l0,0c-0.1,0.4-0.4,0.7-0.8,0.7l0,0
			C51.6,94.1,51.5,94.1,51.5,94z M48.2,93.6c-0.5,0-0.8-0.5-0.8-0.9l0,0c0-0.5,0.5-0.8,0.9-0.8l0,0c0.5,0,0.8,0.5,0.8,0.9l0,0
			C49.1,93.3,48.7,93.6,48.2,93.6L48.2,93.6C48.3,93.6,48.2,93.6,48.2,93.6z M37.4,92.8c0-0.5,0.3-0.9,0.8-0.9l0,0
			c0.5,0,0.9,0.3,0.9,0.8l0,0c0,0.5-0.3,0.9-0.8,0.9l0,0h-0.1l0,0C37.8,93.6,37.4,93.3,37.4,92.8z M44.9,93.4
			c-0.5,0-0.8-0.4-0.8-0.9l0,0c0-0.5,0.4-0.8,0.9-0.8l0,0c0.5,0,0.8,0.4,0.8,0.9l0,0C45.8,93,45.4,93.4,44.9,93.4L44.9,93.4
			L44.9,93.4z M40.7,92.5c0-0.5,0.3-0.9,0.8-0.9l0,0c0.5,0,0.9,0.4,0.9,0.8l0,0c0,0.5-0.3,0.8-0.8,0.9l0,0l0,0l0,0
			C41.1,93.4,40.7,93,40.7,92.5z"/>
	</g>
	<g class="st5">
		<g>
			<path class="st2" d="M42,115.6c2.4,0,4.4-2,4.4-4.4v-1.7c0-2.4-2-4.4-4.4-4.4s-4.4,2-4.4,4.4v1.7C37.6,113.6,39.6,115.6,42,115.6
				z M39.4,109.4c0-1.4,1.2-2.6,2.6-2.6s2.6,1.2,2.6,2.6v1.7c0,1.4-1.2,2.6-2.6,2.6s-2.6-1.2-2.6-2.6V109.4z"/>
		</g>
		<g>
			<path class="st2" d="M36.6,134l-3.4-2.8l4-10.8h10l1.5,3.9l1.7-0.6l-1.7-4.5c-0.1-0.4-0.5-0.6-0.9-0.6H36.6
				c-0.4,0-0.7,0.2-0.9,0.6l-4.5,12c-0.1,0.4,0,0.8,0.3,1l3.6,2.9l1.7,14.6l1.8-0.2l-1.8-14.9C36.9,134.3,36.8,134.1,36.6,134z"/>
		</g>
	</g>
	<g class="st5">
		<path class="st2" d="M53.5,149.9c-6.3,0-11.4-5.1-11.4-11.4s5.1-11.4,11.4-11.4s11.4,5.1,11.4,11.4S59.8,149.9,53.5,149.9z
			 M53.5,128.9c-5.3,0-9.6,4.3-9.6,9.6s4.3,9.6,9.6,9.6s9.6-4.3,9.6-9.6S58.8,128.9,53.5,128.9z"/>
	</g>
	<g class="st5">
		<g>
			<rect x="52.6" y="134" class="st2" width="1.7" height="9"/>
		</g>
		<g>
			<rect x="49" y="137.6" class="st2" width="9" height="1.7"/>
		</g>
	</g>
</g>
<g class="st3">
	<circle class="st4" cx="44.7" cy="218.2" r="33.5"/>
	<g class="st5">
		<path class="st6" d="M45.8,253.6c0-0.5,0.4-0.8,0.8-0.8l0,0l0,0l0,0c0.5,0,0.9,0.4,0.9,0.8l0,0c0,0.5-0.4,0.8-0.8,0.8l0,0l0,0l0,0
			C46.1,254.5,45.8,254.1,45.8,253.6z M43.2,254.4c-0.5,0-0.8-0.4-0.8-0.9l0,0c0-0.5,0.4-0.8,0.9-0.8l0,0c0.5,0,0.8,0.4,0.8,0.9l0,0
			C44,254,43.7,254.4,43.2,254.4L43.2,254.4L43.2,254.4z M49.1,253.6c0-0.5,0.3-0.9,0.8-0.9l0,0c0.5,0,0.9,0.3,0.9,0.8l0,0
			c0,0.5-0.3,0.9-0.8,0.9l0,0c0,0,0,0-0.1,0l0,0C49.5,254.4,49.1,254,49.1,253.6z M52.4,253.3c-0.1-0.5,0.3-0.9,0.7-0.9l0,0
			c0.5,0,0.9,0.3,0.9,0.8l0,0c0,0.5-0.3,0.9-0.7,0.9l0,0h-0.1l0,0C52.8,254.1,52.5,253.8,52.4,253.3z M39.8,254
			c-0.5-0.1-0.8-0.5-0.7-1l0,0c0.1-0.5,0.5-0.8,0.9-0.7l0,0l0,0l0,0c0.5,0.1,0.8,0.5,0.7,1l0,0c-0.1,0.4-0.4,0.7-0.8,0.7l0,0
			C39.8,254,39.8,254,39.8,254z M55.8,252.9c-0.1-0.5,0.2-0.9,0.7-1l0,0c0.5-0.1,0.9,0.2,1,0.7l0,0c0.1,0.5-0.2,0.9-0.7,1l0,0h-0.1
			l0,0C56.2,253.6,55.8,253.3,55.8,252.9z M36.4,253.4c-0.5-0.1-0.7-0.6-0.6-1l0,0c0.1-0.4,0.6-0.7,1-0.6l0,0c0.5,0.1,0.7,0.5,0.6,1
			l0,0c-0.1,0.4-0.4,0.7-0.8,0.7l0,0C36.5,253.5,36.5,253.4,36.4,253.4z M59.1,252.3c-0.1-0.5,0.2-0.9,0.6-1l0,0
			c0.5-0.1,0.9,0.2,1,0.6l0,0c0.1,0.4-0.2,0.9-0.6,1l0,0c-0.1,0-0.1,0-0.2,0l0,0C59.5,252.9,59.2,252.7,59.1,252.3z M33.1,252.5
			c-0.4-0.1-0.7-0.6-0.5-1.1l0,0c0.1-0.4,0.6-0.7,1-0.5l0,0l0,0l0,0c0.5,0.1,0.7,0.6,0.6,1.1l0,0c-0.1,0.4-0.4,0.6-0.8,0.6l0,0
			C33.3,252.6,33.2,252.6,33.1,252.5z M62.4,251.4c-0.1-0.4,0.1-0.9,0.5-1.1l0,0c0.4-0.1,0.9,0.1,1.1,0.5l0,0
			c0.1,0.4-0.1,0.9-0.5,1.1l0,0c-0.1,0-0.2,0-0.3,0l0,0C62.8,252,62.5,251.8,62.4,251.4z M29.8,251.3L29.8,251.3
			c-0.4-0.2-0.6-0.7-0.4-1.1l0,0c0.2-0.4,0.7-0.6,1.1-0.5l0,0c0.4,0.2,0.6,0.7,0.4,1.1l0,0c-0.1,0.3-0.4,0.5-0.8,0.5l0,0
			C30.1,251.4,29.9,251.4,29.8,251.3z M65.5,250.3c-0.2-0.4,0-0.9,0.4-1.1l0,0l0,0l0,0c0.4-0.2,0.9,0,1.1,0.4l0,0
			c0.2,0.4,0,0.9-0.4,1.1l0,0c-0.1,0-0.2,0.1-0.3,0.1l0,0C66,250.8,65.7,250.7,65.5,250.3z M26.7,249.8c-0.4-0.2-0.6-0.7-0.3-1.1
			l0,0c0.2-0.4,0.7-0.6,1.1-0.3l0,0c0.4,0.2,0.6,0.7,0.3,1.1l0,0c-0.1,0.3-0.4,0.4-0.7,0.4l0,0C27,249.9,26.9,249.9,26.7,249.8z
			 M68.6,248.9c-0.2-0.4-0.1-0.9,0.3-1.1l0,0c0.4-0.2,0.9-0.1,1.1,0.3l0,0c0.2,0.4,0.1,0.9-0.3,1.1l0,0c-0.1,0.1-0.3,0.1-0.4,0.1
			l0,0C69,249.4,68.8,249.2,68.6,248.9z M23.8,248c-0.4-0.3-0.5-0.8-0.2-1.2l0,0c0.3-0.4,0.8-0.5,1.2-0.2l0,0l0,0l0,0
			c0.4,0.3,0.5,0.8,0.2,1.2l0,0c-0.2,0.2-0.4,0.4-0.7,0.4l0,0C24.1,248.2,23.9,248.1,23.8,248z M71.5,247.2
			c-0.3-0.4-0.2-0.9,0.2-1.2l0,0c0.4-0.3,0.9-0.2,1.2,0.2l0,0c0.3,0.4,0.2,0.9-0.2,1.2l0,0c-0.1,0.1-0.3,0.2-0.5,0.2l0,0
			C71.9,247.5,71.7,247.4,71.5,247.2z M21.1,245.9c-0.4-0.3-0.4-0.8-0.1-1.2l0,0c0.3-0.4,0.8-0.4,1.2-0.1l0,0
			c0.4,0.3,0.4,0.8,0.1,1.2l0,0c-0.2,0.2-0.4,0.3-0.6,0.3l0,0C21.4,246.1,21.2,246,21.1,245.9z M74.1,245.1c-0.3-0.3-0.3-0.9,0-1.2
			l0,0l0,0l0,0c0.3-0.3,0.9-0.3,1.2,0l0,0c0.3,0.3,0.3,0.9,0,1.2l0,0c-0.2,0.2-0.4,0.2-0.6,0.2l0,0
			C74.5,245.4,74.3,245.3,74.1,245.1z M18.6,243.5L18.6,243.5c-0.3-0.3-0.3-0.9,0-1.2l0,0c0.3-0.3,0.9-0.3,1.2,0l0,0
			c0.3,0.3,0.3,0.9,0,1.2l0,0c-0.2,0.2-0.4,0.2-0.6,0.2l0,0C19,243.8,18.8,243.7,18.6,243.5z M76.5,242.7c-0.4-0.3-0.4-0.8-0.1-1.2
			l0,0c0.3-0.4,0.8-0.4,1.2-0.2l0,0c0.4,0.3,0.4,0.8,0.1,1.2l0,0c-0.2,0.2-0.4,0.3-0.7,0.3l0,0C76.8,242.9,76.6,242.8,76.5,242.7z
			 M16.3,240.9L16.3,240.9c-0.3-0.4-0.2-0.9,0.1-1.2l0,0c0.4-0.3,0.9-0.2,1.2,0.1l0,0c0.3,0.4,0.2,0.9-0.1,1.2l0,0
			c-0.2,0.1-0.3,0.2-0.5,0.2l0,0C16.8,241.2,16.5,241.1,16.3,240.9z M78.4,240c-0.4-0.2-0.5-0.7-0.3-1.1l0,0
			c0.2-0.4,0.7-0.5,1.1-0.3l0,0c0.4,0.2,0.5,0.7,0.3,1.1l0,0c-0.1,0.3-0.4,0.4-0.7,0.4l0,0C78.7,240.1,78.6,240,78.4,240z
			 M14.4,238.1c-0.3-0.4-0.1-0.9,0.3-1.2l0,0c0.4-0.3,0.9-0.1,1.2,0.3l0,0l0,0l0,0c0.3,0.4,0.1,0.9-0.3,1.2l0,0
			c-0.1,0.1-0.3,0.1-0.5,0.1l0,0C14.8,238.5,14.5,238.3,14.4,238.1z M80,237c-0.4-0.2-0.6-0.7-0.5-1.1l0,0c0.2-0.4,0.7-0.6,1.1-0.5
			l0,0c0.4,0.2,0.6,0.7,0.5,1.1l0,0c-0.1,0.3-0.4,0.5-0.8,0.5l0,0C80.2,237,80.1,237,80,237z M12.6,235.1c-0.2-0.4-0.1-0.9,0.4-1.1
			l0,0c0.4-0.2,0.9-0.1,1.1,0.4l0,0c0.2,0.4,0.1,0.9-0.4,1.1l0,0c-0.1,0.1-0.3,0.1-0.4,0.1l0,0C13.1,235.5,12.8,235.4,12.6,235.1z
			 M81.1,233.8c-0.5-0.1-0.7-0.6-0.6-1l0,0l0,0l0,0c0.1-0.5,0.6-0.7,1-0.6l0,0c0.4,0.1,0.7,0.6,0.6,1l0,0c-0.1,0.4-0.4,0.6-0.8,0.6
			l0,0C81.3,233.8,81.2,233.8,81.1,233.8z M11.2,232c-0.2-0.4,0-0.9,0.4-1.1l0,0c0.4-0.2,0.9,0,1.1,0.4l0,0c0.2,0.4,0,0.9-0.5,1.1
			l0,0c-0.1,0-0.2,0.1-0.3,0.1l0,0C11.6,232.5,11.3,232.3,11.2,232z M81.9,230.5c-0.5-0.1-0.8-0.5-0.7-1l0,0c0.1-0.5,0.5-0.8,1-0.7
			l0,0c0.5,0.1,0.8,0.5,0.7,1l0,0c-0.1,0.4-0.4,0.7-0.8,0.7l0,0C82,230.5,81.9,230.5,81.9,230.5z M10,228.8
			c-0.1-0.4,0.1-0.9,0.5-1.1l0,0c0.4-0.1,0.9,0.1,1.1,0.5l0,0c0.1,0.4-0.1,0.9-0.5,1.1l0,0c-0.1,0-0.2,0-0.3,0l0,0
			C10.4,229.3,10.1,229.1,10,228.8z M82.3,227.2c-0.5,0-0.8-0.4-0.8-0.9l0,0l0,0l0,0c0-0.5,0.4-0.8,0.9-0.8l0,0
			c0.5,0,0.8,0.4,0.8,0.9l0,0C83.2,226.9,82.8,227.2,82.3,227.2L82.3,227.2C82.4,227.2,82.4,227.2,82.3,227.2z M9,225.5
			c-0.1-0.5,0.1-0.9,0.6-1l0,0c0.5-0.1,0.9,0.2,1,0.6l0,0l0,0l0,0c0.1,0.5-0.2,0.9-0.6,1l0,0c-0.1,0-0.1,0-0.2,0l0,0
			C9.4,226.1,9.1,225.9,9,225.5z M81.6,223L81.6,223L81.6,223c0-0.5,0.4-0.8,0.8-0.9l0,0c0.5,0,0.9,0.4,0.9,0.8l0,0
			c0,0.5-0.4,0.9-0.8,0.9l0,0l0,0l0,0C82,223.8,81.6,223.5,81.6,223z M8.3,222.1c-0.1-0.5,0.2-0.9,0.7-1l0,0c0.5-0.1,0.9,0.2,1,0.7
			l0,0l0,0l0,0c0.1,0.5-0.2,0.9-0.7,1l0,0H9.2l0,0C8.7,222.8,8.3,222.5,8.3,222.1z M81.5,219.7L81.5,219.7L81.5,219.7
			c0-0.5,0.3-0.9,0.8-0.9l0,0c0.5,0,0.9,0.3,0.9,0.8l0,0c0,0.5-0.3,0.9-0.8,0.9l0,0h-0.1l0,0C81.9,220.5,81.5,220.1,81.5,219.7z
			 M7.8,218.7L7.8,218.7c-0.1-0.5,0.3-0.9,0.8-0.9l0,0c0.5-0.1,0.9,0.3,0.9,0.8l0,0l0,0l0,0c0,0.5-0.3,0.9-0.8,0.9l0,0H8.6l0,0
			C8.2,219.5,7.8,219.2,7.8,218.7z M81.1,216.4c-0.1-0.5,0.3-0.9,0.7-1l0,0c0.5-0.1,0.9,0.3,1,0.7l0,0c0.1,0.5-0.3,0.9-0.7,0.9l0,0
			H82l0,0C81.6,217.1,81.2,216.8,81.1,216.4z M7.5,215.3c0-0.5,0.4-0.9,0.8-0.9l0,0c0.5,0,0.9,0.3,0.9,0.8l0,0
			c0,0.5-0.3,0.9-0.8,0.9l0,0l0,0l0,0C7.9,216.1,7.6,215.8,7.5,215.3z M80.6,213.1L80.6,213.1L80.6,213.1c-0.1-0.5,0.2-0.9,0.7-1
			l0,0c0.5-0.1,0.9,0.2,1,0.7l0,0c0.1,0.5-0.2,0.9-0.7,1l0,0c0,0-0.1,0-0.2,0l0,0C81,213.8,80.7,213.5,80.6,213.1z M8.4,212.8
			c-0.5,0-0.8-0.4-0.8-0.9l0,0c0-0.5,0.4-0.8,0.9-0.8l0,0c0.5,0,0.8,0.4,0.8,0.9l0,0C9.2,212.4,8.8,212.8,8.4,212.8L8.4,212.8
			L8.4,212.8z M79.8,209.9c-0.1-0.4,0.1-0.9,0.6-1l0,0c0.4-0.1,0.9,0.1,1,0.6l0,0c0.1,0.4-0.1,0.9-0.6,1.1l0,0c-0.1,0-0.2,0-0.2,0
			l0,0C80.3,210.5,79.9,210.3,79.8,209.9z M8.6,209.4c-0.5-0.1-0.8-0.5-0.7-0.9l0,0c0.1-0.5,0.5-0.8,0.9-0.7l0,0
			c0.5,0.1,0.8,0.5,0.7,0.9l0,0C9.4,209.1,9.1,209.4,8.6,209.4L8.6,209.4L8.6,209.4z M78.7,206.8c-0.2-0.4,0.1-0.9,0.5-1.1l0,0
			c0.4-0.2,0.9,0,1.1,0.5l0,0c0.2,0.4-0.1,0.9-0.5,1.1l0,0c-0.1,0-0.2,0-0.3,0l0,0C79.2,207.3,78.9,207.1,78.7,206.8z M9,206.1
			c-0.5-0.1-0.8-0.5-0.7-1l0,0c0.1-0.5,0.5-0.7,1-0.7l0,0c0.5,0.1,0.8,0.5,0.7,1l0,0c-0.1,0.4-0.4,0.7-0.8,0.7l0,0
			C9.1,206.1,9.1,206.1,9,206.1z M77.4,203.8c-0.2-0.4,0-0.9,0.4-1.1l0,0c0.4-0.2,0.9,0,1.1,0.4l0,0c0.2,0.4,0,0.9-0.4,1.1l0,0
			c-0.1,0-0.3,0.1-0.4,0.1l0,0C77.9,204.3,77.6,204.1,77.4,203.8z M9.8,202.8c-0.4-0.1-0.7-0.6-0.5-1.1l0,0c0.1-0.4,0.6-0.7,1.1-0.5
			l0,0c0.4,0.1,0.7,0.6,0.5,1.1l0,0c-0.1,0.4-0.5,0.6-0.8,0.6l0,0C9.9,202.8,9.9,202.8,9.8,202.8z M75.9,200.8
			c-0.2-0.4-0.1-0.9,0.3-1.1l0,0c0.4-0.2,0.9-0.1,1.1,0.3l0,0c0.2,0.4,0.1,0.9-0.3,1.1l0,0c-0.1,0.1-0.3,0.1-0.4,0.1l0,0
			C76.3,201.3,76,201.1,75.9,200.8z M10.9,199.6c-0.4-0.2-0.6-0.7-0.4-1.1l0,0c0.2-0.4,0.7-0.6,1.1-0.4l0,0c0.4,0.2,0.6,0.7,0.4,1.1
			l0,0c-0.1,0.3-0.4,0.5-0.8,0.5l0,0C11.1,199.7,11,199.6,10.9,199.6z M74.1,198.1c-0.3-0.4-0.2-0.9,0.2-1.2l0,0
			c0.4-0.3,0.9-0.2,1.2,0.2l0,0c0.3,0.4,0.2,0.9-0.2,1.2l0,0c-0.1,0.1-0.3,0.1-0.5,0.1l0,0C74.5,198.4,74.3,198.3,74.1,198.1z
			 M12.4,196.6c-0.4-0.3-0.5-0.8-0.2-1.2l0,0c0.3-0.4,0.8-0.5,1.2-0.2l0,0c0.4,0.3,0.5,0.8,0.2,1.2l0,0l0,0l0,0
			c-0.2,0.2-0.4,0.4-0.7,0.4l0,0C12.7,196.7,12.5,196.7,12.4,196.6z M72.1,195.5c-0.3-0.4-0.3-0.9,0.1-1.2l0,0
			c0.4-0.3,0.9-0.3,1.2,0.1l0,0c0.3,0.4,0.3,0.9-0.1,1.2l0,0c-0.1,0.1-0.4,0.2-0.5,0.2l0,0C72.5,195.8,72.3,195.7,72.1,195.5z
			 M14.4,193.9c-0.3-0.3-0.3-0.9,0-1.2l0,0c0.3-0.3,0.9-0.3,1.2,0l0,0c0.3,0.3,0.3,0.9,0,1.2l0,0c-0.2,0.2-0.4,0.2-0.6,0.2l0,0
			C14.8,194.1,14.6,194.1,14.4,193.9z M69.9,193L69.9,193L69.9,193c-0.3-0.3-0.3-0.9,0-1.2l0,0c0.3-0.3,0.9-0.3,1.2,0l0,0
			c0.3,0.3,0.3,0.9,0,1.2l0,0c-0.2,0.2-0.4,0.3-0.6,0.3l0,0C70.2,193.3,70,193.2,69.9,193z M17,191.7c-0.3-0.4-0.1-0.9,0.3-1.2l0,0
			c0.4-0.3,0.9-0.1,1.2,0.3l0,0c0.3,0.4,0.1,0.9-0.3,1.2l0,0l0,0l0,0c-0.1,0.1-0.3,0.1-0.5,0.1l0,0C17.4,192.1,17.1,192,17,191.7z
			 M67.4,190.9c-0.4-0.3-0.4-0.8-0.1-1.2l0,0c0.3-0.4,0.8-0.4,1.2-0.1l0,0c0.4,0.3,0.4,0.8,0.1,1.2l0,0c-0.2,0.2-0.4,0.3-0.6,0.3
			l0,0C67.8,191,67.6,191,67.4,190.9z M19.8,189.9c-0.2-0.4-0.1-0.9,0.3-1.1l0,0c0.4-0.2,0.9-0.1,1.2,0.3l0,0
			c0.2,0.4,0.1,0.9-0.3,1.2l0,0c-0.1,0.1-0.3,0.1-0.4,0.1l0,0C20.3,190.4,20,190.2,19.8,189.9z M64.8,188.9
			c-0.4-0.3-0.5-0.8-0.3-1.2l0,0c0.3-0.4,0.8-0.5,1.2-0.2l0,0c0.4,0.3,0.5,0.8,0.2,1.2l0,0c-0.2,0.3-0.4,0.4-0.7,0.4l0,0
			C65.1,189.1,64.9,189,64.8,188.9z M22.8,188.3c-0.2-0.4,0-0.9,0.4-1.1l0,0c0.4-0.2,0.9,0,1.1,0.4l0,0c0.2,0.4,0,0.9-0.4,1.1l0,0
			l0,0l0,0c-0.1,0.1-0.3,0.1-0.4,0.1l0,0C23.3,188.8,22.9,188.6,22.8,188.3z M61.9,187.3L61.9,187.3L61.9,187.3
			c-0.4-0.2-0.6-0.7-0.4-1.1l0,0c0.2-0.4,0.7-0.6,1.1-0.4l0,0c0.4,0.2,0.6,0.7,0.4,1.1l0,0c-0.2,0.3-0.4,0.4-0.7,0.4l0,0
			C62.2,187.4,62,187.3,61.9,187.3z M25.8,186.8c-0.2-0.4,0-0.9,0.4-1.1l0,0c0.4-0.2,0.9,0,1.1,0.4l0,0c0.2,0.4,0,0.9-0.4,1.1l0,0
			c-0.1,0-0.2,0.1-0.3,0.1l0,0C26.3,187.3,26,187.1,25.8,186.8z M28.9,185.5c-0.2-0.4,0.1-0.9,0.5-1.1l0,0c0.4-0.2,0.9,0,1.1,0.5
			l0,0c0.2,0.4-0.1,0.9-0.5,1.1l0,0c-0.1,0-0.2,0.1-0.3,0.1l0,0C29.4,186,29.1,185.8,28.9,185.5z M58.9,185.9
			c-0.4-0.2-0.6-0.7-0.5-1.1l0,0c0.2-0.4,0.7-0.6,1.1-0.5l0,0c0.4,0.2,0.6,0.7,0.5,1.1l0,0c-0.1,0.3-0.5,0.5-0.8,0.5l0,0
			C59.2,186,59,185.9,58.9,185.9z M32.1,184.3c-0.1-0.4,0.1-0.9,0.5-1.1l0,0c0.4-0.1,0.9,0.1,1.1,0.5l0,0c0.1,0.4-0.1,0.9-0.5,1.1
			l0,0c-0.1,0-0.2,0.1-0.3,0.1l0,0C32.5,184.9,32.2,184.7,32.1,184.3z M55.8,184.8c-0.4-0.1-0.7-0.6-0.6-1.1l0,0
			c0.1-0.4,0.6-0.7,1-0.6l0,0c0.5,0.1,0.7,0.6,0.6,1l0,0c-0.1,0.4-0.5,0.6-0.8,0.6l0,0C56,184.8,55.9,184.8,55.8,184.8z M52.7,184
			c-0.5-0.1-0.8-0.5-0.7-1l0,0c0.1-0.5,0.5-0.8,1-0.7l0,0c0.5,0.1,0.8,0.5,0.6,1l0,0C53.5,183.7,53.2,184,52.7,184L52.7,184
			L52.7,184z M35.3,183.3c-0.1-0.5,0.2-0.9,0.6-1l0,0c0.5-0.1,0.9,0.2,1,0.6l0,0c0.1,0.5-0.2,0.9-0.6,1l0,0l0,0l0,0
			c-0.1,0-0.1,0-0.2,0l0,0C35.8,184,35.4,183.7,35.3,183.3z M49.4,183.5c-0.5-0.1-0.8-0.5-0.7-1l0,0c0.1-0.5,0.5-0.8,0.9-0.7l0,0
			c0.5,0,0.8,0.5,0.7,0.9l0,0c-0.1,0.4-0.4,0.7-0.8,0.7l0,0C49.5,183.5,49.4,183.5,49.4,183.5z M38.6,182.6
			c-0.1-0.5,0.3-0.9,0.7-0.9l0,0c0.5-0.1,0.9,0.3,1,0.7l0,0c0.1,0.5-0.3,0.9-0.7,1l0,0h-0.1l0,0C39,183.3,38.7,183,38.6,182.6z
			 M46.1,183.2c-0.5,0-0.8-0.4-0.8-0.9l0,0c0-0.5,0.4-0.8,0.9-0.8l0,0c0.5,0,0.8,0.4,0.8,0.9l0,0C47,182.8,46.6,183.2,46.1,183.2
			L46.1,183.2L46.1,183.2z M41.9,182.3c0-0.5,0.4-0.9,0.8-0.9l0,0c0.5,0,0.9,0.4,0.9,0.8l0,0c0,0.5-0.4,0.8-0.8,0.8l0,0l0,0l0,0
			C42.3,183.1,42,182.7,41.9,182.3z"/>
	</g>
	<g class="st5">
		<circle class="st2" cx="36.1" cy="221.7" r="1.5"/>
	</g>
	<g class="st5">
		<circle class="st2" cx="36.1" cy="228.3" r="1.5"/>
	</g>
	<g class="st5">
		<circle class="st2" cx="36.1" cy="215.1" r="1.5"/>
	</g>
	<g class="st5">
		<circle class="st2" cx="36.1" cy="208.5" r="1.5"/>
	</g>
	<g class="st5">
		<rect x="39.4" y="207.6" class="st2" width="13" height="1.7"/>
	</g>
	<g class="st5">
		<rect x="39.4" y="214.2" class="st2" width="13" height="1.7"/>
	</g>
	<g class="st5">
		<rect x="39.4" y="220.9" class="st2" width="13" height="1.7"/>
	</g>
	<g class="st5">
		<rect x="39.4" y="227.6" class="st2" width="8.4" height="1.7"/>
	</g>
	<g class="st5">
		<path class="st2" d="M49.6,238.2H32.1c-1.7,0-3.1-1.4-3.1-3.1v-34.8c0-1.7,1.4-3.1,3.1-3.1h23.4c1.7,0,3.1,1.4,3.1,3.1v26.6h-1.7
			v-26.6c0-0.8-0.6-1.4-1.4-1.4H32.1c-0.8,0-1.4,0.6-1.4,1.4v34.8c0,0.8,0.6,1.4,1.4,1.4h17.5V238.2z"/>
	</g>
	<g class="st5">
		<g>
			<g>
				<path class="st2" d="M67.7,229.9c-0.4-0.8-1.6-2-3-1.4c-0.7,0.3-1.1,0.7-1.4,1.1c-0.7-0.4-1.6-0.6-2.7-0.1
					c-0.8,0.4-1.2,0.9-1.4,1.3c-0.6-0.3-1.3-0.5-2.3-0.1c-0.5,0.2-0.9,0.6-1.2,1c-1.4-1.9-4.6-6.4-5-7c-1.3-1.8-2.8-1.4-3.6-1
					c-1,0.5-1.4,1.4-1.3,2.4c0,0.2,0.2,0.9,0.5,1.3c0.1,0.1,0.1,0.2,0.2,0.3c0.2,0.2,0.4,0.6,0.7,1c0.5,0.8,1.3,2,2,3.1
					c1.3,2.1,2.7,4.1,2.9,4.4l2,4.5c0,0.1,0.1,0.1,0.1,0.2l3.9,4.1l0.9-0.9l-3.8-4l-2-4.4v-0.1c-2-3-4.8-7.4-5.6-8.6
					c-0.1-0.1-0.1-0.2-0.2-0.4c-0.1-0.2-0.3-0.7-0.3-1.1c0.1-0.3,0.3-0.5,0.6-0.7c0.5-0.3,1.1-0.4,1.9,0.6c0.5,0.7,5.6,7.8,5.6,7.9
					c0.1,0.2,0.4,0.3,0.6,0.3c0.2,0,0.4-0.2,0.5-0.5c0,0,0.2-0.9,0.9-1.2c0.9-0.4,1.5,0.3,1.6,0.5c0.2,0.3,0.5,0.4,0.8,0.3
					c0.3-0.1,0.5-0.4,0.4-0.7c0,0-0.1-0.7,1-1.2c1-0.6,1.7,0.3,1.8,0.4c0.2,0.2,0.5,0.3,0.7,0.2c0.3-0.1,0.4-0.4,0.4-0.6
					c0,0,0-0.6,0.9-1c0.8-0.3,1.4,0.7,1.4,0.8c0.1,0.2,1,1.8,1.6,2.8l1.1-0.6C68.2,230.7,67.8,229.9,67.7,229.9z"/>
				<path class="st2" d="M58.2,245.2l-4-4.2c-0.1-0.1-0.1-0.1-0.1-0.2l-2-4.5l-0.4-0.7c-0.6-0.8-1.5-2.3-2.4-3.7
					c-0.7-1.1-1.5-2.2-2-3.1c-0.3-0.4-0.5-0.8-0.7-1c-0.1-0.1-0.1-0.2-0.2-0.3c-0.3-0.4-0.5-1.1-0.5-1.4c-0.2-1.1,0.3-2,1.3-2.6
					c0.8-0.4,2.3-0.9,3.7,1c0.4,0.6,3.5,4.9,4.9,6.9c0.3-0.4,0.7-0.7,1.1-0.9c1-0.4,1.7-0.2,2.3,0c0.3-0.5,0.8-0.9,1.4-1.2
					c1.2-0.6,2.2-0.3,2.7,0c0.3-0.4,0.8-0.8,1.4-1c1.5-0.6,2.8,0.5,3.2,1.4c0,0.1,0.4,0.7,1.5,2.7l0.1,0.1l-1.3,0.8l-0.1-0.1
					c-0.5-1-1.5-2.6-1.6-2.8c0,0-0.5-1-1.2-0.7c-0.9,0.4-0.9,0.8-0.9,0.8c0,0.3-0.2,0.6-0.5,0.8c-0.3,0.1-0.7,0-0.9-0.3
					c-0.1-0.2-0.7-0.9-1.7-0.4s-0.9,1.1-0.9,1.1c0.1,0.4-0.1,0.7-0.4,0.9c-0.3,0.1-0.8,0-1-0.3c-0.1-0.1-0.6-0.8-1.4-0.4
					c-0.7,0.3-0.9,1.1-0.9,1.1c-0.1,0.3-0.3,0.5-0.6,0.6s-0.6-0.1-0.8-0.3c0-0.1-5.1-7.2-5.6-7.9c-0.7-1-1.3-0.8-1.7-0.6
					c-0.3,0.2-0.5,0.4-0.5,0.6c-0.1,0.4,0.1,0.9,0.2,1c0.1,0.1,0.2,0.2,0.2,0.4c0.7,1.1,3.4,5.3,5.6,8.6c0,0,0,0.1,0.1,0.1l2,4.4
					l3.9,4.1L58.2,245.2z M48.5,223.5c-0.5,0-0.9,0.2-1.2,0.3c-0.9,0.5-1.4,1.3-1.2,2.3c0,0.2,0.2,0.9,0.5,1.3
					c0.1,0.1,0.1,0.2,0.2,0.3c0.2,0.2,0.4,0.6,0.7,1c0.5,0.8,1.3,2,2,3.1c0.9,1.4,1.9,2.9,2.4,3.7l0.5,0.7l2,4.5
					c0,0.1,0.1,0.1,0.1,0.1l3.8,4l0.8-0.7l-3.8-3.9l-2-4.4c0,0,0,0,0-0.1c-2.2-3.3-4.9-7.4-5.6-8.6c-0.1-0.1-0.1-0.3-0.2-0.4
					c-0.1-0.2-0.4-0.7-0.3-1.2c0.1-0.3,0.3-0.6,0.7-0.8c0.5-0.3,1.2-0.5,2.1,0.7c0.5,0.7,5.6,7.8,5.6,7.9c0.1,0.2,0.3,0.2,0.5,0.2
					s0.4-0.2,0.4-0.4c0,0,0.2-0.9,1-1.3c0.8-0.3,1.4,0.1,1.7,0.5c0.1,0.2,0.4,0.3,0.7,0.2c0.2-0.1,0.4-0.4,0.3-0.6
					c0,0-0.1-0.8,1.1-1.4c0.9-0.5,1.6,0,2,0.5c0.1,0.2,0.4,0.3,0.6,0.2c0.2-0.1,0.4-0.3,0.3-0.5c0-0.1,0-0.7,1-1.1
					c0.9-0.4,1.5,0.8,1.6,0.8c0.1,0.2,1,1.8,1.5,2.7l0.9-0.5c-1-1.7-1.4-2.6-1.5-2.6l0,0c-0.4-0.8-1.5-1.9-2.9-1.3
					c-0.6,0.2-1,0.6-1.3,1l-0.1,0.1l-0.1-0.1c-0.6-0.4-1.5-0.6-2.6-0.1c-0.6,0.3-1.1,0.8-1.4,1.2l-0.1,0.1l-0.1-0.1
					c-0.5-0.3-1.2-0.5-2.1-0.1c-0.4,0.2-0.8,0.5-1.1,0.9l-0.1,0.1l-0.1-0.1c-1.1-1.5-4.6-6.4-5-7C49.9,223.8,49.1,223.5,48.5,223.5z
					"/>
			</g>
		</g>
	</g>
</g>
<g class="st3">
	
		<ellipse transform="matrix(9.053456e-02 -0.9959 0.9959 9.053456e-02 -264.3289 317.7492)" class="st4" cx="41.8" cy="303.6" rx="33.6" ry="33.6"/>
	<g class="st5">
		<path class="st6" d="M39.1,340.2c0-0.5,0.4-0.9,0.8-0.9l0,0c0.5,0,0.9,0.4,0.9,0.8l0,0c0,0.5-0.4,0.9-0.8,0.9l0,0l0,0l0,0
			C39.5,341,39.1,340.6,39.1,340.2z M36.6,341c-0.5,0-0.8-0.4-0.8-0.9l0,0c0-0.5,0.4-0.8,0.9-0.8l0,0l0,0l0,0c0.5,0,0.8,0.4,0.8,0.9
			l0,0C37.4,340.6,37,341,36.6,341L36.6,341L36.6,341z M42.5,340c0-0.5,0.3-0.9,0.8-0.9l0,0l0,0l0,0c0.5,0,0.9,0.3,0.9,0.8l0,0
			c0,0.5-0.3,0.9-0.8,0.9l0,0h-0.1l0,0C42.9,340.8,42.5,340.5,42.5,340z M33.1,340.8c-0.5-0.1-0.8-0.5-0.8-0.9l0,0
			c0.1-0.5,0.5-0.8,0.9-0.8l0,0c0.5,0,0.8,0.5,0.8,0.9l0,0C34,340.4,33.7,340.8,33.1,340.8L33.1,340.8
			C33.2,340.8,33.2,340.8,33.1,340.8z M45.9,339.7c-0.1-0.5,0.3-0.9,0.7-0.9l0,0c0.5-0.1,0.9,0.3,0.9,0.7l0,0
			c0.1,0.5-0.3,0.9-0.7,0.9l0,0h-0.1l0,0C46.3,340.5,45.9,340.1,45.9,339.7z M29.7,340.3c-0.5-0.1-0.8-0.5-0.7-1l0,0
			c0.1-0.5,0.5-0.8,1-0.7l0,0l0,0l0,0c0.5,0.1,0.8,0.5,0.7,1l0,0c-0.1,0.4-0.4,0.7-0.8,0.7l0,0C29.8,340.3,29.8,340.3,29.7,340.3z
			 M49.2,339.3c-0.1-0.5,0.3-0.9,0.7-1l0,0c0.5-0.1,0.9,0.3,1,0.7l0,0c0.1,0.5-0.3,0.9-0.7,1l0,0h-0.1l0,0
			C49.6,340,49.3,339.7,49.2,339.3z M26.4,339.5c-0.4-0.1-0.7-0.6-0.6-1l0,0c0.1-0.5,0.6-0.7,1-0.6l0,0c0.5,0.1,0.7,0.6,0.6,1.1l0,0
			c-0.1,0.4-0.5,0.6-0.8,0.6l0,0C26.5,339.5,26.4,339.5,26.4,339.5z M52.6,338.7c-0.1-0.5,0.2-0.9,0.7-1l0,0c0.5-0.1,0.9,0.2,1,0.7
			l0,0c0.1,0.5-0.2,0.9-0.7,1l0,0c-0.1,0-0.1,0-0.2,0l0,0C53,339.4,52.6,339.1,52.6,338.7z M55.9,338c-0.1-0.5,0.2-0.9,0.6-1l0,0
			c0.5-0.1,0.9,0.2,1,0.6l0,0c0.1,0.5-0.2,0.9-0.6,1l0,0c-0.1,0-0.1,0-0.2,0l0,0C56.3,338.7,56,338.4,55.9,338z M23.1,338.3
			c-0.4-0.2-0.6-0.7-0.5-1.1l0,0c0.2-0.4,0.7-0.6,1.1-0.5l0,0c0.4,0.2,0.6,0.7,0.5,1.1l0,0c-0.1,0.3-0.5,0.5-0.8,0.5l0,0
			C23.3,338.4,23.2,338.4,23.1,338.3z M59.1,337.2c-0.1-0.4,0.1-0.9,0.6-1.1l0,0c0.5-0.1,0.9,0.1,1.1,0.6l0,0
			c0.1,0.5-0.1,0.9-0.6,1.1l0,0c-0.1,0-0.2,0-0.3,0l0,0C59.6,337.8,59.3,337.6,59.1,337.2z M19.9,336.8c-0.4-0.2-0.6-0.7-0.3-1.2
			l0,0c0.2-0.4,0.7-0.6,1.1-0.3l0,0c0.4,0.2,0.6,0.7,0.3,1.1l0,0c-0.2,0.3-0.4,0.4-0.7,0.4l0,0C20.2,336.9,20.1,336.9,19.9,336.8z
			 M62.4,336.1c-0.2-0.4,0-0.9,0.5-1.1l0,0c0.4-0.2,0.9,0,1.1,0.5l0,0c0.2,0.4,0,0.9-0.5,1.1l0,0c-0.1,0-0.2,0.1-0.3,0.1l0,0
			C62.8,336.6,62.5,336.4,62.4,336.1z M65.4,334.8c-0.2-0.4-0.1-0.9,0.4-1.1l0,0c0.4-0.2,0.9-0.1,1.1,0.4l0,0
			c0.2,0.4,0.1,0.9-0.4,1.1l0,0c-0.1,0.1-0.3,0.1-0.4,0.1l0,0C65.9,335.2,65.6,335.1,65.4,334.8z M17,335c-0.4-0.3-0.5-0.8-0.2-1.2
			l0,0c0.3-0.4,0.8-0.5,1.2-0.2l0,0l0,0l0,0c0.4,0.3,0.5,0.8,0.2,1.2l0,0c-0.2,0.2-0.4,0.4-0.7,0.4l0,0
			C17.3,335.1,17.1,335.1,17,335z M68.4,333.1c-0.3-0.4-0.2-0.9,0.2-1.2l0,0c0.4-0.3,0.9-0.2,1.2,0.2l0,0c0.3,0.4,0.2,0.9-0.2,1.2
			l0,0c-0.2,0.1-0.3,0.2-0.5,0.2l0,0C68.8,333.4,68.5,333.3,68.4,333.1z M14.3,332.8L14.3,332.8c-0.4-0.3-0.4-0.9-0.1-1.2l0,0
			c0.3-0.3,0.9-0.4,1.2-0.1l0,0c0.3,0.3,0.4,0.9,0.1,1.2l0,0c-0.2,0.2-0.4,0.3-0.6,0.3l0,0C14.7,333,14.5,332.9,14.3,332.8z M71,331
			c-0.3-0.3-0.3-0.9,0-1.2l0,0c0.3-0.3,0.9-0.3,1.2,0l0,0c0.3,0.3,0.3,0.9,0,1.2l0,0c-0.2,0.2-0.4,0.2-0.6,0.2l0,0
			C71.4,331.3,71.2,331.2,71,331z M11.9,330.2c-0.3-0.4-0.3-0.9,0.1-1.2l0,0c0.4-0.3,0.9-0.3,1.2,0.1l0,0l0,0l0,0
			c0.3,0.4,0.3,0.9-0.1,1.2l0,0c-0.2,0.1-0.4,0.2-0.6,0.2l0,0C12.3,330.5,12.1,330.4,11.9,330.2z M73.4,328.6
			c-0.4-0.3-0.5-0.8-0.2-1.2l0,0c0.3-0.4,0.8-0.5,1.2-0.2l0,0c0.4,0.3,0.5,0.8,0.2,1.2l0,0c-0.2,0.2-0.4,0.4-0.7,0.4l0,0
			C73.7,328.7,73.5,328.7,73.4,328.6z M9.8,327.5L9.8,327.5c-0.3-0.4-0.2-0.9,0.2-1.2l0,0c0.4-0.3,0.9-0.2,1.2,0.2l0,0
			c0.3,0.4,0.2,0.9-0.2,1.2l0,0c-0.2,0.1-0.3,0.1-0.5,0.1l0,0C10.2,327.8,10,327.7,9.8,327.5z M75.2,325.7c-0.4-0.2-0.6-0.7-0.4-1.1
			l0,0l0,0l0,0c0.2-0.4,0.7-0.6,1.1-0.4l0,0c0.4,0.2,0.6,0.7,0.4,1.1l0,0c-0.2,0.3-0.5,0.5-0.8,0.5l0,0
			C75.5,325.8,75.4,325.8,75.2,325.7z M8,324.5c-0.2-0.4-0.1-0.9,0.3-1.1l0,0c0.4-0.2,0.9-0.1,1.1,0.3l0,0c0.2,0.4,0.1,0.9-0.3,1.1
			l0,0C9,324.9,8.9,325,8.8,325l0,0C8.5,325,8.2,324.8,8,324.5z M76.6,322.7c-0.4-0.1-0.7-0.6-0.5-1.1l0,0c0.1-0.4,0.6-0.7,1.1-0.5
			l0,0c0.4,0.2,0.7,0.6,0.5,1.1l0,0c-0.1,0.4-0.5,0.6-0.8,0.6l0,0C76.8,322.7,76.7,322.7,76.6,322.7z M6.5,321.5L6.5,321.5
			c-0.2-0.4,0-0.9,0.4-1.1l0,0c0.4-0.2,0.9,0,1.1,0.4l0,0c0.2,0.4,0,0.9-0.4,1.1l0,0c-0.1,0-0.2,0.1-0.4,0.1l0,0
			C6.9,321.9,6.6,321.8,6.5,321.5z M77.6,319.4c-0.5-0.1-0.8-0.5-0.7-1l0,0l0,0l0,0c0.1-0.5,0.5-0.8,1-0.7l0,0
			c0.5,0.1,0.8,0.5,0.7,1l0,0c-0.1,0.4-0.4,0.7-0.8,0.7l0,0C77.7,319.5,77.6,319.5,77.6,319.4z M5.4,318.8c-0.2-0.4,0.1-0.9,0.5-1.1
			l0,0c0.4-0.2,0.9,0.1,1.1,0.5l0,0c0.2,0.4-0.1,0.9-0.5,1.1l0,0c-0.1,0-0.2,0.1-0.3,0.1l0,0C5.8,319.4,5.5,319.2,5.4,318.8z
			 M4.3,315.5L4.3,315.5c-0.1-0.5,0.2-0.9,0.6-1l0,0c0.5-0.1,0.9,0.2,1,0.6l0,0l0,0l0,0c0.1,0.5-0.2,0.9-0.6,1l0,0
			c-0.1,0-0.2,0-0.2,0l0,0C4.8,316.2,4.4,315.9,4.3,315.5z M78.2,316.1c-0.5-0.1-0.8-0.5-0.8-0.9l0,0c0-0.5,0.5-0.8,0.9-0.8l0,0
			c0.5,0.1,0.8,0.5,0.8,0.9l0,0C79.1,315.8,78.7,316.1,78.2,316.1L78.2,316.1L78.2,316.1z M3.6,312.2c-0.1-0.5,0.2-0.9,0.7-1l0,0
			c0.5-0.1,0.9,0.2,1,0.7l0,0c0.1,0.5-0.2,0.9-0.7,1l0,0c-0.1,0-0.1,0-0.2,0l0,0C4,312.8,3.7,312.6,3.6,312.2z M78.5,312.7
			c-0.5,0-0.8-0.4-0.8-0.9l0,0l0,0l0,0c0-0.5,0.4-0.8,0.9-0.8l0,0c0.5,0,0.8,0.4,0.8,0.9l0,0C79.3,312.4,79,312.7,78.5,312.7
			L78.5,312.7L78.5,312.7z M3.1,308.7c0-0.5,0.3-0.9,0.8-0.9l0,0c0.5,0,0.9,0.3,0.9,0.8l0,0c0,0.5-0.3,0.9-0.8,0.9l0,0H3.9l0,0
			C3.5,309.5,3.2,309.2,3.1,308.7z M77.6,308.5L77.6,308.5L77.6,308.5c0-0.5,0.4-0.9,0.8-0.9l0,0c0.5,0,0.9,0.4,0.9,0.8l0,0
			c0,0.5-0.4,0.9-0.8,0.9l0,0l0,0l0,0C78,309.4,77.7,309,77.6,308.5z M3.9,306.1c-0.5,0-0.8-0.4-0.8-0.9l0,0c0-0.5,0.4-0.8,0.9-0.8
			l0,0c0.5,0,0.8,0.4,0.8,0.9l0,0C4.8,305.8,4.4,306.1,3.9,306.1L3.9,306.1L3.9,306.1z M77.5,305.2c0-0.5,0.3-0.9,0.8-0.9l0,0
			c0.5,0,0.9,0.3,0.9,0.8l0,0c0,0.5-0.3,0.9-0.8,0.9l0,0h-0.1l0,0C77.9,306,77.5,305.6,77.5,305.2z M4,302.7c-0.5,0-0.8-0.4-0.8-0.9
			l0,0c0-0.5,0.4-0.8,0.9-0.8l0,0c0.5,0,0.8,0.4,0.8,0.9l0,0C4.9,302.4,4.5,302.7,4,302.7L4,302.7C4.1,302.7,4.1,302.7,4,302.7z
			 M77.1,301.9L77.1,301.9L77.1,301.9c-0.1-0.5,0.3-0.9,0.7-0.9l0,0c0.5-0.1,0.9,0.3,0.9,0.7l0,0c0.1,0.5-0.3,0.9-0.7,0.9l0,0h-0.1
			l0,0C77.5,302.6,77.2,302.3,77.1,301.9z M4.4,299.4c-0.5-0.1-0.8-0.5-0.7-1l0,0c0.1-0.5,0.5-0.8,1-0.7l0,0c0.5,0.1,0.8,0.5,0.7,1
			l0,0c-0.1,0.4-0.4,0.7-0.8,0.7l0,0C4.4,299.4,4.4,299.4,4.4,299.4z M76.7,298.6c-0.1-0.5,0.3-0.9,0.7-1l0,0c0.5-0.1,0.9,0.3,1,0.7
			l0,0c0.1,0.5-0.2,0.9-0.7,1l0,0h-0.1l0,0C77.1,299.3,76.7,299,76.7,298.6z M4.9,296c-0.5-0.1-0.8-0.5-0.7-1l0,0
			c0.1-0.5,0.5-0.8,1-0.7l0,0c0.5,0.1,0.8,0.5,0.7,1l0,0C5.8,295.8,5.4,296,4.9,296L4.9,296L4.9,296z M76.1,295.3
			c-0.1-0.5,0.2-0.9,0.7-1l0,0c0.5-0.1,0.9,0.2,1,0.7l0,0c0.1,0.5-0.2,0.9-0.7,1l0,0c-0.1,0-0.1,0-0.2,0l0,0
			C76.6,295.9,76.2,295.7,76.1,295.3z M5.6,292.7c-0.5-0.1-0.7-0.6-0.6-1l0,0c0.1-0.4,0.6-0.7,1-0.6l0,0c0.4,0.1,0.7,0.6,0.6,1.1
			l0,0c-0.1,0.4-0.4,0.6-0.8,0.6l0,0C5.8,292.7,5.7,292.7,5.6,292.7z M75.3,292L75.3,292L75.3,292c-0.1-0.5,0.1-0.9,0.6-1l0,0
			c0.4-0.1,0.9,0.1,1,0.6l0,0c0.1,0.4-0.1,0.9-0.6,1l0,0c-0.1,0-0.2,0-0.2,0l0,0C75.8,292.6,75.5,292.4,75.3,292z M6.6,289.5
			c-0.4-0.2-0.7-0.7-0.5-1.1l0,0c0.2-0.4,0.7-0.7,1.1-0.5l0,0c0.4,0.2,0.7,0.7,0.5,1.1l0,0c-0.1,0.3-0.5,0.6-0.8,0.6l0,0
			C6.8,289.5,6.7,289.5,6.6,289.5z M74.3,288.9L74.3,288.9L74.3,288.9c-0.2-0.4,0.1-0.9,0.5-1.1l0,0c0.4-0.2,0.9,0.1,1.1,0.5l0,0
			c0.2,0.4-0.1,0.9-0.5,1.1l0,0c-0.1,0-0.2,0.1-0.3,0.1l0,0C74.8,289.4,74.4,289.2,74.3,288.9z M7.9,286.3c-0.4-0.2-0.6-0.7-0.4-1.1
			l0,0c0.2-0.4,0.7-0.6,1.1-0.4l0,0C9,285,9.2,285.5,9,286l0,0c-0.2,0.3-0.5,0.5-0.8,0.5l0,0C8.1,286.4,8,286.4,7.9,286.3z
			 M73,285.9c-0.2-0.4-0.1-0.9,0.4-1.1l0,0c0.4-0.2,0.9-0.1,1.1,0.4l0,0c0.2,0.4,0.1,0.9-0.4,1.1l0,0c-0.1,0.1-0.3,0.1-0.4,0.1l0,0
			C73.4,286.4,73.1,286.2,73,285.9z M9.4,283.3c-0.4-0.3-0.5-0.8-0.3-1.2l0,0c0.3-0.4,0.8-0.5,1.2-0.3l0,0c0.4,0.3,0.5,0.8,0.3,1.2
			l0,0l0,0l0,0c-0.2,0.3-0.4,0.4-0.7,0.4l0,0C9.7,283.5,9.6,283.4,9.4,283.3z M71.3,283.1c-0.3-0.4-0.2-0.9,0.2-1.2l0,0
			c0.4-0.3,0.9-0.2,1.2,0.2l0,0c0.3,0.4,0.2,0.9-0.2,1.2l0,0c-0.1,0.1-0.3,0.2-0.5,0.2l0,0C71.7,283.5,71.4,283.3,71.3,283.1z
			 M69.3,280.5c-0.3-0.4-0.3-0.9,0.1-1.2l0,0c0.3-0.3,0.9-0.3,1.2,0.1l0,0c0.3,0.4,0.3,0.9-0.1,1.2l0,0c-0.2,0.2-0.4,0.2-0.6,0.2
			l0,0C69.7,280.8,69.4,280.7,69.3,280.5z M11.3,280.5c-0.4-0.3-0.4-0.8-0.1-1.2l0,0c0.3-0.4,0.8-0.4,1.2-0.1l0,0
			c0.4,0.3,0.4,0.8,0.1,1.2l0,0c-0.2,0.2-0.4,0.3-0.7,0.3l0,0C11.6,280.7,11.4,280.7,11.3,280.5z M66.9,278.2
			c-0.4-0.3-0.4-0.8-0.1-1.2l0,0c0.3-0.4,0.8-0.4,1.2-0.1l0,0c0.4,0.3,0.4,0.8,0.1,1.2l0,0c-0.2,0.2-0.4,0.3-0.6,0.3l0,0
			C67.3,278.4,67.1,278.4,66.9,278.2z M13.5,277.9c-0.3-0.3-0.3-0.9,0-1.2l0,0c0.3-0.3,0.9-0.3,1.2,0l0,0c0.3,0.3,0.3,0.9,0,1.2l0,0
			c-0.2,0.2-0.4,0.2-0.6,0.2l0,0C13.9,278.2,13.6,278.1,13.5,277.9z M64.3,276.2c-0.4-0.3-0.5-0.8-0.2-1.2l0,0
			c0.3-0.4,0.8-0.5,1.2-0.2l0,0c0.4,0.3,0.5,0.8,0.2,1.2l0,0c-0.2,0.2-0.4,0.4-0.7,0.4l0,0C64.6,276.4,64.5,276.3,64.3,276.2z
			 M16,275.7c-0.3-0.4-0.2-0.9,0.2-1.2l0,0c0.4-0.3,0.9-0.2,1.2,0.2l0,0c0.3,0.4,0.2,0.9-0.2,1.2l0,0c-0.2,0.1-0.3,0.2-0.5,0.2l0,0
			C16.4,276,16.1,275.9,16,275.7z M61.5,274.6c-0.4-0.2-0.6-0.7-0.4-1.1l0,0c0.2-0.4,0.7-0.6,1.1-0.4l0,0c0.4,0.2,0.6,0.7,0.4,1.1
			l0,0c-0.2,0.3-0.5,0.5-0.8,0.5l0,0C61.8,274.7,61.6,274.6,61.5,274.6z M18.7,273.7c-0.2-0.4-0.1-0.9,0.3-1.2l0,0
			c0.4-0.2,0.9-0.1,1.2,0.3l0,0c0.2,0.4,0.1,0.9-0.3,1.2l0,0c-0.1,0.1-0.3,0.1-0.4,0.1l0,0C19.2,274.1,18.9,274,18.7,273.7z
			 M58.5,273.2c-0.4-0.2-0.6-0.7-0.5-1.1l0,0c0.2-0.4,0.7-0.6,1.1-0.5l0,0c0.4,0.2,0.6,0.7,0.5,1.1l0,0c-0.1,0.3-0.5,0.5-0.8,0.5
			l0,0C58.7,273.2,58.6,273.2,58.5,273.2z M21.7,272.1c-0.2-0.4,0-0.9,0.4-1.1l0,0c0.4-0.2,0.9,0,1.1,0.4l0,0c0.2,0.4,0,0.9-0.4,1.1
			l0,0l0,0l0,0c-0.1,0-0.2,0.1-0.3,0.1l0,0C22.1,272.6,21.8,272.4,21.7,272.1z M55.4,272.1c-0.4-0.1-0.7-0.6-0.6-1.1l0,0
			c0.1-0.4,0.6-0.7,1.1-0.6l0,0c0.4,0.1,0.7,0.6,0.6,1.1l0,0c-0.1,0.4-0.4,0.6-0.8,0.6l0,0C55.6,272.1,55.5,272.1,55.4,272.1z
			 M24.8,270.9c-0.1-0.4,0.1-0.9,0.6-1.1l0,0c0.4-0.1,0.9,0.1,1.1,0.6l0,0c0.1,0.4-0.1,0.9-0.6,1.1l0,0c-0.1,0-0.2,0-0.3,0l0,0
			C25.3,271.4,24.9,271.2,24.8,270.9z M52.2,271.2L52.2,271.2L52.2,271.2c-0.5-0.1-0.7-0.6-0.6-1l0,0c0.1-0.5,0.6-0.7,1-0.6l0,0
			c0.5,0.1,0.7,0.6,0.6,1l0,0c-0.1,0.4-0.4,0.7-0.8,0.7l0,0C52.3,271.2,52.3,271.2,52.2,271.2z M28.1,269.9c-0.1-0.5,0.2-0.9,0.7-1
			l0,0c0.5-0.1,0.9,0.2,1,0.7l0,0c0.1,0.5-0.2,0.9-0.7,1l0,0c-0.1,0-0.1,0-0.2,0l0,0C28.5,270.6,28.1,270.3,28.1,269.9z M48.9,270.6
			c-0.5-0.1-0.8-0.5-0.7-1l0,0c0.1-0.5,0.5-0.8,1-0.7l0,0c0.5,0.1,0.8,0.5,0.7,1l0,0c-0.1,0.4-0.4,0.7-0.8,0.7l0,0
			C49,270.6,49,270.6,48.9,270.6z M45.6,270.1c-0.5,0-0.8-0.5-0.8-0.9l0,0c0.1-0.5,0.5-0.8,0.9-0.7l0,0c0.5,0.1,0.8,0.5,0.7,0.9l0,0
			C46.5,269.8,46.1,270.1,45.6,270.1L45.6,270.1C45.7,270.1,45.7,270.1,45.6,270.1z M31.4,269.3c-0.1-0.5,0.3-0.9,0.7-0.9l0,0
			c0.5-0.1,0.9,0.3,0.9,0.7l0,0c0.1,0.5-0.3,0.9-0.7,0.9l0,0h-0.1l0,0C31.8,270,31.4,269.7,31.4,269.3z M42.3,269.8
			c-0.5,0-0.8-0.4-0.8-0.9l0,0c0-0.5,0.4-0.8,0.9-0.8l0,0c0.5,0,0.8,0.4,0.8,0.9l0,0C43.2,269.5,42.8,269.8,42.3,269.8L42.3,269.8
			L42.3,269.8z M34.7,269c0-0.5,0.3-0.9,0.8-0.9l0,0c0.5,0,0.9,0.3,0.9,0.8l0,0c0,0.5-0.3,0.9-0.8,0.9l0,0c0,0,0,0-0.1,0l0,0
			C35.1,269.8,34.8,269.4,34.7,269z M39,269.7c-0.5,0-0.8-0.4-0.8-0.9l0,0c0-0.5,0.4-0.8,0.9-0.8l0,0c0.5,0,0.8,0.4,0.8,0.9l0,0
			C39.8,269.3,39.4,269.7,39,269.7L39,269.7L39,269.7z"/>
	</g>
	<path class="st7" d="M28.8,291.7c1.2,0,2.2-1,2.2-2.2v-1.4c0-1.2-1-2.2-2.2-2.2s-2.2,1-2.2,2.2v1.4
		C26.6,290.7,27.6,291.7,28.8,291.7z"/>
	<path class="st7" d="M41.2,291.7c1.2,0,2.2-1,2.2-2.2v-1.4c0-1.2-1-2.2-2.2-2.2s-2.2,1-2.2,2.2v1.4C39.1,290.7,40,291.7,41.2,291.7
		z"/>
	<path class="st7" d="M54,291.7c1.2,0,2.2-1,2.2-2.2V288c0-1.2-1-2.2-2.2-2.2s-2.2,1-2.2,2.2v1.5C51.8,290.7,52.8,291.7,54,291.7z"
		/>
	<path class="st8" d="M41,293.2c2,0,3.7-1.6,3.7-3.7v-1.4c0-2-1.6-3.7-3.7-3.7c-2,0-3.7,1.6-3.7,3.7v1.4
		C37.3,291.6,39,293.2,41,293.2z M38.9,288.1c0-1.2,1-2.2,2.2-2.2s2.2,1,2.2,2.2v1.4c0,1.2-1,2.2-2.2,2.2s-2.2-1-2.2-2.2V288.1z"/>
	<path class="st8" d="M54,293.2c2,0,3.7-1.7,3.7-3.7V288c0-2-1.6-3.7-3.7-3.7c-2,0-3.7,1.6-3.7,3.7v1.5
		C50.3,291.6,51.9,293.2,54,293.2z M51.8,288.1c0-1.2,1-2.2,2.2-2.2s2.2,1,2.2,2.2v1.5c0,1.2-1,2.2-2.2,2.2s-2.2-1-2.2-2.2V288.1z"
		/>
	<path class="st8" d="M58.8,296.2c-0.1-0.3-0.4-0.5-0.7-0.5h-8.8v1.5h8.2l1.5,3.9l1.8-0.1L58.8,296.2z"/>
	<path class="st8" d="M23.7,296.2c0.1-0.3,0.4-0.5,0.7-0.5H33v1.5h-8.1l-3.3,9l2.7,2.3c0.2,0.1,0.2,0.3,0.3,0.5l1.7,8.4l-1.5,0.9
		l-1.7-8.8l-2.9-2.4c-0.2-0.2-0.3-0.5-0.2-0.9L23.7,296.2z"/>
	<path class="st8" d="M28.8,293.2c2,0,3.7-1.6,3.7-3.7v-1.4c0-2-1.6-3.7-3.7-3.7c-2,0-3.7,1.6-3.7,3.7v1.4
		C25.1,291.6,26.7,293.2,28.8,293.2z M26.6,288.1c0-1.2,1-2.2,2.2-2.2s2.2,1,2.2,2.2v1.4c0,1.2-1,2.2-2.2,2.2s-2.2-1-2.2-2.2V288.1z
		"/>
	<path class="st8" d="M35.5,309.4l-3-2.4c-0.2-0.2-0.3-0.5-0.2-0.9l3.7-10c0.1-0.3,0.3-0.5,0.6-0.5l0,0h0.1h8.7h0.1l0,0
		c0.3,0,0.5,0.2,0.6,0.5l3.7,10c0.1,0.3,0,0.6-0.2,0.9l-3,2.4l-0.7,6l-1.5-1.2l0.7-5.3c0-0.2,0.1-0.4,0.3-0.5l2.8-2.3l-3.3-9h-7.6
		l-3.3,9l2.8,2.3"/>
	<g class="st5">
		<path class="st9" d="M62.9,306.4v0.1V306.4z"/>
		<path class="st2" d="M58.6,305l0.2,1.8l3.2-0.3l-15.9,13l-8.6-5.5l-13.2,8l1,1.5l12.2-7.3l8.7,5.5l16.6-13.5l-0.3,2.5l1.8,0.2
			l0.7-6.5L58.6,305z M62.9,306.4L62.9,306.4L62.9,306.4L62.9,306.4z"/>
	</g>
</g>
</svg>
