<?xml version="1.0" encoding="utf-8"?>
<!-- Generator: Adobe Illustrator 22.1.0, SVG Export Plug-In . SVG Version: 6.00 Build 0)  -->
<svg version="1.1" id="Livello_1" xmlns="http://www.w3.org/2000/svg" xmlns:xlink="http://www.w3.org/1999/xlink" x="0px" y="0px"
	 viewBox="0 0 88 86" style="enable-background:new 0 0 88 86;" xml:space="preserve">
<style type="text/css">
	.st0{fill:#CEBB95;}
	.st1{fill:#000099;}
	.st2{fill:#FFFFFF;}
</style>
<g>
	<circle class="st0" cx="42.7" cy="43.6" r="33.5"/>
</g>
<g>
	<path class="st1" d="M38.5,80c0-0.5,0.4-0.8,0.8-0.9l0,0c0.5,0,0.8,0.4,0.8,0.8l0,0c0,0.5-0.4,0.8-0.8,0.9l0,0l0,0l0,0
		C38.9,80.9,38.5,80.5,38.5,80z M35.9,80.8L35.9,80.8c-0.5,0-0.8-0.4-0.8-0.9l0,0c0-0.5,0.4-0.8,0.9-0.8l0,0c0.5,0,0.8,0.4,0.8,0.9
		l0,0C36.8,80.4,36.4,80.8,35.9,80.8L35.9,80.8C35.9,80.8,35.9,80.8,35.9,80.8z M41.9,79.9c0-0.5,0.3-0.9,0.8-0.9l0,0
		c0.5,0,0.9,0.3,0.9,0.8l0,0c0,0.5-0.3,0.9-0.8,0.9l0,0c0,0,0,0-0.1,0l0,0C42.3,80.7,41.9,80.4,41.9,79.9z M32.5,80.4
		c-0.5-0.1-0.8-0.5-0.7-1l0,0c0.1-0.5,0.5-0.8,1-0.7l0,0c0.5,0.1,0.8,0.5,0.7,1l0,0c-0.1,0.4-0.4,0.7-0.8,0.7l0,0
		C32.6,80.4,32.5,80.4,32.5,80.4z M45.2,79.7c-0.1-0.5,0.3-0.9,0.7-0.9l0,0c0.5,0,0.9,0.3,0.9,0.7l0,0c0.1,0.5-0.3,0.9-0.7,0.9l0,0
		c0,0-0.1,0-0.1,0l0,0C45.6,80.4,45.3,80.1,45.2,79.7z M48.6,79.2c-0.1-0.5,0.3-0.9,0.7-1l0,0c0.5-0.1,0.9,0.3,1,0.7l0,0
		c0.1,0.5-0.3,0.9-0.7,1l0,0c0,0-0.1,0-0.1,0l0,0C49,80,48.6,79.7,48.6,79.2z M29.1,79.7c-0.4-0.1-0.7-0.6-0.6-1l0,0
		c0.1-0.5,0.6-0.7,1-0.6l0,0c0,0,0,0,0,0l0,0c0.5,0.1,0.7,0.6,0.6,1l0,0c-0.1,0.4-0.4,0.6-0.8,0.6l0,0
		C29.3,79.8,29.2,79.8,29.1,79.7z M51.9,78.7c-0.1-0.5,0.2-0.9,0.7-1l0,0c0.4-0.1,0.9,0.2,1,0.7l0,0c0.1,0.4-0.2,0.9-0.7,1l0,0
		c0,0-0.1,0-0.1,0l0,0C52.3,79.4,52,79.1,51.9,78.7z M25.8,78.7c-0.4-0.2-0.7-0.6-0.5-1.1l0,0c0.2-0.4,0.6-0.7,1.1-0.5l0,0
		c0.4,0.2,0.7,0.7,0.5,1.1l0,0c-0.1,0.3-0.5,0.5-0.8,0.5l0,0C26,78.8,25.9,78.8,25.8,78.7z M55.2,78c-0.1-0.5,0.2-0.9,0.6-1l0,0
		c0.5-0.1,0.9,0.2,1,0.6l0,0c0.1,0.5-0.2,0.9-0.6,1l0,0c-0.1,0-0.1,0-0.2,0l0,0C55.6,78.7,55.3,78.4,55.2,78z M58.5,77.2
		c-0.1-0.4,0.1-0.9,0.6-1l0,0c0.4-0.1,0.9,0.1,1,0.6l0,0c0.1,0.5-0.1,0.9-0.6,1.1l0,0c-0.1,0-0.2,0-0.2,0l0,0
		C58.9,77.8,58.6,77.6,58.5,77.2z M22.6,77.4c-0.4-0.2-0.6-0.7-0.4-1.1l0,0c0.2-0.4,0.7-0.6,1.1-0.4l0,0c0.4,0.2,0.6,0.7,0.4,1.1
		l0,0c-0.2,0.3-0.5,0.5-0.8,0.5l0,0C22.9,77.4,22.8,77.4,22.6,77.4z M61.7,76.2c-0.2-0.4,0.1-0.9,0.5-1.1l0,0
		c0.4-0.2,0.9,0.1,1.1,0.5l0,0c0.2,0.4-0.1,0.9-0.5,1.1h0c-0.1,0-0.2,0.1-0.3,0.1l0,0C62.1,76.8,61.8,76.6,61.7,76.2z M19.6,75.6
		c-0.4-0.3-0.5-0.8-0.2-1.2l0,0c0.3-0.4,0.8-0.5,1.2-0.2l0,0c0.4,0.3,0.5,0.8,0.2,1.2l0,0c-0.2,0.3-0.4,0.4-0.7,0.4l0,0
		C19.9,75.8,19.8,75.7,19.6,75.6z M64.8,75c-0.2-0.4,0-0.9,0.4-1.1l0,0c0.4-0.2,0.9,0,1.1,0.4l0,0c0.2,0.4,0,0.9-0.4,1.1l0,0
		c-0.1,0-0.2,0.1-0.3,0.1l0,0C65.3,75.5,65,75.3,64.8,75z M67.8,73.5c-0.2-0.4-0.1-0.9,0.3-1.1l0,0c0.4-0.2,0.9-0.1,1.1,0.3l0,0
		c0.2,0.4,0.1,0.9-0.3,1.1l0,0c-0.1,0.1-0.3,0.1-0.4,0.1l0,0C68.3,74,68,73.8,67.8,73.5z M16.9,73.5c-0.4-0.3-0.4-0.8-0.1-1.2l0,0
		c0.3-0.3,0.8-0.4,1.2-0.1l0,0c0.4,0.3,0.4,0.8,0.1,1.2l0,0c-0.2,0.2-0.4,0.3-0.6,0.3l0,0C17.2,73.7,17,73.7,16.9,73.5z M70.7,71.8
		c-0.3-0.4-0.2-0.9,0.2-1.2l0,0c0.4-0.3,0.9-0.2,1.2,0.2l0,0c0.3,0.4,0.2,0.9-0.2,1.2l0,0c-0.1,0.1-0.3,0.2-0.5,0.2l0,0
		C71.1,72.1,70.9,72,70.7,71.8z M14.4,71.1c-0.3-0.3-0.3-0.9,0.1-1.2l0,0c0.4-0.3,0.9-0.3,1.2,0l0,0c0.3,0.3,0.3,0.9,0,1.2l0,0
		c-0.2,0.1-0.4,0.2-0.6,0.2l0,0C14.8,71.4,14.5,71.3,14.4,71.1z M73.4,69.7c-0.3-0.3-0.3-0.9,0-1.2l0,0c0.3-0.3,0.9-0.3,1.2,0l0,0
		c0.3,0.3,0.3,0.9,0,1.2l0,0C74.4,69.9,74.2,70,74,70l0,0C73.8,70,73.5,69.9,73.4,69.7z M12.2,68.5c-0.3-0.4-0.2-0.9,0.2-1.2l0,0
		c0.4-0.3,0.9-0.2,1.2,0.2l0,0c0.3,0.4,0.2,0.9-0.2,1.2l0,0c-0.1,0.1-0.3,0.2-0.5,0.2l0,0C12.6,68.8,12.3,68.7,12.2,68.5z
		 M75.7,67.3c-0.4-0.3-0.4-0.8-0.1-1.2l0,0c0.3-0.4,0.8-0.4,1.2-0.1l0,0c0.4,0.3,0.4,0.8,0.1,1.2l0,0c-0.2,0.2-0.4,0.3-0.7,0.3l0,0
		C76.1,67.5,75.9,67.4,75.7,67.3z M10.3,65.6c-0.2-0.4-0.1-0.9,0.3-1.2l0,0c0.4-0.2,0.9-0.1,1.2,0.3l0,0c0,0,0,0,0,0l0,0
		c0.2,0.4,0.1,0.9-0.3,1.1l0,0C11.3,65.9,11.1,66,11,66l0,0C10.7,66,10.4,65.8,10.3,65.6z M77.7,64.6c-0.4-0.2-0.5-0.8-0.3-1.2l0,0
		l0,0l0,0c0.2-0.4,0.8-0.5,1.2-0.3l0,0c0.4,0.2,0.5,0.8,0.3,1.1l0,0c-0.2,0.3-0.4,0.4-0.7,0.4l0,0C78,64.8,77.9,64.7,77.7,64.6z
		 M8.6,62.6c-0.2-0.4,0-0.9,0.4-1.1l0,0c0.4-0.2,0.9,0,1.1,0.4l0,0c0.2,0.4,0,0.9-0.4,1.1l0,0C9.6,63,9.5,63,9.4,63l0,0
		C9.1,63,8.8,62.9,8.6,62.6z M79.4,61.7c-0.4-0.2-0.6-0.7-0.4-1.1l0,0c0.2-0.4,0.7-0.6,1.1-0.4l0,0c0.4,0.2,0.6,0.7,0.4,1.1l0,0
		c-0.1,0.3-0.4,0.5-0.8,0.5l0,0C79.6,61.8,79.5,61.7,79.4,61.7z M7.2,59.5c-0.1-0.2-0.1-0.3-0.1-0.5l0,0c-0.1-0.1-0.2-0.2-0.3-0.4
		l0,0c-0.2-0.4,0-0.9,0.4-1.1l0,0c0.4-0.2,0.9,0,1.1,0.5l0,0c0.1,0.1,0.1,0.3,0.1,0.4l0,0c0.1,0.1,0.2,0.2,0.3,0.3l0,0
		c0.2,0.4,0,0.9-0.4,1.1l0,0C8.2,60,8,60,7.9,60l0,0C7.6,60,7.3,59.8,7.2,59.5z M80.6,58.5c-0.5-0.1-0.7-0.6-0.6-1l0,0
		c0.1-0.5,0.6-0.7,1.1-0.6l0,0c0.4,0.1,0.7,0.6,0.6,1.1l0,0c-0.1,0.4-0.4,0.6-0.8,0.6l0,0C80.7,58.6,80.7,58.6,80.6,58.5z M5.6,55.4
		c-0.1-0.4,0.1-0.9,0.6-1l0,0c0.4-0.1,0.9,0.1,1,0.5l0,0c0.1,0.4-0.1,0.9-0.5,1.1l0,0c-0.1,0-0.2,0-0.3,0l0,0
		C6.1,56,5.7,55.8,5.6,55.4z M81.4,55.3c-0.5-0.1-0.8-0.5-0.7-1l0,0l0,0l0,0c0.1-0.5,0.5-0.8,1-0.7l0,0c0.4,0.1,0.8,0.5,0.7,1l0,0
		c-0.1,0.4-0.4,0.7-0.8,0.7l0,0C81.5,55.3,81.5,55.3,81.4,55.3z M4.7,52.1c-0.1-0.5,0.2-0.9,0.6-1l0,0c0.5-0.1,0.9,0.2,1,0.6l0,0
		c0.1,0.5-0.2,0.9-0.6,1l0,0c-0.1,0-0.1,0-0.2,0l0,0C5.1,52.8,4.8,52.5,4.7,52.1z M82,52c-0.5,0-0.8-0.4-0.8-0.9l0,0l0,0l0,0
		c0-0.5,0.5-0.8,0.9-0.8l0,0c0.5,0,0.8,0.5,0.8,0.9l0,0C82.8,51.6,82.5,52,82,52L82,52C82,52,82,52,82,52z M4,48.8
		c-0.1-0.5,0.2-0.9,0.7-1l0,0c0.5-0.1,0.9,0.2,1,0.7l0,0c0.1,0.5-0.2,0.9-0.7,1l0,0c-0.1,0-0.1,0-0.1,0l0,0
		C4.4,49.4,4.1,49.2,4,48.8z M82.2,48.6c-0.5,0-0.8-0.4-0.8-0.9l0,0l0,0l0,0c0-0.5,0.4-0.8,0.9-0.8l0,0c0.5,0,0.8,0.4,0.8,0.9l0,0
		C83.1,48.3,82.7,48.6,82.2,48.6L82.2,48.6C82.2,48.6,82.2,48.6,82.2,48.6z M3.6,45.4c0-0.5,0.3-0.9,0.8-0.9l0,0
		c0.5,0,0.9,0.3,0.9,0.8l0,0c0,0.5-0.3,0.9-0.8,0.9l0,0c0,0-0.1,0-0.1,0l0,0C4,46.1,3.6,45.8,3.6,45.4z M81.4,44.4L81.4,44.4
		L81.4,44.4c0-0.5,0.3-0.9,0.8-0.9l0,0c0.5,0,0.9,0.3,0.9,0.8l0,0c0,0.5-0.3,0.9-0.8,0.9l0,0c0,0,0,0,0,0l0,0
		C81.8,45.3,81.4,44.9,81.4,44.4z M3.3,41.9c0-0.5,0.4-0.9,0.8-0.9l0,0C4.6,41,5,41.4,5,41.9l0,0c0,0.5-0.4,0.9-0.8,0.9l0,0
		c0,0,0,0,0,0l0,0C3.7,42.8,3.4,42.4,3.3,41.9z M81.1,41.1c0-0.5,0.3-0.9,0.8-0.9l0,0c0.5,0,0.9,0.3,0.9,0.8l0,0
		c0,0.5-0.3,0.9-0.8,0.9l0,0c0,0-0.1,0-0.1,0l0,0C81.5,41.9,81.2,41.6,81.1,41.1z M4.2,39.4c-0.5,0-0.8-0.4-0.8-0.9l0,0
		c0-0.5,0.4-0.8,0.9-0.8l0,0c0.5,0,0.8,0.4,0.8,0.9l0,0C5,39,4.7,39.4,4.2,39.4L4.2,39.4C4.2,39.4,4.2,39.4,4.2,39.4z M80.7,37.8
		c-0.1-0.5,0.3-0.9,0.7-1l0,0c0.5-0.1,0.9,0.3,0.9,0.7l0,0c0.1,0.5-0.3,0.9-0.7,1l0,0c0,0-0.1,0-0.1,0l0,0
		C81.2,38.5,80.8,38.2,80.7,37.8z M4.4,36c-0.5-0.1-0.8-0.5-0.7-0.9l0,0c0.1-0.5,0.5-0.8,0.9-0.7l0,0c0.5,0.1,0.8,0.5,0.7,0.9l0,0
		C5.3,35.7,4.9,36,4.5,36l0,0C4.5,36,4.4,36,4.4,36z M80.2,34.5c-0.1-0.5,0.2-0.9,0.6-1l0,0c0.5-0.1,0.9,0.2,1,0.6h0
		c0.1,0.5-0.2,0.9-0.6,1l0,0c-0.1,0-0.1,0-0.2,0l0,0C80.6,35.2,80.3,34.9,80.2,34.5z M4.9,32.7c-0.5-0.1-0.7-0.6-0.6-1l0,0
		c0.1-0.4,0.5-0.7,1-0.6l0,0c0.4,0.1,0.7,0.5,0.6,1l0,0c-0.1,0.4-0.4,0.7-0.8,0.7l0,0C5,32.7,4.9,32.7,4.9,32.7z M79.4,31.4
		L79.4,31.4L79.4,31.4c-0.1-0.4,0.1-0.9,0.6-1l0,0c0.4-0.1,0.9,0.1,1,0.5l0,0c0.1,0.4-0.1,0.9-0.5,1.1l0,0c-0.1,0-0.2,0-0.3,0l0,0
		C79.8,31.9,79.5,31.7,79.4,31.4z M5.7,29.4c-0.4-0.1-0.7-0.6-0.5-1.1l0,0c0.1-0.5,0.6-0.7,1.1-0.5l0,0c0.4,0.1,0.7,0.6,0.5,1.1l0,0
		c-0.1,0.4-0.5,0.6-0.8,0.6l0,0C5.9,29.5,5.8,29.4,5.7,29.4z M78.2,28.3c-0.2-0.4,0-0.9,0.5-1.1l0,0c0.4-0.2,0.9,0,1.1,0.4l0,0
		c0.2,0.4,0,0.9-0.5,1.1l0,0c-0.1,0.1-0.2,0.1-0.3,0.1l0,0C78.7,28.8,78.4,28.6,78.2,28.3z M6.8,26.2c-0.4-0.2-0.6-0.7-0.4-1.1l0,0
		c0.2-0.4,0.7-0.6,1.1-0.4l0,0c0.4,0.2,0.6,0.7,0.4,1.1l0,0c-0.1,0.3-0.5,0.5-0.8,0.5l0,0C7,26.3,6.9,26.3,6.8,26.2z M76.8,25.3
		L76.8,25.3L76.8,25.3c-0.2-0.4-0.1-0.9,0.4-1.1l0,0c0.4-0.2,0.9-0.1,1.1,0.3l0,0c0.2,0.4,0.1,0.9-0.4,1.1l0,0
		c-0.1,0.1-0.3,0.1-0.4,0.1l0,0C77.3,25.8,77,25.6,76.8,25.3z M8.2,23.2C7.8,23,7.7,22.4,7.9,22l0,0c0.2-0.4,0.8-0.5,1.2-0.3l0,0
		c0.4,0.2,0.5,0.8,0.3,1.1l0,0c-0.1,0.3-0.4,0.4-0.7,0.4l0,0C8.5,23.3,8.4,23.3,8.2,23.2z M75.1,22.5c-0.3-0.4-0.2-0.9,0.2-1.2l0,0
		c0.4-0.3,0.9-0.2,1.2,0.2l0,0c0.3,0.4,0.1,0.9-0.2,1.2l0,0c-0.1,0.1-0.3,0.1-0.5,0.1l0,0C75.6,22.9,75.3,22.7,75.1,22.5z M10,20.3
		c-0.4-0.3-0.5-0.8-0.2-1.2l0,0c0.3-0.4,0.8-0.5,1.2-0.2l0,0c0.4,0.3,0.5,0.8,0.2,1.2l0,0c-0.2,0.2-0.4,0.4-0.7,0.4l0,0
		C10.3,20.5,10.1,20.4,10,20.3z M73.2,19.9c-0.3-0.4-0.3-0.9,0.1-1.2l0,0c0.4-0.3,0.9-0.3,1.2,0.1l0,0c0.3,0.4,0.3,0.9-0.1,1.2l0,0
		c-0.2,0.1-0.3,0.2-0.5,0.2l0,0C73.6,20.2,73.3,20.1,73.2,19.9z M12,17.6c-0.4-0.3-0.4-0.9-0.1-1.2l0,0c0.3-0.4,0.8-0.4,1.2-0.1l0,0
		c0.3,0.3,0.4,0.9,0.1,1.2l0,0c0,0,0,0,0,0l0,0c-0.2,0.2-0.4,0.3-0.6,0.3l0,0C12.4,17.9,12.2,17.8,12,17.6z M70.9,17.5
		c-0.3-0.3-0.3-0.9,0-1.2l0,0c0.3-0.3,0.9-0.3,1.2,0l0,0c0.3,0.3,0.4,0.8,0,1.2l0,0c-0.2,0.2-0.4,0.3-0.6,0.3l0,0
		C71.3,17.7,71.1,17.6,70.9,17.5z M68.5,15.3c-0.4-0.3-0.4-0.8-0.1-1.2l0,0c0.3-0.4,0.8-0.4,1.2-0.1l0,0c0.4,0.3,0.4,0.8,0.1,1.2
		l0,0c-0.2,0.2-0.4,0.3-0.7,0.3l0,0C68.8,15.5,68.6,15.4,68.5,15.3z M14.4,15.2c-0.3-0.3-0.3-0.9,0.1-1.2v0c0.4-0.3,0.9-0.3,1.2,0
		l0,0c0.3,0.4,0.3,0.9-0.1,1.2l0,0c-0.2,0.1-0.4,0.2-0.6,0.2l0,0C14.8,15.5,14.5,15.4,14.4,15.2z M65.8,13.4L65.8,13.4L65.8,13.4
		c-0.4-0.3-0.5-0.8-0.3-1.2l0,0c0.3-0.4,0.8-0.5,1.2-0.3l0,0c0.4,0.2,0.5,0.8,0.3,1.2l0,0c-0.2,0.3-0.4,0.4-0.7,0.4l0,0
		C66.1,13.6,65.9,13.5,65.8,13.4z M16.9,13c-0.3-0.4-0.2-0.9,0.2-1.2l0,0c0.4-0.3,0.9-0.2,1.2,0.2l0,0c0.3,0.4,0.2,0.9-0.2,1.2l0,0
		c0,0,0,0,0,0l0,0c-0.1,0.1-0.3,0.1-0.5,0.1l0,0C17.3,13.4,17.1,13.2,16.9,13z M62.9,11.9L62.9,11.9L62.9,11.9
		c-0.4-0.2-0.6-0.7-0.4-1.1l0,0c0.2-0.4,0.7-0.6,1.1-0.4l0,0c0.4,0.2,0.6,0.7,0.4,1.1l0,0c-0.1,0.3-0.4,0.5-0.8,0.5l0,0
		C63.1,11.9,63,11.9,62.9,11.9z M19.8,11.2c-0.2-0.4,0-0.9,0.4-1.1l0,0c0.4-0.2,0.9,0,1.1,0.4l0,0c0.2,0.4,0,0.9-0.4,1.1l0,0
		c-0.1,0-0.2,0.1-0.4,0.1l0,0C20.2,11.7,19.9,11.5,19.8,11.2z M59.9,10.6c-0.4-0.2-0.6-0.7-0.5-1.1l0,0C59.5,9,60,8.8,60.5,9l0,0
		c0.4,0.2,0.7,0.6,0.5,1.1l0,0c-0.1,0.3-0.4,0.5-0.8,0.5l0,0C60.1,10.6,60,10.6,59.9,10.6z M22.9,9.9c-0.1-0.4,0.1-0.9,0.5-1.1l0,0
		c0.4-0.1,0.9,0.1,1.1,0.5l0,0c0.1,0.5-0.1,0.9-0.5,1.1l0,0c-0.1,0-0.2,0-0.3,0l0,0C23.3,10.4,23,10.2,22.9,9.9z M56.8,9.5
		c-0.4-0.1-0.7-0.6-0.6-1l0,0c0.1-0.5,0.6-0.7,1-0.6l0,0c0.5,0.1,0.7,0.6,0.6,1l0,0c-0.1,0.4-0.4,0.6-0.8,0.6l0,0
		C56.9,9.6,56.8,9.6,56.8,9.5z M26.1,8.9c-0.1-0.5,0.2-0.9,0.6-1l0,0c0.5-0.1,0.9,0.2,1,0.6l0,0c0.1,0.5-0.2,0.9-0.6,1l0,0
		c-0.1,0-0.1,0-0.2,0l0,0C26.5,9.5,26.2,9.3,26.1,8.9z M29.4,8.2c-0.1-0.5,0.2-0.9,0.7-1l0,0c0.5-0.1,0.9,0.2,1,0.7l0,0
		c0.1,0.5-0.2,0.9-0.7,1l0,0c0,0,0,0,0,0l0,0c0,0-0.1,0-0.1,0l0,0C29.8,8.9,29.4,8.6,29.4,8.2z M53.5,8.8c-0.5-0.1-0.8-0.5-0.7-1
		l0,0c0.1-0.5,0.5-0.8,1-0.7l0,0c0.5,0.1,0.8,0.5,0.7,1l0,0c-0.1,0.4-0.4,0.7-0.8,0.7l0,0C53.6,8.8,53.6,8.8,53.5,8.8z M32.7,7.7
		c0-0.5,0.3-0.9,0.8-0.9l0,0c0.5,0,0.9,0.3,0.9,0.8l0,0c0.1,0.5-0.3,0.9-0.8,0.9l0,0c0,0-0.1,0-0.1,0l0,0
		C33.1,8.5,32.8,8.2,32.7,7.7z M50.3,8.3c-0.5-0.1-0.8-0.5-0.7-0.9l0,0c0-0.5,0.5-0.8,0.9-0.7l0,0c0.5,0.1,0.8,0.5,0.7,0.9l0,0
		c-0.1,0.4-0.4,0.8-0.8,0.8l0,0C50.3,8.3,50.3,8.3,50.3,8.3z M36.1,7.4c0-0.5,0.3-0.9,0.8-0.9l0,0c0.5,0,0.9,0.3,0.9,0.8l0,0
		c0,0.5-0.3,0.9-0.8,0.9l0,0c0,0,0,0,0,0l0,0C36.5,8.2,36.1,7.9,36.1,7.4z M39.4,7.3c0-0.5,0.4-0.9,0.8-0.9l0,0
		c0.5,0,0.9,0.4,0.9,0.8l0,0c0,0.5-0.4,0.9-0.8,0.9l0,0c0,0,0,0,0,0l0,0C39.8,8.1,39.5,7.7,39.4,7.3z M47,8c-0.5,0-0.8-0.4-0.8-0.9
		l0,0c0-0.5,0.4-0.8,0.9-0.8l0,0c0.5,0,0.8,0.4,0.8,0.9l0,0C47.8,7.7,47.5,8,47,8L47,8C47,8,47,8,47,8z M42.8,7.1
		c0-0.5,0.4-0.8,0.8-0.8l0,0c0.5,0,0.8,0.4,0.9,0.8l0,0c0,0.5-0.4,0.9-0.8,0.9l0,0h0l0,0C43.2,8,42.8,7.6,42.8,7.1z"/>
</g>
<g>
	<path class="st2" d="M49.4,64.8l-4.9-5.4c-0.1-0.1-0.1-0.1-0.1-0.2L42,53.3c-0.3-0.4-1.9-3.1-3.6-5.9c-0.9-1.5-1.8-3-2.5-4.1
		c-0.3-0.6-0.6-1-0.8-1.3c-0.1-0.1-0.2-0.3-0.2-0.4c-0.4-0.6-0.6-1.5-0.6-1.8c-0.2-1.3,0.5-2.4,1.7-3.1c1-0.5,2.9-1,4.6,1.4
		c0.5,0.7,4.5,6.7,6.2,9.3c0.4-0.5,0.9-0.9,1.6-1.2c1.2-0.5,2.2-0.2,2.9,0.2c0.3-0.5,0.9-1.1,1.9-1.6c1.4-0.7,2.6-0.4,3.5,0.2
		c0.4-0.5,0.9-1,1.8-1.3c1.9-0.7,3.4,0.8,3.9,1.9c0,0.1,0.6,1.1,1.9,3.6L62.8,50c-0.7-1.3-1.8-3.4-1.9-3.7c0,0-0.7-1.4-1.8-1
		c-1.2,0.5-1.3,1.2-1.3,1.2c0,0.4-0.2,0.7-0.6,0.8c-0.4,0.1-0.7,0-1-0.3c-0.2-0.2-1-1.3-2.4-0.6c-1.4,0.7-1.4,1.5-1.3,1.6
		c0.1,0.4-0.1,0.8-0.5,0.9c-0.4,0.1-0.8,0-1-0.4c-0.1-0.2-0.8-1.2-2-0.7c-0.9,0.4-1.3,1.5-1.3,1.5c-0.1,0.3-0.4,0.6-0.7,0.6
		c-0.3,0.1-0.6-0.1-0.8-0.4c-0.1-0.1-6.3-9.5-7-10.4c-1-1.4-1.8-1.2-2.4-0.9c-0.5,0.2-0.7,0.5-0.8,0.9c-0.1,0.5,0.1,1.1,0.3,1.5
		c0.1,0.1,0.2,0.3,0.3,0.5c1,1.6,4.5,7.4,6.9,11.4c0,0,0,0.1,0.1,0.1l2.4,5.8l4.8,5.3L49.4,64.8z M36.7,49.7c-4.1,0-7.8-1.1-9.6-2.9
		c-1.8-1.8-2.9-5.5-2.9-9.6c0-4.1,1.1-7.8,2.9-9.6c1.8-1.8,5.5-2.9,9.6-2.9s7.8,1.1,9.6,2.9c2.7,2.7,3.4,9,2.6,13.4
		c-0.2,1.1-0.5,2.1-0.8,3l-1.6-0.6c0.3-0.8,0.6-1.7,0.7-2.6c0.9-4.7-0.1-9.9-2.1-12c-1.5-1.5-4.8-2.4-8.4-2.4s-6.9,0.9-8.4,2.4
		c-1.5,1.5-2.4,4.8-2.4,8.4s0.9,6.9,2.4,8.4c1.5,1.5,4.8,2.4,8.4,2.4V49.7z"/>
</g>
</svg>
