<?xml version="1.0" encoding="utf-8"?>
<!-- Generator: Adobe Illustrator 23.0.3, SVG Export Plug-In . SVG Version: 6.00 Build 0)  -->
<svg version="1.1" id="Livello_1" xmlns="http://www.w3.org/2000/svg" xmlns:xlink="http://www.w3.org/1999/xlink" x="0px" y="0px"
	 viewBox="0 0 80 80" style="enable-background:new 0 0 80 80;" xml:space="preserve">
<style type="text/css">
	.st0{fill:#FD6400;}
	.st1{fill:#000099;}
	.st2{fill:#FFFFFF;}
</style>
<g>
	<path class="st0" d="M74.8,40.9c0,18.9-15.3,34.2-34.2,34.2S6.3,59.8,6.3,40.9S21.6,6.7,40.6,6.7C59.3,6.6,74.8,22,74.8,40.9z"/>
</g>
<g>
	<g>
		<path class="st1" d="M36,78.9c0-0.5,0.4-0.8,0.8-0.9l0,0c0.5,0,0.9,0.4,0.9,0.8l0,0c0,0.5-0.4,0.9-0.8,0.9l0,0l0,0l0,0
			C36.5,79.6,36,79.3,36,78.9z M33.3,79.6c-0.5,0-0.8-0.4-0.8-0.9l0,0c0-0.5,0.4-0.8,0.9-0.8l0,0c0.5,0,0.8,0.4,0.8,0.9l0,0
			C34.3,79.2,33.9,79.6,33.3,79.6L33.3,79.6C33.4,79.6,33.4,79.6,33.3,79.6z M39.6,78.7c0-0.5,0.3-0.9,0.8-0.9l0,0
			c0.5,0,0.9,0.3,0.9,0.8l0,0c0,0.5-0.3,0.9-0.8,0.9l0,0c0,0,0,0-0.1,0l0,0C40,79.5,39.6,79.2,39.6,78.7z M29.8,79.3L29.8,79.3
			c-0.5-0.1-0.8-0.5-0.8-0.9l0,0c0-0.5,0.5-0.8,0.9-0.8l0,0c0.5,0.1,0.8,0.5,0.8,0.9l0,0C30.8,78.9,30.4,79.3,29.8,79.3L29.8,79.3
			C29.9,79.3,29.9,79.3,29.8,79.3z M42.9,78.4c0-0.5,0.3-0.9,0.8-0.9l0,0l0,0l0,0c0.5,0,0.9,0.3,0.9,0.8l0,0
			c0.1,0.5-0.3,0.9-0.8,0.9l0,0h-0.1l0,0C43.4,79.2,43.1,78.9,42.9,78.4z M26.3,78.9c-0.4-0.1-0.8-0.5-0.8-1.1l0,0
			c0.1-0.5,0.5-0.8,1.1-0.8l0,0c0.5,0.1,0.8,0.5,0.8,1.1l0,0c-0.1,0.4-0.4,0.8-0.8,0.8l0,0C26.4,78.9,26.4,78.9,26.3,78.9z M46.5,78
			c-0.1-0.5,0.3-0.9,0.8-1.1l0,0c0.5-0.1,0.9,0.3,1.1,0.8l0,0c0.1,0.5-0.3,0.9-0.8,1.1l0,0h-0.1l0,0C46.9,78.7,46.5,78.4,46.5,78z
			 M49.8,77.5c-0.1-0.5,0.2-0.9,0.8-1.1l0,0c0.5-0.1,0.9,0.2,1.1,0.8l0,0c0.1,0.5-0.2,0.9-0.8,1.1l0,0c-0.1,0-0.1,0-0.2,0l0,0
			C50.3,78.2,50,77.9,49.8,77.5z M22.9,77.9c-0.4-0.1-0.8-0.6-0.6-1.1l0,0c0.1-0.5,0.6-0.8,1.1-0.6l0,0c0.4,0.1,0.8,0.6,0.6,1.1l0,0
			c-0.1,0.4-0.4,0.6-0.8,0.6l0,0C23.1,78,23,78,22.9,77.9z M53.3,76.7c-0.1-0.5,0.2-0.9,0.6-1.1l0,0l0,0l0,0
			c0.4-0.1,0.9,0.2,1.1,0.6l0,0c0.1,0.5-0.2,0.9-0.6,1.1l0,0c-0.1,0-0.1,0-0.2,0l0,0C53.8,77.5,53.4,77.2,53.3,76.7z M19.5,76.7
			L19.5,76.7c-0.4-0.2-0.6-0.8-0.5-1.1l0,0c0.2-0.4,0.8-0.6,1.1-0.4l0,0c0.4,0.2,0.6,0.8,0.4,1.1l0,0c-0.1,0.3-0.4,0.5-0.8,0.5l0,0
			C19.8,76.9,19.7,76.7,19.5,76.7z M56.7,75.9c-0.1-0.4,0.1-0.9,0.6-1.1l0,0c0.4-0.1,0.9,0.1,1.1,0.6l0,0c0.1,0.5-0.1,0.9-0.6,1.1
			l0,0c-0.1,0-0.2,0-0.2,0l0,0C57.1,76.6,56.8,76.3,56.7,75.9z M60,74.9c-0.2-0.4,0.1-0.9,0.5-1.1l0,0c0.4-0.2,0.9,0.1,1.1,0.5l0,0
			c0.2,0.4-0.1,0.9-0.5,1.1l0,0c-0.1,0-0.2,0.1-0.3,0.1l0,0C60.4,75.5,60.1,75.3,60,74.9z M16.3,75.2c-0.4-0.2-0.6-0.8-0.3-1.1l0,0
			c0.2-0.4,0.8-0.5,1.1-0.3l0,0c0.4,0.2,0.6,0.8,0.3,1.1l0,0c-0.1,0.3-0.4,0.4-0.8,0.4l0,0C16.6,75.3,16.5,75.2,16.3,75.2z
			 M63.2,73.7c-0.2-0.4,0-0.9,0.4-1.1l0,0l0,0l0,0c0.4-0.2,0.9,0,1.1,0.4l0,0c0.2,0.4,0,0.9-0.4,1.1l0,0c-0.1,0.1-0.2,0.1-0.4,0.1
			l0,0C63.7,74.1,63.4,74,63.2,73.7z M13.3,73.2c-0.4-0.3-0.5-0.8-0.2-1.2l0,0c0.3-0.4,0.8-0.5,1.2-0.2l0,0c0.4,0.3,0.4,0.8,0.2,1.2
			l0,0c-0.2,0.2-0.4,0.4-0.8,0.4l0,0C13.6,73.3,13.5,73.3,13.3,73.2z M66.3,72c-0.3-0.4-0.1-0.9,0.2-1.2l0,0l0,0l0,0
			c0.4-0.3,0.9-0.1,1.2,0.2l0,0c0.3,0.4,0.1,0.9-0.2,1.2l0,0c-0.1,0.1-0.3,0.1-0.5,0.1l0,0C66.7,72.4,66.4,72.2,66.3,72z M10.6,70.9
			c-0.3-0.3-0.4-0.9,0-1.2l0,0c0.3-0.3,0.9-0.4,1.2,0l0,0c0.3,0.3,0.4,0.9,0,1.2l0,0c-0.2,0.2-0.4,0.3-0.6,0.3l0,0
			C10.9,71.2,10.7,71.1,10.6,70.9z M69.1,70c-0.3-0.4-0.3-0.9,0.1-1.2l0,0c0.4-0.3,0.9-0.3,1.2,0.1l0,0c0.3,0.3,0.3,0.9-0.1,1.2l0,0
			c-0.2,0.1-0.4,0.2-0.6,0.2l0,0C69.5,70.3,69.3,70.1,69.1,70z M8.1,68.3c-0.3-0.4-0.3-0.9,0.1-1.2l0,0c0.4-0.3,0.9-0.3,1.2,0.1l0,0
			l0,0l0,0c0.3,0.4,0.3,0.9-0.1,1.2l0,0c-0.2,0.1-0.4,0.2-0.5,0.2l0,0C8.6,68.6,8.3,68.6,8.1,68.3z M71.7,67.5
			c-0.4-0.3-0.4-0.8-0.1-1.2l0,0l0,0l0,0c0.3-0.4,0.8-0.4,1.2-0.1l0,0c0.4,0.3,0.4,0.8,0.1,1.2l0,0c-0.2,0.2-0.4,0.3-0.8,0.3l0,0
			C72,67.8,71.7,67.8,71.7,67.5z M6,65.5c-0.3-0.4-0.2-0.9,0.2-1.2l0,0c0.4-0.3,0.9-0.1,1.2,0.2l0,0c0.3,0.4,0.2,0.9-0.2,1.2l0,0
			c-0.1,0.1-0.3,0.1-0.5,0.1l0,0C6.3,65.9,6.2,65.7,6,65.5z M73.7,64.8c-0.4-0.2-0.5-0.8-0.3-1.1l0,0c0.2-0.4,0.8-0.5,1.1-0.3l0,0
			c0.4,0.2,0.5,0.8,0.3,1.1l0,0c-0.2,0.3-0.4,0.4-0.8,0.4l0,0C74,64.9,73.9,64.9,73.7,64.8z M4.1,62.4C3.8,62,4,61.4,4.4,61.2l0,0
			c0.4-0.2,0.9-0.1,1.1,0.3l0,0l0,0l0,0c0.2,0.4,0.1,0.9-0.3,1.1l0,0c-0.1,0.2-0.3,0.2-0.4,0.2l0,0C4.6,62.9,4.3,62.7,4.1,62.4z
			 M75.3,61.7c-0.4-0.2-0.6-0.8-0.5-1.1l0,0c0.2-0.4,0.8-0.6,1.1-0.5l0,0c0.4,0.2,0.6,0.6,0.5,1.1l0,0c-0.1,0.3-0.5,0.5-0.8,0.5l0,0
			C75.5,61.7,75.4,61.7,75.3,61.7z M2.5,59.3c-0.2-0.4,0-0.9,0.4-1.1l0,0c0.4-0.2,0.9,0,1.1,0.4l0,0l0,0l0,0c0.2,0.4,0,0.9-0.4,1.1
			l0,0c-0.1,0.1-0.2,0.1-0.4,0.1l0,0C3,59.8,2.6,59.6,2.5,59.3z M76.5,58.5c-0.5-0.1-0.8-0.6-0.6-1.1l0,0c0.1-0.5,0.6-0.8,1.1-0.6
			l0,0c0.5,0.1,0.8,0.6,0.6,1.1l0,0c-0.1,0.4-0.5,0.6-0.8,0.6l0,0C76.6,58.5,76.5,58.5,76.5,58.5z M1.4,56.5
			c-0.2-0.4,0.1-0.9,0.5-1.1l0,0c0.4-0.2,0.9,0.1,1.1,0.5l0,0C3.3,56.3,3,56.8,2.5,57l0,0c-0.1,0-0.2,0-0.3,0l0,0
			C1.9,57,1.5,56.8,1.4,56.5z M77.2,55.1c-0.5-0.1-0.8-0.5-0.8-1.1l0,0l0,0l0,0c0.1-0.5,0.5-0.8,1.1-0.8l0,0
			c0.5,0.1,0.8,0.5,0.8,1.1l0,0c-0.1,0.4-0.4,0.8-0.8,0.8l0,0C77.2,55.1,77.2,55.1,77.2,55.1z M0.3,53.1c-0.1-0.5,0.2-0.9,0.6-1.1
			l0,0c0.5-0.1,1,0.2,1.1,0.7l0,0c0.1,0.5-0.1,0.9-0.6,1l0,0c-0.1,0-0.1,0-0.2,0l0,0C0.8,53.7,0.4,53.5,0.3,53.1z M77.7,51.6
			c-0.5,0-0.8-0.4-0.8-0.9l0,0l0,0l0,0c0-0.5,0.4-0.8,0.9-0.8l0,0c0.5,0,0.8,0.4,0.8,0.9l0,0C78.5,51.3,78.2,51.6,77.7,51.6
			L77.7,51.6L77.7,51.6z M-0.4,49.6c-0.1-0.5,0.2-0.9,0.8-1.1l0,0c0.5-0.1,0.9,0.2,1.1,0.8l0,0c0.1,0.5-0.2,0.9-0.8,1.1l0,0
			c-0.1,0-0.1,0-0.2,0l0,0C0,50.3-0.3,50-0.4,49.6z M76.9,47.2c0-0.5,0.4-0.9,0.8-0.9l0,0c0.5,0,0.9,0.4,0.9,0.8l0,0
			c0,0.5-0.4,0.8-0.8,0.9l0,0l0,0l0,0C77.2,48.1,76.9,47.8,76.9,47.2z M-1,46.1c0-0.5,0.3-0.9,0.8-0.9l0,0c0.5,0,0.9,0.3,0.9,0.8
			l0,0l0,0l0,0c0,0.5-0.3,0.9-0.8,0.9l0,0h-0.1l0,0C-0.4,46.9-0.9,46.6-1,46.1z M76.7,43.8c0-0.5,0.3-0.9,0.8-0.9l0,0
			c0.5,0,0.9,0.3,0.9,0.8l0,0c0,0.5-0.3,0.9-0.8,0.9l0,0l0,0l0,0C77.1,44.6,76.8,44.3,76.7,43.8z M-0.1,43.3C-0.6,43.3-1,43-1,42.4
			l0,0c0-0.5,0.4-0.8,0.9-0.8l0,0c0.5,0,0.8,0.4,0.8,0.9l0,0C0.7,43,0.4,43.3-0.1,43.3L-0.1,43.3L-0.1,43.3z M76.5,40.4
			c0-0.5,0.3-0.9,0.8-0.9l0,0c0.5,0,0.9,0.3,0.9,0.8l0,0c0.1,0.5-0.3,0.9-0.8,0.9l0,0h-0.1l0,0C76.9,41.2,76.5,40.8,76.5,40.4z
			 M0,40c-0.5,0-0.8-0.4-0.8-0.9l0,0c0-0.5,0.4-0.8,0.9-0.8l0,0c0.5,0,0.8,0.4,0.8,0.9l0,0C0.9,39.5,0.5,40,0,40L0,40
			C0,40,0,40,0,40z M76.1,37c-0.1-0.5,0.3-0.9,0.8-1.1l0,0c0.5-0.1,0.9,0.3,1.1,0.8l0,0c0.1,0.5-0.3,0.9-0.8,0.9l0,0h-0.1l0,0
			C76.5,37.7,76.1,37.4,76.1,37z M0.3,36.4c-0.5-0.1-0.8-0.5-0.8-0.9l0,0c0.1-0.5,0.5-0.8,0.9-0.8l0,0c0.5,0.1,0.8,0.5,0.8,1.1l0,0
			c-0.1,0.4-0.4,0.8-0.8,0.8l0,0C0.4,36.4,0.3,36.4,0.3,36.4z M75.6,33.5L75.6,33.5L75.6,33.5c-0.1-0.5,0.2-0.9,0.8-1.1l0,0
			c0.5-0.1,0.9,0.2,1.1,0.8l0,0c0.1,0.5-0.2,0.9-0.8,1.1l0,0h-0.1l0,0C76,34.3,75.6,34,75.6,33.5z M0.8,33.1C0.3,33,0,32.6,0,32l0,0
			c0.1-0.4,0.5-0.8,1.1-0.8l0,0c0.5,0.1,0.8,0.5,0.8,1.1l0,0l0,0l0,0c-0.1,0.4-0.4,0.8-0.8,0.8l0,0C0.9,33.1,0.9,33.1,0.8,33.1z
			 M74.8,30.2c-0.1-0.5,0.2-0.9,0.6-1.1l0,0c0.5-0.1,0.9,0.2,1.1,0.6l0,0c0.1,0.4-0.2,0.9-0.6,1.1l0,0c-0.1,0-0.1,0-0.2,0l0,0
			C75.4,30.9,75,30.6,74.8,30.2z M1.5,29.7c-0.5-0.1-0.8-0.6-0.6-1.1l0,0C1,28.1,1.5,27.8,1.9,28l0,0c0.5,0.1,0.8,0.6,0.6,1.1l0,0
			c-0.1,0.4-0.4,0.6-0.8,0.6l0,0C1.7,29.7,1.6,29.7,1.5,29.7z M73.9,26.9c-0.1-0.4,0.1-0.9,0.5-1.1l0,0c0.4-0.1,0.9,0.1,1.1,0.5l0,0
			c0.1,0.4-0.1,0.9-0.5,1.1l0,0c-0.1,0-0.2,0-0.3,0l0,0C74.5,27.5,74,27.2,73.9,26.9z M2.5,26.2C2.2,26,1.8,25.6,2,25.1l0,0
			c0.1-0.4,0.6-0.8,1.1-0.5l0,0c0.4,0.2,0.8,0.6,0.5,1.1l0,0l0,0l0,0c-0.1,0.3-0.5,0.5-0.8,0.5l0,0C2.8,26.3,2.6,26.3,2.5,26.2z
			 M72.7,23.7c-0.2-0.4,0-0.9,0.4-1.1l0,0c0.4-0.2,0.9,0,1.1,0.4l0,0c0.2,0.4,0,0.9-0.4,1.1l0,0c-0.1,0-0.2,0.1-0.4,0.1l0,0
			C73.2,24.3,72.9,24,72.7,23.7z M3.8,23c-0.4-0.2-0.6-0.8-0.4-1.1l0,0c0.2-0.4,0.8-0.6,1.1-0.4l0,0c0.4,0.2,0.6,0.8,0.4,1.1l0,0
			c-0.1,0.3-0.5,0.5-0.8,0.5l0,0C4,23.1,3.9,23.1,3.8,23z M71.1,20.8c-0.2-0.4-0.1-0.9,0.3-1.1l0,0c0.4-0.2,0.9-0.1,1.1,0.3l0,0
			c0.2,0.4,0.1,0.9-0.3,1.2l0,0c-0.1,0.1-0.3,0.1-0.4,0.1l0,0C71.7,21.1,71.4,21.1,71.1,20.8z M5.4,19.9c-0.4-0.2-0.5-0.8-0.3-1.1
			l0,0c0.2-0.4,0.8-0.5,1.2-0.3l0,0c0.4,0.2,0.5,0.8,0.3,1.2l0,0c-0.2,0.3-0.4,0.4-0.8,0.4l0,0C5.7,20,5.5,20,5.4,19.9z M69.3,18
			L69.3,18L69.3,18c-0.3-0.4-0.2-0.9,0.1-1.2l0,0c0.4-0.3,0.9-0.2,1.2,0.2l0,0c0.3,0.4,0.2,0.9-0.1,1.2l0,0
			c-0.1,0.1-0.3,0.2-0.5,0.2l0,0C69.7,18.3,69.5,18.2,69.3,18z M7.2,17c-0.4-0.3-0.4-0.8-0.2-1.2l0,0c0.3-0.4,0.8-0.4,1.2-0.2l0,0
			c0.4,0.3,0.4,0.8,0.2,1.2l0,0l0,0l0,0C8.2,17,8,17.1,7.6,17.1l0,0C7.6,17.1,7.4,17.1,7.2,17z M67,15.5L67,15.5L67,15.5
			c-0.3-0.3-0.3-0.9,0-1.2l0,0c0.3-0.3,0.9-0.3,1.2,0l0,0c0.3,0.3,0.3,0.9,0,1.2l0,0c-0.2,0.2-0.4,0.2-0.6,0.2l0,0
			C67.4,15.7,67.2,15.6,67,15.5z M9.5,14.4c-0.3-0.3-0.3-0.9,0-1.2l0,0c0.3-0.3,0.9-0.3,1.2,0l0,0c0.3,0.3,0.3,0.9,0,1.2l0,0l0,0
			l0,0c-0.2,0.2-0.4,0.3-0.6,0.3l0,0C9.8,14.5,9.5,14.5,9.5,14.4z M64.5,13.2L64.5,13.2L64.5,13.2c-0.4-0.3-0.4-0.8-0.1-1.2l0,0
			c0.3-0.4,0.8-0.4,1.2-0.2l0,0c0.4,0.3,0.4,0.8,0.1,1.2l0,0c-0.2,0.2-0.4,0.3-0.8,0.3l0,0C64.8,13.4,64.7,13.3,64.5,13.2z M12,11.9
			c-0.3-0.4-0.2-0.9,0.1-1.2l0,0c0.4-0.3,0.9-0.2,1.2,0.1l0,0c0.3,0.4,0.2,0.9-0.1,1.2l0,0l0,0l0,0c-0.1,0.1-0.3,0.2-0.5,0.2l0,0
			C12.4,12.2,12.1,12.1,12,11.9z M61.8,11.3c-0.4-0.2-0.5-0.8-0.3-1.2l0,0c0.2-0.4,0.8-0.5,1.2-0.3l0,0c0.4,0.2,0.5,0.8,0.3,1.2l0,0
			c-0.2,0.3-0.4,0.4-0.8,0.4l0,0C62.1,11.5,61.8,11.3,61.8,11.3z M14.7,9.8c-0.2-0.4-0.1-0.9,0.3-1.1l0,0c0.4-0.3,0.9-0.1,1.2,0.3
			l0,0c0.2,0.4,0.1,0.9-0.3,1.2l0,0c-0.1,0.2-0.2,0.2-0.4,0.2l0,0C15.2,10.2,14.9,10.1,14.7,9.8z M58.7,9.7L58.7,9.7L58.7,9.7
			c-0.4-0.2-0.6-0.8-0.4-1.1l0,0c0.2-0.4,0.8-0.6,1.1-0.4l0,0c0.4,0.2,0.6,0.8,0.4,1.1l0,0c-0.1,0.3-0.4,0.5-0.8,0.5l0,0
			C59,9.8,59,9.8,58.7,9.7z M17.8,8.1c-0.2-0.4,0-0.9,0.4-1.1l0,0c0.4-0.2,0.9,0,1.1,0.4l0,0c0.2,0.4,0,0.9-0.4,1.1l0,0
			c-0.1,0.1-0.2,0.1-0.4,0.1l0,0C18.1,8.6,17.8,8.4,17.8,8.1z M55.6,8.4c-0.4-0.2-0.8-0.6-0.5-1.1l0,0c0.2-0.4,0.6-0.8,1.1-0.5l0,0
			c0.4,0.2,0.8,0.6,0.5,1.1l0,0c-0.1,0.3-0.4,0.6-0.8,0.6l0,0C55.8,8.5,55.8,8.5,55.6,8.4z M52.4,7.3L52.4,7.3L52.4,7.3
			c-0.5-0.1-0.8-0.6-0.6-1.1l0,0c0.1-0.4,0.6-0.8,1.1-0.6l0,0c0.5,0.1,0.8,0.6,0.6,1.1l0,0c-0.1,0.4-0.5,0.6-0.8,0.6l0,0
			C52.6,7.3,52.4,7.3,52.4,7.3z M20.9,6.7c-0.1-0.4,0.1-0.9,0.5-1.1l0,0c0.4-0.1,0.9,0.1,1.1,0.5l0,0c0.1,0.4-0.1,0.9-0.5,1.1l0,0
			c-0.1,0-0.2,0-0.3,0l0,0C21.3,7.3,21,7.2,20.9,6.7z M49.2,6.5c-0.5-0.1-0.8-0.5-0.8-1.1l0,0c0.1-0.5,0.5-0.8,1.1-0.8l0,0
			c0.5,0.1,0.8,0.5,0.6,1.1l0,0C50,6.1,49.7,6.5,49.2,6.5L49.2,6.5C49.2,6.6,49.2,6.6,49.2,6.5z M24.2,5.6c-0.1-0.4,0.2-0.9,0.7-1
			l0,0c0.5-0.1,0.9,0.2,1.1,0.6l0,0c0.1,0.5-0.3,0.9-0.7,1.1l0,0c-0.1,0-0.1,0-0.2,0l0,0C24.7,6.4,24.4,6.1,24.2,5.6z M45.7,6
			C45.2,5.9,44.9,5.5,45,5l0,0c0.1-0.5,0.5-0.8,0.9-0.8l0,0c0.5,0.1,0.8,0.5,0.8,1.1l0,0C46.6,5.6,46.3,6,45.7,6L45.7,6L45.7,6z
			 M27.6,5c-0.1-0.5,0.3-0.9,0.8-1.1l0,0c0.5-0.1,0.9,0.3,0.9,0.8l0,0c0.1,0.5-0.3,0.9-0.8,0.9l0,0h-0.1l0,0
			C28.1,5.6,27.8,5.3,27.6,5z M42.3,5.6c-0.5,0-0.8-0.5-0.8-0.9l0,0c0-0.5,0.5-0.8,0.9-0.8l0,0c0.5,0,0.8,0.5,0.8,0.9l0,0
			C43.2,5.2,42.8,5.6,42.3,5.6L42.3,5.6L42.3,5.6z M31.1,4.6c0-0.5,0.3-0.9,0.8-0.9l0,0c0.5,0,0.9,0.3,0.9,0.8l0,0
			c0,0.5-0.3,0.9-0.8,0.9l0,0c0,0,0,0-0.1,0l0,0C31.5,5.3,31.1,5,31.1,4.6z M38.1,4.3c0-0.5,0.4-0.8,0.9-0.8l0,0
			c0.5,0,0.8,0.4,0.8,0.9l0,0c0,0.5-0.4,0.8-0.9,0.8l0,0l0,0l0,0C38.4,5.3,38,4.9,38.1,4.3z M34.6,4.3c0-0.5,0.4-0.8,0.8-0.8l0,0
			c0.5,0,0.9,0.4,0.9,0.8l0,0c0,0.5-0.4,0.8-0.8,0.9l0,0C35,5.3,34.6,4.9,34.6,4.3z"/>
	</g>
</g>
<g>
	<g>
		<path class="st2" d="M48.4,63.6H29c-2.6,0-4.8-2.2-4.8-4.8V23c0-2.6,2.2-4.8,4.8-4.8h19.4c2.6,0,4.8,2.2,4.8,4.8v32.5h-1.7V23.1
			c0-1.7-1.4-3.1-3.1-3.1H29c-1.7,0-3.1,1.4-3.1,3.1v35.7c0,1.7,1.4,3.1,3.1,3.1h19.4c0.8,0,1.7-0.3,2.3-1.1l1.2,1.1
			C51,63,49.8,63.6,48.4,63.6z"/>
	</g>
	<g>
		<polygon class="st2" points="47.3,58 24.2,58 24.2,22.1 53.1,22.1 53.1,55.6 51.5,55.6 51.5,23.8 25.9,23.8 25.9,56.3 47.3,56.3 
					"/>
	</g>
	<g>
		<path class="st2" d="M66.7,63.9l-4.5-15.8c-0.3-1.5-0.8-2.6-1.4-3.6l-9.2-10.6l1.2-1.1l9.4,10.8c0.8,1.2,1.1,2.4,1.5,4.1l4.5,15.9
			L66.7,63.9z"/>
	</g>
	<g>
		<path class="st2" d="M62.9,71.2l-5.5-2.5c-0.9-0.4-1.9-1.1-2.6-1.9L43.8,54.4l0.1-0.4c0-0.1,0.5-1.9,2.2-2.3
			c1.7-0.5,3.8,0.5,6.4,3c0.6,0.6,1.7,1.4,2.4,1.1c1.1-0.6,1.7-4.3,1.1-8.3c-0.4-2.9-3.8-5.8-4-5.8l1.1-1.2c0.2,0.1,4,3.3,4.5,6.8
			c0.5,3.8,0.3,8.8-2.1,10c-1.2,0.6-2.7,0.1-4.3-1.4c-2.8-2.7-4.1-2.8-4.8-2.6c-0.4,0.1-0.8,0.5-0.8,0.8l10.5,11.6
			c0.5,0.6,1.2,1.1,2,1.4l5.5,2.5L62.9,71.2z"/>
	</g>
	<g>
		<path class="st2" d="M38.5,46.9c-5.1,0-9.1-4-9.1-9.1s4-9.1,9.1-9.1s9.1,4,9.1,9.1S43.6,46.9,38.5,46.9z M38.5,30.3
			c-4.1,0-7.5,3.3-7.5,7.5s3.3,7.5,7.5,7.5s7.5-3.3,7.5-7.5S42.7,30.3,38.5,30.3z"/>
	</g>
</g>
</svg>
