<?xml version="1.0" encoding="utf-8"?>
<!-- Generator: Adobe Illustrator 23.0.3, SVG Export Plug-In . SVG Version: 6.00 Build 0)  -->
<svg version="1.1" id="Livello_1" xmlns="http://www.w3.org/2000/svg" xmlns:xlink="http://www.w3.org/1999/xlink" x="0px" y="0px"
	 viewBox="0 0 80 80" style="enable-background:new 0 0 80 80;" xml:space="preserve">
<style type="text/css">
	.st0{fill:#FD6400;}
	.st1{fill:#000099;}
	.st2{fill:#FFFFFF;}
	.st3{fill:none;stroke:#FFFFFF;stroke-miterlimit:10;}
	.st4{fill:#FF6B07;stroke:#FFFFFF;stroke-miterlimit:10;}
</style>
<g>
	<path class="st0" d="M72.8,39.9c0,18.5-14.9,33.4-33.4,33.4S6,58.4,6,39.9S20.9,6.5,39.4,6.5C57.8,6.5,72.8,21.4,72.8,39.9z"/>
</g>
<g>
	<g>
		<path class="st1" d="M37.7,77c0-0.5,0.4-0.8,0.8-0.9l0,0c0.5,0,0.9,0.4,0.9,0.8l0,0c0,0.5-0.4,0.9-0.8,0.9l0,0l0,0l0,0
			C38,77.7,37.7,77.4,37.7,77z M35,77.7c-0.5,0-0.8-0.4-0.8-0.9l0,0c0-0.5,0.4-0.8,0.9-0.8l0,0c0.5,0,0.8,0.4,0.8,0.9l0,0
			C35.9,77.3,35.5,77.7,35,77.7L35,77.7C35.1,77.7,35.1,77.7,35,77.7z M41.1,76.8c0-0.5,0.3-0.9,0.8-0.9l0,0c0.5,0,0.9,0.3,0.9,0.8
			l0,0c0,0.5-0.3,0.9-0.8,0.9l0,0c0,0,0,0-0.1,0l0,0C41.4,77.6,41.1,77.3,41.1,76.8z M31.6,77.4L31.6,77.4c-0.5-0.1-0.8-0.5-0.7-0.9
			l0,0c0-0.5,0.5-0.8,0.9-0.7l0,0c0.5,0.1,0.8,0.5,0.7,0.9l0,0C32.5,77.1,32.1,77.4,31.6,77.4L31.6,77.4
			C31.7,77.4,31.7,77.4,31.6,77.4z M44.4,76.5c0-0.5,0.3-0.9,0.7-0.9l0,0l0,0l0,0c0.5,0,0.9,0.3,0.9,0.7l0,0
			c0.1,0.5-0.3,0.9-0.7,0.9l0,0h-0.1l0,0C44.9,77.3,44.5,77,44.4,76.5z M28.2,77c-0.4-0.1-0.8-0.5-0.7-1l0,0c0.1-0.5,0.5-0.8,1-0.7
			l0,0c0.5,0.1,0.8,0.5,0.7,1l0,0c-0.1,0.4-0.4,0.7-0.8,0.7l0,0C28.2,77,28.2,77,28.2,77z M47.8,76.2c-0.1-0.5,0.3-0.9,0.7-1l0,0
			c0.5-0.1,0.9,0.3,1,0.7l0,0c0.1,0.5-0.3,0.9-0.7,1l0,0h-0.1l0,0C48.2,76.8,47.8,76.5,47.8,76.2z M51.2,75.6
			c-0.1-0.5,0.2-0.9,0.7-1l0,0c0.5-0.1,0.9,0.2,1,0.7l0,0c0.1,0.5-0.2,0.9-0.7,1l0,0c-0.1,0-0.1,0-0.2,0l0,0
			C51.5,76.3,51.2,76,51.2,75.6z M24.8,76c-0.4-0.1-0.7-0.6-0.6-1l0,0c0.1-0.5,0.6-0.7,1-0.6l0,0c0.4,0.1,0.7,0.6,0.6,1.1l0,0
			c-0.1,0.4-0.4,0.6-0.8,0.6l0,0C25,76.2,24.9,76.2,24.8,76z M54.5,74.9c-0.1-0.5,0.2-0.9,0.6-1l0,0l0,0l0,0c0.4-0.1,0.9,0.2,1,0.6
			l0,0c0.1,0.5-0.2,0.9-0.6,1l0,0c-0.1,0-0.1,0-0.2,0l0,0C55,75.6,54.6,75.3,54.5,74.9z M21.5,74.9L21.5,74.9
			c-0.4-0.2-0.6-0.7-0.5-1.1l0,0c0.2-0.4,0.7-0.6,1.1-0.4l0,0c0.4,0.2,0.6,0.7,0.4,1.1l0,0c-0.1,0.3-0.4,0.5-0.8,0.5l0,0
			C21.8,75,21.7,74.9,21.5,74.9z M57.8,74.1c-0.1-0.4,0.1-0.9,0.6-1l0,0c0.4-0.1,0.9,0.1,1,0.6l0,0c0.1,0.5-0.1,0.9-0.6,1.1l0,0
			c-0.1,0-0.2,0-0.2,0l0,0C58.2,74.7,57.9,74.5,57.8,74.1z M61,73.1c-0.2-0.4,0.1-0.9,0.5-1.1l0,0c0.4-0.2,0.9,0.1,1.1,0.5l0,0
			c0.2,0.4-0.1,0.9-0.5,1.1l0,0c-0.1,0-0.2,0.1-0.3,0.1l0,0C61.4,73.7,61.1,73.5,61,73.1z M18.4,73.4c-0.4-0.2-0.6-0.7-0.3-1.1l0,0
			c0.2-0.4,0.7-0.5,1.1-0.3l0,0c0.4,0.2,0.6,0.7,0.3,1.1l0,0c-0.1,0.3-0.4,0.4-0.7,0.4l0,0C18.6,73.5,18.6,73.4,18.4,73.4z
			 M64.2,71.9c-0.2-0.4,0-0.9,0.4-1.1l0,0l0,0l0,0c0.4-0.2,0.9,0,1.1,0.4l0,0c0.2,0.4,0,0.9-0.4,1.1l0,0c-0.1,0.1-0.2,0.1-0.4,0.1
			l0,0C64.7,72.3,64.4,72.2,64.2,71.9z M15.5,71.5c-0.4-0.3-0.5-0.8-0.2-1.2l0,0c0.3-0.4,0.8-0.5,1.2-0.2l0,0
			c0.4,0.3,0.4,0.8,0.2,1.2l0,0c-0.2,0.2-0.4,0.4-0.7,0.4l0,0C15.8,71.6,15.6,71.6,15.5,71.5z M67.2,70.3c-0.3-0.4-0.1-0.9,0.2-1.2
			l0,0l0,0l0,0c0.4-0.3,0.9-0.1,1.2,0.2l0,0c0.3,0.4,0.1,0.9-0.2,1.2l0,0c-0.1,0.1-0.3,0.1-0.5,0.1l0,0
			C67.6,70.7,67.3,70.5,67.2,70.3z M12.8,69.3c-0.3-0.3-0.4-0.9,0-1.2l0,0c0.3-0.3,0.9-0.4,1.2,0l0,0c0.3,0.3,0.4,0.9,0,1.2l0,0
			c-0.2,0.2-0.4,0.3-0.6,0.3l0,0C13.2,69.5,12.9,69.4,12.8,69.3z M69.9,68.3c-0.3-0.4-0.3-0.9,0.1-1.2l0,0c0.4-0.3,0.9-0.3,1.2,0.1
			l0,0c0.3,0.3,0.3,0.9-0.1,1.2l0,0c-0.2,0.1-0.4,0.2-0.6,0.2l0,0C70.3,68.6,70.1,68.4,69.9,68.3z M10.4,66.7
			c-0.3-0.4-0.3-0.9,0.1-1.2l0,0c0.4-0.3,0.9-0.3,1.2,0.1l0,0l0,0l0,0c0.3,0.4,0.3,0.9-0.1,1.2l0,0c-0.2,0.1-0.4,0.2-0.5,0.2l0,0
			C10.8,67,10.6,67,10.4,66.7z M72.4,65.9c-0.4-0.3-0.4-0.8-0.1-1.2l0,0l0,0l0,0c0.3-0.4,0.8-0.4,1.2-0.1l0,0
			c0.4,0.3,0.4,0.8,0.1,1.2l0,0c-0.2,0.2-0.4,0.3-0.7,0.3l0,0C72.8,66.1,72.5,66.1,72.4,65.9z M8.3,63.9C8,63.5,8,63,8.5,62.7l0,0
			c0.4-0.3,0.9-0.1,1.2,0.2l0,0c0.3,0.4,0.2,0.9-0.2,1.2l0,0c-0.1,0.1-0.3,0.1-0.5,0.1l0,0C8.7,64.4,8.5,64.1,8.3,63.9z M74.5,63.2
			c-0.4-0.2-0.5-0.8-0.3-1.1l0,0c0.2-0.4,0.8-0.5,1.1-0.3l0,0c0.4,0.2,0.5,0.7,0.3,1.1l0,0c-0.2,0.3-0.4,0.4-0.7,0.4l0,0
			C74.8,63.4,74.5,63.3,74.5,63.2z M6.5,60.9c-0.2-0.4-0.1-0.9,0.3-1.1l0,0c0.4-0.2,0.9-0.1,1.1,0.3l0,0l0,0l0,0
			c0.2,0.4,0.1,0.9-0.3,1.1l0,0c-0.1,0.1-0.3,0.1-0.4,0.1l0,0C7,61.4,6.7,61.2,6.5,60.9z M76,60.3c-0.4-0.2-0.6-0.7-0.5-1.1l0,0
			c0.2-0.4,0.7-0.6,1.1-0.5l0,0c0.4,0.2,0.6,0.6,0.5,1.1l0,0c-0.1,0.3-0.5,0.5-0.8,0.5l0,0C76.2,60.3,76,60.3,76,60.3z M4.9,57.9
			c-0.2-0.4,0-0.9,0.4-1.1l0,0c0.4-0.2,0.9,0,1.1,0.4l0,0l0,0l0,0c0.2,0.4,0,0.9-0.4,1.1l0,0c-0.1,0.1-0.1,0.1-0.4,0.1l0,0
			C5.4,58.3,5.1,58.2,4.9,57.9z M77.1,57.1c-0.5-0.1-0.7-0.6-0.6-1l0,0c0.1-0.5,0.6-0.7,1-0.6l0,0c0.5,0.1,0.7,0.6,0.6,1l0,0
			c-0.1,0.4-0.5,0.6-0.8,0.6l0,0C77.3,57.1,77.1,57.1,77.1,57.1z M3.8,55.2c-0.2-0.4,0.1-0.9,0.5-1.1l0,0c0.4-0.2,0.9,0.1,1.1,0.5
			l0,0c0.2,0.4-0.1,0.9-0.5,1.1l0,0c-0.1,0-0.2,0-0.3,0l0,0C4.2,55.7,3.9,55.4,3.8,55.2z M77.9,53.7c-0.5-0.1-0.8-0.5-0.7-1l0,0l0,0
			l0,0c0.1-0.5,0.5-0.8,1-0.7l0,0c0.5,0.1,0.8,0.5,0.7,1l0,0c-0.1,0.4-0.4,0.7-0.8,0.7l0,0C77.9,53.7,77.9,53.7,77.9,53.7z
			 M2.8,51.8c-0.1-0.5,0.1-0.9,0.6-1l0,0c0.4-0.1,0.9,0.1,1,0.6l0,0c0.1,0.5-0.1,0.9-0.6,1l0,0c-0.1,0-0.1,0-0.2,0l0,0
			C3.2,52.4,2.8,52.3,2.8,51.8z M78.3,50.3c-0.5,0-0.8-0.4-0.8-0.9l0,0l0,0l0,0c0-0.5,0.4-0.8,0.9-0.8l0,0c0.5,0,0.8,0.4,0.8,0.9
			l0,0C79.1,50,78.8,50.3,78.3,50.3L78.3,50.3L78.3,50.3z M2,48.4c-0.1-0.5,0.2-0.9,0.7-1l0,0c0.5-0.1,0.9,0.2,1,0.7l0,0
			c0.1,0.5-0.2,0.9-0.7,1l0,0c-0.1,0-0.1,0-0.2,0l0,0C2.4,49.1,2.1,48.8,2,48.4z M77.6,46.1c0-0.5,0.4-0.9,0.8-0.9l0,0
			c0.5,0,0.9,0.4,0.9,0.8l0,0c0,0.5-0.4,0.8-0.8,0.9l0,0l0,0l0,0C77.9,47,77.6,46.6,77.6,46.1z M1.5,45c0-0.5,0.3-0.9,0.8-0.9l0,0
			c0.5,0,0.9,0.3,0.9,0.8l0,0l0,0l0,0c0,0.5-0.3,0.9-0.8,0.9l0,0H2.3l0,0C2,45.8,1.6,45.5,1.5,45z M77.4,42.8c0-0.5,0.3-0.9,0.8-0.9
			l0,0c0.5,0,0.9,0.3,0.9,0.8l0,0c0,0.5-0.3,0.9-0.8,0.9l0,0l0,0l0,0C77.7,43.6,77.4,43.3,77.4,42.8z M2.3,42.3
			c-0.5,0-0.8-0.4-0.8-0.9l0,0c0-0.5,0.4-0.8,0.9-0.8l0,0c0.5,0,0.8,0.4,0.8,0.9l0,0C3.1,42,2.8,42.3,2.3,42.3L2.3,42.3L2.3,42.3z
			 M77.1,39.4c0-0.5,0.3-0.9,0.8-0.9l0,0c0.5,0,0.9,0.3,0.9,0.8l0,0c0.1,0.5-0.3,0.9-0.8,0.9l0,0H78l0,0
			C77.6,40.2,77.1,39.8,77.1,39.4z M2.4,39c-0.5,0-0.8-0.4-0.8-0.9l0,0c0-0.5,0.4-0.8,0.9-0.8l0,0c0.5,0,0.8,0.4,0.8,0.9l0,0
			C3.4,38.6,2.9,39,2.4,39L2.4,39C2.5,39,2.4,39,2.4,39z M76.8,36.1c-0.1-0.5,0.3-0.9,0.7-1l0,0c0.5-0.1,0.9,0.3,1,0.7l0,0
			c0.1,0.5-0.3,0.9-0.7,0.9l0,0h-0.1l0,0C77.1,36.8,76.8,36.5,76.8,36.1z M2.8,35.6C2.2,35.5,1.9,35,2,34.7l0,0
			c0.1-0.5,0.5-0.8,0.9-0.7l0,0c0.5,0.1,0.8,0.5,0.7,1l0,0c-0.1,0.4-0.4,0.7-0.8,0.7l0,0C2.8,35.6,2.8,35.6,2.8,35.6z M76.3,32.7
			L76.3,32.7L76.3,32.7c-0.1-0.5,0.2-0.9,0.7-1l0,0c0.5-0.1,0.9,0.2,1,0.7l0,0c0.1,0.5-0.2,0.9-0.7,1l0,0h-0.1l0,0
			C76.7,33.5,76.3,33.2,76.3,32.7z M3.2,32.3c-0.5-0.1-0.8-0.5-0.7-1l0,0c0.1-0.4,0.5-0.8,1-0.7l0,0c0.5,0.1,0.8,0.5,0.7,1l0,0l0,0
			l0,0c-0.1,0.4-0.4,0.7-0.8,0.7l0,0C3.4,32.3,3.4,32.3,3.2,32.3z M75.6,29.5c-0.1-0.5,0.2-0.9,0.6-1l0,0c0.5-0.1,0.9,0.2,1,0.6l0,0
			c0.1,0.4-0.2,0.9-0.6,1l0,0c-0.1,0-0.1,0-0.2,0l0,0C76,30.1,75.7,29.8,75.6,29.5z M3.9,28.9c-0.5-0.1-0.7-0.6-0.6-1l0,0
			c0.1-0.5,0.6-0.7,1-0.6l0,0c0.5,0.1,0.7,0.6,0.6,1l0,0c-0.1,0.4-0.4,0.6-0.8,0.6l0,0C4.2,28.9,4,28.9,3.9,28.9z M74.6,26.3
			c-0.1-0.4,0.1-0.9,0.5-1.1l0,0c0.4-0.1,0.9,0.1,1.1,0.5l0,0c0.1,0.4-0.1,0.9-0.5,1.1l0,0c-0.1,0-0.2,0-0.3,0l0,0
			C75.1,26.8,74.8,26.6,74.6,26.3z M4.9,25.6c-0.4-0.2-0.7-0.6-0.5-1.1l0,0C4.5,24.1,5,23.7,5.5,24l0,0c0.4,0.2,0.7,0.6,0.5,1.1l0,0
			l0,0l0,0c-0.1,0.3-0.5,0.5-0.8,0.5l0,0C5.1,25.7,5.1,25.7,4.9,25.6z M73.4,23.2c-0.2-0.4,0-0.9,0.4-1.1l0,0c0.4-0.2,0.9,0,1.1,0.4
			l0,0c0.2,0.4,0,0.9-0.4,1.1l0,0c-0.1,0-0.2,0.1-0.4,0.1l0,0C74,23.7,73.7,23.5,73.4,23.2z M6.2,22.5c-0.4-0.2-0.6-0.7-0.4-1.1l0,0
			C6,21,6.5,20.8,6.9,21l0,0c0.4,0.2,0.6,0.7,0.4,1.1l0,0c-0.1,0.3-0.5,0.5-0.8,0.5l0,0C6.3,22.6,6.3,22.6,6.2,22.5z M72,20.3
			c-0.2-0.4-0.1-0.9,0.3-1.1l0,0c0.4-0.2,0.9-0.1,1.1,0.3l0,0c0.2,0.4,0.1,0.9-0.3,1.2l0,0c-0.1,0.1-0.3,0.1-0.4,0.1l0,0
			C72.4,20.6,72.1,20.6,72,20.3z M7.7,19.4c-0.4-0.2-0.5-0.8-0.3-1.1l0,0C7.6,18,8.2,17.8,8.6,18l0,0c0.4,0.2,0.5,0.8,0.3,1.2l0,0
			c-0.2,0.3-0.4,0.4-0.7,0.4l0,0C8,19.5,7.9,19.5,7.7,19.4z M70.1,17.5L70.1,17.5L70.1,17.5c-0.3-0.4-0.2-0.9,0.1-1.2l0,0
			c0.4-0.3,0.9-0.2,1.2,0.2l0,0c0.3,0.4,0.2,0.9-0.1,1.2l0,0C71.2,17.8,71,18,70.8,18l0,0C70.5,17.8,70.3,17.7,70.1,17.5z M9.5,16.6
			c-0.4-0.3-0.4-0.8-0.2-1.2l0,0c0.3-0.4,0.8-0.4,1.2-0.2l0,0c0.4,0.3,0.4,0.8,0.2,1.2l0,0l0,0l0,0c-0.2,0.2-0.4,0.3-0.7,0.3l0,0
			C9.9,16.7,9.7,16.7,9.5,16.6z M67.9,15.1L67.9,15.1L67.9,15.1c-0.3-0.3-0.3-0.9,0-1.2l0,0c0.3-0.3,0.9-0.3,1.2,0l0,0
			c0.3,0.3,0.3,0.9,0,1.2l0,0c-0.1,0.1-0.4,0.1-0.6,0.1l0,0C68.3,15.3,68.1,15.2,67.9,15.1z M11.7,14c-0.3-0.3-0.3-0.9,0-1.2l0,0
			c0.3-0.3,0.9-0.3,1.2,0l0,0c0.3,0.3,0.3,0.9,0,1.2l0,0l0,0l0,0c-0.2,0.2-0.4,0.3-0.6,0.3l0,0C12,14.2,11.8,14.1,11.7,14z
			 M65.5,12.9L65.5,12.9L65.5,12.9c-0.4-0.3-0.4-0.8-0.1-1.2l0,0c0.3-0.4,0.8-0.4,1.2-0.2l0,0c0.4,0.3,0.4,0.8,0.1,1.2l0,0
			c-0.2,0.2-0.4,0.3-0.7,0.3l0,0C65.8,13.1,65.6,13,65.5,12.9z M14.1,11.6c-0.3-0.4-0.2-0.9,0.1-1.2l0,0c0.4-0.3,0.9-0.2,1.2,0.1
			l0,0c0.3,0.4,0.2,0.9-0.1,1.2l0,0l0,0l0,0c-0.1,0.1-0.3,0.2-0.5,0.2l0,0C14.6,11.9,14.3,11.8,14.1,11.6z M62.7,11
			c-0.4-0.2-0.5-0.8-0.3-1.2l0,0c0.2-0.4,0.8-0.5,1.2-0.3l0,0c0.4,0.2,0.5,0.8,0.3,1.2l0,0c-0.2,0.3-0.4,0.4-0.7,0.4l0,0
			C63,11.2,62.8,11.1,62.7,11z M16.9,9.6c-0.2-0.4-0.1-0.9,0.3-1.1l0,0c0.4-0.3,0.9-0.1,1.2,0.3l0,0c0.2,0.4,0.1,0.9-0.3,1.2l0,0
			c-0.1,0.1-0.3,0.1-0.4,0.1l0,0C17.2,9.9,16.9,9.9,16.9,9.6z M59.9,9.4L59.9,9.4L59.9,9.4c-0.4-0.2-0.6-0.7-0.4-1.1l0,0
			c0.2-0.4,0.7-0.6,1.1-0.4l0,0C61,8.2,61.2,8.7,61,9l0,0c-0.1,0.3-0.4,0.5-0.8,0.5l0,0C60.1,9.6,60,9.6,59.9,9.4z M19.8,7.9
			c-0.2-0.4,0-0.9,0.4-1.1l0,0c0.4-0.2,0.9,0,1.1,0.4l0,0c0.2,0.4,0,0.9-0.4,1.1l0,0c-0.1,0.1-0.2,0.1-0.4,0.1l0,0
			C20.2,8.4,19.9,8.2,19.8,7.9z M56.8,8.2c-0.4-0.2-0.7-0.6-0.5-1.1l0,0c0.2-0.4,0.6-0.7,1.1-0.5l0,0c0.4,0.2,0.7,0.6,0.5,1.1l0,0
			c-0.1,0.3-0.4,0.6-0.8,0.6l0,0C57,8.2,56.9,8.2,56.8,8.2z M53.7,7.1L53.7,7.1L53.7,7.1c-0.5-0.1-0.7-0.6-0.6-1l0,0
			c0.1-0.4,0.6-0.7,1-0.6l0,0c0.5,0.1,0.7,0.6,0.6,1l0,0c-0.1,0.4-0.5,0.6-0.9,0.6l0,0C53.8,7.1,53.7,7.1,53.7,7.1z M22.9,6.5
			c-0.1-0.4,0.1-0.9,0.5-1.1l0,0c0.4-0.1,0.9,0.1,1.1,0.5l0,0C24.6,6.3,24.4,6.8,24,7l0,0c-0.1,0-0.2,0-0.3,0l0,0
			C23.3,7.1,23,7,22.9,6.5z M50.4,6.3c-0.5-0.1-0.8-0.5-0.7-1l0,0c0.1-0.5,0.5-0.8,1-0.7l0,0c0.5,0.1,0.7,0.5,0.6,1l0,0
			C51.2,5.9,50.9,6.3,50.4,6.3L50.4,6.3C50.6,6.5,50.4,6.5,50.4,6.3z M26.1,5.5c-0.1-0.4,0.2-0.9,0.6-1l0,0c0.5-0.1,0.9,0.2,1,0.6
			l0,0c0.1,0.6-0.2,1-0.7,1.1l0,0c-0.1,0-0.1,0-0.2,0l0,0C26.5,6.2,26.2,5.9,26.1,5.5z M47.1,5.9c-0.5-0.1-0.8-0.5-0.7-1l0,0
			c0.1-0.5,0.5-0.8,0.9-0.7l0,0c0.5,0.1,0.8,0.5,0.7,1l0,0C47.9,5.5,47.6,5.9,47.1,5.9L47.1,5.9L47.1,5.9z M29.5,4.8
			c-0.1-0.5,0.3-0.9,0.7-1l0,0c0.5-0.1,0.9,0.3,0.9,0.7l0,0c0.1,0.5-0.3,0.9-0.7,0.9l0,0h-0.1l0,0C29.9,5.5,29.6,5.2,29.5,4.8z
			 M43.8,5.4c-0.5,0-0.8-0.5-0.8-0.9l0,0c0-0.5,0.5-0.8,0.9-0.8l0,0c0.5,0,0.8,0.5,0.8,0.9l0,0C44.7,5,44.3,5.4,43.8,5.4L43.8,5.4
			L43.8,5.4z M32.8,4.4c0-0.5,0.3-0.9,0.8-0.9l0,0c0.5,0,0.9,0.3,0.9,0.8l0,0c0,0.5-0.3,0.9-0.8,0.9l0,0c0,0,0,0-0.1,0l0,0
			C33.2,5.2,32.9,4.8,32.8,4.4z M39.7,4.2c0-0.5,0.4-0.8,0.9-0.8l0,0c0.5,0,0.8,0.4,0.8,0.9l0,0c0,0.5-0.4,0.8-0.9,0.8l0,0l0,0l0,0
			C40,5.1,39.6,4.7,39.7,4.2z M36.2,4.2c0-0.5,0.4-0.8,0.8-0.8l0,0c0.5,0,0.9,0.4,0.9,0.8l0,0c0,0.5-0.4,0.8-0.8,0.9l0,0
			C36.6,5.1,36.2,4.7,36.2,4.2z"/>
	</g>
</g>
<path class="st2" d="M6.5,50.2c0.4,0,0.8,0,1.3,0c3.6,0,6-0.4,7.2-1.1c2.1-1.3,8.9-3.2,12.6-3.3c0.7,0,14.4,0.9,15.3,1.1
	c0.3,0.1,0.5,0.4,0.5,0.5c0,0,0,0.1-0.2,0.3l-0.1,0.1c-0.8,0.6-1.7,1.3-5.1,1.3c-1.2,0-2.6-0.1-4.2-0.2c-0.1,0-1.1-0.3-2.2-0.3
	c-2.4,0-2.9,1.2-3,1.9c-0.1,0.4-0.1,1,0.3,1.6c0.5,0.7,1.6,0.8,4,1.1h0.3c3.4,0.4,7,0.7,7.1,0.7c0.4,0,1.8-0.1,5.4-1.6
	c3.6-1.5,11.4-4.6,12.8-5.1c0.5,0.1,1.6,0.4,2,1.1c0.2,0.4,0.1,1.1-0.2,1.9l-13.2,6.4l-4,1.7c0,0-2,1.3-6.9,1
	c-2.1-0.1-4.3-0.4-6.8-0.9c-3-0.5-6-1-8.9-1c-0.7,0-1.3,0-2,0.1c-2.7,0.2-5,0.4-7.3,0.6l1.3,1.5c2.1-0.1,3.6-0.4,6-0.5
	c3.3-0.3,6.9,0.3,10.5,0.9c2.4,0.4,4.8,0.8,6.9,0.9c0.4,0,0.8,0,1.2,0c4.6,0,6.5-1.2,6.5-1.2l17.5-8.3l0.1-0.2
	c0.7-1.4,0.9-2.6,0.4-3.6c-0.9-1.6-3.1-1.9-3.4-1.9h-0.2l-0.1,0.1c0,0-9.1,3.6-12.9,5.2c-3.6,1.5-4.8,1.5-4.8,1.5s-3.5-0.3-6.9-0.7
	h-0.3c-1.5-0.1-2.7-0.3-2.9-0.4c0,0,0-0.1,0-0.4c0.1-0.4,0.5-0.6,1.4-0.6c0.9,0,1.9,0.2,2,0.3c1.7,0.2,3.2,0.3,4.5,0.3
	c3.9,0,5.1-1,6-1.6l0.1-0.1c0.7-0.6,0.9-1.3,0.8-1.6c-0.1-0.8-0.7-1.4-1.3-1.7c-0.7-0.7-15.8-1.6-16-1.6c-3.8,0.1-10.9,1.9-13.4,3.5
	c-0.5,0.3-2,0.9-6.4,0.9c-0.7,0-1.4,0-2.1-0.1"/>
<g>
	<path class="st3" d="M50.1,33.3c0,1.9-4.8,3.4-10.7,3.4c-5.9,0-10.7-1.6-10.7-3.4c0-1.9,4.8-3.4,10.7-3.4
		C45.3,29.8,50.1,31.3,50.1,33.3z"/>
	<path class="st4" d="M50.1,31.5c0,1.9-4.8,3.4-10.7,3.4c-5.9,0-10.7-1.6-10.7-3.4c0-1.9,4.8-3.4,10.7-3.4S50.1,29.6,50.1,31.5z"/>
	<polygon class="st2" points="42.3,32.4 42.3,29.8 36.5,29.8 36.5,30.9 38.1,30.9 36.5,31.6 38.2,32.4 39.9,31.6 39.9,32.4 	"/>
</g>
</svg>
