<?xml version="1.0" encoding="utf-8"?>
<!-- Generator: Adobe Illustrator 23.0.3, SVG Export Plug-In . SVG Version: 6.00 Build 0)  -->
<svg version="1.1" id="Livello_1" xmlns="http://www.w3.org/2000/svg" xmlns:xlink="http://www.w3.org/1999/xlink" x="0px" y="0px"
	 viewBox="0 0 80 80" style="enable-background:new 0 0 80 80;" xml:space="preserve">
<style type="text/css">
	.st0{fill:#FD6400;}
	.st1{fill:#000099;}
	.st2{fill:#FFFFFF;}
</style>
<g>
	<path class="st0" d="M74.5,41.2c0,18.4-14.8,33.2-33.2,33.2S8.1,59.6,8.1,41.2S22.9,8,41.3,8C59.6,7.9,74.5,22.8,74.5,41.2z"/>
</g>
<g>
	<path class="st1" d="M39.1,77.7c-0.5,0-0.8-0.4-0.8-0.9l0,0c0-0.5,0.4-0.8,0.9-0.8l0,0c0.5,0,0.8,0.4,0.8,0.9l0,0
		C40,77.3,39.6,77.7,39.1,77.7L39.1,77.7L39.1,77.7z M41.7,76.8c0-0.5,0.4-0.9,0.8-0.9l0,0c0.5,0,0.9,0.4,0.9,0.8l0,0
		c0,0.5-0.3,0.8-0.8,0.9l0,0l0,0l0,0C42,77.6,41.7,77.3,41.7,76.8z M35.7,77.5L35.7,77.5c-0.5,0-0.8-0.4-0.8-0.9l0,0
		c0-0.5,0.4-0.8,0.9-0.8l0,0l0,0l0,0c0.5,0,0.8,0.5,0.8,0.9l0,0C36.6,77.1,36.3,77.5,35.7,77.5L35.7,77.5L35.7,77.5z M45,76.7
		c0-0.5,0.3-0.9,0.8-0.9l0,0c0.5,0,0.9,0.3,0.9,0.8l0,0c0,0.5-0.3,0.9-0.8,0.9l0,0h-0.1l0,0C45.3,77.4,45,77.1,45,76.7z M48.4,76.3
		c-0.1-0.5,0.3-0.9,0.7-1l0,0c0.5-0.1,0.9,0.3,1,0.7l0,0c0.1,0.5-0.3,0.9-0.7,1l0,0h-0.1l0,0C48.7,77.1,48.4,76.8,48.4,76.3z
		 M32.3,77c-0.5-0.1-0.8-0.5-0.7-1l0,0c0.1-0.5,0.5-0.8,1-0.7l0,0c0.5,0.1,0.8,0.5,0.7,1l0,0c-0.1,0.4-0.4,0.7-0.8,0.7l0,0
		C32.4,77,32.3,77,32.3,77z M51.6,75.9c-0.1-0.5,0.2-0.9,0.7-1l0,0c0.5-0.1,0.9,0.2,1,0.7l0,0c0.1,0.5-0.2,0.9-0.7,1l0,0
		c-0.1,0-0.1,0-0.2,0l0,0C52,76.6,51.7,76.3,51.6,75.9z M28.9,76.3c-0.5-0.1-0.7-0.6-0.6-1l0,0c0.1-0.4,0.6-0.7,1-0.6l0,0
		c0.5,0.1,0.7,0.6,0.6,1l0,0c-0.1,0.4-0.4,0.6-0.8,0.6l0,0C29.2,76.3,29.1,76.3,28.9,76.3z M54.9,75.2c-0.1-0.5,0.2-0.9,0.6-1l0,0
		l0,0l0,0c0.4-0.1,0.9,0.2,1,0.6l0,0c0.1,0.5-0.2,0.9-0.6,1l0,0c-0.1,0-0.1,0-0.2,0l0,0C55.3,75.8,55,75.6,54.9,75.2z M25.8,75.2
		c-0.4-0.2-0.7-0.6-0.5-1.1l0,0c0.2-0.4,0.6-0.7,1.1-0.5l0,0c0.4,0.2,0.7,0.6,0.5,1.1l0,0c-0.1,0.3-0.4,0.5-0.8,0.5l0,0
		C25.9,75.3,25.8,75.3,25.8,75.2z M58.2,74.3c-0.1-0.4,0.1-0.9,0.5-1.1l0,0l0,0l0,0c0.4-0.1,0.9,0.1,1.1,0.5l0,0
		c0.1,0.4-0.1,0.9-0.5,1.1l0,0c-0.1,0-0.2,0-0.3,0l0,0C58.5,74.9,58.2,74.7,58.2,74.3z M22.6,73.8c-0.4-0.2-0.6-0.7-0.4-1.1l0,0
		c0.2-0.4,0.7-0.6,1.1-0.4l0,0c0.4,0.2,0.6,0.7,0.4,1.1l0,0c-0.1,0.3-0.4,0.5-0.8,0.5l0,0C22.8,73.9,22.8,73.9,22.6,73.8z
		 M61.3,73.2c-0.2-0.4,0-0.9,0.4-1.1l0,0l0,0l0,0c0.4-0.2,0.9,0,1.1,0.4l0,0c0.2,0.4,0,0.9-0.4,1.1l0,0c-0.1,0-0.2,0.1-0.3,0.1l0,0
		C61.7,73.7,61.4,73.5,61.3,73.2z M64.3,71.8c-0.2-0.4-0.1-0.9,0.3-1.1l0,0c0.4-0.2,0.9-0.1,1.1,0.3l0,0c0.2,0.4,0.1,0.9-0.3,1.1
		l0,0c-0.1,0.1-0.3,0.1-0.4,0.1l0,0C64.7,72.3,64.5,72.1,64.3,71.8z M19.7,72.1c-0.4-0.3-0.5-0.8-0.2-1.2l0,0
		c0.3-0.4,0.8-0.5,1.2-0.2l0,0c0.4,0.3,0.5,0.8,0.2,1.2l0,0c-0.2,0.2-0.4,0.4-0.7,0.4l0,0C19.9,72.2,19.7,72.2,19.7,72.1z
		 M67.2,70.1c-0.3-0.4-0.2-0.9,0.2-1.2l0,0c0.4-0.3,0.9-0.2,1.2,0.2l0,0c0.3,0.4,0.2,0.9-0.2,1.2l0,0c-0.1,0.1-0.3,0.2-0.5,0.2l0,0
		C67.6,70.4,67.4,70.3,67.2,70.1z M16.8,70.1c-0.3-0.3-0.4-0.8-0.1-1.2l0,0c0.3-0.4,0.8-0.4,1.2-0.1l0,0c0.4,0.3,0.4,0.8,0.1,1.2
		l0,0c-0.2,0.2-0.4,0.3-0.6,0.3l0,0C17.3,70.2,17.1,70.1,16.8,70.1z M69.8,68.1c-0.3-0.3-0.3-0.9,0-1.2l0,0l0,0l0,0
		c0.3-0.3,0.9-0.3,1.2,0l0,0c0.3,0.3,0.3,0.9,0,1.2l0,0c-0.2,0.2-0.4,0.2-0.6,0.2l0,0C70.2,68.4,70,68.2,69.8,68.1z M14.4,67.6
		L14.4,67.6c-0.3-0.4-0.3-0.9,0.1-1.2l0,0c0.3-0.3,0.9-0.3,1.2,0.1l0,0l0,0l0,0c0.3,0.3,0.3,0.9-0.1,1.2l0,0
		c-0.1,0.1-0.3,0.1-0.5,0.1l0,0C14.8,67.8,14.6,67.8,14.4,67.6z M72.2,65.6c-0.4-0.3-0.4-0.8-0.2-1.2l0,0c0.3-0.4,0.8-0.4,1.2-0.1
		l0,0c0.4,0.3,0.4,0.8,0.2,1.2l0,0c-0.2,0.2-0.4,0.3-0.7,0.3l0,0C72.5,65.8,72.3,65.8,72.2,65.6z M12.3,65L12.3,65
		c-0.3-0.4-0.2-0.9,0.2-1.2l0,0c0.4-0.3,0.9-0.2,1.2,0.2l0,0c0.3,0.4,0.2,0.9-0.2,1.2l0,0c-0.1,0.1-0.3,0.2-0.5,0.2l0,0
		C12.7,65.3,12.4,65.2,12.3,65z M74,63c-0.4-0.2-0.6-0.8-0.3-1.1l0,0c0.2-0.4,0.7-0.5,1.2-0.3l0,0c0.4,0.2,0.5,0.7,0.3,1.1l0,0
		C75,63,74.8,63,74.5,63l0,0C74.3,63.1,74.3,63,74,63z M10.4,62c-0.2-0.4-0.1-0.9,0.3-1.1l0,0c0.4-0.2,0.9-0.1,1.1,0.3l0,0
		c0.2,0.4,0.1,0.9-0.3,1.1l0,0c-0.1,0.1-0.3,0.1-0.4,0.1l0,0C10.9,62.5,10.6,62.3,10.4,62z M75.7,60c-0.4-0.2-0.6-0.7-0.5-1.1l0,0
		c0.2-0.4,0.7-0.7,1.1-0.5l0,0c0.4,0.2,0.6,0.7,0.5,1.1l0,0c-0.1,0.3-0.4,0.5-0.8,0.5l0,0C75.9,60,75.7,60,75.7,60z M8.9,59L8.9,59
		c-0.1-0.1-0.1-0.3-0.1-0.4l0,0c-0.1-0.1-0.2-0.2-0.2-0.3l0,0c-0.2-0.4,0-0.9,0.4-1.1l0,0c0.4-0.2,0.9,0,1.1,0.4l0,0
		c0,0.1,0,0.3,0,0.4l0,0c0.1,0.1,0.2,0.2,0.2,0.3l0,0l0,0l0,0c0.2,0.4,0,0.9-0.4,1.1l0,0c-0.1,0-0.2,0.1-0.4,0.1l0,0
		C9.3,59.5,9,59.3,8.9,59z M76.8,56.8c-0.4-0.1-0.7-0.6-0.6-1l0,0c0.1-0.4,0.6-0.7,1-0.6l0,0c0.4,0.1,0.7,0.6,0.6,1l0,0
		c-0.1,0.4-0.4,0.6-0.8,0.6l0,0C76.9,56.9,76.8,56.8,76.8,56.8z M7.3,55.2c-0.2-0.4,0.1-0.9,0.5-1.1l0,0C8.2,54,8.7,54.1,9,54.6l0,0
		c0.2,0.4-0.1,0.9-0.5,1.1l0,0c-0.1,0-0.2,0.1-0.3,0.1l0,0C7.7,55.7,7.4,55.4,7.3,55.2z M77.5,53.7c-0.5-0.1-0.8-0.5-0.7-1l0,0
		c0.1-0.4,0.5-0.8,1-0.7l0,0c0.5,0.1,0.8,0.5,0.7,1l0,0c-0.1,0.4-0.4,0.7-0.8,0.7l0,0C77.6,53.7,77.6,53.7,77.5,53.7z M6.2,51.8
		c-0.1-0.4,0.1-0.9,0.6-1l0,0c0.5-0.1,0.9,0.1,1.1,0.6l0,0c0.1,0.4-0.1,0.9-0.6,1l0,0c-0.1,0-0.2,0-0.2,0l0,0
		C6.7,52.6,6.4,52.3,6.2,51.8z M78,50.3c-0.5,0-0.8-0.4-0.8-0.9l0,0c0-0.5,0.5-0.8,0.9-0.8l0,0c0.5,0,0.8,0.4,0.8,0.9l0,0
		C78.9,50,78.5,50.3,78,50.3L78,50.3C78.1,50.3,78.1,50.3,78,50.3z M5.4,48.6c-0.1-0.5,0.2-0.9,0.6-1l0,0c0.5-0.1,0.9,0.2,1,0.6l0,0
		c0.1,0.5-0.2,0.9-0.6,1l0,0c-0.1,0-0.1,0-0.2,0l0,0C5.9,49.2,5.4,49,5.4,48.6z M78.3,47c-0.5,0-0.8-0.4-0.8-0.9l0,0
		c0-0.5,0.4-0.8,0.9-0.8l0,0c0.5,0,0.8,0.4,0.8,0.9l0,0C79.1,46.6,78.8,47,78.3,47L78.3,47L78.3,47z M4.7,45.3
		c-0.1-0.5,0.3-0.9,0.7-0.9l0,0c0.5-0.1,0.9,0.2,1,0.7l0,0c0.1,0.5-0.3,0.9-0.7,1l0,0H5.6l0,0C5.3,46,4.8,45.7,4.7,45.3z M77.5,42.8
		c0-0.5,0.4-0.9,0.8-0.9l0,0c0.5,0,0.9,0.4,0.9,0.8l0,0c0,0.5-0.4,0.9-0.8,0.9l0,0l0,0l0,0C77.9,43.6,77.5,43.2,77.5,42.8z
		 M4.5,41.9L4.5,41.9c0-0.5,0.3-0.9,0.8-0.9l0,0c0.5,0,0.9,0.3,0.9,0.8l0,0l0,0l0,0c0,0.5-0.3,0.9-0.8,0.9l0,0c0,0,0,0-0.1,0l0,0
		C4.8,42.6,4.5,42.3,4.5,41.9z M77.4,39.4c0-0.5,0.3-0.9,0.8-0.9l0,0c0.5,0,0.9,0.3,0.9,0.8l0,0c0,0.5-0.3,0.9-0.8,0.9l0,0l0,0l0,0
		C77.7,40.2,77.4,40,77.4,39.4z M5.1,39.4c-0.5,0-0.8-0.4-0.8-0.9l0,0c0-0.5,0.4-0.8,0.9-0.8l0,0C5.7,37.7,6,38,6,38.5l0,0
		C5.9,38.9,5.6,39.4,5.1,39.4L5.1,39.4L5.1,39.4z M77.1,36.2c-0.1-0.5,0.3-0.9,0.8-0.9l0,0c0.5,0,0.9,0.3,0.9,0.8l0,0
		c0,0.5-0.3,0.9-0.8,0.9l0,0h-0.1l0,0C77.4,37,77.1,36.7,77.1,36.2z M5.1,36c-0.5-0.1-0.8-0.5-0.8-0.9l0,0c0-0.5,0.5-0.8,0.9-0.8
		l0,0c0.6,0.1,0.9,0.5,0.9,0.9l0,0C6,35.7,5.7,36,5.1,36L5.1,36C5.3,36,5.3,36,5.1,36z M76.5,33L76.5,33L76.5,33
		c-0.1-0.4,0.2-0.9,0.6-1l0,0c0.5-0.1,0.9,0.2,1,0.6l0,0c0.1,0.4-0.2,0.9-0.7,1l0,0c-0.1,0-0.1,0-0.2,0l0,0
		C76.9,33.6,76.6,33.4,76.5,33z M5.6,32.6c-0.5-0.1-0.8-0.5-0.7-1l0,0c0.1-0.5,0.5-0.8,1-0.7l0,0c0.5,0.1,0.8,0.5,0.7,1l0,0
		c-0.1,0.4-0.4,0.7-0.8,0.7l0,0C5.7,32.7,5.6,32.7,5.6,32.6z M75.7,29.8c-0.1-0.4,0.1-0.9,0.6-1l0,0c0.4-0.1,0.9,0.1,1,0.6l0,0
		c0.1,0.4-0.1,0.9-0.6,1l0,0c-0.1,0-0.2,0-0.3,0l0,0C76.2,30.4,75.9,30.1,75.7,29.8z M6.4,29.4c-0.4-0.1-0.7-0.6-0.5-1.1l0,0
		c0.1-0.4,0.6-0.7,1-0.6l0,0c0.5,0.1,0.7,0.6,0.6,1.1l0,0c-0.1,0.4-0.4,0.6-0.8,0.6l0,0C6.4,29.4,6.4,29.4,6.4,29.4z M74.6,26.7
		L74.6,26.7L74.6,26.7c-0.2-0.4,0-0.9,0.5-1.1l0,0c0.4-0.2,0.9,0,1.1,0.5l0,0c0.2,0.4,0,0.9-0.5,1.1l0,0c-0.1,0-0.2,0.1-0.3,0.1l0,0
		C75.1,27.3,74.8,27,74.6,26.7z M7.4,26.2C7,26,6.8,25.6,7,25.1l0,0c0.1-0.5,0.6-0.7,1.1-0.5l0,0c0.4,0.2,0.6,0.7,0.4,1.1l0,0
		c-0.1,0.3-0.4,0.5-0.8,0.5l0,0C7.6,26.2,7.6,26.2,7.4,26.2z M73.3,23.8L73.3,23.8L73.3,23.8c-0.2-0.4-0.1-0.9,0.4-1.1l0,0
		c0.4-0.2,0.9,0,1.1,0.4l0,0c0.2,0.4,0,0.9-0.4,1.1l0,0c-0.1,0-0.2,0-0.3,0l0,0C73.7,24.2,73.4,24.1,73.3,23.8z M8.8,23.2
		C8.4,23,8.3,22.4,8.5,22l0,0c0.2-0.4,0.8-0.5,1.2-0.3l0,0c0.4,0.2,0.5,0.8,0.3,1.2l0,0c-0.2,0.3-0.4,0.4-0.7,0.4l0,0
		C9.1,23.3,9,23.3,8.8,23.2z M71.7,21c-0.3-0.4-0.1-0.9,0.3-1.2l0,0c0.4-0.3,0.9-0.1,1.2,0.3l0,0c0.3,0.4,0.2,0.9-0.2,1.2l0,0
		c-0.1,0.1-0.3,0.1-0.4,0.1l0,0C72,21.3,71.7,21.2,71.7,21z M10.6,20.4c-0.4-0.3-0.4-0.8-0.2-1.2l0,0c0.3-0.4,0.8-0.4,1.2-0.2l0,0
		c0.4,0.3,0.4,0.8,0.2,1.2l0,0c-0.2,0.2-0.4,0.3-0.7,0.3l0,0C11,20.6,10.8,20.5,10.6,20.4z M69.7,18.3c-0.3-0.4-0.2-0.9,0.1-1.2l0,0
		c0.4-0.3,0.9-0.2,1.2,0.1l0,0c0.3,0.4,0.2,0.9-0.1,1.2l0,0c-0.2,0.1-0.4,0.2-0.5,0.2l0,0C70,18.6,69.9,18.5,69.7,18.3z M12.8,17.8
		c-0.3-0.3-0.3-0.9,0-1.2l0,0c0.3-0.3,0.9-0.3,1.2,0l0,0c0.3,0.3,0.3,0.9,0,1.2l0,0c-0.2,0.2-0.4,0.3-0.6,0.3l0,0
		C13.2,18,12.9,18,12.8,17.8z M67.5,15.9c-0.3-0.3-0.3-0.9,0-1.2l0,0c0.3-0.3,0.9-0.3,1.2,0l0,0c0.3,0.3,0.3,0.9,0,1.2l0,0
		c-0.2,0.2-0.4,0.3-0.6,0.3l0,0C67.9,16.1,67.7,16,67.5,15.9z M15.2,15.5c-0.3-0.4-0.2-0.9,0.1-1.2l0,0c0.4-0.3,0.9-0.3,1.2,0.1l0,0
		c0.3,0.4,0.3,0.9-0.1,1.2l0,0c-0.2,0.1-0.4,0.2-0.5,0.2l0,0C15.6,15.8,15.4,15.6,15.2,15.5z M65.1,13.8c-0.4-0.3-0.4-0.8-0.1-1.2
		l0,0c0.3-0.4,0.8-0.4,1.2-0.1l0,0c0.4,0.3,0.4,0.8,0.1,1.2l0,0c-0.2,0.2-0.4,0.3-0.7,0.3l0,0C65.4,13.9,65.3,13.8,65.1,13.8z
		 M17.7,13.5c-0.3-0.4-0.2-0.9,0.2-1.2l0,0c0.4-0.3,0.9-0.2,1.2,0.2l0,0c0.3,0.4,0.2,0.9-0.2,1.2l0,0c-0.1,0.1-0.3,0.2-0.5,0.2l0,0
		C18.2,13.8,18,13.6,17.7,13.5z M20.6,11.5c-0.2-0.4-0.1-0.9,0.3-1.1l0,0c0.4-0.2,0.9-0.1,1.1,0.3l0,0c0.2,0.4,0.1,0.9-0.3,1.1l0,0
		c-0.1,0.1-0.3,0.1-0.4,0.1l0,0C21.1,12.1,20.8,11.8,20.6,11.5z M62.4,11.8c-0.4-0.2-0.5-0.8-0.3-1.2l0,0c0.3-0.4,0.8-0.5,1.2-0.3
		l0,0c0.4,0.2,0.5,0.8,0.3,1.2l0,0c-0.2,0.3-0.4,0.4-0.7,0.4l0,0C62.7,11.9,62.5,11.9,62.4,11.8z M23.5,10c-0.2-0.4,0-0.9,0.4-1.1
		l0,0c0.4-0.2,0.9,0,1.1,0.4l0,0c0.2,0.4,0,0.9-0.4,1.1l0,0c-0.1,0.1-0.2,0.1-0.3,0.1l0,0C24,10.4,23.7,10.3,23.5,10z M59.6,10.3
		c-0.4-0.2-0.6-0.7-0.4-1.1l0,0c0.2-0.4,0.7-0.6,1.1-0.4l0,0c0.4,0.2,0.6,0.7,0.4,1.1l0,0c-0.1,0.3-0.4,0.5-0.8,0.5l0,0
		C59.9,10.4,59.7,10.4,59.6,10.3z M26.6,8.7c-0.2-0.4,0.1-0.9,0.5-1.1l0,0c0.4-0.2,0.9,0.1,1.1,0.5l0,0c0.2,0.4-0.1,0.9-0.5,1.1l0,0
		l0,0l0,0c-0.1,0-0.2,0.1-0.3,0.1l0,0C27.1,9.2,26.7,9,26.6,8.7z M56.5,9c-0.4-0.2-0.7-0.6-0.5-1.1l0,0c0.2-0.4,0.6-0.7,1.1-0.5l0,0
		c0.4,0.2,0.7,0.7,0.5,1.1l0,0C57.6,8.7,57.3,9,56.8,9l0,0C56.8,9,56.7,9,56.5,9z M29.8,7.6c-0.1-0.5,0.1-0.9,0.6-1l0,0
		c0.5-0.1,0.9,0.1,1,0.6l0,0c0.1,0.4-0.1,0.9-0.6,1l0,0c-0.1,0-0.1,0-0.2,0l0,0C30.1,8.1,29.8,7.9,29.8,7.6z M53.5,8.1
		c-0.4-0.1-0.7-0.6-0.6-1l0,0c0.1-0.5,0.6-0.7,1-0.7l0,0c0.4,0.1,0.7,0.7,0.6,1l0,0c-0.1,0.4-0.5,0.6-0.8,0.6l0,0
		C53.6,8.1,53.6,8.1,53.5,8.1z M32.9,6.7c-0.1-0.5,0.2-0.9,0.7-1l0,0c0.5-0.1,0.9,0.2,1,0.7l0,0c0.1,0.5-0.1,0.9-0.6,1l0,0
		c-0.1,0-0.1,0-0.2,0l0,0C33.4,7.4,33.1,7.1,32.9,6.7z M50.3,7.3L50.3,7.3L50.3,7.3c-0.5-0.1-0.8-0.5-0.7-1l0,0
		c0.1-0.5,0.5-0.8,1-0.7l0,0c0.5,0.1,0.8,0.5,0.7,1l0,0c-0.1,0.4-0.4,0.7-0.8,0.7l0,0C50.4,7.4,50.3,7.4,50.3,7.3z M47,6.9
		c-0.5,0-0.8-0.5-0.8-0.9l0,0c0-0.5,0.5-0.8,0.9-0.8l0,0c0.5,0,0.8,0.5,0.8,0.9l0,0C47.9,6.6,47.5,6.9,47,6.9L47,6.9
		C47.2,6.9,47,6.9,47,6.9z M36.3,6.1c0-0.5,0.3-0.9,0.8-0.9l0,0C37.7,5.2,38,5.5,38,6l0,0c0,0.5-0.3,0.9-0.8,0.9l0,0h-0.1l0,0
		C36.7,6.9,36.3,6.6,36.3,6.1z M43.8,6.7c-0.5,0-0.8-0.4-0.8-0.9l0,0C43,5.3,43.3,5,43.9,5l0,0c0.5,0,0.8,0.4,0.8,0.9l0,0
		C44.7,6.3,44.3,6.7,43.8,6.7L43.8,6.7L43.8,6.7z M39.6,5.8c0-0.5,0.3-0.9,0.8-0.9l0,0c0.5,0,0.9,0.4,0.9,0.8l0,0
		c0,0.5-0.3,0.8-0.8,0.9l0,0l0,0l0,0C40,6.7,39.6,6.3,39.6,5.8z"/>
</g>
<g>
	<g>
		<g>
			<path class="st2" d="M40.9,28.7c2.4,0,4.4-2,4.4-4.4v-1.7c0-2.4-2-4.4-4.4-4.4s-4.4,2-4.4,4.4v1.7C36.5,26.7,38.5,28.7,40.9,28.7
				z M38.3,22.5c0-1.4,1.2-2.6,2.6-2.6s2.6,1.2,2.6,2.6v1.7c0,1.4-1.2,2.6-2.6,2.6s-2.6-1.2-2.6-2.6V22.5z"/>
		</g>
		<g>
			<path class="st2" d="M35.5,47l-3.4-2.8l4-10.7h10l1.5,3.8l1.7-0.6l-1.7-4.5c-0.1-0.4-0.5-0.6-0.9-0.6H35.5
				c-0.4,0-0.7,0.2-0.9,0.6l-4.5,12c-0.1,0.4,0,0.8,0.3,1l3.5,2.9l1.7,14.5l1.8-0.2l-1.8-14.8C35.8,47.3,35.7,47.1,35.5,47z"/>
		</g>
	</g>
	<g>
		<path class="st2" d="M52.3,62.7c-6.3,0-11.3-5.1-11.3-11.3s5.1-11.3,11.3-11.3c6.3,0,11.3,5.1,11.3,11.3S58.5,62.7,52.3,62.7z
			 M52.3,41.9c-5.2,0-9.5,4.3-9.5,9.5s4.3,9.5,9.5,9.5s9.5-4.3,9.5-9.5S57.6,41.9,52.3,41.9z"/>
	</g>
	<g>
		<g>
			<rect x="51.4" y="47" class="st2" width="1.7" height="8.9"/>
		</g>
		<g>
			<rect x="47.8" y="50.6" class="st2" width="8.9" height="1.7"/>
		</g>
	</g>
</g>
</svg>
