<?xml version="1.0" encoding="utf-8"?>
<!-- Generator: Adobe Illustrator 22.1.0, SVG Export Plug-In . SVG Version: 6.00 Build 0)  -->
<svg version="1.1" xmlns="http://www.w3.org/2000/svg" xmlns:xlink="http://www.w3.org/1999/xlink" x="0px" y="0px"
	 viewBox="0 0 372.3 463" style="enable-background:new 0 0 372.3 463;" xml:space="preserve">
<style type="text/css">
	.st0{fill:none;stroke:#2A3284;stroke-width:8;stroke-linecap:round;stroke-linejoin:round;stroke-miterlimit:10;}
	.st1{fill:#2A3284;}
	.st2{fill:none;stroke:#2A3284;stroke-width:8;stroke-miterlimit:10;}
	.st3{fill:none;stroke:#2A3284;stroke-width:8;stroke-linecap:round;stroke-miterlimit:10;}
	.st4{fill:#FFFFFF;stroke:#2A3284;stroke-width:8;stroke-linecap:round;stroke-miterlimit:10;}
</style>
<g id="Livello_2">
	<g>
		<line class="st0" x1="94.4" y1="176.2" x2="94.4" y2="215.3"/>
		<polyline class="st0" points="94.4,235.2 109.5,235.2 109.5,212.8 		"/>
		<polyline class="st0" points="109.5,194.1 109.5,176.2 128,176.2 		"/>
		<polyline class="st0" points="125.1,200.9 125.1,235.2 141.1,235.2 141.1,216.9 		"/>
		<polyline class="st0" points="141.1,196.1 141.1,176.2 190,176.2 		"/>
		<polyline class="st0" points="157.9,235.2 157.9,202.5 190,202.5 		"/>
		<line class="st0" x1="141.1" y1="130.7" x2="141.1" y2="163.4"/>
		<rect x="160.7" y="130.7" class="st0" width="29.2" height="32"/>
		<rect x="94.4" y="130.7" class="st0" width="29.2" height="32"/>
	</g>
</g>
<g id="Livello_1">
	<g>
		<path class="st1" d="M137,262.8c0-1.2,0.9-2.1,1.9-2.1l0,0c1.2,0,2.1,0.9,2.1,1.9l0,0c0,1.2-0.9,2.1-1.9,2.1l0,0l0,0l0,0
			C137.9,264.6,137,263.7,137,262.8z M130.9,264.6c-1.2,0-1.9-0.9-1.9-2.1l0,0c0-1.2,0.9-1.9,2.1-1.9l0,0c1.2,0,1.9,0.9,1.9,2.1l0,0
			C133,263.7,132.1,264.6,130.9,264.6L130.9,264.6C131.2,264.6,130.9,264.6,130.9,264.6z M144.9,262.3c0-1.2,0.7-2.1,1.9-2.1l0,0
			c1.2,0,2.1,0.7,2.1,1.9l0,0c0,1.2-0.7,2.1-1.9,2.1l0,0c0,0,0,0-0.2,0l0,0C145.8,264.2,144.9,263.5,144.9,262.3z M123,263.9
			c-1.2,0-1.9-1.2-1.6-2.1l0,0c0-1.2,1.2-1.9,2.1-1.6l0,0l0,0l0,0c1.2,0,1.9,1.2,1.9,2.1l0,0c-0.2,0.9-1.2,1.6-2.1,1.6l0,0
			C123.3,263.9,123.3,263.9,123,263.9z M152.5,261.6c-0.2-1.2,0.7-2.1,1.6-2.1l0,0c1.2,0,2.1,0.7,2.1,1.6l0,0
			c0.2,1.2-0.7,2.1-1.6,2.1l0,0h-0.2l0,0C153.5,263.5,152.8,262.5,152.5,261.6z M115.1,262.8c-1.2-0.2-1.9-1.2-1.6-2.3l0,0
			c0.2-1.2,1.2-1.9,2.3-1.6l0,0c1.2,0.2,1.9,1.2,1.6,2.3l0,0c-0.2,0.9-0.9,1.6-1.9,1.6l0,0C115.4,262.8,115.4,262.8,115.1,262.8z
			 M160.4,260.7c-0.2-1.2,0.7-2.1,1.6-2.3l0,0c1.2-0.2,2.1,0.5,2.3,1.6l0,0c0.2,1.2-0.7,2.1-1.6,2.3l0,0h-0.2l0,0
			C161.4,262.3,160.4,261.6,160.4,260.7z M107.5,260.9c-0.9-0.2-1.6-1.4-1.4-2.6l0,0c0.2-0.9,1.4-1.6,2.3-1.4l0,0
			c0.9,0.2,1.6,1.4,1.4,2.3l0,0c-0.2,0.9-0.9,1.4-1.9,1.4l0,0C107.7,261.1,107.7,260.9,107.5,260.9z M168.1,259.5
			c-0.2-1.2,0.5-2.1,1.6-2.3l0,0c1.2-0.2,2.1,0.5,2.3,1.6l0,0c0.2,1.2-0.5,2.1-1.6,2.3l0,0c0,0-0.2,0-0.5,0l0,0
			C169,260.9,168.3,260.4,168.1,259.5z M175.8,257.9c-0.2-0.9,0.5-2.1,1.4-2.3l0,0c1.2-0.2,2.1,0.5,2.3,1.4l0,0
			c0.2,1.2-0.5,2.1-1.4,2.3l0,0c-0.2,0-0.2,0-0.5,0l0,0C176.7,259.3,176,258.8,175.8,257.9z M99.8,258.3c-0.9-0.5-1.4-1.6-1.2-2.6
			l0,0c0.5-0.9,1.6-1.4,2.6-1.2l0,0c0.9,0.5,1.4,1.6,0.9,2.6l0,0c-0.2,0.7-0.9,1.2-1.9,1.2l0,0C100.3,258.3,100,258.3,99.8,258.3z
			 M183.2,255.8c-0.2-0.9,0.2-2.1,1.2-2.3l0,0l0,0l0,0c1.2-0.2,2.1,0.2,2.6,1.2l0,0c0.2,1.2-0.2,2.1-1.4,2.6l0,0c-0.2,0-0.5,0-0.7,0
			l0,0C184.4,257.2,183.7,256.7,183.2,255.8z M92.6,254.9c-0.9-0.5-1.4-1.6-0.7-2.6l0,0c0.5-0.9,1.6-1.4,2.6-0.7l0,0
			c0.9,0.5,1.2,1.6,0.7,2.6l0,0c-0.5,0.7-0.9,0.9-1.6,0.9l0,0C93.3,255.1,92.8,254.9,92.6,254.9z M190.6,253.5
			c-0.5-0.9,0-2.1,1.2-2.6l0,0c0.9-0.5,2.1,0,2.6,1.2l0,0c0.5,0.9,0,2.1-1.2,2.6l0,0c-0.2,0-0.5,0-0.7,0l0,0
			C191.8,254.6,191.1,254.2,190.6,253.5z M197.8,250.4c-0.5-0.9,0-2.1,0.9-2.6l0,0l0,0l0,0c0.9-0.5,2.1-0.2,2.6,0.9l0,0
			c0.5,0.9,0.2,2.1-0.9,2.6l0,0c-0.2,0.2-0.7,0.2-0.9,0.2l0,0C199,251.4,198.3,251.1,197.8,250.4z M85.8,250.4
			c-0.9-0.7-1.2-1.9-0.5-2.8l0,0c0.7-0.9,1.9-1.2,2.8-0.5l0,0c0.9,0.7,1.2,1.9,0.5,2.8l0,0c-0.5,0.5-0.9,0.9-1.6,0.9l0,0
			C86.5,250.9,86.1,250.7,85.8,250.4z M204.8,246.5c-0.7-0.9-0.5-2.1,0.5-2.8l0,0c0.9-0.7,2.1-0.5,2.8,0.5l0,0
			c0.7,0.9,0.5,2.1-0.5,2.8l0,0c-0.2,0.2-0.7,0.5-1.2,0.5l0,0C205.7,247.4,205.1,247.2,204.8,246.5z M79.6,245.3L79.6,245.3
			c-0.7-0.7-0.9-2.1,0-2.8l0,0c0.7-0.7,2.1-0.9,2.8,0l0,0c0.7,0.7,0.9,2.1,0,2.8l0,0c-0.5,0.5-0.9,0.7-1.4,0.7l0,0
			C80.5,245.8,80,245.8,79.6,245.3z M211.1,241.8c-0.7-0.7-0.7-2.1,0-2.8l0,0c0.7-0.7,2.1-0.7,2.8,0l0,0c0.7,0.7,0.7,2.1,0,2.8l0,0
			c-0.5,0.5-0.9,0.5-1.4,0.5l0,0C211.8,242.5,211.3,242.3,211.1,241.8z M74,239.5c-0.7-0.9-0.7-2.1,0.2-2.8l0,0
			c0.9-0.7,2.1-0.7,2.8,0.2l0,0c0.7,0.9,0.7,2.1-0.2,2.8l0,0c-0.5,0.2-0.9,0.5-1.4,0.5l0,0C74.9,240.2,74.5,240,74,239.5z
			 M216.4,236.3c-0.9-0.7-1.2-1.9-0.5-2.8l0,0c0.7-0.9,1.9-1.2,2.8-0.5l0,0c0.9,0.7,1.2,1.9,0.5,2.8l0,0c-0.5,0.5-0.9,0.7-1.6,0.7
			l0,0C217.1,236.7,216.9,236.5,216.4,236.3z M69.1,233c-0.7-0.9-0.5-2.1,0.5-2.8l0,0c0.9-0.7,2.1-0.2,2.8,0.5l0,0
			c0.7,0.9,0.2,2.1-0.5,2.8l0,0c-0.2,0.2-0.7,0.2-1.2,0.2l0,0C70,233.9,69.6,233.7,69.1,233z M220.9,229.8c-0.9-0.5-1.4-1.6-0.9-2.6
			l0,0c0.5-0.9,1.6-1.4,2.6-0.9l0,0c0.9,0.5,1.4,1.6,0.9,2.6l0,0c-0.2,0.7-0.9,1.2-1.9,1.2l0,0C221.5,230,221.1,230,220.9,229.8z
			 M64.9,226.3c-0.5-0.9-0.2-2.1,0.7-2.6l0,0c0.9-0.5,2.1-0.2,2.6,0.7l0,0c0.5,0.9,0.2,2.1-0.7,2.6l0,0c-0.2,0.2-0.7,0.2-0.9,0.2
			l0,0C66.1,227.2,65.4,227,64.9,226.3z M224.1,222.8c-0.9-0.5-1.6-1.4-1.2-2.6l0,0c0.5-0.9,1.4-1.6,2.6-1.2l0,0
			c0.9,0.2,1.6,1.4,1.2,2.6l0,0c-0.2,0.7-0.9,1.4-1.9,1.4l0,0C224.6,222.8,224.3,222.8,224.1,222.8z M61.4,219.1
			c0-0.2,0-0.2-0.2-0.5l0,0c0-0.2-0.2-0.2-0.2-0.5l0,0c-0.5-0.9,0-2.1,0.9-2.6l0,0c0.9-0.5,2.1,0,2.6,0.9l0,0c0,0.2,0,0.2,0,0.5l0,0
			l0.2,0.2l0,0c0.5,0.9,0,2.1-0.9,2.6l0,0c-0.2,0.2-0.5,0.2-0.9,0.2l0,0C62.4,220.2,61.7,219.8,61.4,219.1z M226.4,215.4
			c-1.2-0.2-1.6-1.2-1.4-2.3l0,0l0,0l0,0c0.2-1.2,1.2-1.9,2.3-1.4l0,0c1.2,0.2,1.6,1.4,1.4,2.3l0,0c-0.2,0.9-0.9,1.6-1.9,1.6l0,0
			C226.9,215.4,226.7,215.4,226.4,215.4z M58.2,210.9c-0.2-0.9,0.2-2.1,1.2-2.6l0,0c0.9-0.2,2.1,0.2,2.6,1.2l0,0
			c0.2,0.9-0.2,2.1-1.2,2.6l0,0c-0.2,0-0.5,0-0.7,0l0,0C59.1,212.3,58.4,211.6,58.2,210.9z M228.1,207.7c-1.2-0.2-1.9-1.2-1.9-2.1
			l0,0c0.2-1.2,1.2-1.9,2.1-1.6l0,0c1.2,0.2,1.9,1.2,1.6,2.1l0,0C230.1,207,229.2,207.7,228.1,207.7L228.1,207.7L228.1,207.7z
			 M55.9,203.3c-0.2-1.2,0.5-2.1,1.4-2.3l0,0c1.2-0.2,2.1,0.5,2.3,1.4l0,0c0.2,0.9-0.5,2.1-1.4,2.3l0,0c-0.2,0-0.2,0-0.5,0l0,0
			C57,204.7,56.1,204.2,55.9,203.3z M228.8,199.8c-1.2,0-1.9-0.9-1.9-2.1l0,0c0-1.2,0.9-1.9,2.1-1.9l0,0c1.2,0,1.9,0.9,1.9,2.1l0,0
			C230.6,199.1,229.9,199.8,228.8,199.8L228.8,199.8L228.8,199.8z M54.5,195.4c-0.2-1.2,0.5-2.1,1.6-2.3l0,0
			c1.2-0.2,2.1,0.5,2.3,1.6l0,0c0.2,1.2-0.5,2.1-1.6,2.3l0,0h-0.2l0,0C55.4,197,54.5,196.3,54.5,195.4z M226.9,190
			c0-1.2,0.9-2.1,1.9-2.1l0,0c1.2,0,2.1,0.9,2.1,1.9l0,0c0,1.2-0.9,2.1-1.9,2.1l0,0l0,0l0,0C227.8,191.9,226.9,191.2,226.9,190z
			 M53.5,187.2c0-1.2,0.9-1.9,1.9-2.1l0,0c1.2,0,2.1,0.9,2.1,1.9l0,0c0,1.2-0.9,1.9-1.9,1.9l0,0l0,0l0,0
			C54.5,189.1,53.5,188.4,53.5,187.2z M226.4,182.4L226.4,182.4L226.4,182.4c0-1.2,0.7-2.1,1.9-2.1l0,0c1.2,0,2.1,0.7,2.1,1.9l0,0
			c0,1.2-0.7,2.1-1.9,2.1l0,0c0,0,0,0-0.2,0l0,0C227.4,184.2,226.7,183.3,226.4,182.4z M55.6,181.4c-1.2,0-1.9-0.9-1.9-2.1l0,0
			c0-1.2,0.9-1.9,2.1-1.9l0,0c1.2,0,1.9,0.9,1.9,2.1l0,0C57.5,180.5,56.6,181.4,55.6,181.4L55.6,181.4L55.6,181.4z M225.7,174.7
			L225.7,174.7L225.7,174.7c0-1.2,0.7-2.1,1.9-2.1l0,0c1.2-0.2,2.1,0.7,2.1,1.9l0,0c0,1.2-0.7,2.1-1.9,2.1l0,0h-0.2l0,0
			C226.7,176.3,226,175.6,225.7,174.7z M55.9,173.5c-1.2,0-1.9-1.2-1.9-2.1l0,0c0.2-1.2,1.2-1.9,2.1-1.9l0,0c1.2,0,1.9,0.9,1.9,2.1
			l0,0C58,172.8,57,173.5,55.9,173.5L55.9,173.5C56.1,173.5,56.1,173.5,55.9,173.5z M224.8,167c-0.2-1.2,0.7-2.1,1.6-2.3l0,0
			c1.2-0.2,2.1,0.7,2.3,1.6l0,0c0.2,1.2-0.7,2.1-1.6,2.3l0,0h-0.2l0,0C225.7,168.6,224.8,167.9,224.8,167z M56.8,165.9
			c-1.2-0.2-1.9-1.2-1.6-2.3l0,0c0.2-1.2,1.2-1.9,2.3-1.6l0,0c1.2,0.2,1.9,1.2,1.6,2.3l0,0c-0.2,0.9-0.9,1.6-1.9,1.6l0,0
			C57,165.9,56.8,165.9,56.8,165.9z M223.4,159.4c-0.2-1.2,0.5-2.1,1.6-2.3l0,0c1.2-0.2,2.1,0.5,2.3,1.6l0,0
			c0.2,0.9-0.5,2.1-1.6,2.3l0,0c-0.2,0-0.2,0-0.5,0l0,0C224.6,161,223.6,160.3,223.4,159.4z M58.2,158c-1.2-0.2-1.6-1.4-1.4-2.3l0,0
			c0.2-1.2,1.4-1.6,2.3-1.4l0,0c0.9,0.2,1.6,1.2,1.4,2.3l0,0c-0.2,0.9-0.9,1.4-1.9,1.4l0,0C58.4,158.2,58.2,158.2,58.2,158z
			 M221.8,151.9c-0.2-0.9,0.2-2.1,1.4-2.3l0,0c0.9-0.2,2.1,0.2,2.3,1.4l0,0c0.2,1.2-0.2,2.1-1.4,2.3l0,0c-0.2,0-0.2,0-0.5,0l0,0
			C222.9,153.3,222,152.6,221.8,151.9z M60.1,150.5c-0.9-0.2-1.6-1.4-1.4-2.6l0,0c0.2-0.9,1.4-1.6,2.6-1.4l0,0
			c0.9,0.2,1.6,1.4,1.4,2.3l0,0c-0.2,0.9-1.2,1.4-1.9,1.4l0,0C60.3,150.5,60.1,150.5,60.1,150.5z M219.5,144.5L219.5,144.5
			L219.5,144.5c-0.5-0.9,0.2-2.1,1.2-2.6l0,0c0.9-0.5,2.1,0.2,2.6,1.2l0,0c0.5,0.9-0.2,2.1-1.2,2.6l0,0c-0.2,0-0.5,0.2-0.7,0.2l0,0
			C220.6,145.9,219.9,145.4,219.5,144.5z M62.4,143.1c-0.9-0.5-1.6-1.6-1.2-2.6l0,0c0.5-0.9,1.6-1.4,2.6-1.2l0,0
			c0.9,0.5,1.6,1.6,1.2,2.6l0,0l0,0l0,0c-0.2,0.7-0.9,1.2-1.9,1.2l0,0C62.8,143.1,62.6,143.1,62.4,143.1z M216.4,137.5
			c-0.5-0.9,0-2.1,0.9-2.6l0,0c0.9-0.5,2.1,0,2.6,0.9l0,0c0.5,0.9,0,2.1-0.9,2.6l0,0c-0.2,0.2-0.7,0.2-0.9,0.2l0,0
			C217.6,138.7,216.9,138.2,216.4,137.5z M65.4,135.9c-0.9-0.5-1.4-1.6-0.9-2.6l0,0c0.5-0.9,1.6-1.4,2.6-0.9l0,0
			c0.9,0.5,1.4,1.6,0.9,2.6l0,0c-0.2,0.7-0.9,1.2-1.6,1.2l0,0C66.1,136.1,65.9,135.9,65.4,135.9z M212.7,131
			c-0.7-0.9-0.2-2.1,0.5-2.8l0,0c0.9-0.7,2.1-0.2,2.8,0.5l0,0c0.7,0.9,0.2,2.1-0.7,2.8l0,0c-0.2,0.2-0.7,0.2-1.2,0.2l0,0
			C213.6,131.9,213.2,131.5,212.7,131z M69.3,128.9c-0.9-0.7-1.2-1.9-0.5-2.8l0,0c0.7-0.9,1.9-1.2,2.8-0.5l0,0
			c0.9,0.7,1.2,1.9,0.5,2.8l0,0c-0.5,0.5-0.9,0.9-1.6,0.9l0,0C70,129.4,69.6,129.1,69.3,128.9z M208.1,125c-0.7-0.9-0.7-2.1,0.2-2.8
			l0,0c0.7-0.7,2.1-0.7,2.8,0.2l0,0c0.7,0.9,0.7,2.1-0.2,2.8l0,0c-0.5,0.2-0.9,0.5-1.4,0.5l0,0C209,125.7,208.5,125.4,208.1,125z
			 M73.8,122.6c-0.9-0.7-0.9-1.9-0.2-2.8l0,0c0.7-0.9,1.9-0.9,2.8-0.2l0,0c0.7,0.7,0.9,1.9,0.2,2.8l0,0c-0.5,0.5-0.9,0.7-1.4,0.7
			l0,0C74.7,123.1,74.2,122.9,73.8,122.6z M203,119.4c-0.9-0.7-0.9-1.9-0.2-2.8l0,0c0.7-0.7,1.9-0.9,2.8-0.2l0,0
			c0.7,0.7,0.9,1.9,0.2,2.8l0,0c-0.5,0.5-0.9,0.7-1.4,0.7l0,0C203.7,120.1,203.2,119.8,203,119.4z M79.1,116.8
			c-0.7-0.7-0.7-2.1,0.2-2.8l0,0c0.7-0.7,2.1-0.7,2.8,0l0,0c0.7,0.7,0.7,2.1-0.2,2.8l0,0c-0.5,0.2-0.9,0.5-1.4,0.5l0,0
			C79.8,117.3,79.3,117.1,79.1,116.8z M196.9,114.7c-0.9-0.7-1.2-1.9-0.5-2.8l0,0c0.7-0.9,1.9-1.2,2.8-0.5l0,0
			c0.9,0.7,1.2,1.9,0.5,2.8l0,0c-0.5,0.5-0.9,0.9-1.6,0.9l0,0C197.6,115.2,197.2,115,196.9,114.7z M84.9,111.7
			c-0.7-0.9-0.5-2.1,0.5-2.8l0,0c0.9-0.7,2.1-0.5,2.8,0.5l0,0c0.7,0.9,0.5,2.1-0.5,2.8l0,0c-0.2,0.2-0.7,0.2-1.2,0.2l0,0
			C85.8,112.4,85.4,112.2,84.9,111.7z M190.4,110.8c-0.9-0.5-1.4-1.6-0.7-2.6l0,0c0.5-0.9,1.6-1.4,2.6-0.7l0,0
			c0.9,0.5,1.4,1.6,0.7,2.8l0,0c-0.5,0.7-0.9,0.9-1.6,0.9l0,0C191.1,111,190.9,111,190.4,110.8z M91.4,107.3
			c-0.5-0.9-0.2-2.1,0.7-2.6l0,0c0.9-0.5,2.1-0.2,2.6,0.7l0,0c0.5,0.9,0.2,2.1-0.7,2.6l0,0c-0.2,0.2-0.5,0.2-0.9,0.2l0,0
			C92.4,108.2,91.7,108,91.4,107.3z M183.7,107.5c-0.9-0.5-1.4-1.6-1.2-2.6l0,0c0.5-0.9,1.6-1.4,2.6-0.9l0,0
			c0.9,0.5,1.4,1.6,0.9,2.6l0,0c-0.2,0.7-0.9,1.2-1.9,1.2l0,0C184.1,107.8,183.9,107.5,183.7,107.5z M98.4,103.8
			c-0.5-0.9,0-2.1,1.2-2.6l0,0c0.9-0.5,2.1,0,2.6,1.2l0,0c0.5,0.9,0,2.1-1.2,2.6l0,0l0,0l0,0c-0.2,0-0.5,0.2-0.7,0.2l0,0
			C99.3,105,98.6,104.5,98.4,103.8z M176.5,104.7c-0.9-0.2-1.6-1.4-1.2-2.6l0,0c0.2-0.9,1.4-1.6,2.6-1.2l0,0
			c0.7,0.5,1.4,1.4,0.9,2.6l0,0c-0.2,0.9-1.2,1.4-1.9,1.4l0,0C176.9,105,176.7,105,176.5,104.7z M169,102.7
			c-0.9-0.2-1.6-1.4-1.4-2.3l0,0c0.2-1.2,1.4-1.6,2.3-1.4l0,0c1.2,0.2,1.6,1.4,1.4,2.3l0,0c-0.2,0.9-0.9,1.4-1.9,1.4l0,0
			C169.3,102.7,169.3,102.7,169,102.7z M105.6,101c-0.2-0.9,0.2-2.1,1.4-2.3l0,0c0.9-0.2,2.1,0.2,2.3,1.4l0,0
			c0.2,0.9-0.2,2.1-1.4,2.3l0,0c-0.2,0-0.2,0-0.5,0l0,0C106.8,102.4,106.1,102,105.6,101z M161.6,101c-1.2-0.2-1.9-1.2-1.6-2.3l0,0
			c0.2-1.2,1.2-1.9,2.3-1.6l0,0c1.2,0.2,1.9,1.2,1.6,2.3l0,0C163.7,100.6,162.8,101.3,161.6,101L161.6,101
			C161.8,101.3,161.6,101.3,161.6,101z M113.3,98.9c-0.2-1.2,0.5-2.1,1.6-2.3l0,0c1.2-0.2,2.1,0.5,2.3,1.6l0,0
			c0.2,1.2-0.5,2.1-1.6,2.3l0,0c0,0-0.2,0-0.5,0l0,0C114.2,100.6,113.5,100.1,113.3,98.9z M153.9,100.1c-1.2-0.2-1.9-1.2-1.6-2.1
			l0,0c0.2-1.2,1.2-1.9,2.1-1.6l0,0c1.2,0,1.9,1.2,1.6,2.1l0,0c-0.2,0.9-0.9,1.9-1.9,1.9l0,0C154.2,100.1,153.9,100.1,153.9,100.1z
			 M120.9,97.8c0-1.2,0.7-2.1,1.9-2.1l0,0c1.2-0.2,2.1,0.7,2.1,1.9l0,0c0.2,1.2-0.7,2.1-1.6,2.1l0,0l0,0l0,0H123l0,0
			C121.9,99.4,121.2,98.7,120.9,97.8z M146.3,99.2c-1.2,0-1.9-0.9-1.9-2.1l0,0c0-1.2,0.9-1.9,2.1-1.9l0,0c1.2,0,1.9,0.9,1.9,2.1l0,0
			C148.1,98.5,147.4,99.2,146.3,99.2L146.3,99.2L146.3,99.2z M128.8,97.1c0-1.2,0.9-2.1,1.9-2.1l0,0c1.2,0,2.1,0.7,2.1,1.9l0,0
			c0,1.2-0.7,2.1-1.9,2.1l0,0l0,0l0,0C129.8,98.9,128.8,98,128.8,97.1z M138.6,98.9c-1.2,0-1.9-0.9-1.9-2.1l0,0
			c0-1.2,0.9-1.9,2.1-1.9l0,0c1.2,0,1.9,0.9,1.9,2.1l0,0C140.5,98,139.5,98.9,138.6,98.9L138.6,98.9L138.6,98.9z"/>
	</g>
	<path class="st2" d="M217.2,376H67.2c-16.9,0-30.5-13.7-30.5-30.5V69.5C36.7,52.7,50.4,39,67.2,39h149.9
		c16.9,0,30.5,13.7,30.5,30.5v275.9C247.7,362.3,234,376,217.2,376z"/>
	<rect x="36.7" y="69" class="st2" width="211" height="264"/>
	<path class="st3" d="M357,361.5l-26.4-101.1c-2.6-11.4-5.6-20.4-11-29.9l-71.5-81.8"/>
	<path class="st4" d="M331.3,435.1l-42.3-19.2c-6.7-3-12.7-7.4-17.6-13L188.1,309c0,0,9.3-36.2,55.7,8.5
		c35.7,34.4,44-17.3,38.1-60.7c-3.5-25.5-32.5-48.8-32.5-48.8"/>
</g>
</svg>
