<?xml version="1.0" encoding="utf-8"?>
<!-- Generator: Adobe Illustrator 16.0.0, SVG Export Plug-In . SVG Version: 6.00 Build 0)  -->
<!DOCTYPE svg PUBLIC "-//W3C//DTD SVG 1.1//EN" "http://www.w3.org/Graphics/SVG/1.1/DTD/svg11.dtd">
<svg version="1.1" id="Layer_1" xmlns="http://www.w3.org/2000/svg" xmlns:xlink="http://www.w3.org/1999/xlink" x="0px" y="0px"
	 width="204.546px" height="210.228px" viewBox="0 0 204.546 210.228" enable-background="new 0 0 204.546 210.228"
	 xml:space="preserve">
<circle fill="none" stroke="#000000" stroke-width="4" stroke-miterlimit="10" cx="102.792" cy="100.773" r="63.636"/>
<path fill="none" stroke="#000000" stroke-width="4" stroke-miterlimit="10" d="M145.497,178.462
	c-12.666,6.978-27.222,10.948-42.705,10.948c-12.238,0-23.897-2.48-34.501-6.965"/>
<path fill="none" stroke="#000000" stroke-width="4" stroke-miterlimit="10" d="M191.429,100.773c0,7.664-0.973,15.101-2.801,22.193
	"/>
<path fill="none" stroke="#000000" stroke-width="4" stroke-miterlimit="10" d="M67.252,19.55c10.88-4.767,22.901-7.412,35.54-7.413
	c12.238,0,23.896,2.48,34.501,6.966"/>
<path fill="none" stroke="#000000" stroke-width="4" stroke-miterlimit="10" d="M19.489,131.126
	c-3.451-9.468-5.333-19.69-5.333-30.353"/>
<rect y="62.469" fill="none" width="204.546" height="98.801"/>
<text transform="matrix(1 0 0 1 66.2734 106.6895)"><tspan x="0" y="0" font-family="'Aller'" font-size="60">12 </tspan><tspan x="4.131" y="21.6" font-family="'Aller'" font-size="18">actions!</tspan></text>
</svg>
