<?xml version="1.0" encoding="utf-8"?>
<!-- Generator: Adobe Illustrator 23.0.3, SVG Export Plug-In . SVG Version: 6.00 Build 0)  -->
<svg version="1.1" id="Livello_1" xmlns="http://www.w3.org/2000/svg" xmlns:xlink="http://www.w3.org/1999/xlink" x="0px" y="0px"
	 viewBox="0 0 83 78" style="enable-background:new 0 0 83 78;" xml:space="preserve">
<style type="text/css">
	.st0{fill:#2A3284;}
	.st1{fill:#FD6400;}
</style>
<g>
	<path class="st0" d="M37.9,75.2c0-0.5,0.4-0.8,0.8-0.9l0,0l0,0l0,0c0.5,0,0.9,0.4,0.9,0.8l0,0c0,0.5-0.4,0.9-0.8,0.9l0,0l0,0l0,0
		C38.3,76,38,75.6,37.9,75.2z M35.4,76L35.4,76c-0.5,0-0.8-0.4-0.8-0.9l0,0c0-0.5,0.4-0.8,0.9-0.8l0,0c0.5,0,0.8,0.4,0.8,0.9l0,0
		C36.2,75.6,35.9,76,35.4,76L35.4,76L35.4,76z M41.3,75c0-0.5,0.3-0.9,0.8-0.9l0,0l0,0l0,0c0.5,0,0.9,0.3,0.9,0.8l0,0
		c0,0.5-0.3,0.9-0.8,0.9l0,0c0,0,0,0-0.1,0l0,0C41.7,75.8,41.3,75.5,41.3,75z M32,75.8L32,75.8c-0.5,0-0.8-0.5-0.8-0.9l0,0
		c0.1-0.5,0.5-0.8,0.9-0.8l0,0l0,0l0,0c0.5,0,0.8,0.5,0.8,0.9l0,0C32.8,75.4,32.5,75.8,32,75.8L32,75.8L32,75.8z M44.7,74.7
		c-0.1-0.5,0.3-0.9,0.7-0.9l0,0c0.5-0.1,0.9,0.3,0.9,0.7l0,0c0.1,0.5-0.3,0.9-0.7,0.9l0,0h-0.1l0,0C45.1,75.5,44.7,75.1,44.7,74.7z
		 M28.6,75.2c-0.5-0.1-0.8-0.5-0.7-1l0,0c0.1-0.5,0.5-0.8,1-0.7l0,0c0.5,0.1,0.8,0.5,0.7,1l0,0c-0.1,0.4-0.4,0.7-0.8,0.7l0,0
		C28.7,75.3,28.6,75.3,28.6,75.2z M48,74.3c-0.1-0.5,0.3-0.9,0.7-1l0,0l0,0l0,0c0.5-0.1,0.9,0.2,1,0.7l0,0c0.1,0.5-0.3,0.9-0.7,1
		l0,0h-0.1l0,0C48.4,75,48.1,74.7,48,74.3z M25.2,74.4c-0.5-0.1-0.7-0.6-0.6-1l0,0c0.1-0.5,0.6-0.7,1-0.6l0,0c0.5,0.1,0.7,0.6,0.6,1
		l0,0c-0.1,0.4-0.4,0.6-0.8,0.6l0,0C25.4,74.5,25.3,74.5,25.2,74.4z M51.3,73.8c-0.1-0.5,0.2-0.9,0.7-1l0,0l0,0l0,0
		c0.5-0.1,0.9,0.2,1,0.7l0,0c0.1,0.5-0.2,0.9-0.7,1l0,0c-0.1,0-0.1,0-0.2,0l0,0C51.8,74.5,51.4,74.2,51.3,73.8z M54.6,73.1
		c-0.1-0.5,0.2-0.9,0.6-1l0,0c0.5-0.1,0.9,0.2,1,0.6l0,0c0.1,0.4-0.2,0.9-0.6,1l0,0c-0.1,0-0.1,0-0.2,0l0,0
		C55.1,73.7,54.7,73.5,54.6,73.1z M22,73.3c-0.4-0.2-0.6-0.7-0.5-1.1l0,0c0.2-0.4,0.7-0.6,1.1-0.4l0,0c0.4,0.2,0.6,0.7,0.5,1.1l0,0
		c-0.1,0.3-0.4,0.5-0.8,0.5l0,0C22.2,73.4,22.1,73.3,22,73.3z M57.9,72.3c-0.1-0.5,0.1-0.9,0.6-1.1l0,0l0,0l0,0
		c0.4-0.1,0.9,0.1,1,0.5l0,0c0.1,0.5-0.1,0.9-0.6,1l0,0c-0.1,0-0.2,0-0.3,0l0,0C58.3,72.8,58,72.6,57.9,72.3z M18.8,71.8
		c-0.4-0.2-0.5-0.7-0.3-1.2l0,0c0.2-0.4,0.7-0.5,1.1-0.3l0,0c0.4,0.2,0.6,0.7,0.3,1.2l0,0c-0.1,0.3-0.4,0.4-0.7,0.4l0,0
		C19.1,71.9,19,71.9,18.8,71.8z M61.1,71.2c-0.2-0.4,0-0.9,0.5-1.1l0,0c0.4-0.2,0.9,0,1.1,0.5l0,0c0.2,0.4,0,0.9-0.5,1.1l0,0
		c-0.1,0-0.2,0.1-0.3,0.1l0,0C61.5,71.7,61.2,71.5,61.1,71.2z M64.2,69.9c-0.2-0.4-0.1-0.9,0.4-1.1l0,0l0,0l0,0
		c0.4-0.2,0.9-0.1,1.1,0.3l0,0c0.2,0.4,0,0.9-0.4,1.1l0,0c-0.1,0.1-0.3,0.1-0.4,0.1l0,0C64.6,70.3,64.3,70.2,64.2,69.9z M15.9,69.9
		c-0.4-0.3-0.5-0.8-0.2-1.2l0,0c0.3-0.4,0.8-0.5,1.2-0.2l0,0c0.4,0.3,0.5,0.8,0.2,1.2l0,0c-0.2,0.2-0.4,0.3-0.7,0.3l0,0
		C16.2,70.1,16.1,70,15.9,69.9z M67.1,68.2c-0.3-0.4-0.2-0.9,0.2-1.2l0,0l0,0l0,0c0.4-0.3,0.9-0.2,1.2,0.2l0,0
		c0.3,0.4,0.2,0.9-0.2,1.2l0,0c-0.1,0.1-0.3,0.1-0.5,0.1l0,0C67.5,68.6,67.3,68.5,67.1,68.2z M13.2,67.7L13.2,67.7
		c-0.4-0.3-0.4-0.9,0-1.2l0,0c0.3-0.3,0.9-0.4,1.2,0l0,0l0,0l0,0c0.3,0.3,0.4,0.8,0,1.2l0,0C14.3,67.9,14,68,13.8,68l0,0
		C13.6,68,13.4,67.9,13.2,67.7z M69.8,66.2c-0.3-0.3-0.3-0.9,0-1.2l0,0l0,0l0,0c0.3-0.3,0.9-0.3,1.2,0l0,0c0.3,0.3,0.3,0.9,0,1.2
		l0,0c-0.2,0.1-0.4,0.2-0.6,0.2l0,0C70.2,66.5,70,66.4,69.8,66.2z M10.8,65.2c-0.3-0.4-0.3-0.9,0.1-1.2l0,0c0.4-0.3,0.9-0.3,1.2,0.1
		l0,0c0.3,0.4,0.3,0.9-0.1,1.2l0,0c-0.2,0.1-0.4,0.2-0.5,0.2l0,0C11.3,65.5,11,65.4,10.8,65.2z M72.1,63.8c-0.4-0.3-0.4-0.8-0.2-1.2
		l0,0c0.3-0.4,0.8-0.5,1.2-0.2l0,0c0.4,0.3,0.4,0.8,0.2,1.2l0,0c-0.2,0.2-0.4,0.3-0.7,0.3l0,0C72.5,64,72.3,63.9,72.1,63.8z
		 M8.8,62.5c-0.3-0.4-0.2-0.9,0.2-1.2l0,0c0.4-0.3,0.9-0.2,1.2,0.2l0,0c0.3,0.4,0.2,0.9-0.2,1.2l0,0c-0.1,0.1-0.3,0.2-0.5,0.2l0,0
		C9.2,62.8,8.9,62.7,8.8,62.5z M74,61c-0.4-0.2-0.6-0.7-0.4-1.1l0,0c0.2-0.4,0.7-0.6,1.1-0.4l0,0c0.4,0.2,0.6,0.7,0.4,1.1l0,0
		c-0.1,0.3-0.4,0.5-0.8,0.5l0,0C74.3,61.1,74.2,61.1,74,61z M7,59.5c-0.2-0.4-0.1-0.9,0.3-1.1l0,0c0.4-0.2,0.9-0.1,1.1,0.3l0,0
		c0.2,0.4,0.1,0.9-0.3,1.1l0,0C8,59.9,7.8,60,7.7,60l0,0C7.4,60,7.1,59.8,7,59.5z M75.5,58c-0.4-0.2-0.7-0.6-0.5-1.1l0,0l0,0l0,0
		c0.2-0.4,0.6-0.7,1.1-0.5l0,0c0.4,0.2,0.7,0.6,0.5,1.1l0,0c-0.1,0.3-0.4,0.6-0.8,0.6l0,0C75.7,58,75.6,58,75.5,58z M5.4,56.5
		C5.4,56.5,5.4,56.4,5.4,56.5L5.4,56.5l-0.2-0.2l0,0c-0.2-0.4,0-0.9,0.4-1.1l0,0c0.4-0.2,0.9,0,1.1,0.4l0,0l0,0l0,0v0.1l0,0l0.1,0.1
		l0,0l0,0l0,0c0.2,0.4,0,0.9-0.4,1.1l0,0C6.3,57,6.2,57,6,57l0,0C5.9,56.9,5.6,56.8,5.4,56.5z M76.5,54.8c-0.5-0.1-0.7-0.6-0.7-1
		l0,0l0,0l0,0c0.1-0.5,0.5-0.7,1-0.6l0,0c0.5,0.1,0.8,0.5,0.7,1l0,0c-0.1,0.4-0.4,0.7-0.8,0.7l0,0C76.6,54.8,76.5,54.8,76.5,54.8z
		 M4,53c-0.1-0.4,0.1-0.9,0.5-1.1l0,0c0.5-0.1,1,0.1,1.1,0.5l0,0c0.1,0.4-0.1,0.9-0.5,1.1l0,0c-0.1,0-0.2,0-0.3,0l0,0
		C4.5,53.5,4.1,53.3,4,53z M77.1,51.5c-0.5,0-0.8-0.5-0.7-0.9l0,0c0-0.5,0.5-0.8,0.9-0.7l0,0c0.5,0,0.8,0.5,0.7,0.9l0,0
		C78,51.2,77.6,51.6,77.1,51.5L77.1,51.5C77.2,51.5,77.1,51.5,77.1,51.5z M3.1,49.6c-0.1-0.4,0.2-0.9,0.6-1l0,0
		c0.5-0.1,0.9,0.2,1,0.6l0,0c0.1,0.5-0.2,0.9-0.6,1l0,0c-0.1,0-0.1,0-0.2,0l0,0C3.5,50.3,3.2,50,3.1,49.6z M77.4,48.1
		c-0.5,0-0.8-0.4-0.8-0.9l0,0c0-0.5,0.4-0.8,0.9-0.8l0,0c0.5,0,0.8,0.4,0.8,0.9l0,0C78.3,47.8,77.9,48.1,77.4,48.1L77.4,48.1
		L77.4,48.1z M2.4,46.3c-0.1-0.5,0.2-0.9,0.7-1l0,0c0.5-0.1,0.9,0.3,1,0.7l0,0l0,0l0,0c0.1,0.5-0.2,0.9-0.7,1l0,0H3.3l0,0
		C2.8,47,2.5,46.7,2.4,46.3z M76.6,43.9c0-0.5,0.3-0.8,0.8-0.9l0,0c0.5,0,0.8,0.4,0.9,0.8l0,0c0,0.5-0.3,0.9-0.8,0.9l0,0l0,0l0,0
		C77,44.8,76.6,44.4,76.6,43.9z M2.1,42.8C2,42.3,2.4,42,2.9,42l0,0c0.5,0,0.8,0.4,0.9,0.8l0,0c0,0.5-0.4,0.8-0.8,0.9l0,0l0,0l0,0
		C2.4,43.6,2.1,43.3,2.1,42.8z M76.5,40.6c0-0.5,0.3-0.9,0.8-0.9l0,0c0.5,0,0.9,0.3,0.9,0.8l0,0c0,0.5-0.3,0.9-0.8,0.9l0,0
		c0,0,0,0-0.1,0l0,0C76.9,41.4,76.5,41,76.5,40.6z M2.9,40.3c-0.5,0-0.8-0.4-0.8-0.9l0,0c0-0.5,0.4-0.8,0.9-0.8l0,0
		c0.5,0,0.8,0.4,0.8,0.9l0,0C3.8,39.9,3.4,40.3,2.9,40.3L2.9,40.3L2.9,40.3z M76.1,37.3c0-0.5,0.3-0.9,0.8-0.9l0,0
		c0.5,0,0.9,0.3,0.9,0.8l0,0c0.1,0.5-0.3,0.9-0.7,0.9l0,0H77l0,0C76.6,38,76.2,37.7,76.1,37.3z M3.1,36.9c-0.5-0.1-0.8-0.5-0.8-0.9
		l0,0c0.1-0.5,0.5-0.8,0.9-0.8l0,0c0.5,0,0.8,0.5,0.8,0.9l0,0C4,36.6,3.6,36.9,3.1,36.9L3.1,36.9L3.1,36.9z M75.7,34
		c-0.1-0.5,0.2-0.9,0.7-1l0,0c0.5-0.1,0.9,0.3,1,0.7l0,0c0.1,0.5-0.3,0.9-0.7,1l0,0h-0.1l0,0C76.1,34.7,75.8,34.4,75.7,34z
		 M3.5,33.5c-0.5-0.1-0.8-0.5-0.7-1l0,0c0.1-0.5,0.5-0.8,1-0.7l0,0c0.5,0.1,0.8,0.5,0.7,1l0,0c-0.1,0.4-0.4,0.7-0.8,0.7l0,0
		C3.5,33.6,3.5,33.5,3.5,33.5z M75.2,30.7c-0.1-0.5,0.2-0.9,0.7-1l0,0c0.5-0.1,0.9,0.2,1,0.7l0,0c0.1,0.5-0.2,0.9-0.7,1l0,0
		c-0.1,0-0.1,0-0.2,0l0,0C75.6,31.4,75.2,31.1,75.2,30.7z M4,30.2c-0.5-0.1-0.7-0.6-0.6-1l0,0c0.1-0.4,0.6-0.7,1-0.6l0,0
		c0.5,0.1,0.7,0.6,0.6,1l0,0l0,0l0,0c-0.1,0.4-0.4,0.7-0.8,0.7l0,0C4.1,30.3,4.1,30.2,4,30.2z M74.4,27.5c-0.1-0.5,0.1-0.9,0.6-1
		l0,0c0.4-0.1,0.9,0.1,1,0.6l0,0c0.1,0.4-0.2,0.9-0.6,1l0,0c-0.1,0-0.1,0-0.2,0l0,0C74.9,28.1,74.5,27.8,74.4,27.5z M4.8,26.9
		c-0.4-0.1-0.7-0.6-0.6-1l0,0c0.1-0.4,0.6-0.7,1.1-0.6l0,0c0.4,0.1,0.7,0.6,0.6,1l0,0C5.8,26.8,5.4,27,5.1,27l0,0
		C5,27,4.9,27,4.8,26.9z M73.4,24.3c-0.2-0.4,0.1-0.9,0.5-1.1l0,0c0.4-0.2,0.9,0.1,1.1,0.5l0,0c0.2,0.4-0.1,0.9-0.5,1.1l0,0
		c-0.1,0-0.2,0.1-0.3,0.1l0,0C73.9,24.9,73.5,24.7,73.4,24.3z M5.9,23.8c-0.4-0.2-0.6-0.7-0.5-1.1l0,0c0.2-0.4,0.7-0.6,1.1-0.5l0,0
		c0.4,0.2,0.6,0.7,0.5,1.1l0,0c-0.1,0.3-0.5,0.5-0.8,0.5l0,0C6.1,23.8,6,23.8,5.9,23.8z M72.1,21.3L72.1,21.3L72.1,21.3
		c-0.2-0.4,0-0.9,0.4-1.1l0,0c0.4-0.2,0.9,0,1.1,0.4l0,0c0.2,0.4,0,0.9-0.4,1.1l0,0c-0.1,0.1-0.3,0.1-0.4,0.1l0,0
		C72.6,21.8,72.3,21.6,72.1,21.3z M7.2,20.6c-0.4-0.2-0.6-0.7-0.4-1.1l0,0C7,19.1,7.5,18.9,8,19.1l0,0c0.4,0.2,0.6,0.7,0.4,1.1l0,0
		l0,0l0,0c-0.1,0.3-0.4,0.4-0.8,0.4l0,0C7.4,20.7,7.3,20.7,7.2,20.6z M70.5,18.5c-0.3-0.4-0.2-0.9,0.2-1.2l0,0
		c0.4-0.3,0.9-0.1,1.2,0.2l0,0c0.3,0.4,0.2,0.9-0.2,1.2l0,0c-0.1,0.1-0.3,0.1-0.5,0.1l0,0C70.9,18.9,70.6,18.7,70.5,18.5z M8.8,17.7
		c-0.4-0.3-0.5-0.8-0.2-1.2l0,0c0.3-0.4,0.8-0.5,1.2-0.2l0,0c0.4,0.3,0.5,0.8,0.2,1.2l0,0l0,0l0,0c-0.2,0.2-0.4,0.4-0.7,0.4l0,0
		C9.1,17.8,8.9,17.8,8.8,17.7z M68.5,15.9c-0.3-0.3-0.3-0.9,0.1-1.2l0,0c0.3-0.3,0.9-0.3,1.2,0.1l0,0c0.3,0.3,0.3,0.9-0.1,1.2l0,0
		c-0.2,0.1-0.4,0.2-0.5,0.2l0,0C68.9,16.2,68.7,16.1,68.5,15.9z M10.7,14.9c-0.4-0.3-0.4-0.8-0.1-1.2l0,0c0.3-0.4,0.8-0.4,1.2-0.1
		l0,0c0.4,0.3,0.4,0.8,0.1,1.2l0,0c-0.2,0.2-0.4,0.3-0.6,0.3l0,0C11.1,15.1,10.9,15.1,10.7,14.9z M66.3,13.6
		c-0.3-0.3-0.4-0.8-0.1-1.2l0,0c0.3-0.3,0.8-0.4,1.2-0.1l0,0c0.3,0.3,0.4,0.8,0.1,1.2l0,0c-0.2,0.2-0.4,0.3-0.6,0.3l0,0
		C66.6,13.8,66.4,13.7,66.3,13.6z M13,12.4c-0.3-0.3-0.3-0.9,0-1.2l0,0c0.3-0.3,0.9-0.3,1.2,0l0,0c0.3,0.4,0.3,0.9,0,1.2l0,0
		c-0.2,0.1-0.4,0.2-0.6,0.2l0,0C13.4,12.7,13.1,12.6,13,12.4z M63.7,11.5L63.7,11.5L63.7,11.5c-0.4-0.3-0.5-0.8-0.2-1.2l0,0
		c0.3-0.4,0.8-0.5,1.2-0.2l0,0c0.4,0.3,0.5,0.8,0.2,1.2l0,0c-0.2,0.2-0.4,0.4-0.7,0.4l0,0C64,11.7,63.8,11.6,63.7,11.5z M15.5,10.2
		c-0.3-0.4-0.2-0.9,0.2-1.2l0,0c0.4-0.3,0.9-0.2,1.2,0.2l0,0c0.3,0.4,0.2,0.9-0.2,1.2l0,0c-0.1,0.1-0.3,0.2-0.5,0.2l0,0
		C15.9,10.6,15.7,10.4,15.5,10.2z M60.9,9.8c-0.4-0.2-0.6-0.7-0.3-1.1l0,0c0.2-0.4,0.7-0.6,1.1-0.3l0,0c0.4,0.2,0.6,0.7,0.3,1.2l0,0
		c-0.1,0.3-0.4,0.4-0.7,0.4l0,0C61.2,9.9,61,9.9,60.9,9.8z M18.3,8.3c-0.2-0.4-0.1-0.9,0.3-1.1l0,0c0.4-0.2,1-0.1,1.2,0.3l0,0
		c0.2,0.4,0.1,0.9-0.3,1.1l0,0c-0.1,0.1-0.3,0.1-0.4,0.1l0,0C18.8,8.8,18.5,8.6,18.3,8.3z M58,8.4c-0.4-0.2-0.6-0.7-0.5-1.1l0,0
		c0.2-0.4,0.7-0.6,1.1-0.5l0,0C59,7,59.3,7.5,59.1,7.9l0,0c-0.1,0.3-0.4,0.5-0.8,0.5l0,0C58.2,8.4,58.1,8.4,58,8.4z M21.3,6.8
		c-0.2-0.4,0-0.9,0.5-1.1l0,0c0.4-0.2,0.9,0,1.1,0.5l0,0c0.2,0.4,0,0.9-0.5,1.1l0,0c-0.1,0-0.2,0.1-0.3,0.1l0,0
		C21.8,7.3,21.4,7.1,21.3,6.8z M54.9,7.2L54.9,7.2L54.9,7.2c-0.5-0.1-0.7-0.6-0.5-1.1l0,0c0.2-0.4,0.6-0.7,1.1-0.5l0,0
		c0.4,0.1,0.7,0.6,0.5,1.1l0,0c-0.1,0.4-0.5,0.6-0.8,0.6l0,0C55.1,7.3,55,7.3,54.9,7.2z M51.7,6.3c-0.5-0.1-0.7-0.6-0.6-1l0,0
		c0.1-0.5,0.6-0.7,1-0.6l0,0c0.5,0.1,0.7,0.6,0.6,1l0,0c-0.1,0.4-0.4,0.6-0.8,0.6l0,0C51.8,6.4,51.8,6.3,51.7,6.3z M24.4,5.6
		c-0.1-0.5,0.1-0.9,0.6-1l0,0c0.4-0.1,0.9,0.1,1,0.6l0,0c0.1,0.5-0.1,0.9-0.6,1.1l0,0c-0.1,0-0.1,0-0.2,0l0,0
		C24.9,6.2,24.6,6,24.4,5.6z M48.5,5.6c-0.5-0.1-0.8-0.5-0.7-1l0,0c0.1-0.5,0.5-0.8,1-0.7l0,0c0.5,0.1,0.8,0.5,0.7,1l0,0
		c-0.1,0.4-0.4,0.7-0.8,0.7l0,0C48.6,5.7,48.5,5.7,48.5,5.6z M27.7,4.8c-0.1-0.5,0.2-0.9,0.7-1l0,0c0.5-0.1,0.9,0.2,1,0.7l0,0
		c0.1,0.5-0.2,0.9-0.7,1l0,0c-0.1,0-0.1,0-0.2,0l0,0C28.1,5.4,27.8,5.2,27.7,4.8z M45.2,5.2L45.2,5.2L45.2,5.2
		c-0.5-0.1-0.8-0.5-0.7-0.9l0,0c0.1-0.5,0.5-0.8,0.9-0.7l0,0c0.5,0.1,0.8,0.5,0.7,0.9l0,0c-0.1,0.4-0.4,0.7-0.8,0.7l0,0
		C45.3,5.2,45.2,5.2,45.2,5.2z M31,4.2c-0.1-0.5,0.3-0.9,0.7-0.9l0,0c0.5,0,0.9,0.3,0.9,0.7l0,0c0,0.5-0.3,0.9-0.8,0.9l0,0h-0.1l0,0
		C31.4,5,31.1,4.6,31,4.2z M41.9,4.8c-0.5,0-0.8-0.4-0.8-0.9l0,0c0-0.5,0.4-0.8,0.9-0.8l0,0c0.5,0,0.8,0.4,0.8,0.9l0,0
		C42.8,4.5,42.4,4.8,41.9,4.8L41.9,4.8L41.9,4.8z M34.4,3.9c0-0.5,0.3-0.9,0.8-0.9l0,0C35.6,3,36,3.4,36,3.8l0,0
		c0,0.5-0.3,0.9-0.8,0.9l0,0l0,0l0,0C34.8,4.7,34.4,4.3,34.4,3.9z M38.5,4.7c-0.5,0-0.8-0.4-0.8-0.9l0,0c0-0.5,0.4-0.8,0.9-0.8l0,0
		c0.5,0,0.8,0.4,0.8,0.9l0,0C39.4,4.3,39,4.7,38.5,4.7L38.5,4.7C38.6,4.7,38.6,4.7,38.5,4.7z"/>
</g>
<g>
	<g>
		<path class="st1" d="M41.9,6.1C23.7,6.1,9.1,20.8,9.1,38.9s14.7,32.8,32.8,32.8S74.6,57,74.6,38.9S60,6.1,41.9,6.1z M56.8,40.1
			c-4.2,0-7.8-2.3-9.8-5.7l-8,8c0.6,1.4,1,3,1,4.6c0,6.2-5,11.2-11.2,11.2s-11.2-5-11.2-11.2s5-11.2,11.2-11.2
			c3.8,0,7.1,1.9,9.1,4.8l8.1-8.1c-0.4-1.1-0.6-2.3-0.6-3.5c0-6.2,5-11.2,11.2-11.2s11.2,5,11.2,11.2C67.9,35.1,62.9,40.1,56.8,40.1
			z"/>
		<path class="st1" d="M29.9,50.9H28h-0.5l-1.7,4.6c1,0.4,2,0.6,3.1,0.6s2.2-0.2,3.2-0.6l-1.7-4.6H29.9z"/>
		<path class="st1" d="M28.9,40.8c-1.1,0-2,0.9-2,2v1.3c0,1.1,0.9,2,2,2s2-0.9,2-2v-1.3C30.9,41.7,30,40.8,28.9,40.8z"/>
		<path class="st1" d="M28.9,37.8c-5.1,0-9.2,4.1-9.2,9.2c0,3.5,1.9,6.5,4.8,8l1.9-5c0.1-0.3,0.4-0.5,0.7-0.5H28h2h0.9
			c0.3,0,0.6,0.2,0.7,0.5l1.8,5c2.8-1.6,4.7-4.6,4.7-8C38,41.9,33.9,37.8,28.9,37.8z M32.3,44.1c0,1.9-1.5,3.4-3.4,3.4
			s-3.4-1.5-3.4-3.4v-1.3c0-1.9,1.5-3.4,3.4-3.4s3.4,1.5,3.4,3.4V44.1z"/>
		<path class="st1" d="M56.8,19.8c-5.1,0-9.2,4.1-9.2,9.2c0,3.4,1.9,6.3,4.6,7.9l2-5.5c0.1-0.3,0.4-0.5,0.7-0.5h0.9h2.1h0.9
			c0.3,0,0.6,0.2,0.7,0.5l2,5.4c2.7-1.6,4.5-4.5,4.5-7.9C65.9,23.9,61.8,19.8,56.8,19.8z M60.2,25.6c0,1.9-1.5,3.4-3.4,3.4
			s-3.4-1.5-3.4-3.4v-1.3c0-1.9,1.5-3.4,3.4-3.4s3.4,1.5,3.4,3.4V25.6z"/>
		<path class="st1" d="M57.8,32.4h-1.9h-0.5l-1.9,5.1c1,0.4,2.1,0.6,3.3,0.6s2.3-0.2,3.4-0.7l-1.9-5.1h-0.5
			C57.8,32.3,57.8,32.4,57.8,32.4z"/>
		<path class="st1" d="M56.8,22.2c-1.1,0-2,0.9-2,2v1.3c0,1.1,0.9,2,2,2s2-0.9,2-2v-1.3C58.8,23.1,57.9,22.2,56.8,22.2z"/>
	</g>
</g>
</svg>
