<?xml version="1.0" encoding="utf-8"?>
<!-- Generator: Adobe Illustrator 23.0.3, SVG Export Plug-In . SVG Version: 6.00 Build 0)  -->
<svg version="1.1" id="Livello_1" xmlns="http://www.w3.org/2000/svg" xmlns:xlink="http://www.w3.org/1999/xlink" x="0px" y="0px"
	 viewBox="0 0 80 80" style="enable-background:new 0 0 80 80;" xml:space="preserve">
<style type="text/css">
	.st0{fill:#FD6400;}
	.st1{fill:#363182;}
	.st2{fill:#FFFFFF;}
</style>
<g>
	<path class="st0" d="M75.6,40c0,18.3-14.8,33.1-33.1,33.1S9.4,58.3,9.4,40S24.2,6.9,42.5,6.9C60.7,6.8,75.6,21.7,75.6,40z"/>
</g>
<g>
	<g>
		<path class="st1" d="M38.1,76.7c0-0.5,0.4-0.8,0.8-0.9l0,0c0.5,0,0.9,0.4,0.9,0.8l0,0c0,0.5-0.4,0.9-0.8,0.9l0,0l0,0l0,0
			C38.5,77.5,38.1,77.2,38.1,76.7z M35.5,77.5c-0.5,0-0.8-0.4-0.8-0.9l0,0c0-0.5,0.4-0.8,0.9-0.8l0,0c0.5,0,0.8,0.4,0.8,0.9l0,0
			C36.4,77.1,36,77.5,35.5,77.5L35.5,77.5C35.6,77.5,35.6,77.5,35.5,77.5z M41.5,76.6c0-0.5,0.3-0.9,0.8-0.9l0,0
			c0.5,0,0.9,0.3,0.9,0.8l0,0c0,0.5-0.3,0.9-0.8,0.9l0,0c0,0,0,0-0.1,0l0,0C41.9,77.4,41.5,77,41.5,76.6z M32.1,77.2L32.1,77.2
			c-0.5-0.1-0.8-0.5-0.7-0.9l0,0c0-0.5,0.5-0.8,0.9-0.7l0,0c0.5,0.1,0.8,0.5,0.7,0.9l0,0c0,0.4-0.4,0.7-0.8,0.7l0,0
			C32.2,77.2,32.2,77.2,32.1,77.2z M44.8,76.3c0-0.5,0.3-0.9,0.7-0.9l0,0l0,0l0,0c0.5,0,0.9,0.3,0.9,0.7l0,0
			c0.1,0.5-0.3,0.9-0.7,0.9l0,0h-0.1l0,0C45.3,77,44.9,76.7,44.8,76.3z M28.7,76.7c-0.4-0.1-0.8-0.5-0.7-1l0,0
			c0.1-0.5,0.5-0.8,1-0.7l0,0c0.5,0.1,0.8,0.5,0.7,1l0,0c-0.1,0.4-0.4,0.7-0.8,0.7l0,0C28.8,76.7,28.8,76.7,28.7,76.7z M48.2,75.9
			c-0.1-0.5,0.3-0.9,0.7-1l0,0c0.5-0.1,0.9,0.3,1,0.7l0,0c0.1,0.5-0.3,0.9-0.7,1l0,0h-0.1l0,0C48.6,76.6,48.2,76.3,48.2,75.9z
			 M51.5,75.4c-0.1-0.5,0.2-0.9,0.7-1l0,0c0.5-0.1,0.9,0.2,1,0.7l0,0c0.1,0.5-0.2,0.9-0.7,1l0,0c-0.1,0-0.1,0-0.2,0l0,0
			C51.9,76.1,51.6,75.8,51.5,75.4z M25.4,75.8c-0.4-0.1-0.7-0.6-0.6-1l0,0c0.1-0.5,0.6-0.7,1-0.6l0,0c0.4,0.1,0.7,0.6,0.6,1.1l0,0
			c-0.1,0.4-0.4,0.6-0.8,0.6l0,0C25.6,75.9,25.5,75.9,25.4,75.8z M54.8,74.7c-0.1-0.5,0.2-0.9,0.6-1l0,0l0,0l0,0
			c0.4-0.1,0.9,0.2,1,0.6l0,0c0.1,0.5-0.2,0.9-0.6,1l0,0c-0.1,0-0.1,0-0.2,0l0,0C55.3,75.4,54.9,75.1,54.8,74.7z M22.1,74.7
			L22.1,74.7c-0.4-0.2-0.6-0.7-0.5-1.1l0,0c0.2-0.4,0.7-0.6,1.1-0.4l0,0c0.4,0.2,0.6,0.7,0.4,1.1l0,0c-0.1,0.3-0.4,0.5-0.8,0.5l0,0
			C22.4,74.8,22.3,74.7,22.1,74.7z M58.1,73.9c-0.1-0.4,0.1-0.9,0.6-1l0,0c0.4-0.1,0.9,0.1,1,0.6l0,0c0.1,0.5-0.1,0.9-0.6,1.1l0,0
			c-0.1,0-0.2,0-0.2,0l0,0C58.5,74.5,58.2,74.3,58.1,73.9z M61.3,72.9c-0.2-0.4,0.1-0.9,0.5-1.1l0,0c0.4-0.2,0.9,0.1,1.1,0.5l0,0
			c0.2,0.4-0.1,0.9-0.5,1.1l0,0c-0.1,0-0.2,0.1-0.3,0.1l0,0C61.7,73.5,61.4,73.3,61.3,72.9z M19,73.2c-0.4-0.2-0.6-0.7-0.3-1.1l0,0
			c0.2-0.4,0.7-0.5,1.1-0.3l0,0c0.4,0.2,0.6,0.7,0.3,1.1l0,0c-0.1,0.3-0.4,0.4-0.7,0.4l0,0C19.3,73.3,19.2,73.2,19,73.2z M64.4,71.7
			c-0.2-0.4,0-0.9,0.4-1.1l0,0l0,0l0,0c0.4-0.2,0.9,0,1.1,0.4l0,0c0.2,0.4,0,0.9-0.4,1.1l0,0c-0.1,0.1-0.2,0.1-0.4,0.1l0,0
			C64.9,72.1,64.6,72,64.4,71.7z M16.1,71.3c-0.4-0.3-0.5-0.8-0.2-1.2l0,0c0.3-0.4,0.8-0.5,1.2-0.2l0,0c0.4,0.3,0.4,0.8,0.2,1.2l0,0
			c-0.2,0.2-0.4,0.4-0.7,0.4l0,0C16.4,71.4,16.3,71.4,16.1,71.3z M67.4,70.1c-0.3-0.4-0.1-0.9,0.2-1.2l0,0l0,0l0,0
			c0.4-0.3,0.9-0.1,1.2,0.2l0,0c0.3,0.4,0.1,0.9-0.2,1.2l0,0c-0.1,0.1-0.3,0.1-0.5,0.1l0,0C67.8,70.5,67.5,70.3,67.4,70.1z
			 M13.5,69.1c-0.3-0.3-0.4-0.9,0-1.2l0,0c0.3-0.3,0.9-0.4,1.2,0l0,0c0.3,0.3,0.4,0.9,0,1.2l0,0c-0.2,0.2-0.4,0.3-0.6,0.3l0,0
			C13.8,69.3,13.6,69.2,13.5,69.1z M70.1,68.1c-0.3-0.4-0.3-0.9,0.1-1.2l0,0c0.4-0.3,0.9-0.3,1.2,0.1l0,0c0.3,0.3,0.3,0.9-0.1,1.2
			l0,0c-0.2,0.1-0.4,0.2-0.6,0.2l0,0C70.5,68.4,70.3,68.3,70.1,68.1z M11.1,66.5c-0.3-0.4-0.3-0.9,0.1-1.2l0,0
			c0.4-0.3,0.9-0.3,1.2,0.1l0,0l0,0l0,0c0.3,0.4,0.3,0.9-0.1,1.2l0,0c-0.2,0.1-0.4,0.2-0.5,0.2l0,0C11.5,66.8,11.3,66.8,11.1,66.5z
			 M72.6,65.8c-0.4-0.3-0.4-0.8-0.1-1.2l0,0l0,0l0,0c0.3-0.4,0.8-0.4,1.2-0.1l0,0c0.4,0.3,0.4,0.8,0.1,1.2l0,0
			c-0.2,0.2-0.4,0.3-0.7,0.3l0,0C72.9,66,72.7,66,72.6,65.8z M9,63.8c-0.3-0.4-0.2-0.9,0.2-1.2l0,0c0.4-0.3,0.9-0.1,1.2,0.2l0,0
			c0.3,0.4,0.2,0.9-0.2,1.2l0,0c-0.1,0.1-0.3,0.1-0.5,0.1l0,0C9.4,64.2,9.2,64,9,63.8z M74.6,63.1c-0.4-0.2-0.5-0.8-0.3-1.1l0,0
			c0.2-0.4,0.8-0.5,1.1-0.3l0,0c0.4,0.2,0.5,0.7,0.3,1.1l0,0c-0.2,0.3-0.4,0.4-0.7,0.4l0,0C74.9,63.3,74.7,63.2,74.6,63.1z
			 M7.2,60.8c-0.2-0.4-0.1-0.9,0.3-1.1l0,0c0.4-0.2,0.9-0.1,1.1,0.3l0,0l0,0l0,0c0.2,0.4,0.1,0.9-0.3,1.1l0,0
			c-0.1,0.1-0.3,0.1-0.4,0.1l0,0C7.7,61.3,7.4,61.1,7.2,60.8z M76.1,60.2c-0.4-0.2-0.6-0.7-0.5-1.1l0,0c0.2-0.4,0.7-0.6,1.1-0.5l0,0
			c0.4,0.2,0.6,0.6,0.5,1.1l0,0c-0.1,0.3-0.5,0.5-0.8,0.5l0,0C76.3,60.2,76.2,60.2,76.1,60.2z M5.7,57.8c-0.2-0.4,0-0.9,0.4-1.1l0,0
			c0.4-0.2,0.9,0,1.1,0.4l0,0l0,0l0,0c0.2,0.4,0,0.9-0.4,1.1l0,0c-0.1,0.1-0.2,0.1-0.4,0.1l0,0C6.1,58.3,5.8,58.1,5.7,57.8z
			 M77.3,57c-0.5-0.1-0.7-0.6-0.6-1l0,0c0.1-0.5,0.6-0.7,1-0.6l0,0c0.5,0.1,0.7,0.6,0.6,1l0,0c-0.1,0.4-0.5,0.6-0.8,0.6l0,0
			C77.4,57,77.3,57,77.3,57z M4.6,55.1c-0.2-0.4,0.1-0.9,0.5-1.1l0,0c0.4-0.2,0.9,0.1,1.1,0.5l0,0c0.2,0.4-0.1,0.9-0.5,1.1l0,0
			c-0.1,0-0.2,0-0.3,0l0,0C5,55.6,4.7,55.4,4.6,55.1z M78,53.7c-0.5-0.1-0.8-0.5-0.7-1l0,0l0,0l0,0c0.1-0.5,0.5-0.8,1-0.7l0,0
			c0.5,0.1,0.8,0.5,0.7,1l0,0c-0.1,0.4-0.4,0.7-0.8,0.7l0,0C78,53.7,78,53.7,78,53.7z M3.5,51.8c-0.1-0.5,0.2-0.9,0.6-1l0,0
			c0.4-0.1,0.9,0.1,1,0.6l0,0c0.1,0.5-0.1,0.9-0.6,1l0,0c-0.1,0-0.1,0-0.2,0l0,0C4,52.4,3.6,52.2,3.5,51.8z M78.4,50.3
			c-0.5,0-0.8-0.4-0.8-0.9l0,0l0,0l0,0c0-0.5,0.4-0.8,0.9-0.8l0,0c0.5,0,0.8,0.4,0.8,0.9l0,0C79.2,50,78.9,50.3,78.4,50.3L78.4,50.3
			L78.4,50.3z M2.8,48.4c-0.1-0.5,0.2-0.9,0.7-1l0,0c0.5-0.1,0.9,0.2,1,0.7l0,0c0.1,0.5-0.2,0.9-0.7,1l0,0c-0.1,0-0.1,0-0.2,0l0,0
			C3.2,49.1,2.9,48.8,2.8,48.4z M77.7,46.1c0-0.5,0.4-0.9,0.8-0.9l0,0c0.5,0,0.9,0.4,0.9,0.8l0,0c0,0.5-0.4,0.8-0.8,0.9l0,0l0,0l0,0
			C78,47,77.7,46.6,77.7,46.1z M2.3,45c0-0.5,0.3-0.9,0.8-0.9l0,0c0.5,0,0.9,0.3,0.9,0.8l0,0l0,0l0,0c0,0.5-0.3,0.9-0.8,0.9l0,0H3.1
			l0,0C2.8,45.8,2.4,45.5,2.3,45z M77.5,42.8c0-0.5,0.3-0.9,0.8-0.9l0,0c0.5,0,0.9,0.3,0.9,0.8l0,0c0,0.5-0.3,0.9-0.8,0.9l0,0l0,0
			l0,0C77.9,43.6,77.6,43.3,77.5,42.8z M3.1,42.4c-0.5,0-0.8-0.4-0.8-0.9l0,0c0-0.5,0.4-0.8,0.9-0.8l0,0c0.5,0,0.8,0.4,0.8,0.9l0,0
			C3.9,42.1,3.6,42.4,3.1,42.4L3.1,42.4L3.1,42.4z M77.3,39.5c0-0.5,0.3-0.9,0.8-0.9l0,0c0.5,0,0.9,0.3,0.9,0.8l0,0
			c0.1,0.5-0.3,0.9-0.8,0.9l0,0h-0.1l0,0C77.7,40.3,77.3,39.9,77.3,39.5z M3.2,39.1c-0.5,0-0.8-0.4-0.8-0.9l0,0
			c0-0.5,0.4-0.8,0.9-0.8l0,0c0.5,0,0.8,0.4,0.8,0.9l0,0C4.1,38.7,3.7,39.1,3.2,39.1L3.2,39.1C3.3,39.1,3.2,39.1,3.2,39.1z
			 M76.9,36.2c-0.1-0.5,0.3-0.9,0.7-1l0,0c0.5-0.1,0.9,0.3,1,0.7l0,0c0.1,0.5-0.3,0.9-0.7,0.9l0,0h-0.1l0,0
			C77.3,36.9,76.9,36.6,76.9,36.2z M3.5,35.7c-0.5-0.1-0.8-0.5-0.7-0.9l0,0c0.1-0.5,0.5-0.8,0.9-0.7l0,0c0.5,0.1,0.8,0.5,0.7,1l0,0
			C4.3,35.5,4,35.8,3.5,35.7L3.5,35.7C3.6,35.7,3.5,35.7,3.5,35.7z M76.4,32.9L76.4,32.9L76.4,32.9c-0.1-0.5,0.2-0.9,0.7-1l0,0
			c0.5-0.1,0.9,0.2,1,0.7l0,0c0.1,0.5-0.2,0.9-0.7,1l0,0h-0.1l0,0C76.8,33.6,76.4,33.3,76.4,32.9z M4,32.4c-0.5-0.1-0.8-0.5-0.7-1
			l0,0c0.1-0.4,0.5-0.8,1-0.7l0,0c0.5,0.1,0.8,0.5,0.7,1l0,0l0,0l0,0c-0.1,0.4-0.4,0.7-0.8,0.7l0,0C4.1,32.4,4.1,32.4,4,32.4z
			 M75.7,29.6c-0.1-0.5,0.2-0.9,0.6-1l0,0c0.5-0.1,0.9,0.2,1,0.6l0,0c0.1,0.4-0.2,0.9-0.6,1l0,0c-0.1,0-0.1,0-0.2,0l0,0
			C76.2,30.3,75.8,30,75.7,29.6z M4.7,29.1c-0.5-0.1-0.7-0.6-0.6-1l0,0c0.1-0.5,0.6-0.7,1-0.6l0,0c0.5,0.1,0.7,0.6,0.6,1l0,0
			c-0.1,0.4-0.4,0.6-0.8,0.6l0,0C4.9,29.1,4.8,29.1,4.7,29.1z M74.8,26.5c-0.1-0.4,0.1-0.9,0.5-1.1l0,0c0.4-0.1,0.9,0.1,1.1,0.5l0,0
			c0.1,0.4-0.1,0.9-0.5,1.1l0,0c-0.1,0-0.2,0-0.3,0l0,0C75.3,27,74.9,26.8,74.8,26.5z M5.7,25.8c-0.4-0.2-0.7-0.6-0.5-1.1l0,0
			c0.1-0.4,0.6-0.7,1.1-0.5l0,0c0.4,0.2,0.7,0.6,0.5,1.1l0,0l0,0l0,0c-0.1,0.3-0.5,0.5-0.8,0.5l0,0C5.9,25.9,5.8,25.9,5.7,25.8z
			 M73.6,23.4c-0.2-0.4,0-0.9,0.4-1.1l0,0c0.4-0.2,0.9,0,1.1,0.4l0,0c0.2,0.4,0,0.9-0.4,1.1l0,0c-0.1,0-0.2,0.1-0.4,0.1l0,0
			C74.1,23.9,73.8,23.7,73.6,23.4z M6.9,22.7c-0.4-0.2-0.6-0.7-0.4-1.1l0,0c0.2-0.4,0.7-0.6,1.1-0.4l0,0C8,21.4,8.2,21.9,8,22.3l0,0
			c-0.1,0.3-0.5,0.5-0.8,0.5l0,0C7.1,22.8,7,22.8,6.9,22.7z M72.1,20.5c-0.2-0.4-0.1-0.9,0.3-1.1l0,0c0.4-0.2,0.9-0.1,1.1,0.3l0,0
			c0.2,0.4,0.1,0.9-0.3,1.2l0,0C73.1,21,72.9,21,72.8,21l0,0C72.6,20.9,72.3,20.8,72.1,20.5z M8.4,19.7c-0.4-0.2-0.5-0.8-0.3-1.1
			l0,0c0.2-0.4,0.8-0.5,1.2-0.3l0,0c0.4,0.2,0.5,0.8,0.3,1.2l0,0c-0.2,0.3-0.4,0.4-0.7,0.4l0,0C8.7,19.8,8.6,19.8,8.4,19.7z
			 M70.3,17.8L70.3,17.8L70.3,17.8c-0.3-0.4-0.2-0.9,0.1-1.2l0,0c0.4-0.3,0.9-0.2,1.2,0.2l0,0c0.3,0.4,0.2,0.9-0.1,1.2l0,0
			c-0.1,0.1-0.3,0.2-0.5,0.2l0,0C70.7,18.1,70.5,18,70.3,17.8z M10.2,16.9c-0.4-0.3-0.4-0.8-0.2-1.2l0,0c0.3-0.4,0.8-0.4,1.2-0.2
			l0,0c0.4,0.3,0.4,0.8,0.2,1.2l0,0l0,0l0,0C11.2,16.9,11,17,10.7,17l0,0C10.6,17,10.4,17,10.2,16.9z M68.1,15.4L68.1,15.4
			L68.1,15.4c-0.3-0.3-0.3-0.9,0-1.2l0,0c0.3-0.3,0.9-0.3,1.2,0l0,0c0.3,0.3,0.3,0.9,0,1.2l0,0c-0.2,0.2-0.4,0.2-0.6,0.2l0,0
			C68.5,15.6,68.3,15.5,68.1,15.4z M12.4,14.3c-0.3-0.3-0.3-0.9,0-1.2l0,0c0.3-0.3,0.9-0.3,1.2,0l0,0c0.3,0.3,0.3,0.9,0,1.2l0,0l0,0
			l0,0c-0.2,0.2-0.4,0.3-0.6,0.3l0,0C12.7,14.5,12.5,14.4,12.4,14.3z M65.7,13.2L65.7,13.2L65.7,13.2c-0.4-0.3-0.4-0.8-0.1-1.2l0,0
			c0.3-0.4,0.8-0.4,1.2-0.2l0,0c0.4,0.3,0.4,0.8,0.1,1.2l0,0c-0.2,0.2-0.4,0.3-0.7,0.3l0,0C66,13.4,65.9,13.3,65.7,13.2z M14.8,11.9
			c-0.3-0.4-0.2-0.9,0.1-1.2l0,0c0.4-0.3,0.9-0.2,1.2,0.1l0,0c0.3,0.4,0.2,0.9-0.1,1.2l0,0l0,0l0,0c-0.1,0.1-0.3,0.2-0.5,0.2l0,0
			C15.2,12.2,15,12.1,14.8,11.9z M63,11.3c-0.4-0.2-0.5-0.8-0.3-1.2l0,0c0.2-0.4,0.8-0.5,1.2-0.3l0,0c0.4,0.2,0.5,0.8,0.3,1.2l0,0
			c-0.2,0.3-0.4,0.4-0.7,0.4l0,0C63.3,11.5,63.1,11.4,63,11.3z M17.5,9.9c-0.2-0.4-0.1-0.9,0.3-1.1l0,0c0.4-0.3,0.9-0.1,1.2,0.3l0,0
			c0.2,0.4,0.1,0.9-0.3,1.2l0,0c-0.1,0.1-0.3,0.1-0.4,0.1l0,0C17.9,10.3,17.6,10.2,17.5,9.9z M60.1,9.8L60.1,9.8L60.1,9.8
			c-0.4-0.2-0.6-0.7-0.4-1.1l0,0c0.2-0.4,0.7-0.6,1.1-0.4l0,0c0.4,0.2,0.6,0.7,0.4,1.1l0,0c-0.1,0.3-0.4,0.5-0.8,0.5l0,0
			C60.4,9.9,60.3,9.9,60.1,9.8z M20.4,8.2c-0.2-0.4,0-0.9,0.4-1.1l0,0c0.4-0.2,0.9,0,1.1,0.4l0,0c0.2,0.4,0,0.9-0.4,1.1l0,0
			c-0.1,0.1-0.2,0.1-0.4,0.1l0,0C20.8,8.7,20.5,8.5,20.4,8.2z M57.1,8.5c-0.4-0.2-0.7-0.6-0.5-1.1l0,0c0.2-0.4,0.6-0.7,1.1-0.5l0,0
			c0.4,0.2,0.7,0.6,0.5,1.1l0,0c-0.1,0.3-0.4,0.6-0.8,0.6l0,0C57.3,8.6,57.2,8.6,57.1,8.5z M54,7.5L54,7.5L54,7.5
			c-0.5-0.1-0.7-0.6-0.6-1l0,0c0.1-0.4,0.6-0.7,1-0.6l0,0c0.5,0.1,0.7,0.6,0.6,1l0,0c-0.1,0.4-0.5,0.6-0.8,0.6l0,0
			C54.1,7.5,54,7.5,54,7.5z M23.5,6.9C23.4,6.5,23.6,6,24,5.8l0,0c0.4-0.1,0.9,0.1,1.1,0.5l0,0c0.1,0.4-0.1,0.9-0.5,1.1l0,0
			c-0.1,0-0.2,0-0.3,0l0,0C23.9,7.5,23.6,7.3,23.5,6.9z M50.8,6.7c-0.5-0.1-0.8-0.5-0.7-1l0,0c0.1-0.5,0.5-0.8,1-0.7l0,0
			c0.5,0.1,0.7,0.5,0.6,1l0,0C51.6,6.4,51.3,6.7,50.8,6.7L50.8,6.7C50.9,6.8,50.8,6.8,50.8,6.7z M26.7,5.9c-0.1-0.4,0.2-0.9,0.6-1
			l0,0c0.5-0.1,0.9,0.2,1,0.6l0,0c0.1,0.5-0.2,0.9-0.6,1l0,0c-0.1,0-0.1,0-0.2,0l0,0C27.1,6.6,26.8,6.3,26.7,5.9z M47.5,6.2
			c-0.5-0.1-0.8-0.5-0.7-1l0,0c0.1-0.5,0.5-0.8,0.9-0.7l0,0c0.5,0.1,0.8,0.5,0.7,1l0,0c-0.1,0.4-0.4,0.7-0.8,0.7l0,0
			C47.6,6.2,47.5,6.2,47.5,6.2z M30,5.2c-0.1-0.5,0.3-0.9,0.7-1l0,0c0.5-0.1,0.9,0.3,0.9,0.7l0,0c0.1,0.5-0.3,0.9-0.7,0.9l0,0h-0.1
			l0,0C30.4,5.9,30.1,5.6,30,5.2z M44.2,5.8c-0.5,0-0.8-0.5-0.8-0.9l0,0c0-0.5,0.5-0.8,0.9-0.8l0,0c0.5,0,0.8,0.5,0.8,0.9l0,0
			C45.1,5.4,44.7,5.8,44.2,5.8L44.2,5.8L44.2,5.8z M33.3,4.8c0-0.5,0.3-0.9,0.8-0.9l0,0c0.5,0,0.9,0.3,0.9,0.8l0,0
			c0,0.5-0.3,0.9-0.8,0.9l0,0c0,0,0,0-0.1,0l0,0C33.7,5.6,33.4,5.2,33.3,4.8z M40.1,4.6c0-0.5,0.4-0.8,0.9-0.8l0,0
			c0.5,0,0.8,0.4,0.8,0.9l0,0c0,0.5-0.4,0.8-0.9,0.8l0,0l0,0l0,0C40.4,5.5,40,5.1,40.1,4.6z M36.7,4.6c0-0.5,0.4-0.8,0.8-0.8l0,0
			c0.5,0,0.9,0.4,0.9,0.8l0,0c0,0.5-0.4,0.8-0.8,0.9l0,0C37.1,5.5,36.7,5.1,36.7,4.6z"/>
	</g>
</g>
<g>
	<g>
		<path class="st2" d="M46.5,59.4L44,51.9h-4.2l-2.5,7.5l-1.5-0.5l2.7-8c0.1-0.3,0.4-0.5,0.8-0.5h5.4c0.3,0,0.7,0.2,0.8,0.5l2.7,8
			L46.5,59.4z"/>
	</g>
	<g>
		<path class="st2" d="M41.9,47.9c-2.4,0-4.5-2.1-4.5-4.7v-1.4c0-2.7,2-4.8,4.5-4.8s4.5,2.2,4.5,4.8v1.4
			C46.4,45.8,44.4,47.9,41.9,47.9z M41.9,38.5c-1.6,0-2.9,1.4-2.9,3.2v1.4c0,1.7,1.3,3.1,2.9,3.1c1.6,0,2.9-1.4,2.9-3.2
			c0-0.1,0-1.4,0-1.4C44.9,40,43.5,38.5,41.9,38.5z"/>
	</g>
	<g>
		<path class="st2" d="M41.9,61.8c-8.8,0-16-7.2-16-16h1.6c0,8,6.5,14.4,14.4,14.4s14.4-6.5,14.4-14.4c0-3.4-1.2-6.7-3.4-9.3l1.2-1
			c2.4,2.9,3.8,6.6,3.8,10.3C58,54.6,50.8,61.8,41.9,61.8z"/>
	</g>
</g>
<g>
	<path class="st2" d="M26.7,42.5c-0.4,0-0.8-0.3-0.8-0.7c0-0.2-1.8-18.4,18.4-21.9c0.7-0.1,1.4-0.2,2.1-0.2h1.7v-3.9
		c0-0.3,0.2-0.6,0.5-0.8c0.3-0.1,0.7,0,0.9,0.3l7,9.4c0.2,0.3,0.2,0.7,0,1l-7,9.4c-0.2,0.3-0.6,0.4-0.9,0.3
		c-0.3-0.1-0.5-0.5-0.5-0.8l0.3-4c-8.1-0.4-14,1.1-17.6,4.4c-3.3,3.1-3.3,6.6-3.3,6.7C27.5,42.1,27.2,42.4,26.7,42.5L26.7,42.5z
		 M46.5,21.3c-0.7,0-1.3,0-1.9,0.1C32.8,23.5,29,30.7,27.9,36c0.5-0.7,1.1-1.4,1.9-2.2c4-3.8,10.7-5.4,19.6-4.8
		c0.2,0,0.4,0.1,0.5,0.3c0.1,0.2,0.2,0.4,0.2,0.6L50,32l5.1-6.7l-5.2-7v2.3c0,0.4-0.4,0.8-0.8,0.8L46.5,21.3L46.5,21.3z"/>
</g>
</svg>
