<?xml version="1.0" encoding="utf-8"?>
<!-- Generator: Adobe Illustrator 22.1.0, SVG Export Plug-In . SVG Version: 6.00 Build 0)  -->
<svg version="1.1" id="Livello_1" xmlns="http://www.w3.org/2000/svg" xmlns:xlink="http://www.w3.org/1999/xlink" x="0px" y="0px"
	 viewBox="0 0 115 107" style="enable-background:new 0 0 115 107;" xml:space="preserve">
<style type="text/css">
	.st0{fill:#FD6400;}
	.st1{fill:#000099;}
	.st2{fill:#FFFFFF;}
	.st3{fill:none;}
</style>
<g>
	<path class="st0" d="M102.9,54.6c0,24.9-20.1,45-45,45c-24.9,0-45-20.1-45-45s20.1-45,45-45C82.7,9.5,102.9,29.7,102.9,54.6z"/>
</g>
<g>
	<path class="st1" d="M55.2,102.5c0-0.7,0.5-1.2,1.1-1.2l0,0c0.7,0,1.2,0.5,1.2,1.1l0,0c0,0.7-0.5,1.2-1.1,1.2l0,0l0,0l0,0
		C55.7,103.6,55.2,103,55.2,102.5z M51.8,103.6c-0.7,0-1.1-0.5-1.1-1.2l0,0c0-0.7,0.5-1.1,1.2-1.1l0,0l0,0l0,0
		c0.7,0,1.1,0.5,1.1,1.2l0,0C52.9,103,52.3,103.6,51.8,103.6L51.8,103.6L51.8,103.6z M59.8,102.2c0-0.7,0.4-1.2,1.1-1.2l0,0l0,0l0,0
		c0.7,0,1.2,0.4,1.2,1.1l0,0c0,0.7-0.4,1.2-1.1,1.2l0,0h-0.1l0,0C60.3,103.3,59.8,102.9,59.8,102.2z M47,103.3
		c-0.7-0.1-1.1-0.7-1.1-1.2l0,0c0.1-0.7,0.7-1.1,1.2-1.1l0,0c0.7,0,1.1,0.7,1.1,1.2l0,0C48.3,102.8,47.8,103.3,47,103.3L47,103.3
		C47.2,103.3,47.2,103.3,47,103.3z M64.4,101.8c-0.1-0.7,0.4-1.2,1-1.2l0,0c0.7-0.1,1.2,0.4,1.2,1l0,0c0.1,0.7-0.4,1.2-0.9,1.2l0,0
		h-0.1l0,0C65,102.9,64.4,102.4,64.4,101.8z M42.4,102.6c-0.7-0.1-1.1-0.7-1-1.4l0,0c0.1-0.7,0.7-1.1,1.4-0.9l0,0l0,0l0,0
		c0.7,0.1,1.1,0.7,1,1.4l0,0c-0.1,0.5-0.5,1-1.1,1l0,0C42.6,102.6,42.6,102.6,42.4,102.6z M68.9,101.3c-0.1-0.7,0.4-1.2,1-1.4l0,0
		c0.7-0.1,1.2,0.4,1.4,1l0,0c0.1,0.7-0.4,1.2-1,1.4l0,0h-0.1l0,0C69.4,102.2,69,101.8,68.9,101.3z M37.9,101.5
		c-0.5-0.1-1-0.8-0.8-1.4l0,0c0.1-0.7,0.8-0.9,1.4-0.8l0,0c0.7,0.1,0.9,0.8,0.8,1.5l0,0c-0.1,0.5-0.7,0.8-1.1,0.8l0,0
		C38.1,101.5,37.9,101.5,37.9,101.5z M73.5,100.5c-0.1-0.7,0.3-1.2,1-1.4l0,0c0.7-0.1,1.2,0.3,1.4,1l0,0c0.1,0.7-0.3,1.2-0.9,1.4
		l0,0c-0.1,0-0.1,0-0.3,0l0,0C74,101.4,73.5,101,73.5,100.5z M78,99.5c-0.1-0.7,0.3-1.2,0.8-1.4l0,0c0.7-0.1,1.2,0.3,1.4,0.8l0,0
		c0.1,0.7-0.3,1.2-0.8,1.4l0,0c-0.1,0-0.1,0-0.3,0l0,0C78.5,100.5,78.1,100.1,78,99.5z M33.5,99.9c-0.5-0.3-0.8-0.9-0.7-1.5l0,0
		c0.3-0.5,0.9-0.8,1.5-0.7l0,0c0.5,0.3,0.8,1,0.7,1.5l0,0c-0.1,0.4-0.7,0.7-1.1,0.7l0,0C33.7,100.1,33.6,100.1,33.5,99.9z
		 M82.3,98.4c-0.1-0.5,0.1-1.2,0.8-1.5l0,0c0.7-0.1,1.2,0.1,1.5,0.8l0,0c0.1,0.7-0.1,1.2-0.8,1.5l0,0c-0.1,0-0.3,0-0.4,0l0,0
		C83,99.2,82.6,99,82.3,98.4z M29.1,97.9c-0.5-0.3-0.8-1-0.4-1.6l0,0c0.3-0.5,1-0.8,1.5-0.4l0,0c0.5,0.3,0.8,1,0.4,1.5l0,0
		c-0.3,0.4-0.5,0.5-1,0.5l0,0C29.5,98,29.4,98,29.1,97.9z M86.8,96.9c-0.3-0.5,0-1.2,0.7-1.5l0,0c0.5-0.3,1.2,0,1.5,0.7l0,0
		c0.3,0.5,0,1.2-0.7,1.5l0,0c-0.1,0-0.3,0.1-0.4,0.1l0,0C87.4,97.6,86.9,97.3,86.8,96.9z M90.9,95.2c-0.3-0.5-0.1-1.2,0.5-1.5l0,0
		c0.5-0.3,1.2-0.1,1.5,0.5l0,0c0.3,0.5,0.1,1.2-0.5,1.5l0,0c-0.1,0.1-0.4,0.1-0.5,0.1l0,0C91.6,95.7,91.2,95.6,90.9,95.2z
		 M25.2,95.4c-0.5-0.4-0.7-1.1-0.3-1.6l0,0c0.4-0.5,1.1-0.7,1.6-0.3l0,0l0,0l0,0c0.5,0.4,0.7,1.1,0.3,1.6l0,0
		c-0.3,0.3-0.5,0.5-1,0.5l0,0C25.6,95.6,25.3,95.6,25.2,95.4z M95,92.9c-0.4-0.5-0.3-1.2,0.3-1.6l0,0c0.5-0.4,1.2-0.3,1.6,0.3l0,0
		c0.4,0.5,0.3,1.2-0.3,1.6l0,0c-0.3,0.1-0.4,0.3-0.7,0.3l0,0C95.5,93.3,95.1,93.1,95,92.9z M21.5,92.4L21.5,92.4
		C21,92,21,91.2,21.4,90.8l0,0c0.4-0.4,1.2-0.5,1.6-0.1l0,0c0.4,0.4,0.5,1.2,0.1,1.6l0,0c-0.3,0.3-0.5,0.4-0.8,0.4l0,0
		C22.1,92.7,21.8,92.6,21.5,92.4z M98.5,90c-0.4-0.4-0.4-1.2,0-1.6l0,0c0.4-0.4,1.2-0.4,1.6,0l0,0c0.4,0.4,0.4,1.2,0,1.6l0,0
		c-0.3,0.3-0.5,0.3-0.8,0.3l0,0C99,90.4,98.8,90.3,98.5,90z M18.3,88.9c-0.4-0.5-0.4-1.2,0.1-1.6l0,0c0.5-0.4,1.2-0.4,1.6,0.1l0,0
		l0,0l0,0c0.4,0.5,0.4,1.2-0.1,1.6l0,0c-0.3,0.1-0.5,0.3-0.8,0.3l0,0C18.8,89.3,18.5,89.2,18.3,88.9z M101.7,86.7
		c-0.5-0.4-0.7-1.1-0.3-1.6l0,0c0.4-0.5,1.1-0.7,1.6-0.3l0,0c0.5,0.4,0.7,1.1,0.3,1.6l0,0c-0.3,0.3-0.5,0.5-1,0.5l0,0
		C102.2,86.9,101.9,86.9,101.7,86.7z M15.4,85.3L15.4,85.3c-0.4-0.5-0.3-1.2,0.3-1.6l0,0c0.5-0.4,1.2-0.3,1.6,0.3l0,0
		c0.4,0.5,0.3,1.2-0.3,1.6l0,0c-0.3,0.1-0.4,0.1-0.7,0.1l0,0C15.9,85.7,15.7,85.5,15.4,85.3z M104.2,82.8c-0.5-0.3-0.8-0.9-0.5-1.5
		l0,0l0,0l0,0c0.3-0.5,1-0.8,1.5-0.5l0,0c0.5,0.3,0.8,1,0.5,1.5l0,0c-0.3,0.4-0.7,0.7-1.1,0.7l0,0C104.6,82.9,104.5,82.9,104.2,82.8
		z M13,81.2c-0.3-0.5-0.1-1.2,0.4-1.5l0,0c0.5-0.3,1.2-0.1,1.5,0.4l0,0c0.3,0.5,0.1,1.2-0.4,1.5l0,0c-0.1,0.1-0.3,0.3-0.4,0.3l0,0
		C13.6,81.9,13.2,81.6,13,81.2z M106.1,78.7c-0.5-0.1-1-0.8-0.7-1.5l0,0c0.1-0.5,0.8-0.9,1.5-0.7l0,0c0.5,0.3,1,0.8,0.7,1.5l0,0
		c-0.1,0.5-0.7,0.8-1.1,0.8l0,0C106.4,78.7,106.2,78.7,106.1,78.7z M10.9,77.1L10.9,77.1c-0.3-0.5,0-1.2,0.5-1.5l0,0
		c0.5-0.3,1.2,0,1.5,0.5l0,0c0.3,0.5,0,1.2-0.5,1.5l0,0c-0.1,0.1-0.3,0.1-0.5,0.1l0,0C11.5,77.7,11.1,77.5,10.9,77.1z M107.4,74.3
		c-0.7-0.1-1.1-0.7-0.9-1.4l0,0l0,0l0,0c0.1-0.7,0.7-1.1,1.4-1l0,0c0.7,0.1,1.1,0.7,1,1.4l0,0c-0.1,0.5-0.5,1-1.1,1l0,0
		C107.6,74.4,107.4,74.4,107.4,74.3z M9.4,73.4c-0.3-0.5,0.1-1.2,0.7-1.5l0,0c0.5-0.3,1.2,0.1,1.5,0.7l0,0c0.3,0.5-0.1,1.2-0.7,1.5
		l0,0c-0.1,0-0.3,0.1-0.4,0.1l0,0C10,74.3,9.6,74,9.4,73.4z M7.9,69L7.9,69c-0.1-0.7,0.3-1.2,0.8-1.4l0,0c0.7-0.1,1.2,0.3,1.4,0.8
		l0,0l0,0l0,0c0.1,0.7-0.3,1.2-0.8,1.4l0,0c-0.1,0-0.3,0-0.3,0l0,0C8.6,69.9,8.1,69.5,7.9,69z M108.3,69.8c-0.7-0.1-1.1-0.7-1.1-1.2
		l0,0c0-0.7,0.7-1.1,1.2-1.1l0,0c0.7,0.1,1.1,0.7,1.1,1.2l0,0C109.5,69.4,108.9,69.8,108.3,69.8L108.3,69.8L108.3,69.8z M7,64.5
		c-0.1-0.7,0.3-1.2,1-1.4l0,0c0.7-0.1,1.2,0.3,1.4,1l0,0c0.1,0.7-0.3,1.2-1,1.4l0,0c-0.1,0-0.1,0-0.3,0l0,0C7.5,65.3,7.1,65,7,64.5z
		 M108.7,65.2c-0.7,0-1.1-0.5-1.1-1.2l0,0l0,0l0,0c0-0.7,0.5-1.1,1.2-1.1l0,0c0.7,0,1.1,0.5,1.1,1.2l0,0
		C109.8,64.8,109.3,65.2,108.7,65.2L108.7,65.2L108.7,65.2z M6.3,59.7c0-0.7,0.4-1.2,1.1-1.2l0,0c0.7,0,1.2,0.4,1.2,1.1l0,0
		c0,0.7-0.4,1.2-1.1,1.2l0,0H7.4l0,0C6.8,60.8,6.4,60.4,6.3,59.7z M107.4,59.5L107.4,59.5L107.4,59.5c0-0.7,0.5-1.2,1.1-1.2l0,0
		c0.7,0,1.2,0.5,1.2,1.1l0,0c0,0.7-0.5,1.2-1.1,1.2l0,0l0,0l0,0C108,60.7,107.6,60.1,107.4,59.5z M7.4,56.2c-0.7,0-1.1-0.5-1.1-1.2
		l0,0c0-0.7,0.5-1.1,1.2-1.1l0,0c0.7,0,1.1,0.5,1.1,1.2l0,0C8.6,55.8,8.1,56.2,7.4,56.2L7.4,56.2L7.4,56.2z M107.3,55
		c0-0.7,0.4-1.2,1.1-1.2l0,0c0.7,0,1.2,0.4,1.2,1.1l0,0c0,0.7-0.4,1.2-1.1,1.2l0,0h-0.1l0,0C107.9,56.1,107.3,55.5,107.3,55z
		 M7.5,51.6c-0.7,0-1.1-0.5-1.1-1.2l0,0c0-0.7,0.5-1.1,1.2-1.1l0,0c0.7,0,1.1,0.5,1.1,1.2l0,0C8.7,51.2,8.2,51.6,7.5,51.6L7.5,51.6
		C7.7,51.6,7.7,51.6,7.5,51.6z M106.8,50.5L106.8,50.5L106.8,50.5c-0.1-0.7,0.4-1.2,0.9-1.2l0,0c0.7-0.1,1.2,0.4,1.2,1l0,0
		c0.1,0.7-0.4,1.2-1,1.2l0,0h-0.1l0,0C107.3,51.4,106.9,51,106.8,50.5z M8.1,47.1c-0.7-0.1-1.1-0.7-1-1.4l0,0c0.1-0.7,0.7-1.1,1.4-1
		l0,0c0.7,0.1,1.1,0.7,1,1.4l0,0c-0.1,0.5-0.5,1-1.1,1l0,0C8.1,47.1,8.1,47.1,8.1,47.1z M106.2,46c-0.1-0.7,0.4-1.2,1-1.4l0,0
		c0.7-0.1,1.2,0.4,1.4,1l0,0c0.1,0.7-0.3,1.2-1,1.4l0,0h-0.1l0,0C106.8,47,106.2,46.6,106.2,46z M8.7,42.5c-0.7-0.1-1.1-0.7-0.9-1.4
		l0,0c0.1-0.7,0.7-1.1,1.4-1l0,0c0.7,0.1,1.1,0.7,1,1.4l0,0c-0.1,0.7-0.7,1-1.2,1l0,0H8.7z M105.4,41.5c-0.1-0.7,0.3-1.2,1-1.4l0,0
		c0.7-0.1,1.2,0.3,1.4,1l0,0c0.1,0.7-0.3,1.2-0.9,1.4l0,0c-0.1,0-0.1,0-0.3,0l0,0C106.1,42.4,105.5,42.1,105.4,41.5z M9.7,38
		c-0.7-0.1-1-0.8-0.8-1.4l0,0c0.1-0.5,0.8-1,1.4-0.8l0,0c0.5,0.1,1,0.8,0.8,1.5l0,0c-0.1,0.5-0.5,0.8-1.1,0.8l0,0
		C10,38,9.8,38,9.7,38z M104.3,37.1L104.3,37.1L104.3,37.1c-0.1-0.7,0.1-1.2,0.8-1.4l0,0c0.5-0.1,1.2,0.1,1.4,0.8l0,0
		c0.1,0.5-0.1,1.2-0.8,1.4l0,0c-0.1,0-0.3,0-0.3,0l0,0C105,37.9,104.6,37.6,104.3,37.1z M11.1,33.7c-0.5-0.3-0.9-1-0.7-1.5l0,0
		c0.3-0.5,1-1,1.5-0.7l0,0c0.5,0.3,1,1,0.7,1.5l0,0c-0.1,0.4-0.7,0.8-1.1,0.8l0,0C11.3,33.7,11.2,33.7,11.1,33.7z M103,32.9
		L103,32.9L103,32.9c-0.3-0.5,0.1-1.2,0.7-1.5l0,0c0.5-0.3,1.2,0.1,1.5,0.7l0,0c0.3,0.5-0.1,1.2-0.7,1.5l0,0c-0.1,0-0.3,0.1-0.4,0.1
		l0,0C103.6,33.5,103.1,33.3,103,32.9z M12.8,29.3c-0.5-0.3-0.8-1-0.5-1.5l0,0c0.3-0.5,1-0.8,1.5-0.5l0,0c0.5,0.3,0.8,1,0.5,1.6l0,0
		c-0.3,0.4-0.7,0.7-1.1,0.7l0,0C13.1,29.5,13,29.5,12.8,29.3z M101.2,28.8c-0.3-0.5-0.1-1.2,0.5-1.5l0,0c0.5-0.3,1.2-0.1,1.5,0.5
		l0,0c0.3,0.5,0.1,1.2-0.5,1.5l0,0c-0.1,0.1-0.4,0.1-0.5,0.1l0,0C101.7,29.5,101.3,29.2,101.2,28.8z M14.9,25.2
		c-0.5-0.4-0.7-1.1-0.4-1.6l0,0c0.4-0.5,1.1-0.7,1.6-0.4l0,0c0.5,0.4,0.7,1.1,0.4,1.6l0,0l0,0l0,0c-0.3,0.4-0.5,0.5-1,0.5l0,0
		C15.3,25.5,15.1,25.4,14.9,25.2z M98.9,25c-0.4-0.5-0.3-1.2,0.3-1.6l0,0c0.5-0.4,1.2-0.3,1.6,0.3l0,0c0.4,0.5,0.3,1.2-0.3,1.6l0,0
		c-0.1,0.1-0.4,0.3-0.7,0.3l0,0C99.4,25.5,99,25.2,98.9,25z M96.2,21.4c-0.4-0.5-0.4-1.2,0.1-1.6l0,0c0.4-0.4,1.2-0.4,1.6,0.1l0,0
		c0.4,0.5,0.4,1.2-0.1,1.6l0,0c-0.3,0.3-0.5,0.3-0.8,0.3l0,0C96.7,21.9,96.3,21.7,96.2,21.4z M17.4,21.4c-0.5-0.4-0.5-1.1-0.1-1.6
		l0,0c0.4-0.5,1.1-0.5,1.6-0.1l0,0c0.5,0.4,0.5,1.1,0.1,1.6l0,0c-0.3,0.3-0.5,0.4-1,0.4l0,0C17.8,21.7,17.6,21.7,17.4,21.4z
		 M92.9,18.3c-0.5-0.4-0.5-1.1-0.1-1.6l0,0c0.4-0.5,1.1-0.5,1.6-0.1l0,0c0.5,0.4,0.5,1.1,0.1,1.6l0,0c-0.3,0.3-0.5,0.4-0.8,0.4l0,0
		C93.5,18.6,93.2,18.6,92.9,18.3z M20.4,17.9c-0.4-0.4-0.4-1.2,0-1.6l0,0c0.4-0.4,1.2-0.4,1.6,0l0,0c0.4,0.4,0.4,1.2,0,1.6l0,0
		c-0.3,0.3-0.5,0.3-0.8,0.3l0,0C21,18.3,20.6,18.2,20.4,17.9z M89.4,15.6c-0.5-0.4-0.7-1.1-0.3-1.6l0,0c0.4-0.5,1.1-0.7,1.6-0.3l0,0
		c0.5,0.4,0.7,1.1,0.3,1.6l0,0c-0.3,0.3-0.5,0.5-1,0.5l0,0C89.8,15.9,89.7,15.7,89.4,15.6z M23.8,14.9c-0.4-0.5-0.3-1.2,0.3-1.6l0,0
		c0.5-0.4,1.2-0.3,1.6,0.3l0,0c0.4,0.5,0.3,1.2-0.3,1.6l0,0c-0.3,0-0.5,0.1-0.8,0.1l0,0C24.4,15.3,24,15.2,23.8,14.9z M85.6,13.4
		c-0.5-0.3-0.8-1-0.5-1.5l0,0c0.3-0.5,1-0.8,1.5-0.5l0,0c0.5,0.3,0.8,0.9,0.5,1.5l0,0c-0.3,0.4-0.7,0.7-1.1,0.7l0,0
		C86,13.6,85.7,13.4,85.6,13.4z M27.5,12.2c-0.3-0.5-0.1-1.2,0.4-1.6l0,0c0.5-0.3,1.2-0.1,1.6,0.4l0,0c0.3,0.5,0.1,1.2-0.4,1.6l0,0
		c-0.1,0.1-0.4,0.1-0.5,0.1l0,0C28.2,12.8,27.8,12.6,27.5,12.2z M81.5,11.5c-0.5-0.3-0.8-1-0.7-1.5l0,0c0.3-0.5,1-0.8,1.5-0.7l0,0
		c0.5,0.3,0.8,1,0.7,1.5l0,0c-0.1,0.4-0.7,0.7-1.1,0.7l0,0C81.8,11.5,81.7,11.5,81.5,11.5z M31.6,10c-0.3-0.5,0-1.2,0.5-1.5l0,0
		c0.5-0.3,1.2,0,1.5,0.5l0,0c0.3,0.5,0,1.2-0.5,1.5l0,0l0,0l0,0c-0.1,0-0.3,0.1-0.4,0.1l0,0C32.1,10.7,31.7,10.5,31.6,10z M77.3,10
		c-0.5-0.1-1-0.8-0.8-1.5l0,0c0.1-0.5,0.8-1,1.5-0.8l0,0c0.5,0.1,1,0.8,0.8,1.5l0,0c-0.1,0.5-0.5,0.8-1.1,0.8l0,0
		C77.6,10,77.4,10,77.3,10z M35.8,8.4c-0.1-0.5,0.1-1.2,0.8-1.5l0,0c0.5-0.1,1.2,0.1,1.5,0.8l0,0c0.1,0.5-0.1,1.2-0.8,1.5l0,0
		c-0.1,0-0.3,0-0.4,0l0,0C36.4,9.1,35.9,8.8,35.8,8.4z M73,8.8L73,8.8L73,8.8c-0.7-0.1-1-0.8-0.8-1.4l0,0c0.1-0.7,0.8-1,1.4-0.8l0,0
		c0.7,0.1,1,0.8,0.8,1.4l0,0c-0.1,0.5-0.5,1-1.1,1l0,0C73.1,8.8,73.1,8.8,73,8.8z M40.2,7.1c-0.1-0.7,0.3-1.2,0.9-1.4l0,0
		c0.7-0.1,1.2,0.3,1.4,1l0,0c0.1,0.7-0.3,1.2-1,1.4l0,0c-0.1,0-0.1,0-0.3,0l0,0C40.8,8,40.2,7.6,40.2,7.1z M68.5,8
		c-0.7-0.1-1.1-0.7-1-1.4l0,0c0.1-0.7,0.7-1.1,1.4-1l0,0c0.7,0.1,1.1,0.7,1,1.4l0,0c-0.1,0.5-0.5,1-1.1,1l0,0C68.6,8,68.6,8,68.5,8z
		 M64,7.3c-0.7-0.1-1.1-0.7-1.1-1.2l0,0c0.1-0.7,0.7-1.1,1.2-1l0,0c0.7,0.1,1.1,0.7,1,1.2l0,0C65.2,6.9,64.7,7.3,64,7.3L64,7.3
		C64.1,7.3,64.1,7.3,64,7.3z M44.7,6.2c-0.1-0.7,0.4-1.2,1-1.2l0,0c0.7-0.1,1.2,0.4,1.2,0.9l0,0c0.1,0.7-0.3,1.2-1,1.2l0,0h-0.1l0,0
		C45.3,7.2,44.7,6.8,44.7,6.2z M59.5,6.9c-0.7,0-1.1-0.5-1.1-1.2l0,0c0-0.7,0.5-1.1,1.2-1.1l0,0c0.7,0,1.1,0.5,1.1,1.2l0,0
		C60.7,6.5,60.2,6.9,59.5,6.9L59.5,6.9L59.5,6.9z M49.2,5.8c0-0.7,0.4-1.2,1.1-1.2l0,0c0.7,0,1.2,0.4,1.2,1.1l0,0
		c0,0.7-0.4,1.2-1.1,1.2l0,0c0,0,0,0-0.1,0l0,0C49.7,6.9,49.3,6.4,49.2,5.8z M55,6.8c-0.7,0-1.1-0.5-1.1-1.2l0,0
		C53.8,5,54.4,4.5,55,4.5l0,0c0.7,0,1.1,0.5,1.1,1.2l0,0C56.1,6.2,55.6,6.8,55,6.8L55,6.8L55,6.8z"/>
</g>
<path class="st2" d="M57.8,38.7c2.7,0,5-2.2,5-5v-1.9c0-2.7-2.2-5-5-5c-2.7,0-5,2.2-5,5v1.9C52.7,36.5,55,38.7,57.8,38.7z
	 M54.9,31.8c0-1.6,1.4-3,3-3s3,1.4,3,3v1.9c0,1.6-1.4,3-3,3s-3-1.4-3-3V31.8z"/>
<g>
	<path class="st2" d="M75.4,38.7c2.7,0,5-2.3,5-5v-1.9c0-2.7-2.2-5-5-5c-2.7,0-5,2.2-5,5v1.9C70.4,36.5,72.6,38.7,75.4,38.7z
		 M72.4,31.8c0-1.6,1.4-3,3-3c1.6,0,3,1.4,3,3v1.9c0,1.6-1.4,3-3,3c-1.6,0-3-1.4-3-3V31.8z"/>
	<path class="st2" d="M81.9,42.8c-0.1-0.4-0.5-0.7-1-0.7H69v2h11.1l2,5.3l2.4-0.1L81.9,42.8z"/>
	<path class="st2" d="M34.3,42.8c0.1-0.4,0.5-0.7,1-0.7h11.7v2h-11l-4.5,12.2l3.7,3.1c0.3,0.1,0.3,0.4,0.4,0.7l2.3,11.4l-2,1.2
		l-2.3-11.9l-3.8-3.4c-0.3-0.3-0.4-0.7-0.3-1.2L34.3,42.8z"/>
	<path class="st2" d="M41.2,38.7c2.7,0,5-2.2,5-5v-1.9c0-2.7-2.2-5-5-5c-2.7,0-5,2.2-5,5v1.9C36.2,36.5,38.3,38.7,41.2,38.7z
		 M38.2,31.8c0-1.6,1.4-3,3-3s3,1.4,3,3v1.9c0,1.6-1.4,3-3,3s-3-1.4-3-3V31.8z"/>
	<path class="st2" d="M50.3,60.7l-4.1-3.3c-0.3-0.3-0.4-0.7-0.3-1.2l5-13.6c0.1-0.4,0.4-0.7,0.8-0.7l0,0h0.1h11.8h0.1l0,0
		c0.4,0,0.7,0.3,0.8,0.7l5,13.6c0.1,0.4,0,0.8-0.3,1.2l-4.1,3.3l-1,8.1l-2-1.6l1-7.2c0-0.3,0.1-0.5,0.4-0.7l3.8-3.1L63.1,44H52.7
		l-4.5,12.2l3.8,3.1"/>
	<g>
		<path class="st3" d="M87.5,56.6v0.1V56.6z"/>
		<path class="st2" d="M81.7,54.7l0.3,2.4l4.3-0.4L64.5,74.4l-11.7-7.5L34.9,77.8l1.4,2l16.6-9.9l11.8,7.5l22.5-18.3l-0.4,3.4
			l2.4,0.3l0.9-8.8L81.7,54.7z M87.5,56.6L87.5,56.6L87.5,56.6L87.5,56.6z"/>
	</g>
</g>
</svg>
