<?xml version="1.0" encoding="utf-8"?>
<!-- Generator: Adobe Illustrator 23.0.3, SVG Export Plug-In . SVG Version: 6.00 Build 0)  -->
<svg version="1.1" id="Livello_1" xmlns="http://www.w3.org/2000/svg" xmlns:xlink="http://www.w3.org/1999/xlink" x="0px" y="0px"
	 viewBox="0 0 83 78" style="enable-background:new 0 0 83 78;" xml:space="preserve">
<style type="text/css">
	.st0{fill:#2A3284;}
	.st1{fill:#FD6400;}
</style>
<g>
	<path class="st0" d="M40.1,73.5c0-0.5,0.4-0.9,0.8-0.9l0,0c0.5,0,0.9,0.4,0.9,0.8l0,0c0,0.5-0.4,0.9-0.8,0.9l0,0l0,0l0,0
		C40.5,74.3,40.1,73.9,40.1,73.5z M37.5,74.3c-0.5,0-0.8-0.4-0.8-0.9l0,0c0-0.5,0.4-0.8,0.9-0.8l0,0c0.5,0,0.8,0.4,0.8,0.9l0,0
		C38.4,73.9,38,74.3,37.5,74.3L37.5,74.3C37.6,74.3,37.5,74.3,37.5,74.3z M43.5,73.3c0-0.5,0.3-0.9,0.8-0.9l0,0
		c0.5,0,0.9,0.3,0.9,0.8l0,0c0,0.5-0.3,0.9-0.8,0.9l0,0c0,0,0,0-0.1,0l0,0C43.9,74.1,43.5,73.8,43.5,73.3z M34.1,74
		c-0.5,0-0.8-0.5-0.7-0.9l0,0c0-0.5,0.5-0.8,0.9-0.7l0,0l0,0l0,0c0.5,0,0.8,0.5,0.8,0.9l0,0C35,73.7,34.6,74,34.2,74l0,0
		C34.2,74,34.2,74,34.1,74z M46.8,73c-0.1-0.5,0.3-0.9,0.7-0.9l0,0c0.5,0,0.9,0.3,0.9,0.7l0,0c0.1,0.5-0.3,0.9-0.7,0.9l0,0h-0.1l0,0
		C47.2,73.8,46.9,73.4,46.8,73z M30.7,73.5c-0.5-0.1-0.8-0.5-0.7-1l0,0c0.1-0.5,0.5-0.8,1-0.7l0,0c0.5,0.1,0.8,0.5,0.7,1l0,0
		c-0.1,0.4-0.4,0.7-0.8,0.7l0,0C30.8,73.5,30.8,73.5,30.7,73.5z M50.2,72.6c-0.1-0.5,0.3-0.9,0.7-1l0,0c0.5-0.1,0.9,0.2,1,0.7l0,0
		c0.1,0.5-0.3,0.9-0.7,1l0,0h-0.1l0,0C50.6,73.3,50.2,73,50.2,72.6z M27.4,72.7c-0.4-0.1-0.7-0.6-0.6-1.1l0,0c0.1-0.4,0.6-0.7,1-0.6
		l0,0c0.4,0.1,0.7,0.6,0.6,1l0,0c-0.1,0.4-0.4,0.6-0.8,0.6l0,0C27.5,72.8,27.5,72.7,27.4,72.7z M53.5,72.1c-0.1-0.5,0.2-0.9,0.7-1
		l0,0c0.5-0.1,0.9,0.2,1,0.7l0,0c0.1,0.5-0.2,0.9-0.7,1l0,0c0,0-0.1,0-0.2,0l0,0C53.9,72.7,53.6,72.5,53.5,72.1z M56.8,71.4
		c-0.1-0.4,0.2-0.9,0.6-1l0,0c0.5-0.1,0.9,0.2,1,0.6l0,0c0.1,0.5-0.2,0.9-0.6,1l0,0c-0.1,0-0.1,0-0.2,0l0,0
		C57.2,72,56.9,71.8,56.8,71.4z M24.1,71.6c-0.4-0.2-0.6-0.7-0.5-1.1l0,0c0.2-0.4,0.7-0.6,1.1-0.5l0,0c0.4,0.2,0.6,0.7,0.4,1.1l0,0
		c-0.1,0.3-0.4,0.5-0.8,0.5l0,0C24.3,71.6,24.2,71.6,24.1,71.6z M60,70.5c-0.1-0.4,0.1-0.9,0.5-1l0,0l0,0l0,0
		c0.5-0.1,0.9,0.1,1.1,0.5l0,0c0.1,0.5-0.1,0.9-0.6,1.1l0,0c-0.1,0-0.2,0-0.3,0l0,0C60.5,71.1,60.2,70.9,60,70.5z M21,70.1
		c-0.4-0.2-0.6-0.7-0.3-1.1l0,0c0.2-0.4,0.7-0.6,1.1-0.3l0,0c0.4,0.2,0.5,0.7,0.3,1.1l0,0c-0.2,0.3-0.4,0.4-0.7,0.4l0,0
		C21.3,70.2,21.1,70.1,21,70.1z M63.2,69.5c-0.2-0.4,0-0.9,0.5-1.1l0,0c0.4-0.2,0.9,0,1.1,0.5l0,0c0.2,0.4,0,0.9-0.5,1.1l0,0
		c-0.1,0-0.2,0-0.3,0l0,0C63.7,70,63.4,69.8,63.2,69.5z M66.3,68.2c-0.2-0.4,0-0.9,0.4-1.1l0,0l0,0l0,0c0.4-0.2,0.9-0.1,1.1,0.4l0,0
		c0.2,0.4,0.1,0.9-0.4,1.1l0,0c-0.1,0.1-0.3,0.1-0.4,0.1l0,0C66.8,68.6,66.5,68.5,66.3,68.2z M18.1,68.2c-0.4-0.3-0.5-0.8-0.2-1.2
		l0,0c0.3-0.4,0.8-0.5,1.2-0.2l0,0c0.4,0.3,0.5,0.8,0.2,1.2l0,0c-0.2,0.2-0.4,0.4-0.7,0.4l0,0C18.4,68.4,18.2,68.3,18.1,68.2z
		 M69.3,66.5c-0.3-0.4-0.2-0.9,0.2-1.2l0,0c0.4-0.3,0.9-0.2,1.2,0.2l0,0c0.3,0.4,0.2,0.9-0.2,1.2l0,0c-0.1,0.1-0.3,0.2-0.5,0.2l0,0
		C69.7,66.9,69.4,66.8,69.3,66.5z M15.4,66L15.4,66c-0.3-0.3-0.4-0.9,0-1.2l0,0c0.3-0.3,0.9-0.4,1.2,0l0,0c0.3,0.3,0.4,0.9,0,1.2
		l0,0c-0.2,0.2-0.4,0.3-0.6,0.3l0,0C15.8,66.2,15.6,66.2,15.4,66z M72,64.5c-0.3-0.3-0.3-0.9,0-1.2l0,0c0.3-0.3,0.9-0.3,1.2,0l0,0
		c0.3,0.3,0.3,0.9,0,1.2l0,0c-0.2,0.2-0.4,0.2-0.6,0.2l0,0C72.3,64.8,72.1,64.7,72,64.5z M13,63.5c-0.3-0.4-0.3-0.9,0.1-1.2l0,0
		c0.4-0.3,0.9-0.3,1.2,0.1l0,0c0.3,0.4,0.3,0.9-0.1,1.2l0,0c-0.2,0.1-0.4,0.2-0.6,0.2l0,0C13.4,63.8,13.2,63.7,13,63.5z M74.3,62.1
		c-0.4-0.3-0.5-0.8-0.2-1.2l0,0c0.3-0.4,0.8-0.5,1.2-0.2l0,0c0.4,0.3,0.5,0.8,0.2,1.2l0,0c-0.2,0.2-0.4,0.3-0.7,0.3l0,0
		C74.6,62.3,74.5,62.2,74.3,62.1z M10.9,60.7c-0.3-0.4-0.2-0.9,0.2-1.2l0,0c0.4-0.3,0.9-0.1,1.2,0.2l0,0c0.3,0.4,0.1,0.9-0.2,1.2
		l0,0C12,61,11.8,61,11.6,61l0,0C11.3,61.1,11.1,61,10.9,60.7z M76.2,59.3c-0.4-0.2-0.6-0.7-0.4-1.1l0,0c0.2-0.4,0.7-0.6,1.1-0.4
		l0,0c0.4,0.2,0.6,0.7,0.4,1.1l0,0c-0.1,0.3-0.4,0.5-0.8,0.5l0,0C76.5,59.4,76.3,59.4,76.2,59.3z M9.1,57.8
		c-0.2-0.4-0.1-0.9,0.3-1.1l0,0c0.4-0.2,0.9-0.1,1.1,0.3l0,0c0.2,0.4,0.1,0.9-0.3,1.1l0,0c-0.1,0.1-0.3,0.1-0.4,0.1l0,0
		C9.6,58.2,9.3,58.1,9.1,57.8z M77.6,56.3c-0.4-0.2-0.7-0.6-0.5-1.1l0,0c0.2-0.4,0.6-0.7,1.1-0.5l0,0c0.4,0.1,0.7,0.6,0.5,1.1l0,0
		c-0.1,0.3-0.4,0.6-0.8,0.6l0,0C77.8,56.3,77.7,56.3,77.6,56.3z M7.6,54.7c0-0.1,0-0.1-0.1-0.2l0,0c0-0.1-0.1-0.1-0.1-0.2l0,0
		c-0.2-0.4,0-0.9,0.4-1.1l0,0c0.4-0.2,0.9,0,1.1,0.4l0,0c0,0.1,0,0.1,0,0.2l0,0L9,53.9l0,0c0.2,0.4,0,0.9-0.4,1.1l0,0
		c-0.1,0.1-0.2,0.1-0.4,0.1l0,0C8,55.2,7.7,55,7.6,54.7z M78.6,53.1c-0.5-0.1-0.7-0.5-0.6-1l0,0l0,0l0,0c0.1-0.5,0.5-0.8,1-0.6l0,0
		c0.5,0.1,0.7,0.6,0.6,1l0,0c-0.1,0.4-0.4,0.7-0.8,0.7l0,0C78.8,53.1,78.7,53.1,78.6,53.1z M6.2,51.2c-0.1-0.4,0.1-0.9,0.5-1.1l0,0
		c0.4-0.1,0.9,0.1,1.1,0.5l0,0c0.1,0.4-0.1,0.9-0.5,1.1l0,0c-0.1,0-0.2,0-0.3,0l0,0C6.6,51.8,6.3,51.5,6.2,51.2z M79.3,49.8
		c-0.5-0.1-0.8-0.5-0.8-0.9l0,0c0.1-0.5,0.5-0.8,0.9-0.7l0,0c0.5,0.1,0.8,0.5,0.7,0.9l0,0C80.2,49.5,79.8,49.8,79.3,49.8L79.3,49.8
		L79.3,49.8z M5.2,47.9c-0.1-0.5,0.2-0.9,0.6-1l0,0c0.5-0.1,0.9,0.2,1,0.6l0,0c0.1,0.4-0.2,0.9-0.6,1l0,0c-0.1,0-0.1,0-0.2,0l0,0
		C5.7,48.5,5.3,48.3,5.2,47.9z M79.6,46.4c-0.5,0-0.8-0.4-0.8-0.9l0,0c0-0.5,0.4-0.8,0.9-0.8l0,0c0.5,0,0.8,0.4,0.8,0.9l0,0
		C80.4,46.1,80.1,46.4,79.6,46.4L79.6,46.4L79.6,46.4z M4.6,44.5c-0.1-0.5,0.2-0.9,0.7-1l0,0c0.5-0.1,0.9,0.2,1,0.7l0,0
		c0.1,0.5-0.2,0.9-0.7,1l0,0H5.5l0,0C5,45.2,4.6,44.9,4.6,44.5z M78.8,42.2c0-0.5,0.4-0.9,0.8-0.9l0,0c0.5,0,0.9,0.4,0.9,0.8l0,0
		c0,0.5-0.4,0.9-0.8,0.9l0,0l0,0l0,0C79.2,43,78.8,42.7,78.8,42.2z M4.2,41c0-0.5,0.4-0.8,0.8-0.9l0,0c0.5,0,0.9,0.4,0.9,0.8l0,0
		c0,0.5-0.4,0.8-0.8,0.8l0,0l0,0l0,0C4.6,41.8,4.2,41.5,4.2,41z M78.6,38.9L78.6,38.9L78.6,38.9c0-0.5,0.3-0.9,0.8-0.9l0,0
		c0.5,0,0.9,0.3,0.9,0.8l0,0c0,0.5-0.3,0.9-0.8,0.9l0,0c0,0,0,0-0.1,0l0,0C79,39.7,78.7,39.3,78.6,38.9z M5.1,38.5
		c-0.5,0-0.8-0.4-0.8-0.9l0,0c0-0.5,0.4-0.8,0.9-0.8l0,0c0.5,0,0.8,0.4,0.8,0.9l0,0C5.9,38.1,5.5,38.5,5.1,38.5L5.1,38.5L5.1,38.5z
		 M78.3,35.6L78.3,35.6L78.3,35.6c0-0.5,0.3-0.9,0.8-0.9l0,0c0.5-0.1,0.9,0.3,0.9,0.8l0,0c0,0.5-0.3,0.9-0.8,0.9l0,0h-0.1l0,0
		C78.7,36.3,78.4,36,78.3,35.6z M5.2,35.1c-0.5,0-0.8-0.5-0.8-0.9l0,0c0.1-0.5,0.5-0.8,0.9-0.8l0,0c0.5,0,0.8,0.4,0.8,0.9l0,0
		C6.1,34.8,5.7,35.1,5.2,35.1L5.2,35.1C5.3,35.1,5.3,35.1,5.2,35.1z M77.9,32.3c-0.1-0.5,0.3-0.9,0.7-1l0,0c0.5-0.1,0.9,0.3,1,0.7
		l0,0c0.1,0.5-0.3,0.9-0.7,1l0,0h-0.1l0,0C78.3,33,77.9,32.7,77.9,32.3z M5.6,31.8c-0.5-0.1-0.8-0.5-0.7-1l0,0
		c0.1-0.5,0.5-0.8,1-0.7l0,0c0.5,0.1,0.8,0.5,0.7,1l0,0c-0.1,0.4-0.4,0.7-0.8,0.7l0,0C5.7,31.8,5.6,31.8,5.6,31.8z M77.3,29
		c-0.1-0.5,0.2-0.9,0.7-1l0,0c0.5-0.1,0.9,0.2,1,0.7l0,0c0.1,0.4-0.2,0.9-0.7,1l0,0c-0.1,0-0.1,0-0.2,0l0,0
		C77.8,29.7,77.4,29.4,77.3,29z M6.2,28.4c-0.5-0.1-0.7-0.6-0.6-1l0,0c0.1-0.5,0.6-0.7,1-0.6l0,0c0.4,0.1,0.7,0.5,0.6,1l0,0
		c-0.1,0.4-0.4,0.6-0.8,0.6l0,0C6.3,28.5,6.2,28.5,6.2,28.4z M76.6,25.8c-0.1-0.4,0.1-0.9,0.6-1l0,0c0.4-0.1,0.9,0.1,1,0.6l0,0
		c0.1,0.5-0.1,0.9-0.6,1l0,0c-0.1,0-0.1,0-0.2,0l0,0C77.1,26.4,76.7,26.1,76.6,25.8z M7,25.2c-0.4-0.1-0.7-0.6-0.6-1.1l0,0
		c0.1-0.4,0.6-0.7,1.1-0.6l0,0c0.4,0.1,0.7,0.6,0.6,1l0,0c-0.1,0.4-0.5,0.6-0.8,0.6l0,0C7.1,25.2,7,25.2,7,25.2z M75.6,22.6
		L75.6,22.6L75.6,22.6c-0.2-0.4,0.1-0.9,0.5-1.1l0,0c0.4-0.2,0.9,0.1,1.1,0.5l0,0c0.2,0.4-0.1,0.9-0.5,1.1l0,0
		c-0.1,0-0.2,0.1-0.3,0.1l0,0C76.1,23.2,75.8,23,75.6,22.6z M8,22c-0.4-0.2-0.7-0.7-0.5-1.1l0,0c0.2-0.4,0.7-0.6,1.1-0.5l0,0
		c0.4,0.2,0.7,0.7,0.5,1.1l0,0l0,0l0,0C9,21.8,8.7,22,8.3,22l0,0C8.2,22,8.1,22,8,22z M74.3,19.6c-0.2-0.4,0-0.9,0.4-1.1l0,0
		c0.4-0.2,0.9,0,1.1,0.4l0,0c0.2,0.4,0,0.9-0.4,1.1l0,0c-0.1,0.1-0.3,0.1-0.4,0.1l0,0C74.8,20.1,74.5,19.9,74.3,19.6z M9.3,18.9
		c-0.4-0.2-0.6-0.7-0.4-1.1l0,0c0.2-0.4,0.7-0.6,1.1-0.4l0,0c0.4,0.2,0.6,0.7,0.4,1.1l0,0C10.3,18.8,10,19,9.7,19l0,0
		C9.6,19,9.5,18.9,9.3,18.9z M72.7,16.8c-0.3-0.4-0.1-0.9,0.2-1.2l0,0c0.4-0.3,0.9-0.1,1.2,0.2l0,0c0.3,0.4,0.1,0.9-0.3,1.2l0,0
		c-0.1,0.1-0.3,0.1-0.5,0.1l0,0C73.1,17.2,72.9,17,72.7,16.8z M11,15.9c-0.4-0.3-0.5-0.8-0.2-1.2l0,0c0.3-0.4,0.8-0.5,1.2-0.2l0,0
		c0.4,0.3,0.5,0.8,0.2,1.2l0,0c-0.2,0.2-0.4,0.4-0.7,0.4l0,0C11.3,16.1,11.1,16,11,15.9z M70.7,14.2c-0.3-0.4-0.3-0.9,0.1-1.2l0,0
		c0.3-0.3,0.9-0.3,1.2,0.1l0,0c0.3,0.4,0.3,0.9-0.1,1.2l0,0c-0.2,0.1-0.4,0.2-0.6,0.2l0,0C71.1,14.5,70.9,14.4,70.7,14.2z
		 M12.9,13.2c-0.4-0.3-0.4-0.8-0.1-1.2l0,0c0.3-0.4,0.8-0.4,1.2-0.1l0,0c0.3,0.3,0.4,0.8,0.1,1.2l0,0c-0.2,0.2-0.4,0.3-0.6,0.3l0,0
		C13.3,13.4,13.1,13.3,12.9,13.2z M68.5,11.8c-0.4-0.3-0.4-0.8-0.1-1.2l0,0c0.3-0.3,0.8-0.4,1.2-0.1l0,0c0.3,0.3,0.4,0.8,0.1,1.2
		l0,0c-0.2,0.2-0.4,0.3-0.6,0.3l0,0C68.8,12.1,68.6,12,68.5,11.8z M15.2,10.7c-0.3-0.3-0.3-0.9,0.1-1.2l0,0c0.3-0.3,0.9-0.3,1.2,0
		l0,0c0.3,0.3,0.3,0.9-0.1,1.2l0,0c-0.2,0.1-0.4,0.2-0.6,0.2l0,0C15.5,10.9,15.3,10.8,15.2,10.7z M65.9,9.8
		c-0.4-0.3-0.5-0.8-0.2-1.2l0,0c0.3-0.4,0.8-0.5,1.2-0.2l0,0c0.4,0.3,0.5,0.8,0.2,1.2l0,0c-0.2,0.2-0.4,0.4-0.7,0.4l0,0
		C66.2,10,66,9.9,65.9,9.8z M17.7,8.5c-0.3-0.4-0.2-0.9,0.2-1.2l0,0c0.4-0.3,0.9-0.2,1.2,0.2l0,0c0.3,0.4,0.2,0.9-0.2,1.2l0,0
		c-0.1,0.1-0.3,0.1-0.5,0.1l0,0C18.1,8.8,17.9,8.7,17.7,8.5z M63.1,8.1c-0.4-0.2-0.6-0.7-0.3-1.1l0,0c0.2-0.4,0.7-0.6,1.1-0.3l0,0
		c0.4,0.2,0.6,0.7,0.3,1.2l0,0c-0.2,0.3-0.4,0.4-0.7,0.4l0,0C63.4,8.2,63.3,8.2,63.1,8.1z M20.5,6.6c-0.2-0.4-0.1-0.9,0.3-1.1l0,0
		c0.4-0.2,0.9-0.1,1.1,0.3l0,0c0.2,0.4,0.1,0.9-0.3,1.1l0,0C21.5,7,21.4,7,21.2,7l0,0C20.9,7,20.6,6.9,20.5,6.6z M60.2,6.7
		c-0.4-0.2-0.6-0.7-0.5-1.1l0,0c0.2-0.4,0.7-0.6,1.1-0.4l0,0c0.4,0.2,0.6,0.7,0.4,1.1l0,0c-0.1,0.3-0.4,0.5-0.8,0.5l0,0
		C60.4,6.8,60.3,6.7,60.2,6.7z M23.5,5.1c-0.2-0.4,0-0.9,0.5-1.1l0,0c0.4-0.2,0.9,0,1.1,0.5l0,0c0.2,0.4,0,0.9-0.5,1.1l0,0l0,0l0,0
		c-0.1,0-0.2,0.1-0.3,0.1l0,0C23.9,5.6,23.6,5.4,23.5,5.1z M57.1,5.5c-0.4-0.1-0.7-0.6-0.5-1.1l0,0c0.1-0.4,0.6-0.7,1.1-0.5l0,0
		C58,4.1,58.3,4.5,58.1,5l0,0c-0.1,0.4-0.5,0.6-0.8,0.6l0,0C57.3,5.6,57.2,5.6,57.1,5.5z M53.9,4.6c-0.4-0.1-0.7-0.6-0.6-1l0,0
		c0.1-0.5,0.6-0.7,1-0.6l0,0c0.5,0.1,0.7,0.6,0.6,1l0,0c-0.1,0.4-0.4,0.6-0.8,0.6l0,0C54,4.6,54,4.6,53.9,4.6z M26.6,3.9
		c-0.1-0.4,0.1-0.9,0.6-1l0,0c0.4-0.1,0.9,0.1,1,0.6l0,0c0.1,0.4-0.1,0.9-0.6,1l0,0c-0.1,0-0.1,0-0.2,0l0,0
		C27.1,4.5,26.8,4.3,26.6,3.9z M50.7,3.9c-0.5-0.1-0.8-0.5-0.7-1l0,0c0.1-0.5,0.5-0.8,1-0.7l0,0c0.5,0.1,0.8,0.5,0.7,1l0,0
		C51.6,3.7,51.2,4,50.7,3.9L50.7,3.9C50.8,4,50.7,4,50.7,3.9z M29.9,3c-0.1-0.5,0.2-0.9,0.7-1l0,0c0.5-0.1,0.9,0.2,1,0.7l0,0
		c0.1,0.5-0.2,0.9-0.7,1l0,0c0,0-0.1,0-0.2,0l0,0C30.3,3.7,30,3.5,29.9,3z M47.4,3.5c-0.5-0.1-0.8-0.5-0.7-0.9l0,0
		c0.1-0.5,0.5-0.8,0.9-0.7l0,0c0.5,0,0.8,0.5,0.7,0.9l0,0c-0.1,0.4-0.4,0.8-0.8,0.8l0,0C47.5,3.5,47.4,3.5,47.4,3.5z M33.2,2.5
		c0-0.5,0.3-0.9,0.8-0.9l0,0c0.5-0.1,0.9,0.3,0.9,0.8l0,0c0.1,0.5-0.3,0.9-0.7,0.9l0,0l0,0l0,0h-0.1l0,0C33.6,3.2,33.3,2.9,33.2,2.5
		z M44.1,3.1c-0.5,0-0.8-0.4-0.8-0.9l0,0c0-0.5,0.4-0.8,0.9-0.8l0,0c0.5,0,0.8,0.4,0.8,0.9l0,0C44.9,2.8,44.6,3.1,44.1,3.1L44.1,3.1
		L44.1,3.1z M36.6,2.2c0-0.5,0.4-0.9,0.8-0.9l0,0c0.5,0,0.9,0.3,0.9,0.8l0,0C38.3,2.6,38,3,37.5,3l0,0l0,0l0,0
		C37,3,36.6,2.6,36.6,2.2z M40.8,3C40.3,3,40,2.6,40,2.1l0,0c0-0.5,0.4-0.8,0.9-0.8l0,0c0.5,0,0.8,0.4,0.8,0.9l0,0
		C41.6,2.6,41.2,3,40.8,3L40.8,3L40.8,3z"/>
</g>
<g>
	<path class="st1" d="M44,4.3C25.9,4.3,11.2,19,11.2,37.1S25.9,69.9,44,69.9s32.8-14.7,32.8-32.8S62.1,4.3,44,4.3z M35.2,51.1
		c0,0.6-0.4,1-1,1h-5.5c-0.6,0-1-0.4-1-1V36.8c0-0.6,0.4-1,1-1h5.5c0.6,0,1,0.4,1,1V51.1z M46.9,51.1c0,0.6-0.4,1-1,1h-5.5
		c-0.6,0-1-0.4-1-1v-19c0-0.6,0.4-1,1-1h5.5c0.6,0,1,0.4,1,1V51.1z M61.2,30.3c-0.2,0.3-0.5,0.5-0.9,0.5h-1.8v20.3c0,0.6-0.4,1-1,1
		H52c-0.6,0-1-0.4-1-1V30.8h-1.8c-0.4,0-0.7-0.2-0.9-0.5s-0.2-0.7,0-1l5.5-9.1c0.2-0.3,0.5-0.5,0.9-0.5l0,0c0.4,0,0.7,0.2,0.9,0.5
		l5.5,9.1C61.4,29.6,61.4,30,61.2,30.3z"/>
	<rect x="41.4" y="33.1" class="st1" width="3.5" height="17"/>
	<rect x="29.8" y="37.8" class="st1" width="3.5" height="12.4"/>
	<path class="st1" d="M51.2,28.8h1c0.6,0,1,0.4,1,1v20.3h3.5V29.8c0-0.6,0.4-1,1-1h1L55,22.6L51.2,28.8z"/>
</g>
</svg>
