<?xml version="1.0" encoding="utf-8"?>
<!-- Generator: Adobe Illustrator 22.1.0, SVG Export Plug-In . SVG Version: 6.00 Build 0)  -->
<svg version="1.1" id="Livello_1" xmlns="http://www.w3.org/2000/svg" xmlns:xlink="http://www.w3.org/1999/xlink" x="0px" y="0px"
	 viewBox="0 0 88 86" style="enable-background:new 0 0 88 86;" xml:space="preserve">
<style type="text/css">
	.st0{fill:#90D1E3;}
	.st1{fill:#000099;}
	.st2{fill:#FFFFFF;}
</style>
<g>
	<circle class="st0" cx="45.5" cy="43.3" r="33.5"/>
	<g>
		<path class="st1" d="M44.8,78.6c0-0.5,0.4-0.8,0.8-0.8l0,0c0.5,0,0.9,0.4,0.9,0.8l0,0c0,0.5-0.4,0.8-0.8,0.8l0,0l0,0l0,0
			C45.1,79.5,44.8,79.1,44.8,78.6z M42.2,79.4c-0.5,0-0.8-0.4-0.8-0.9l0,0c0-0.5,0.4-0.8,0.9-0.8l0,0c0.5,0,0.8,0.4,0.8,0.9l0,0
			C43,79,42.7,79.4,42.2,79.4L42.2,79.4C42.2,79.4,42.2,79.4,42.2,79.4z M48.1,78.6c0-0.5,0.3-0.9,0.8-0.9l0,0
			c0.5,0,0.9,0.3,0.9,0.8l0,0c0,0.5-0.3,0.9-0.8,0.9l0,0c0,0,0,0-0.1,0l0,0C48.5,79.4,48.1,79,48.1,78.6z M51.4,78.3
			c-0.1-0.5,0.3-0.9,0.7-0.9l0,0c0.5,0,0.9,0.3,0.9,0.8l0,0c0,0.5-0.3,0.9-0.7,0.9l0,0c0,0-0.1,0-0.1,0l0,0
			C51.8,79.1,51.5,78.8,51.4,78.3z M38.8,79c-0.5-0.1-0.8-0.5-0.7-1l0,0c0.1-0.5,0.5-0.8,0.9-0.7l0,0c0.5,0.1,0.8,0.5,0.7,1l0,0
			c-0.1,0.4-0.4,0.7-0.8,0.7l0,0C38.8,79,38.8,79,38.8,79z M54.8,77.9c-0.1-0.5,0.2-0.9,0.7-1l0,0c0.5-0.1,0.9,0.2,1,0.7l0,0
			c0.1,0.5-0.2,0.9-0.7,1l0,0c0,0-0.1,0-0.1,0l0,0C55.2,78.6,54.8,78.3,54.8,77.9z M35.4,78.4c-0.5-0.1-0.7-0.6-0.6-1l0,0
			c0.1-0.4,0.6-0.7,1-0.6l0,0c0.5,0.1,0.7,0.5,0.6,1l0,0c-0.1,0.4-0.4,0.7-0.8,0.7l0,0C35.5,78.5,35.5,78.4,35.4,78.4z M58.1,77.3
			c-0.1-0.5,0.2-0.9,0.6-1l0,0c0.5-0.1,0.9,0.2,1,0.6l0,0c0.1,0.4-0.2,0.9-0.6,1l0,0c-0.1,0-0.1,0-0.2,0l0,0
			C58.5,77.9,58.2,77.7,58.1,77.3z M32.1,77.5c-0.4-0.1-0.7-0.6-0.5-1.1l0,0c0.1-0.4,0.6-0.7,1.1-0.5l0,0c0.4,0.1,0.7,0.6,0.5,1.1
			l0,0c-0.1,0.4-0.4,0.6-0.8,0.6l0,0C32.3,77.6,32.2,77.6,32.1,77.5z M61.4,76.4c-0.1-0.4,0.1-0.9,0.5-1.1l0,0
			c0.4-0.1,0.9,0.1,1.1,0.5l0,0c0.1,0.4-0.1,0.9-0.5,1.1l0,0c-0.1,0-0.2,0-0.3,0l0,0C61.8,77,61.5,76.8,61.4,76.4z M28.8,76.3
			L28.8,76.3c-0.4-0.2-0.6-0.7-0.4-1.1l0,0c0.2-0.4,0.7-0.6,1.1-0.5l0,0c0.4,0.2,0.6,0.7,0.4,1.1l0,0c-0.1,0.3-0.4,0.5-0.8,0.5l0,0
			C29.1,76.4,28.9,76.4,28.8,76.3z M64.5,75.3c-0.2-0.4,0-0.9,0.4-1.1l0,0c0.4-0.2,0.9,0,1.1,0.4l0,0c0.2,0.4,0,0.9-0.4,1.1l0,0
			c-0.1,0-0.2,0.1-0.3,0.1l0,0C65,75.8,64.7,75.7,64.5,75.3z M25.7,74.8c-0.4-0.2-0.6-0.7-0.3-1.1l0,0c0.2-0.4,0.7-0.6,1.1-0.3l0,0
			c0.4,0.2,0.6,0.7,0.3,1.1l0,0c-0.1,0.3-0.4,0.4-0.7,0.4l0,0C26,74.9,25.9,74.9,25.7,74.8z M67.6,73.9c-0.2-0.4-0.1-0.9,0.3-1.1
			l0,0l0,0l0,0c0.4-0.2,0.9-0.1,1.2,0.3l0,0c0.2,0.4,0.1,0.9-0.3,1.1l0,0c-0.1,0.1-0.3,0.1-0.4,0.1l0,0C68,74.4,67.8,74.2,67.6,73.9
			z M22.8,73c-0.4-0.3-0.5-0.8-0.2-1.2l0,0c0.3-0.4,0.8-0.5,1.2-0.2l0,0l0,0l0,0c0.4,0.3,0.5,0.8,0.2,1.2l0,0
			c-0.2,0.2-0.4,0.4-0.7,0.4l0,0C23.1,73.2,22.9,73.1,22.8,73z M70.5,72.2c-0.3-0.4-0.2-0.9,0.2-1.2l0,0l0,0l0,0
			c0.4-0.3,0.9-0.2,1.2,0.2l0,0c0.3,0.4,0.2,0.9-0.2,1.2l0,0c-0.1,0.1-0.3,0.2-0.5,0.2l0,0C70.9,72.5,70.7,72.4,70.5,72.2z
			 M20.1,70.9c-0.4-0.3-0.4-0.8-0.1-1.2l0,0c0.3-0.4,0.8-0.4,1.2-0.1l0,0c0.4,0.3,0.4,0.8,0.1,1.2l0,0c-0.2,0.2-0.4,0.3-0.6,0.3l0,0
			C20.4,71.1,20.2,71,20.1,70.9z M73.1,70.1c-0.3-0.3-0.3-0.9,0-1.2l0,0c0,0,0,0,0,0l0,0c0.3-0.3,0.9-0.3,1.2,0l0,0
			c0.3,0.3,0.3,0.9,0,1.2l0,0c-0.2,0.2-0.4,0.2-0.6,0.2l0,0C73.5,70.4,73.3,70.3,73.1,70.1z M17.6,68.5L17.6,68.5
			c-0.3-0.3-0.3-0.9,0-1.2l0,0c0.3-0.3,0.9-0.3,1.2,0l0,0c0.3,0.3,0.3,0.9,0,1.2l0,0c-0.2,0.2-0.4,0.2-0.6,0.2l0,0
			C18,68.8,17.8,68.7,17.6,68.5z M75.5,67.7c-0.4-0.3-0.4-0.8-0.1-1.2l0,0c0.3-0.4,0.8-0.4,1.2-0.2l0,0c0.4,0.3,0.4,0.8,0.1,1.2l0,0
			c-0.2,0.2-0.4,0.3-0.7,0.3l0,0C75.8,67.9,75.6,67.8,75.5,67.7z M15.3,65.9L15.3,65.9c-0.3-0.4-0.2-0.9,0.1-1.2l0,0
			c0.4-0.3,0.9-0.2,1.2,0.1l0,0l0,0l0,0c0.3,0.4,0.2,0.9-0.1,1.2l0,0c-0.2,0.1-0.3,0.2-0.5,0.2l0,0C15.8,66.2,15.5,66.1,15.3,65.9z
			 M77.4,65c-0.4-0.2-0.5-0.7-0.3-1.1l0,0c0.2-0.4,0.7-0.5,1.1-0.3l0,0c0.4,0.2,0.5,0.7,0.3,1.1l0,0c-0.1,0.3-0.4,0.4-0.7,0.4l0,0
			C77.7,65.1,77.6,65,77.4,65z M13.4,63.1c-0.3-0.4-0.1-0.9,0.3-1.2l0,0c0.4-0.3,0.9-0.1,1.2,0.3l0,0c0,0,0,0,0,0l0,0
			c0.3,0.4,0.1,0.9-0.3,1.2l0,0c-0.1,0.1-0.3,0.1-0.5,0.1l0,0C13.8,63.5,13.5,63.3,13.4,63.1z M79,62c-0.4-0.2-0.6-0.7-0.5-1.1l0,0
			c0.2-0.4,0.7-0.6,1.1-0.5l0,0c0.4,0.2,0.7,0.7,0.5,1.1l0,0c-0.1,0.3-0.4,0.5-0.8,0.5l0,0C79.2,62,79.1,62,79,62z M11.6,60.1
			c-0.2-0.4-0.1-0.9,0.4-1.1l0,0c0.4-0.2,0.9-0.1,1.1,0.4l0,0c0.2,0.4,0.1,0.9-0.4,1.1l0,0c-0.1,0.1-0.3,0.1-0.4,0.1l0,0
			C12.1,60.5,11.8,60.4,11.6,60.1z M80.1,58.8c-0.5-0.1-0.7-0.6-0.6-1l0,0c0.1-0.5,0.6-0.7,1-0.6l0,0c0.4,0.1,0.7,0.6,0.6,1l0,0
			c-0.1,0.4-0.4,0.6-0.8,0.6l0,0C80.3,58.8,80.2,58.8,80.1,58.8z M10.2,57c-0.2-0.4,0-0.9,0.4-1.1l0,0c0.4-0.2,0.9,0,1.1,0.4l0,0
			c0.2,0.4,0,0.9-0.4,1.1l0,0c-0.1,0-0.2,0.1-0.3,0.1l0,0C10.6,57.5,10.3,57.3,10.2,57z M80.9,55.5c-0.5-0.1-0.8-0.5-0.7-1l0,0
			c0.1-0.5,0.5-0.8,1-0.7l0,0c0.5,0.1,0.8,0.5,0.7,1l0,0c-0.1,0.4-0.4,0.7-0.8,0.7l0,0C81,55.5,80.9,55.5,80.9,55.5z M9,53.8
			c-0.1-0.4,0.1-0.9,0.5-1.1l0,0c0.4-0.1,0.9,0.1,1.1,0.5l0,0c0.1,0.4-0.1,0.9-0.5,1.1l0,0c-0.1,0-0.2,0-0.3,0l0,0
			C9.4,54.3,9.1,54.1,9,53.8z M81.3,52.2c-0.5,0-0.8-0.4-0.8-0.9l0,0c0-0.5,0.4-0.8,0.9-0.8l0,0c0.5,0,0.8,0.4,0.8,0.9l0,0
			C82.2,51.9,81.8,52.2,81.3,52.2L81.3,52.2C81.4,52.2,81.4,52.2,81.3,52.2z M8,50.5c-0.1-0.5,0.2-0.9,0.6-1l0,0
			c0.5-0.1,0.9,0.2,1,0.6l0,0c0.1,0.5-0.2,0.9-0.6,1l0,0c-0.1,0-0.1,0-0.2,0l0,0C8.4,51.1,8.1,50.9,8,50.5z M80.6,48
			c0-0.5,0.4-0.8,0.8-0.9l0,0c0.5,0,0.9,0.4,0.9,0.8l0,0c0,0.5-0.4,0.9-0.8,0.9l0,0h0l0,0C81,48.8,80.6,48.5,80.6,48z M80.6,48
			L80.6,48L80.6,48L80.6,48L80.6,48L80.6,48z M7.3,47.1c-0.1-0.5,0.2-0.9,0.7-1l0,0c0.5-0.1,0.9,0.2,1,0.7l0,0
			c0.1,0.5-0.2,0.9-0.7,1l0,0c0,0-0.1,0-0.1,0l0,0C7.7,47.8,7.3,47.5,7.3,47.1z M80.5,44.7L80.5,44.7L80.5,44.7
			c0-0.5,0.3-0.9,0.8-0.9l0,0c0.5,0,0.9,0.3,0.9,0.8l0,0c0,0.5-0.3,0.9-0.8,0.9l0,0c0,0-0.1,0-0.1,0l0,0
			C80.9,45.5,80.5,45.1,80.5,44.7z M6.8,43.7c-0.1-0.5,0.3-0.9,0.8-0.9l0,0c0.5-0.1,0.9,0.3,0.9,0.8l0,0c0,0.5-0.3,0.9-0.8,0.9l0,0
			c0,0-0.1,0-0.1,0l0,0C7.2,44.5,6.8,44.2,6.8,43.7z M80.1,41.4c-0.1-0.5,0.3-0.9,0.7-1l0,0c0.5-0.1,0.9,0.3,1,0.7l0,0
			c0.1,0.5-0.3,0.9-0.7,0.9l0,0c0,0-0.1,0-0.1,0l0,0C80.6,42.1,80.2,41.8,80.1,41.4z M6.5,40.3c0-0.5,0.4-0.9,0.8-0.9l0,0
			c0.5,0,0.9,0.3,0.9,0.8l0,0c0,0.5-0.4,0.9-0.8,0.9l0,0c0,0,0,0,0,0l0,0C6.9,41.1,6.6,40.8,6.5,40.3z M79.6,38.1
			c-0.1-0.5,0.2-0.9,0.7-1l0,0c0.5-0.1,0.9,0.2,1,0.7l0,0c0.1,0.5-0.2,0.9-0.7,1l0,0c0,0-0.1,0-0.2,0l0,0
			C80,38.8,79.7,38.5,79.6,38.1z M7.4,37.8c-0.5,0-0.8-0.4-0.8-0.9l0,0c0-0.5,0.4-0.8,0.9-0.8l0,0c0.5,0,0.8,0.4,0.8,0.9l0,0
			C8.2,37.4,7.8,37.8,7.4,37.8L7.4,37.8C7.4,37.8,7.4,37.8,7.4,37.8z M78.8,34.9c-0.1-0.4,0.1-0.9,0.6-1l0,0c0.4-0.1,0.9,0.1,1,0.6
			l0,0c0.1,0.4-0.1,0.9-0.6,1.1l0,0c-0.1,0-0.2,0-0.2,0l0,0C79.3,35.5,78.9,35.3,78.8,34.9z M7.6,34.4c-0.5-0.1-0.8-0.5-0.7-0.9l0,0
			c0.1-0.5,0.5-0.8,0.9-0.7l0,0c0.5,0.1,0.8,0.5,0.7,0.9l0,0C8.4,34.1,8.1,34.4,7.6,34.4L7.6,34.4C7.6,34.4,7.6,34.4,7.6,34.4z
			 M77.7,31.8c-0.2-0.4,0.1-0.9,0.5-1.1l0,0c0.4-0.2,0.9,0,1.1,0.5l0,0c0.2,0.4-0.1,0.9-0.5,1.1l0,0c-0.1,0-0.2,0-0.3,0l0,0
			C78.2,32.3,77.9,32.1,77.7,31.8z M8,31.1c-0.5-0.1-0.8-0.5-0.7-1l0,0c0.1-0.5,0.5-0.7,1-0.7l0,0c0.5,0.1,0.8,0.5,0.7,1l0,0l0,0
			l0,0c-0.1,0.4-0.4,0.7-0.8,0.7l0,0C8.1,31.1,8.1,31.1,8,31.1z M76.4,28.8L76.4,28.8L76.4,28.8c-0.2-0.4,0-0.9,0.4-1.1l0,0
			c0.4-0.2,0.9,0,1.1,0.4l0,0c0.2,0.4,0,0.9-0.4,1.1l0,0c-0.1,0-0.2,0.1-0.4,0.1l0,0C76.9,29.3,76.6,29.1,76.4,28.8z M8.8,27.8
			c-0.4-0.1-0.7-0.6-0.5-1.1l0,0c0.1-0.4,0.6-0.7,1.1-0.5l0,0c0.4,0.1,0.7,0.6,0.5,1.1l0,0c-0.1,0.4-0.4,0.6-0.8,0.6l0,0
			C8.9,27.8,8.9,27.8,8.8,27.8z M74.9,25.8L74.9,25.8L74.9,25.8c-0.2-0.4-0.1-0.9,0.3-1.1l0,0c0.4-0.2,0.9-0.1,1.1,0.3l0,0
			c0.2,0.4,0.1,0.9-0.3,1.1l0,0c-0.1,0.1-0.3,0.1-0.4,0.1l0,0C75.3,26.3,75,26.1,74.9,25.8z M9.9,24.6c-0.4-0.2-0.6-0.7-0.4-1.1l0,0
			c0.2-0.4,0.7-0.6,1.1-0.4l0,0c0.4,0.2,0.6,0.7,0.4,1.1l0,0c-0.1,0.3-0.4,0.5-0.8,0.5l0,0C10.1,24.7,10,24.6,9.9,24.6z M73.1,23.1
			c-0.3-0.4-0.2-0.9,0.2-1.2l0,0c0.4-0.3,0.9-0.2,1.2,0.2l0,0c0.3,0.4,0.2,0.9-0.2,1.2l0,0c-0.1,0.1-0.3,0.1-0.5,0.1l0,0
			C73.5,23.4,73.3,23.3,73.1,23.1z M11.4,21.6c-0.4-0.3-0.5-0.8-0.2-1.2l0,0c0.3-0.4,0.8-0.5,1.2-0.2l0,0c0.4,0.3,0.5,0.8,0.2,1.2
			l0,0c-0.2,0.2-0.4,0.4-0.7,0.4l0,0C11.7,21.7,11.5,21.7,11.4,21.6z M71.1,20.5c-0.3-0.4-0.3-0.9,0.1-1.2l0,0
			c0.4-0.3,0.9-0.3,1.2,0.1l0,0c0.3,0.4,0.3,0.9-0.1,1.2l0,0c-0.2,0.1-0.4,0.2-0.6,0.2l0,0C71.5,20.8,71.3,20.7,71.1,20.5z
			 M13.4,18.9c-0.3-0.3-0.3-0.9,0-1.2l0,0c0.3-0.3,0.9-0.3,1.2,0l0,0c0.3,0.3,0.3,0.9,0,1.2l0,0c-0.2,0.2-0.4,0.2-0.6,0.2l0,0
			C13.8,19.1,13.6,19.1,13.4,18.9z M68.9,18L68.9,18L68.9,18c-0.3-0.3-0.3-0.9,0-1.2l0,0c0.3-0.3,0.9-0.3,1.2,0l0,0
			c0.3,0.3,0.3,0.9,0,1.2l0,0c-0.2,0.2-0.4,0.3-0.6,0.3l0,0C69.2,18.3,69,18.2,68.9,18z M16,16.7c-0.3-0.4-0.1-0.9,0.3-1.2l0,0
			c0.4-0.3,0.9-0.1,1.2,0.3l0,0c0.3,0.4,0.1,0.9-0.3,1.2l0,0l0,0l0,0c-0.1,0.1-0.3,0.1-0.5,0.1l0,0C16.4,17.1,16.1,17,16,16.7z
			 M66.4,15.9C66,15.6,66,15,66.3,14.7l0,0c0.3-0.4,0.8-0.4,1.2-0.1l0,0c0.4,0.3,0.4,0.8,0.1,1.2l0,0c-0.2,0.2-0.4,0.3-0.6,0.3l0,0
			C66.8,16,66.6,16,66.4,15.9z M18.8,14.9c-0.2-0.4-0.1-0.9,0.3-1.1l0,0c0.4-0.2,0.9-0.1,1.2,0.3l0,0c0.2,0.4,0.1,0.9-0.3,1.2l0,0
			c-0.1,0.1-0.3,0.1-0.4,0.1l0,0C19.3,15.4,19,15.2,18.8,14.9z M63.8,13.9c-0.4-0.3-0.5-0.8-0.3-1.2l0,0c0.3-0.4,0.8-0.5,1.2-0.2
			l0,0c0.4,0.3,0.5,0.8,0.2,1.2l0,0c-0.2,0.3-0.4,0.4-0.7,0.4l0,0C64.1,14.1,63.9,14,63.8,13.9z M21.8,13.3c-0.2-0.4,0-0.9,0.4-1.1
			l0,0c0.4-0.2,0.9,0,1.1,0.4l0,0c0.2,0.4,0,0.9-0.4,1.1l0,0c-0.1,0.1-0.3,0.1-0.4,0.1l0,0C22.3,13.8,21.9,13.6,21.8,13.3z
			 M60.9,12.3c-0.4-0.2-0.6-0.7-0.4-1.1l0,0c0.2-0.4,0.7-0.6,1.1-0.4l0,0c0.4,0.2,0.6,0.7,0.4,1.1l0,0c-0.2,0.3-0.4,0.4-0.7,0.4l0,0
			C61.2,12.4,61,12.3,60.9,12.3z M24.8,11.8c-0.2-0.4,0-0.9,0.4-1.1l0,0c0.4-0.2,0.9,0,1.1,0.4l0,0c0.2,0.4,0,0.9-0.4,1.1l0,0
			c-0.1,0-0.2,0.1-0.3,0.1l0,0C25.3,12.3,25,12.1,24.8,11.8z M27.9,10.5c-0.2-0.4,0.1-0.9,0.5-1.1l0,0c0.4-0.2,0.9,0,1.1,0.5l0,0
			c0.2,0.4-0.1,0.9-0.5,1.1l0,0c-0.1,0-0.2,0.1-0.3,0.1l0,0C28.4,11,28.1,10.8,27.9,10.5z M57.9,10.9C57.9,10.9,57.9,10.9,57.9,10.9
			L57.9,10.9c-0.4-0.2-0.6-0.7-0.5-1.1l0,0c0.2-0.4,0.7-0.6,1.1-0.5l0,0C59,9.5,59.2,10,59,10.4l0,0c-0.1,0.3-0.5,0.5-0.8,0.5l0,0
			C58.2,11,58,10.9,57.9,10.9z M31.1,9.3c-0.1-0.4,0.1-0.9,0.5-1.1l0,0c0.4-0.1,0.9,0.1,1.1,0.5l0,0c0.1,0.4-0.1,0.9-0.5,1.1l0,0
			c-0.1,0-0.2,0.1-0.3,0.1l0,0C31.5,9.9,31.2,9.7,31.1,9.3z M54.8,9.8c-0.4-0.1-0.7-0.6-0.6-1.1l0,0c0.1-0.4,0.6-0.7,1.1-0.6l0,0
			c0.4,0.1,0.7,0.6,0.6,1l0,0c-0.1,0.4-0.4,0.6-0.8,0.6l0,0C55,9.8,54.9,9.8,54.8,9.8z M51.7,9c-0.5-0.1-0.8-0.5-0.7-1l0,0
			c0.1-0.5,0.5-0.8,1-0.7l0,0c0.5,0.1,0.8,0.5,0.6,1l0,0C52.6,8.7,52.2,9,51.8,9l0,0C51.8,9,51.7,9,51.7,9z M34.3,8.3
			c-0.1-0.5,0.2-0.9,0.6-1l0,0c0.4-0.1,0.9,0.2,1,0.6l0,0c0.1,0.5-0.2,0.9-0.6,1l0,0c0,0,0,0,0,0l0,0c-0.1,0-0.1,0-0.2,0l0,0
			C34.8,9,34.4,8.7,34.3,8.3z M48.4,8.5C48.4,8.5,48.4,8.5,48.4,8.5L48.4,8.5c-0.5-0.1-0.8-0.5-0.7-1l0,0c0.1-0.5,0.5-0.8,0.9-0.7
			l0,0c0.5,0,0.8,0.5,0.7,0.9l0,0c-0.1,0.4-0.4,0.7-0.8,0.7l0,0C48.5,8.5,48.4,8.5,48.4,8.5z M37.6,7.6c-0.1-0.5,0.3-0.9,0.7-0.9
			l0,0c0.5-0.1,0.9,0.3,1,0.7l0,0c0.1,0.5-0.3,0.9-0.7,1l0,0c0,0-0.1,0-0.1,0l0,0C38,8.3,37.7,8,37.6,7.6z M45.1,8.2
			c-0.5,0-0.8-0.4-0.8-0.9l0,0c0-0.5,0.4-0.8,0.9-0.8l0,0c0.5,0,0.8,0.4,0.8,0.9l0,0C46,7.8,45.6,8.2,45.1,8.2L45.1,8.2
			C45.1,8.2,45.1,8.2,45.1,8.2z M40.9,7.3c0-0.5,0.4-0.9,0.8-0.9l0,0c0.5,0,0.9,0.4,0.9,0.8l0,0c0,0.5-0.4,0.8-0.8,0.8l0,0
			c0,0,0,0,0,0l0,0C41.3,8.1,41,7.7,40.9,7.3z"/>
	</g>
	<g>
		<g>
			<path class="st2" d="M59.9,64.4h-2.6c-0.4,0-0.7-0.3-0.8-0.6l-0.8-3.1c-0.1-0.3,0-0.5,0.1-0.7s0.4-0.3,0.7-0.3h4.3
				c0.3,0,0.5,0.1,0.7,0.3c0.2,0.2,0.2,0.5,0.1,0.7l-0.8,3.1C60.6,64.1,60.2,64.4,59.9,64.4z M57.9,62.7h1.4l0.4-1.4h-2.1L57.9,62.7
				z M42.8,58.5h-1.7v-9.6c0,0,0,0,0,0h-5.7c0,0,0,0,0,0v9.6h-1.7v-9.6c0-1,0.6-1.7,1.5-1.7h6.2c0.8,0,1.5,0.7,1.5,1.7V58.5z
				 M31,58.5h-1.7V26.3c0-1.8,1.3-3.3,2.8-3.3h19.4c1.5,0,2.8,1.5,2.8,3.3v10.7h-1.7V26.3c0-0.9-0.5-1.6-1.1-1.6H32.1
				c-0.6,0-1.1,0.7-1.1,1.6V58.5z M61.5,57.9h-1.7v-2.5c0-0.3,0.2-0.7,0.5-0.8c0.2-0.1,0.4-0.2,0.6-0.3c1.7-0.9,2.7-2.6,2.7-4.5
				c0-2.8-2.3-5.1-5.1-5.1c-2.8,0-5.1,2.3-5.1,5.1c0,1.9,1,3.6,2.7,4.5c0.2,0.1,0.4,0.2,0.6,0.3c0.3,0.1,0.5,0.4,0.5,0.8v2.5h-1.7
				V56c-0.1,0-0.2-0.1-0.2-0.1c-2.2-1.2-3.6-3.5-3.6-5.9c0-3.7,3-6.8,6.8-6.8c3.7,0,6.8,3,6.8,6.8c0,2.5-1.4,4.8-3.6,6
				c-0.1,0-0.2,0.1-0.2,0.1V57.9z M48.1,43.8h-3.6c-0.8,0-1.5-0.7-1.5-1.5v-3.6c0-0.8,0.7-1.5,1.5-1.5h3.6c0.8,0,1.5,0.7,1.5,1.5
				v3.6C49.7,43.1,49,43.8,48.1,43.8z M44.7,42.1H48v-3.3h-3.3V42.1z M38.9,43.8h-3.6c-0.8,0-1.5-0.7-1.5-1.5v-3.6
				c0-0.8,0.7-1.5,1.5-1.5h3.6c0.8,0,1.5,0.7,1.5,1.5v3.6C40.4,43.1,39.7,43.8,38.9,43.8z M35.4,42.1h3.3v-3.3h-3.3V42.1z
				 M48.1,34.5h-3.6c-0.8,0-1.5-0.7-1.5-1.5v-3.6c0-0.8,0.7-1.5,1.5-1.5h3.6c0.8,0,1.5,0.7,1.5,1.5V33C49.7,33.9,49,34.5,48.1,34.5z
				 M44.7,32.9H48v-3.3h-3.3V32.9z M38.9,34.5h-3.6c-0.8,0-1.5-0.7-1.5-1.5v-3.6c0-0.8,0.7-1.5,1.5-1.5h3.6c0.8,0,1.5,0.7,1.5,1.5
				V33C40.4,33.9,39.7,34.5,38.9,34.5z M35.4,32.9h3.3v-3.3h-3.3V32.9z"/>
		</g>
	</g>
</g>
</svg>
